<svg width="81" height="91" viewBox="0 0 81 91" fill="none" xmlns="http://www.w3.org/2000/svg">
<g id="Group 70">
<path id="Vector" d="M50.5465 61.09C50.5465 66.2111 50.5465 71.3439 50.5465 76.4767C50.4399 79.5238 49.2566 82.4345 47.2069 84.6917C45.1572 86.949 42.3738 88.4066 39.3511 88.8057C36.3284 89.2048 33.262 88.5195 30.6967 86.8716C28.1314 85.2237 26.2333 82.7199 25.3395 79.8049C25.0348 78.9363 25.0348 77.9899 25.3395 77.1213C25.9945 74.9788 27.275 73.0809 29.0164 71.6715C30.7579 70.262 32.881 69.4052 35.1129 69.2111C35.5373 69.1643 35.9659 69.2459 36.3434 69.4455C37.8686 70.1225 39.4967 70.5385 41.1598 70.6759C42.6598 70.84 43.5035 70.4181 43.5035 69.5041C43.5035 68.59 42.9762 68.0158 41.3942 67.9338C39.2755 67.8155 37.2382 67.0779 35.5348 65.8127C34.2665 64.9255 33.1955 63.7856 32.3888 62.4647C31.5821 61.1438 31.0573 59.6703 30.8473 58.1369C30.7979 57.6505 30.8959 57.1606 31.1285 56.7306C32.0177 54.8601 32.3161 52.7632 31.984 50.7189C31.8317 49.8634 31.4215 49.3127 30.5192 49.3361C29.6168 49.3595 29.277 50.0041 29.3473 51.0353C29.4772 52.4362 29.2971 53.8485 28.8199 55.172C28.3993 56.2438 27.7426 57.207 26.8986 57.9901C26.0547 58.7732 25.0451 59.3561 23.9449 59.6955C23.6278 59.773 23.3149 59.8669 23.0074 59.9767C22.6902 60.0722 22.422 60.2862 22.2583 60.5742C22.0947 60.8622 22.0482 61.2022 22.1285 61.5236C22.1456 61.69 22.1981 61.8508 22.2824 61.9952C22.3668 62.1396 22.481 62.2643 22.6176 62.3609C22.7541 62.4574 22.9098 62.5237 23.074 62.5551C23.2383 62.5866 23.4074 62.5825 23.5699 62.5431C25.0415 62.3499 26.4361 61.7718 27.6129 60.8673C28.2691 60.4103 28.5621 60.3752 28.7848 61.2189C29.4005 63.0925 30.4253 64.8058 31.7848 66.2345C32.2184 66.7033 32.2184 66.9494 31.5621 67.172C29.5977 67.8184 27.8048 68.9003 26.3173 70.337C24.8299 71.7738 23.6864 73.5281 22.9723 75.4689C22.8782 75.7022 22.7162 75.9019 22.5072 76.0419C22.2982 76.1819 22.052 76.2558 21.8004 76.2541C18.5398 76.4704 15.3167 75.4549 12.769 73.4085C10.2213 71.3621 8.53456 68.4339 8.0426 65.2033C7.66021 62.6728 8.06953 60.0859 9.21448 57.797C9.60119 57.047 9.34337 56.8947 8.68712 56.6252C6.05742 55.7527 3.78586 54.043 2.21981 51.7574C0.653762 49.4718 -0.120566 46.7362 0.0152499 43.9689C0.0747001 41.7134 0.743312 39.5161 1.95023 37.6098C3.15715 35.7035 4.85741 34.1592 6.87073 33.1408C7.07061 32.9994 7.31225 32.9295 7.55673 32.9423C7.80121 32.955 8.03428 33.0497 8.21838 33.2111C10.4913 34.8368 13.1849 35.7726 15.9762 35.9064C17.0543 35.9767 17.7692 35.4963 17.816 34.6173C17.8629 33.7384 17.3004 33.1525 16.1637 33.1291C13.697 33.0677 11.315 32.2175 9.36683 30.7033C8.90912 30.3942 8.53269 29.9793 8.26952 29.4938C8.00635 29.0083 7.8642 28.4664 7.8551 27.9142C7.76504 26.2218 8.0096 24.5283 8.57479 22.9305C9.13997 21.3327 10.0147 19.8621 11.1488 18.6027C12.283 17.3433 13.6544 16.32 15.1845 15.5912C16.7146 14.8625 18.3734 14.4426 20.066 14.3556C21.4374 14.2614 22.8149 14.392 24.1442 14.7423C24.7184 14.9298 24.9176 14.7423 24.8356 14.1564C24.481 10.8198 25.45 7.47736 27.534 4.84766C29.618 2.21797 32.6508 0.511053 35.9801 0.0939113C39.3455 -0.312417 42.7368 0.609896 45.4328 2.66478C48.1289 4.71966 49.9172 7.74506 50.4176 11.0978C50.5465 12.0689 50.6053 13.048 50.5934 14.0275C50.5934 22.4338 50.5934 30.8322 50.5934 39.2228C50.5934 40.7931 50.5934 40.84 49.0113 40.7697C47.4792 40.7557 45.9841 40.2976 44.707 39.4511C43.4299 38.6046 42.4256 37.4058 41.816 36.0002C41.6892 35.7775 41.639 35.5194 41.6728 35.2654C41.7067 35.0115 41.8228 34.7756 42.0035 34.5939C43.519 32.8157 44.4373 30.6061 44.6285 28.2775C44.6728 28.0896 44.6769 27.8945 44.6405 27.7049C44.6042 27.5153 44.5282 27.3356 44.4176 27.1774C44.3069 27.0192 44.1642 26.8861 43.9986 26.7869C43.833 26.6877 43.6483 26.6246 43.4567 26.6017C42.6246 26.4845 42.0973 26.8947 41.8864 27.7736C41.8486 27.9318 41.8212 28.0923 41.8043 28.2541C41.6736 29.6115 41.2065 30.9149 40.4454 32.0464C39.6842 33.1779 38.653 34.1018 37.4449 34.7345C36.0708 35.4368 34.5466 35.7947 33.0035 35.7775C32.6523 35.7775 32.3155 35.917 32.0671 36.1654C31.8188 36.4137 31.6793 36.7505 31.6793 37.1017C31.6793 37.4529 31.8188 37.7897 32.0671 38.0381C32.3155 38.2864 32.6523 38.4259 33.0035 38.4259H33.4957C35.168 38.4696 36.8256 38.1035 38.3238 37.3595C38.9449 37.0548 39.2848 37.1017 39.6481 37.7345C40.5703 39.5655 41.997 41.0945 43.7599 42.141C45.5228 43.1875 47.5483 43.7079 49.5973 43.6408C50.4293 43.6408 50.5465 44.0158 50.5465 44.7189C50.5465 50.1681 50.5465 55.6291 50.5465 61.1252V61.09Z" fill="url(#paint0_linear_226_8)"/>
<path id="Vector_2" d="M62.2894 37.301C59.6527 37.301 57.0043 37.301 54.3558 37.301C53.5824 37.301 53.3246 37.0549 53.3363 36.2815C53.3949 33.8791 53.1254 34.219 55.3402 34.2073H68.9691C69.6897 34.2565 70.4111 34.1235 71.0668 33.8205C71.6772 33.3503 72.1253 32.7009 72.348 31.9633C72.5708 31.2256 72.5571 30.4368 72.309 29.7073C72.1215 29.3674 71.7348 29.2971 71.4301 29.133C70.1562 28.5037 69.1544 27.433 68.6112 26.1201C68.0679 24.8073 68.0202 23.3417 68.4769 21.9963C68.9112 20.629 69.8238 19.464 71.0473 18.7149C72.2709 17.9658 73.7234 17.6828 75.1387 17.9177C76.5539 18.1526 77.8372 18.8898 78.753 19.994C79.6689 21.0983 80.1561 22.4956 80.1254 23.9299C80.1591 25.048 79.8566 26.1505 79.257 27.0948C78.6574 28.0391 77.7883 28.7817 76.7621 29.2268C76.3724 29.3551 76.0408 29.6175 75.8262 29.9672C75.6117 30.3169 75.528 30.7314 75.5902 31.1369C75.6856 32.5031 75.2994 33.8595 74.4988 34.9706C73.6981 36.0817 72.5336 36.8772 71.2074 37.219C70.563 37.3434 69.9055 37.3868 69.2504 37.3479L62.2894 37.301Z" fill="url(#paint1_linear_226_8)"/>
<path id="Vector_3" d="M62.395 60.8674C64.8559 60.8674 67.3052 60.8674 69.7544 60.8674C70.5168 60.8421 71.2765 60.971 71.988 61.2462C72.6995 61.5214 73.3482 61.9373 73.8952 62.469C74.4422 63.0007 74.8764 63.6373 75.1716 64.3407C75.4669 65.0441 75.6173 65.7998 75.6137 66.5627C75.6372 66.7925 75.6372 67.0242 75.6137 67.2541C75.4966 68.0744 75.8247 68.508 76.6098 68.8713C77.3964 69.2057 78.1004 69.7082 78.6723 70.3435C79.2441 70.9789 79.67 71.7316 79.9202 72.549C80.1703 73.3663 80.2385 74.2285 80.1201 75.0751C80.0018 75.9216 79.6996 76.732 79.2348 77.4494C78.5838 78.4788 77.6366 79.2872 76.5176 79.7683C75.3986 80.2493 74.1603 80.3806 72.9653 80.1447C71.8056 79.8941 70.7443 79.3104 69.9117 78.4652C69.079 77.62 68.5111 76.5502 68.2778 75.3869C68.0123 74.1781 68.1546 72.9154 68.6825 71.796C69.2104 70.6766 70.0942 69.7635 71.1958 69.1994C72.7309 68.4963 72.3676 67.383 72.3676 66.2697C72.3306 65.7617 72.1338 65.2784 71.8055 64.889C71.4771 64.4996 71.034 64.224 70.5395 64.1017C70.0312 63.9695 69.5052 63.9181 68.9809 63.9494H54.684C53.3715 63.9494 53.3598 63.9494 53.3715 62.6603C53.3715 60.6799 53.2075 60.8791 55.1645 60.8674H62.395Z" fill="url(#paint2_linear_226_8)"/>
<path id="Vector_4" d="M60.9293 47.4377C62.9801 47.4377 65.0425 47.4377 67.0933 47.4377C67.4455 47.4699 67.7981 47.3805 68.0924 47.1843C68.3867 46.9881 68.6048 46.697 68.7105 46.3595C69.3081 45.1527 70.3032 44.1886 71.5283 43.6294C72.7534 43.0702 74.1338 42.9501 75.4371 43.2892C76.7351 43.6059 77.8893 44.3491 78.7145 45.3999C79.5398 46.4507 79.9883 47.7481 79.9883 49.0841C79.9883 50.4202 79.5398 51.7176 78.7145 52.7684C77.8893 53.8192 76.7351 54.5624 75.4371 54.8791C74.1278 55.216 72.7419 55.0841 71.5196 54.5061C70.2974 53.9282 69.316 52.9408 68.7457 51.715C68.624 51.3548 68.3811 51.048 68.0583 50.8471C67.7356 50.6462 67.353 50.5636 66.9761 50.6134C62.898 50.6134 58.773 50.6134 54.7301 50.6134C53.4058 50.6134 53.3941 50.6134 53.4058 49.3361C53.4058 47.4377 53.0543 47.4142 55.2925 47.4142L60.9293 47.4377Z" fill="url(#paint3_linear_226_8)"/>
<path id="Vector_5" d="M56.9338 23.5665C55.8439 23.5665 55.0236 23.5665 54.2033 23.5665C53.5705 23.5665 53.3361 23.3087 53.3479 22.6876C53.3479 20.0861 53.0431 20.3439 55.5158 20.3439C56.5939 20.3439 57.6721 20.3439 58.7502 20.3439C59.379 20.3386 59.9819 20.0928 60.4352 19.657C60.8885 19.2211 61.1578 18.6283 61.1877 18.0001C61.1877 17.7423 61.1877 17.4728 61.1877 17.215C61.2747 16.8041 61.2019 16.3755 60.9842 16.0164C60.7666 15.6572 60.4203 15.3944 60.0158 15.2814C58.8411 14.6556 57.9144 13.6486 57.3883 12.426C56.8622 11.2034 56.768 9.83809 57.1213 8.55483C57.4625 7.25743 58.2311 6.11294 59.303 5.30621C60.3748 4.49948 61.6873 4.07763 63.0285 4.10879C64.3696 4.13995 65.6611 4.6223 66.6944 5.47793C67.7276 6.33356 68.4422 7.51252 68.7228 8.82436C69.0158 10.1236 68.8575 11.4839 68.2738 12.6811C67.6901 13.8783 66.7159 14.8409 65.5119 15.4103C65.1233 15.5513 64.7949 15.8214 64.5816 16.1755C64.3683 16.5296 64.283 16.9462 64.34 17.3556C64.4333 18.7716 64.0096 20.1734 63.1475 21.3006C62.2854 22.4278 61.0435 23.2038 59.6525 23.4845C58.7493 23.576 57.8408 23.6034 56.9338 23.5665Z" fill="url(#paint4_linear_226_8)"/>
<path id="Vector_6" d="M55.5391 70.6993C56.3969 70.6064 57.2646 70.7072 58.0783 70.9944C58.8919 71.2815 59.6307 71.7476 60.2403 72.3582C60.8499 72.9689 61.3146 73.7086 61.6002 74.5228C61.8858 75.337 61.9851 76.2049 61.8906 77.0625C61.8271 77.4244 61.8997 77.797 62.0945 78.1085C62.2892 78.42 62.5922 78.6485 62.9453 78.7501C63.8553 79.1757 64.6421 79.8255 65.2321 80.6386C65.8221 81.4516 66.1958 82.4012 66.3183 83.3983C66.4407 84.3954 66.3079 85.4072 65.9322 86.3389C65.5565 87.2705 64.9502 88.0915 64.1703 88.7246C63.3905 89.3578 62.4625 89.7825 61.4735 89.9588C60.4845 90.1351 59.467 90.0573 58.5164 89.7326C57.5657 89.4079 56.7131 88.847 56.0386 88.1026C55.3641 87.3582 54.8898 86.4546 54.6602 85.4766C54.3497 84.2263 54.4714 82.9078 55.0054 81.7354C55.5395 80.5631 56.4544 79.6059 57.6015 79.0196C59.1367 78.2813 58.6562 77.1094 58.6328 76.0313C58.5935 75.5368 58.3936 75.0688 58.0636 74.6985C57.7335 74.3283 57.2914 74.0761 56.8047 73.9805C55.9402 73.8148 55.0581 73.7597 54.1797 73.8165C53.6055 73.8165 53.3125 73.6055 53.3594 73.0079V72.9141C53.3711 70.2422 53.1133 70.7461 55.5391 70.6993Z" fill="url(#paint5_linear_226_8)"/>
</g>
<defs>
<linearGradient id="paint0_linear_226_8" x1="25.2974" y1="0" x2="25.2974" y2="88.9166" gradientUnits="userSpaceOnUse">
<stop stop-color="#FFC402"/>
<stop offset="1" stop-color="#F18200"/>
</linearGradient>
<linearGradient id="paint1_linear_226_8" x1="66.7319" y1="17.8372" x2="66.7319" y2="37.3617" gradientUnits="userSpaceOnUse">
<stop stop-color="#FFC402"/>
<stop offset="1" stop-color="#F18200"/>
</linearGradient>
<linearGradient id="paint2_linear_226_8" x1="66.7724" y1="60.8643" x2="66.7724" y2="80.2589" gradientUnits="userSpaceOnUse">
<stop stop-color="#FFC402"/>
<stop offset="1" stop-color="#F18200"/>
</linearGradient>
<linearGradient id="paint3_linear_226_8" x1="66.687" y1="43.1003" x2="66.687" y2="55.0617" gradientUnits="userSpaceOnUse">
<stop stop-color="#FFC402"/>
<stop offset="1" stop-color="#F18200"/>
</linearGradient>
<linearGradient id="paint4_linear_226_8" x1="61.1012" y1="4.10718" x2="61.1012" y2="23.5824" gradientUnits="userSpaceOnUse">
<stop stop-color="#FFC402"/>
<stop offset="1" stop-color="#F18200"/>
</linearGradient>
<linearGradient id="paint5_linear_226_8" x1="59.8585" y1="70.6658" x2="59.8585" y2="90.0508" gradientUnits="userSpaceOnUse">
<stop stop-color="#FFC402"/>
<stop offset="1" stop-color="#F18200"/>
</linearGradient>
</defs>
</svg>
