<svg width="83" height="90" viewBox="0 0 83 90" fill="none" xmlns="http://www.w3.org/2000/svg">
<path id="Vector" d="M42.9691 89.9712H39.8042C39.6905 89.9712 39.5863 89.8859 39.4726 89.8575C35.6823 88.7394 33.5218 86.2188 33.1712 82.277C33.0678 80.641 33.466 79.0125 34.3125 77.6089C35.1591 76.2052 36.4138 75.0933 37.9091 74.4216C38.1261 74.3345 38.309 74.1794 38.4303 73.9795C38.5517 73.7796 38.6048 73.5457 38.5819 73.313C38.5819 68.632 38.5819 63.951 38.5819 59.27C38.5819 58.6446 38.345 58.3224 37.7006 58.3224C33.8661 58.3224 30.0316 58.3224 26.1971 58.3224C25.5433 58.3224 25.3159 58.5878 25.3254 59.2132C25.3254 60.7956 25.3917 62.378 25.3254 63.951C25.2715 64.3613 25.3583 64.7778 25.5718 65.1323C25.7852 65.4869 26.1125 65.7586 26.5004 65.903C27.9567 66.6288 29.1477 67.7946 29.9045 69.2351C30.6613 70.6756 30.9456 72.3178 30.717 73.9289C30.6427 75.4046 30.1434 76.8275 29.2794 78.0261C28.4153 79.2247 27.2232 80.1481 25.8465 80.685C24.4292 81.3576 22.8415 81.5854 21.2923 81.3385C19.743 81.0916 18.3048 80.3815 17.1668 79.3016C16.1552 78.4146 15.3792 77.2907 14.9083 76.0303C14.4374 74.77 14.2863 73.4127 14.4684 72.0796C14.6505 70.7466 15.1602 69.4795 15.9519 68.3917C16.7436 67.3039 17.7926 66.4293 19.0051 65.8461C19.2997 65.7562 19.5545 65.5678 19.727 65.3126C19.8995 65.0573 19.9791 64.7506 19.9527 64.4437C19.9053 62.776 19.9053 61.1083 19.9527 59.4406C19.9527 58.692 19.7253 58.3603 18.9482 58.4077C17.7471 58.4855 16.541 58.4155 15.357 58.1993C8.32601 56.9106 3.36075 52.9782 1.06764 46.1841C-1.22548 39.39 0.195877 33.2214 5.13271 27.9908C8.28898 24.6462 12.6371 22.6815 17.2331 22.5233C17.9438 22.5233 18.1807 22.2296 18.1807 21.5189C18.1941 20.7406 18.2669 19.9645 18.3987 19.1974C19.0918 14.2718 21.4114 9.71932 24.9888 6.26336C28.5662 2.8074 33.196 0.646305 38.1425 0.123556C43.089 -0.399193 48.0684 0.746397 52.2891 3.37825C56.5098 6.01011 59.7298 9.97721 61.4372 14.649C61.5885 15.355 61.9801 15.9865 62.5452 16.4358C63.1103 16.8851 63.8139 17.1244 64.5357 17.1127C69.4097 17.6921 73.9164 19.9934 77.2434 23.602C80.5705 27.2105 82.4991 31.8888 82.6817 36.7937C82.8665 40.3403 82.1197 43.8736 80.5155 47.0421C78.9113 50.2106 76.5056 52.9039 73.5376 54.8543C70.7365 56.8157 67.4685 58.0053 64.062 58.3035C62.9343 58.4172 62.868 58.5025 62.8585 59.668C62.8585 61.1841 62.8585 62.7097 62.8585 64.2258C62.8064 64.5942 62.8812 64.9695 63.0707 65.2898C63.2601 65.6101 63.5529 65.8564 63.9009 65.9883C65.601 66.8526 66.9411 68.2897 67.6849 70.046C68.4286 71.8022 68.5281 73.7647 67.9659 75.5871C67.4425 77.336 66.3502 78.8601 64.8623 79.9178C63.3743 80.9754 61.5758 81.5061 59.7521 81.4255C57.9283 81.345 56.1836 80.658 54.7946 79.4733C53.4057 78.2886 52.4519 76.6742 52.0847 74.8859C51.7122 73.0938 51.9524 71.2284 52.7669 69.5892C53.5814 67.9499 54.9229 66.6317 56.5762 65.8461C56.8326 65.7484 57.0487 65.5672 57.1896 65.3317C57.3306 65.0962 57.3882 64.8202 57.3532 64.548C57.3532 62.8802 57.3532 61.2125 57.3532 59.5448C57.3532 58.692 57.0594 58.4267 56.235 58.4362C52.6059 58.4362 48.9767 58.4362 45.3475 58.4362C44.1157 58.4362 44.1062 58.4361 44.1062 59.649C44.1062 64.0931 44.1062 68.5467 44.1062 72.9908C44.0658 73.3272 44.1366 73.6677 44.3077 73.9602C44.4787 74.2527 44.7407 74.4813 45.0537 74.6111C46.0374 75.1046 46.9108 75.7925 47.6211 76.6331C48.3313 77.4737 48.8638 78.4497 49.1862 79.5019C49.5086 80.5542 49.6143 81.6609 49.4968 82.7551C49.3794 83.8493 49.0412 84.9084 48.5029 85.8682C47.9134 86.8968 47.1174 87.7923 46.1651 88.4984C45.2127 89.2045 44.1246 89.706 42.9691 89.9712ZM22.6059 75.8714C22.9708 75.8889 23.3355 75.8316 23.6775 75.7031C24.0195 75.5746 24.3316 75.3775 24.5947 75.124C24.8579 74.8705 25.0664 74.566 25.2076 74.229C25.3487 73.892 25.4195 73.5297 25.4157 73.1644C25.4118 72.799 25.3333 72.4383 25.185 72.1044C25.0367 71.7705 24.8217 71.4704 24.5533 71.2226C24.2849 70.9747 23.9686 70.7844 23.624 70.6631C23.2793 70.5419 22.9135 70.4924 22.549 70.5176C22.1841 70.5002 21.8194 70.5574 21.4774 70.6859C21.1354 70.8145 20.8232 71.0115 20.5601 71.265C20.297 71.5185 20.0885 71.8231 19.9473 72.1601C19.8061 72.497 19.7353 72.8593 19.7392 73.2247C19.7431 73.59 19.8216 73.9507 19.9699 74.2846C20.1182 74.6185 20.3331 74.9186 20.6016 75.1664C20.87 75.4143 21.1862 75.6047 21.5309 75.7259C21.8756 75.8471 22.2414 75.8966 22.6059 75.8714ZM60.0916 75.8714C60.442 75.8752 60.7896 75.8092 61.1143 75.6775C61.4389 75.5457 61.7342 75.3507 61.9828 75.1039C62.2314 74.857 62.4285 74.5631 62.5626 74.2394C62.6967 73.9157 62.7651 73.5686 62.7638 73.2182C62.778 72.8674 62.7206 72.5174 62.5951 72.1895C62.4697 71.8616 62.2788 71.5627 62.0342 71.3109C61.7895 71.0592 61.4961 70.8598 61.1719 70.7251C60.8478 70.5903 60.4995 70.523 60.1485 70.5271C59.7986 70.5145 59.4497 70.5717 59.1222 70.6954C58.7947 70.8192 58.4952 71.007 58.2411 71.2478C57.987 71.4887 57.7835 71.7778 57.6424 72.0982C57.5014 72.4186 57.4256 72.7639 57.4195 73.114C57.4081 73.472 57.4687 73.8287 57.5979 74.1628C57.7271 74.4969 57.9221 74.8016 58.1713 75.0588C58.4206 75.3161 58.7191 75.5206 59.049 75.6601C59.3789 75.7997 59.7334 75.8716 60.0916 75.8714ZM41.3393 84.5227C41.6885 84.5331 42.0361 84.4722 42.361 84.3436C42.6858 84.2151 42.981 84.0216 43.2285 83.775C43.476 83.5284 43.6705 83.2339 43.8003 82.9095C43.93 82.5851 43.9922 82.2377 43.983 81.8885C43.9957 81.1804 43.7279 80.4961 43.2379 79.9848C42.7479 79.4736 42.0756 79.1769 41.3677 79.1595C40.6446 79.1644 39.9523 79.4532 39.4401 79.9636C38.9279 80.4741 38.6367 81.1653 38.6292 81.8885C38.6304 82.2405 38.7018 82.5887 38.8394 82.9128C38.9769 83.2368 39.1778 83.5302 39.4302 83.7755C39.6827 84.0209 39.9816 84.2134 40.3094 84.3417C40.6372 84.47 40.9874 84.5315 41.3393 84.5227Z" fill="url(#paint0_linear_0_152)"/>
<defs>
<linearGradient id="paint0_linear_0_152" x1="41.3546" y1="0" x2="41.3546" y2="89.9712" gradientUnits="userSpaceOnUse">
<stop stop-color="#FFC402"/>
<stop offset="1" stop-color="#F18200"/>
</linearGradient>
</defs>
</svg>
