<svg width="96" height="90" viewBox="0 0 96 90" fill="none" xmlns="http://www.w3.org/2000/svg">
<g id="Layer_1" clip-path="url(#clip0_0_155)">
<path id="Vector" d="M-3.05176e-05 10.0426V6.88041C-3.05176e-05 6.61979 0.156489 6.35916 0.24343 6.08117C0.717598 4.3944 1.71241 2.90018 3.08616 1.8114C4.45992 0.722623 6.14253 0.0948252 7.89425 0.0174528C9.54993 -0.111345 11.2056 0.266945 12.6407 1.1019C14.0759 1.93686 15.2224 3.18886 15.9276 4.6912C16.0423 4.9721 16.2448 5.20844 16.5049 5.36499C16.765 5.52154 17.0687 5.58991 17.3709 5.55993C20.9297 5.55993 24.4942 5.55993 28.0646 5.55993C28.5383 5.48571 29.0227 5.52438 29.4786 5.67276C29.9344 5.82114 30.3488 6.07504 30.6878 6.41378C31.0268 6.75252 31.2809 7.1665 31.4294 7.62199C31.5779 8.07747 31.6166 8.56157 31.5423 9.03483C31.5423 10.9113 31.5423 12.8051 31.5423 14.6989C31.5423 15.2897 31.5423 15.6024 32.3248 15.2549C37.2381 13.0804 41.7292 10.0573 45.592 6.32441C45.8529 6.03435 46.172 5.80239 46.5284 5.6436C46.8849 5.48481 47.2709 5.40274 47.6612 5.40274C48.0515 5.40274 48.4374 5.48481 48.7939 5.6436C49.1504 5.80239 49.4695 6.03435 49.7304 6.32441C50.2172 6.79352 50.6694 7.31476 51.1736 7.7665C54.7671 10.7729 58.7429 13.2909 62.9976 15.2549C63.6758 15.585 63.7975 15.3418 63.7975 14.7163C63.7975 12.8572 63.7975 10.9981 63.7975 9.13908C63.7975 6.70664 64.8755 5.66417 67.2751 5.66417C70.7528 5.66417 74.1087 5.66417 77.5168 5.66417C77.9357 5.71194 78.3588 5.6226 78.7225 5.40956C79.0862 5.19651 79.3709 4.87127 79.5339 4.48272C80.4538 2.84516 81.8947 1.56156 83.6281 0.835701C85.3614 0.10984 87.2877 -0.0166978 89.1012 0.47618C90.9147 0.969057 92.5115 2.05312 93.638 3.55625C94.7646 5.05937 95.3564 6.89544 95.3194 8.77298C95.2825 10.6505 94.619 12.4619 93.4342 13.9197C92.2494 15.3774 90.6113 16.3979 88.7798 16.8192C86.9483 17.2406 85.0285 17.0385 83.3251 16.2452C81.6216 15.4518 80.2322 14.1127 79.3774 12.4402C79.0818 11.8843 78.8383 11.4673 78.0906 11.4846C75.5519 11.4846 72.9959 11.4846 70.4572 11.4846C69.7095 11.4846 69.4834 11.7974 69.5008 12.4924C69.5008 13.9171 69.5008 15.3418 69.5008 16.7665C69.4447 17.1871 69.5446 17.6137 69.7817 17.9658C70.0187 18.3179 70.3765 18.5711 70.7876 18.6777C73.9522 19.8418 77.1342 20.9538 80.3685 21.9615C80.9788 22.1016 81.5293 22.4306 81.9414 22.9017C82.3536 23.3728 82.6064 23.9619 82.6637 24.585C82.8782 26.7443 82.9189 28.9173 82.7854 31.0831C82.6289 33.3244 82.4725 35.5831 82.1421 37.8244C82.0204 38.5715 82.2985 38.8148 83.0288 38.7974C84.333 38.7974 85.6371 38.7974 86.9412 38.7974H92.0534C92.5831 38.756 93.1149 38.8471 93.6007 39.0625C94.0864 39.2778 94.5108 39.6107 94.8355 40.031C95.151 40.4572 95.3397 40.9639 95.3797 41.4926C95.4197 42.0214 95.3094 42.5506 95.0615 43.0194C94.8247 43.5166 94.4453 43.9323 93.9717 44.2138C93.4981 44.4953 92.9514 44.6298 92.4011 44.6005H81.9682C81.8177 44.5706 81.6626 44.5727 81.5129 44.6066C81.3633 44.6404 81.2224 44.7053 81.0995 44.797C80.9765 44.8888 80.8742 45.0053 80.7992 45.139C80.7242 45.2728 80.6782 45.4208 80.6641 45.5734C80.1946 47.3109 79.6208 49.1352 79.0991 50.9074C78.8209 51.8109 78.9079 51.9673 79.8468 51.9846H84.6808C85.2372 51.9846 85.7936 51.9846 86.4196 52.0715C87.1431 52.1489 87.8101 52.498 88.2857 53.0483C88.7612 53.5985 89.0098 54.3087 88.9811 55.0352C88.9523 55.7617 88.6485 56.4501 88.1309 56.9612C87.6134 57.4722 86.9209 57.7676 86.1935 57.7877C83.2549 57.7877 80.2989 57.7877 77.3603 57.7877C77.0554 57.7551 76.7485 57.8267 76.4895 57.9908C76.2306 58.1548 76.0349 58.4018 75.9345 58.6912C73.8411 63.2198 71.2705 67.5124 68.2662 71.4962C68.1271 71.6874 67.8315 71.8785 67.9359 72.1391C68.0402 72.3997 68.4054 72.3302 68.6662 72.3302C71.6222 72.3302 74.5608 72.3302 77.4994 72.3302C77.9352 72.3874 78.3775 72.2969 78.7558 72.0733C79.1341 71.8497 79.4264 71.5058 79.586 71.0966C80.5398 69.3177 82.1068 67.9447 83.9965 67.2323C85.8862 66.5198 87.9703 66.5162 89.8625 67.2221C91.1579 67.6939 92.3185 68.4746 93.2433 69.4964C94.1681 70.5183 94.8292 71.7503 95.1692 73.0855C95.5092 74.4207 95.5178 75.8186 95.1942 77.1578C94.8705 78.497 94.2245 79.7371 93.3123 80.7701C92.4 81.8032 91.2491 82.5981 89.9596 83.0857C88.67 83.5732 87.2808 83.7388 85.9126 83.568C84.5444 83.3972 83.2388 82.8951 82.1089 82.1054C80.9791 81.3158 80.0593 80.2624 79.4295 79.0368C79.3084 78.7097 79.0824 78.4318 78.7868 78.2464C78.4911 78.061 78.1425 77.9785 77.795 78.0117C73.0886 78.0117 68.3764 78.0117 63.6584 78.0117C63.3536 77.9966 63.0495 78.0514 62.7692 78.1718C62.4889 78.2923 62.2399 78.4752 62.0413 78.7067C58.276 82.6169 54.1416 86.1545 49.6956 89.2703C49.1521 89.7747 48.4377 90.055 47.696 90.055C46.9542 90.055 46.2398 89.7747 45.6963 89.2703C41.2431 86.1703 37.1078 82.6377 33.3507 78.7241C33.1359 78.4788 32.867 78.2867 32.5653 78.1631C32.2635 78.0394 31.9371 77.9876 31.6118 78.0117C26.975 78.0117 22.2975 78.0117 17.5795 78.0117C17.2318 77.9763 16.8821 78.0556 16.5838 78.2376C16.2854 78.4196 16.055 78.6942 15.9276 79.0194C15.403 80.0594 14.6676 80.9789 13.768 81.7194C12.8684 82.4599 11.8244 83.0051 10.7024 83.3205C9.58046 83.636 8.40508 83.7146 7.25105 83.5514C6.09702 83.3882 4.98962 82.9868 3.9993 82.3727C2.00441 81.1247 0.585213 79.1382 0.0521321 76.8476V73.4943C0.0521321 73.3032 0.173877 73.0947 0.24343 72.8862C0.703741 71.2651 1.63516 69.8169 2.91975 68.7251C4.20434 67.6332 5.7843 66.9469 7.45954 66.753C9.21574 66.5344 10.9959 66.8816 12.5409 67.7441C14.0859 68.6067 15.315 69.9394 16.0493 71.5484C16.1568 71.8018 16.3438 72.0134 16.5822 72.1513C16.8206 72.2893 17.0974 72.346 17.3709 72.3129H26.5866C26.8822 72.3129 27.2821 72.4692 27.4386 72.1565C27.5951 71.8438 27.2126 71.6005 27.0387 71.3746C24.1338 67.5088 21.6396 63.3512 19.5966 58.9692C19.4731 58.5779 19.2151 58.243 18.8682 58.0236C18.5214 57.8042 18.108 57.7145 17.7012 57.7704C14.8496 57.7704 11.9979 57.7704 9.1462 57.7704C8.76689 57.7822 8.38914 57.7168 8.03588 57.5783C7.68261 57.4397 7.36119 57.2309 7.09122 56.9644C6.82125 56.6979 6.60837 56.3793 6.46543 56.028C6.32249 55.6767 6.25249 55.3001 6.25975 54.9209C6.22442 54.2003 6.46569 53.4934 6.93425 52.9445C7.40281 52.3956 8.06335 52.0461 8.78107 51.9673C9.27109 51.9037 9.76498 51.8747 10.2591 51.8804H15.4756C16.4667 51.8804 16.5362 51.724 16.2406 50.7684C15.719 49.031 15.1625 47.2935 14.7278 45.556C14.5192 44.6873 14.1019 44.4441 13.2499 44.4441C9.99826 44.4441 6.72922 44.4441 3.47762 44.4441C2.76823 44.515 2.05417 44.3664 1.43213 44.0183C0.810092 43.6703 0.310118 43.1396 -3.05176e-05 42.4982V40.6391C0.277049 39.9677 0.767975 39.4063 1.39669 39.042C2.0254 38.6776 2.7568 38.5306 3.47762 38.6236H12.0327C13.2672 38.6236 13.3194 38.6237 13.1629 37.3553C12.5496 33.3321 12.3631 29.2555 12.6064 25.1932C12.7803 23.0561 13.302 22.2742 15.3364 21.7183C18.5706 20.7105 21.7527 19.5985 24.9174 18.3823C25.201 18.3163 25.4508 18.1494 25.6204 17.9128C25.79 17.6763 25.8676 17.3862 25.8389 17.0966C25.8389 15.5503 25.8389 14.004 25.8389 12.4402C25.8389 11.5715 25.4911 11.3283 24.6739 11.3456C22.2917 11.3456 19.8921 11.3456 17.5099 11.3456C17.178 11.3107 16.8437 11.3851 16.558 11.5577C16.2723 11.7302 16.0509 11.9913 15.9276 12.3012C15.3579 13.4415 14.5362 14.4374 13.5247 15.2138C12.5132 15.9902 11.3383 16.5267 10.0888 16.7827C8.83937 17.0388 7.54798 17.0077 6.31228 16.6919C5.07659 16.376 3.92893 15.7837 2.95599 14.9595C1.45233 13.6934 0.412468 11.9637 -3.05176e-05 10.0426ZM47.609 63.6951H57.4682C58.1841 63.7439 58.9021 63.6389 59.574 63.3873C60.2459 63.1356 60.8561 62.743 61.3635 62.236C61.8709 61.729 62.2638 61.1193 62.5157 60.4479C62.7675 59.7766 62.8726 59.0591 62.8237 58.3437C62.8237 53.1314 62.8237 47.919 62.8237 42.7067C62.8781 41.9127 62.7141 41.119 62.3494 40.4115C61.9846 39.704 61.4331 39.1098 60.7545 38.6931C60.2978 38.4598 59.9253 38.0902 59.6884 37.6357C59.4516 37.1811 59.3624 36.6641 59.433 36.1565C59.4611 33.6186 58.6693 31.1394 57.1752 29.0869C55.6811 27.0344 53.5645 25.5181 51.1394 24.7631C48.7144 24.0081 46.1104 24.0546 43.7139 24.8958C41.3175 25.737 39.2565 27.3279 37.8368 29.4325C36.3566 31.6012 35.6297 34.1953 35.7676 36.8167C35.7676 37.3553 35.7676 37.8939 35.1764 38.2241C34.2783 38.6632 33.5329 39.3617 33.0368 40.2291C32.5408 41.0965 32.3169 42.0928 32.3943 43.0889C32.3943 48.1275 32.3943 53.1661 32.3943 58.2221C32.3735 58.7463 32.4144 59.2711 32.516 59.7858C32.7928 60.9364 33.4687 61.9517 34.4237 62.6515C35.3787 63.3513 36.551 63.6903 37.7325 63.6082C40.9841 63.7124 44.3052 63.6951 47.609 63.6951Z" fill="url(#paint0_linear_0_155)"/>
<path id="Vector_2" d="M47.6259 58.2569C44.6699 58.2569 41.7313 58.2569 38.7927 58.2569C37.9928 58.2569 37.6973 58.0136 37.6973 57.197C37.6973 52.836 37.6973 48.5098 37.6973 44.0966C37.6973 43.3495 37.9754 43.0542 38.7405 43.0542H56.4765C57.2416 43.0542 57.5373 43.3321 57.5373 44.0966C57.5373 48.4982 57.5373 52.8939 57.5373 57.2839C57.5373 57.9962 57.259 58.2569 56.5461 58.2569C53.5727 58.2395 50.5993 58.2569 47.6259 58.2569ZM50.3733 50.7684C50.3536 50.2798 50.3072 49.7926 50.2342 49.309C50.1328 48.6908 49.8148 48.1288 49.3371 47.7233C48.8593 47.3177 48.2528 47.0951 47.6259 47.0951C46.999 47.0951 46.3925 47.3177 45.9148 47.7233C45.437 48.1288 45.1191 48.6908 45.0177 49.309C44.7745 50.3314 44.7745 51.3966 45.0177 52.419C45.1526 52.9169 45.4331 53.3631 45.8235 53.7005C46.2138 54.0379 46.6962 54.2512 47.2086 54.3129C47.683 54.3929 48.1703 54.3337 48.6117 54.1425C49.053 53.9513 49.4294 53.6363 49.6951 53.2356C50.2062 52.5193 50.4464 51.6451 50.3733 50.7684Z" fill="url(#paint1_linear_0_155)"/>
<path id="Vector_3" d="M47.5745 37.7722H42.0972C41.5234 37.7722 41.1409 37.6332 41.1061 36.9556C40.9368 35.3976 41.3262 33.8301 42.205 32.5321C43.0838 31.234 44.395 30.2896 45.9053 29.8668C47.3785 29.4473 48.9531 29.5667 50.346 30.2037C51.739 30.8407 52.8588 31.9534 53.5039 33.3417C53.9484 34.445 54.1615 35.6277 54.1299 36.8166C54.1299 37.4768 53.8169 37.7375 53.1561 37.7375L47.5745 37.7722Z" fill="url(#paint2_linear_0_155)"/>
</g>
<defs>
<linearGradient id="paint0_linear_0_155" x1="47.7153" y1="-0.00718689" x2="47.7153" y2="90.055" gradientUnits="userSpaceOnUse">
<stop stop-color="#FFC402"/>
<stop offset="1" stop-color="#F18200"/>
</linearGradient>
<linearGradient id="paint1_linear_0_155" x1="47.6173" y1="43.0542" x2="47.6173" y2="58.2569" gradientUnits="userSpaceOnUse">
<stop stop-color="#FFC402"/>
<stop offset="1" stop-color="#F18200"/>
</linearGradient>
<linearGradient id="paint2_linear_0_155" x1="47.6002" y1="29.6206" x2="47.6002" y2="37.7722" gradientUnits="userSpaceOnUse">
<stop stop-color="#FFC402"/>
<stop offset="1" stop-color="#F18200"/>
</linearGradient>
<clipPath id="clip0_0_155">
<rect width="95.3571" height="90" fill="white"/>
</clipPath>
</defs>
</svg>
