<svg width="120" height="80" viewBox="0 0 120 80" fill="none" xmlns="http://www.w3.org/2000/svg">
<g id="Layer_1" clip-path="url(#clip0_0_196)">
<path id="Vector" d="M95.3119 59.4858C95.3119 63.4031 95.3119 67.3262 95.3119 71.2551C95.3381 71.7257 95.2459 72.1954 95.0436 72.6211C94.8413 73.0468 94.5354 73.415 94.1539 73.6919C90.7318 76.3672 86.7659 78.2615 82.5342 79.2419C78.3025 80.2222 73.9077 80.2649 69.6577 79.3669C65.4078 78.4689 61.4058 76.652 57.9324 74.0436C54.459 71.4352 51.5983 68.0985 49.551 64.2675C47.5037 60.4365 46.3194 56.2039 46.081 51.8667C45.8426 47.5295 46.5561 43.1927 48.1713 39.1604C49.7864 35.1281 52.2642 31.4979 55.4308 28.5246C58.5974 25.5513 62.3762 23.3068 66.5022 21.9485C71.0396 20.3871 75.8946 19.9803 80.6287 20.7647C85.3627 21.5492 89.8269 23.5003 93.6182 26.4419C95.5884 27.8764 95.6402 29.0516 94.0157 30.7971C92.3911 32.5426 91.0085 34.0116 89.5223 35.6188C89.3327 35.948 89.0694 36.2287 88.7529 36.4388C88.4365 36.6489 88.0755 36.7827 87.6986 36.8296C87.3216 36.8765 86.9389 36.8353 86.5806 36.7092C86.2223 36.583 85.8982 36.3754 85.6337 36.1027C83.4992 34.5387 81.0341 33.4857 78.4283 33.0249C75.8225 32.5641 73.1457 32.7078 70.6042 33.445C68.0628 34.1822 65.7246 35.4932 63.7698 37.2768C61.8151 39.0605 60.296 41.2692 59.3298 43.7327C58.3635 46.1962 57.9759 48.8487 58.1968 51.4857C58.4177 54.1226 59.2411 56.6737 60.6037 58.9421C61.9663 61.2106 63.8316 63.1358 66.0558 64.5695C68.28 66.0031 70.8037 66.9068 73.4324 67.211C76.1636 67.5213 78.9297 67.2323 81.5378 66.3642C81.9034 66.3044 82.2318 66.1055 82.454 65.8092C82.6763 65.5128 82.7753 65.1419 82.7303 64.7742C82.7303 62.7694 82.7303 60.7647 82.7303 58.7599C82.7303 57.6366 82.3155 57.36 81.2786 57.3773C79.2393 57.3773 77.1999 57.3773 75.1606 57.3773C74.8062 57.4321 74.4438 57.4031 74.1025 57.2927C73.7613 57.1824 73.4506 56.9937 73.1953 56.7418C72.94 56.4898 72.7472 56.1817 72.6323 55.8419C72.5174 55.5021 72.4837 55.1401 72.5337 54.785C72.5337 52.3424 72.5337 49.9056 72.5337 47.4745C72.4864 47.1191 72.5209 46.7576 72.6348 46.4176C72.7486 46.0776 72.9388 45.7682 73.1906 45.513C73.4425 45.2578 73.7494 45.0636 74.0879 44.9453C74.4263 44.827 74.7873 44.7877 75.1433 44.8303C81.0078 44.8303 86.855 44.8303 92.685 44.8303C94.4132 44.8303 95.26 45.7118 95.26 47.4918C95.3291 51.5532 95.3119 55.5108 95.3119 59.4858Z" fill="url(#paint0_linear_0_196)"/>
<path id="Vector_2" d="M22.1045 22.5016H35.2909C37.3821 22.5016 38.0906 23.2275 38.0906 25.3532C38.0906 27.479 38.0906 29.743 38.0906 31.9378C38.0906 34.1327 37.3821 35.0659 34.928 35.0659C29.2767 35.0659 23.6253 35.0659 17.974 35.0659C16.8161 35.0659 16.2458 35.377 16.0902 36.5695C15.6063 39.231 15.5199 39.0581 18.2851 38.9026C23.5781 38.6279 28.7728 40.4073 32.7858 43.8697C36.7987 47.3321 39.32 52.2101 39.8238 57.4862C40.3275 62.7624 38.7749 68.0293 35.4896 72.1885C32.2044 76.3477 27.4403 79.078 22.1909 79.8099C17.5569 80.4059 12.8581 79.4036 8.87071 76.9684C4.88329 74.5332 1.84569 70.8109 0.259595 66.4161C-0.414417 64.4459 0.259565 63.3053 2.2816 62.9596C4.70113 62.5449 7.15526 62.2338 9.60935 61.8881C10.2512 61.7851 10.909 61.8991 11.4788 62.2121C12.0485 62.5252 12.4976 63.0193 12.7548 63.6163C13.5883 64.9928 14.8167 66.0867 16.2802 66.7558C17.7437 67.4248 19.3747 67.638 20.961 67.3677C22.5474 67.0974 24.0157 66.3561 25.1751 65.2402C26.3345 64.1242 27.1313 62.6853 27.462 61.1104C27.724 59.8486 27.6787 58.5424 27.3299 57.3018C26.9811 56.0612 26.339 54.9226 25.4579 53.9822C24.5768 53.0418 23.4824 52.3271 22.2672 51.8983C21.0519 51.4696 19.7514 51.3394 18.4752 51.5187C16.5118 51.7418 14.653 52.5213 13.1177 53.7654C12.7804 54.0615 12.3746 54.2688 11.937 54.3684C11.4994 54.468 11.0439 54.4568 10.6117 54.3357C7.89838 53.7136 5.16776 53.1433 2.45443 52.6075C2.06693 52.5994 1.68765 52.4943 1.35134 52.3016C1.01504 52.1089 0.732466 51.835 0.529526 51.5048C0.326587 51.1745 0.209808 50.7987 0.189818 50.4116C0.169828 50.0245 0.247286 49.6386 0.41513 49.2893C2.23554 41.0975 4.05595 32.9056 5.87636 24.7138C6.23929 22.9856 6.91327 22.4844 8.65879 22.4844L22.1045 22.5016Z" fill="url(#paint1_linear_0_196)"/>
<path id="Vector_3" d="M119.819 29.2072V30.5897C119.845 30.8841 119.81 31.1808 119.718 31.4615C119.626 31.7423 119.477 32.0013 119.282 32.2228C119.086 32.4443 118.847 32.6237 118.58 32.75C118.313 32.8763 118.023 32.9469 117.727 32.9574C117.15 32.9576 116.595 32.7317 116.181 32.3279C115.768 31.9242 115.529 31.3748 115.515 30.7972C115.36 29.5528 115.394 28.3085 115.239 27.0469C114.425 21.4521 111.843 16.2645 107.868 12.2435C103.894 8.22255 98.7368 5.57933 93.1519 4.70079C91.9767 4.52797 90.8187 4.51068 89.6954 4.42427C89.2804 4.44941 88.865 4.38183 88.4793 4.22638C88.0937 4.07093 87.7475 3.83154 87.466 3.5256C87.2081 3.22456 87.0445 2.85437 86.9953 2.46107C86.9461 2.06777 87.0136 1.66871 87.1894 1.31347C87.3969 0.862699 87.7447 0.491161 88.1808 0.254416C88.6169 0.0176713 89.1179 -0.0715833 89.609 -9.1847e-06C91.6486 0.0605021 93.6787 0.303421 95.6751 0.725846C101.739 2.04921 107.261 5.17263 111.52 9.68716C115.778 14.2017 118.574 19.8969 119.542 26.0272C119.757 27.073 119.849 28.1401 119.819 29.2072Z" fill="url(#paint2_linear_0_196)"/>
<path id="Vector_4" d="M90.1448 12.3569C94.7683 12.6113 99.1269 14.5959 102.354 17.9163C105.582 21.2366 107.442 25.6498 107.565 30.2787C107.565 32.0069 106.753 33.0611 105.405 33.0438C104.057 33.0266 103.297 32.0415 103.21 30.3651C103.106 27.1394 101.898 24.0473 99.7868 21.6061C97.6759 19.1648 94.7906 17.5225 91.6137 16.954C90.8533 16.8157 90.0584 16.833 89.2807 16.7293C87.6907 16.5392 86.8266 15.6405 86.9475 14.3443C87.0685 13.0482 88.0882 12.3223 89.6781 12.4087L90.1448 12.3569Z" fill="url(#paint3_linear_0_196)"/>
</g>
<defs>
<linearGradient id="paint0_linear_0_196" x1="70.6762" y1="20.376" x2="70.6762" y2="80.0102" gradientUnits="userSpaceOnUse">
<stop stop-color="#FFC402"/>
<stop offset="1" stop-color="#F18200"/>
</linearGradient>
<linearGradient id="paint1_linear_0_196" x1="19.9619" y1="22.4844" x2="19.9619" y2="79.9777" gradientUnits="userSpaceOnUse">
<stop stop-color="#FFC402"/>
<stop offset="1" stop-color="#F18200"/>
</linearGradient>
<linearGradient id="paint2_linear_0_196" x1="103.403" y1="-0.0240479" x2="103.403" y2="32.9574" gradientUnits="userSpaceOnUse">
<stop stop-color="#FFC402"/>
<stop offset="1" stop-color="#F18200"/>
</linearGradient>
<linearGradient id="paint3_linear_0_196" x1="97.2509" y1="12.3569" x2="97.2509" y2="33.0441" gradientUnits="userSpaceOnUse">
<stop stop-color="#FFC402"/>
<stop offset="1" stop-color="#F18200"/>
</linearGradient>
<clipPath id="clip0_0_196">
<rect width="119.836" height="80" fill="white"/>
</clipPath>
</defs>
</svg>
