<svg width="90" height="90" viewBox="0 0 90 90" fill="none" xmlns="http://www.w3.org/2000/svg">
<g id="Layer_1" clip-path="url(#clip0_0_167)">
<path id="Vector" d="M81.4662 57.545C81.057 57.3259 81.0132 56.9605 80.8963 56.6537C79.2596 52.4598 77.6522 48.339 76.0156 44.1013C75.6394 42.6664 75.4045 41.1981 75.3142 39.7175C74.0918 32.7374 70.4981 26.3929 65.1397 21.7556C59.7814 17.1184 52.9868 14.4724 45.9035 14.2646C38.8202 14.0567 31.8822 16.2998 26.2612 20.6149C20.6402 24.9301 16.6806 31.0529 15.0511 37.9493C14.63 39.6087 14.39 41.3088 14.3351 43.02C14.3379 43.6174 14.2186 44.2092 13.9844 44.7589C12.2893 48.602 10.5796 52.4598 8.86995 56.303C8.76766 56.5514 8.72382 56.8436 8.37311 56.9898C8.02351 56.304 7.7773 55.5703 7.64248 54.8124C7.59816 54.5698 7.48722 54.3442 7.32206 54.161C7.1569 53.9778 6.94403 53.8441 6.70726 53.7749C4.74915 53.0443 2.82026 52.3137 0.862151 51.5392C0.592553 51.4732 0.356882 51.3098 0.200434 51.0805C0.0439855 50.8512 -0.0221953 50.5722 0.0146135 50.2971C0.0146135 46.8095 0.0146135 43.3171 0.0146135 39.8198C-0.0180943 39.5317 0.0560909 39.2416 0.223093 39.0045C0.390096 38.7675 0.638295 38.6 0.920603 38.5338C2.80565 37.847 4.64686 37.0726 6.51729 36.4004C6.81244 36.3178 7.07909 36.1555 7.28792 35.9312C7.49675 35.7069 7.63966 35.4294 7.70092 35.1291C8.53582 31.8257 9.84509 28.6608 11.5879 25.7331C11.7664 25.4852 11.8719 25.1923 11.8925 24.8876C11.9132 24.5829 11.8482 24.2785 11.7048 24.0088C10.8281 22.1529 10.0536 20.2387 9.19143 18.3828C9.0286 18.1593 8.96031 17.8807 9.00133 17.6073C9.04235 17.3338 9.18938 17.0875 9.41062 16.9216C11.9435 14.4179 14.4569 11.9045 16.9508 9.38137C17.1168 9.16096 17.3618 9.01347 17.6343 8.96988C17.9068 8.92628 18.1856 8.98996 18.4121 9.14756C20.3117 10.0243 22.2406 10.8427 24.1257 11.7194C24.3542 11.8368 24.6096 11.8918 24.8661 11.8789C25.1227 11.8661 25.3713 11.7859 25.5869 11.6464C28.6167 9.83419 31.8956 8.47541 35.319 7.61324C35.5454 7.56721 35.7554 7.46171 35.9275 7.30761C36.0995 7.15352 36.2275 6.95639 36.2981 6.73647C37.0141 4.77836 37.7594 2.83486 38.5339 0.891362C38.5971 0.607432 38.7638 0.357267 39.0016 0.189733C39.2394 0.0221994 39.5311 -0.0506601 39.8198 -0.0146217C43.3268 -0.0146217 46.8242 -0.0146217 50.3117 -0.0146217C50.5871 -0.0503633 50.8658 0.0183312 51.093 0.177915C51.3202 0.3375 51.4794 0.576392 51.5392 0.847526C52.2698 2.80564 53.0005 4.73452 53.775 6.69263C53.8497 6.92893 53.9869 7.14063 54.1721 7.30527C54.3573 7.46992 54.5837 7.58137 54.8271 7.62785C58.2436 8.50418 61.5162 9.86739 64.5446 11.6756C64.7667 11.8038 65.0187 11.8714 65.2752 11.8714C65.5317 11.8714 65.7837 11.8038 66.0058 11.6756C67.847 10.828 69.7175 10.0389 71.5441 9.1768C71.8175 9.00649 72.1449 8.94502 72.4615 9.00455C72.7781 9.06408 73.0609 9.24028 73.2538 9.49828C75.621 11.9386 78.0321 14.3351 80.4579 16.717C80.7196 16.903 80.9012 17.1812 80.9663 17.4956C81.0313 17.8101 80.975 18.1375 80.8086 18.4121C79.9172 20.2679 79.1281 22.1676 78.2806 24.0526C78.1414 24.2709 78.0674 24.5244 78.0674 24.7832C78.0674 25.0421 78.1414 25.2956 78.2806 25.5139C80.1003 28.5745 81.4686 31.8819 82.3429 35.3337C82.4037 35.5734 82.5282 35.7923 82.7031 35.9672C82.878 36.1421 83.0968 36.2665 83.3366 36.3273C85.2362 37.0433 87.1067 37.7886 89.0209 38.49C89.3207 38.56 89.5831 38.7401 89.7563 38.9945C89.9295 39.2489 90.0009 39.5591 89.9562 39.8636C89.9562 43.3122 89.9562 46.7706 89.9562 50.2387C89.9972 50.5294 89.9286 50.825 89.7639 51.068C89.5992 51.3111 89.35 51.4842 89.0648 51.5538C87.1359 52.2552 85.2362 53.0151 83.2927 53.7457C83.0464 53.8222 82.8247 53.9626 82.6502 54.1525C82.4757 54.3424 82.3545 54.5752 82.2991 54.8271C82.1375 55.7646 81.8576 56.6779 81.4662 57.545Z" fill="url(#paint0_linear_0_167)"/>
<path id="Vector_2" d="M38.8702 65.1582C40.743 65.0274 42.5806 64.5828 44.3061 63.8431C46.3 62.952 48.3684 62.2381 50.4873 61.7096C51.5666 61.4866 52.6901 61.6687 53.6437 62.2211L65.3339 68.8553C65.617 68.971 65.872 69.1458 66.0821 69.3681C66.2921 69.5903 66.4523 69.8548 66.5519 70.1439C66.6515 70.4331 66.6882 70.7401 66.6596 71.0445C66.631 71.349 66.5377 71.6438 66.386 71.9093C66.225 72.1685 66.0112 72.391 65.7587 72.5622C65.5062 72.7335 65.2205 72.8497 64.9201 72.9035C64.6197 72.9572 64.3114 72.9472 64.0152 72.8741C63.7189 72.801 63.4414 72.6665 63.2004 72.4792L55.8941 68.3292L55.4849 68.11C55.322 67.9997 55.1386 67.9235 54.9455 67.8858C54.7525 67.8481 54.5538 67.8497 54.3614 67.8907C54.169 67.9316 53.9869 68.011 53.8259 68.124C53.6649 68.237 53.5284 68.3814 53.4245 68.5484C53.3266 68.7183 53.2662 68.9073 53.2473 69.1025C53.2285 69.2978 53.2517 69.4948 53.3154 69.6803C53.3791 69.8658 53.4818 70.0355 53.6165 70.1781C53.7513 70.3206 53.915 70.4326 54.0967 70.5065C55.4557 71.3248 56.8585 72.0847 58.2321 72.8738C59.6057 73.6629 60.804 74.3351 62.0606 75.0365C62.3306 75.1536 62.5729 75.326 62.772 75.5427C62.9712 75.7593 63.1227 76.0152 63.2167 76.294C63.3108 76.5728 63.3454 76.8682 63.3182 77.1612C63.291 77.4542 63.2027 77.7382 63.0589 77.9949C62.9151 78.2516 62.7191 78.4754 62.4836 78.6516C62.248 78.8279 61.978 78.9528 61.6912 79.0183C61.4043 79.0837 61.1069 79.0883 60.8182 79.0317C60.5294 78.9751 60.2558 78.8586 60.0149 78.6897L50.3997 73.283C50.0636 73.093 49.7421 72.903 49.406 72.7423C49.2392 72.6456 49.055 72.583 48.8639 72.5579C48.6728 72.5328 48.4786 72.5457 48.2925 72.596C48.1064 72.6462 47.9321 72.7328 47.7796 72.8507C47.6272 72.9686 47.4995 73.1155 47.404 73.283C47.319 73.4507 47.2692 73.6341 47.258 73.8219C47.2467 74.0097 47.2741 74.1977 47.3385 74.3745C47.4029 74.5512 47.5029 74.7128 47.6323 74.8493C47.7617 74.9858 47.9178 75.0943 48.0908 75.168L53.9359 78.4559C54.8858 78.9819 55.8356 79.508 56.7708 80.0633C57.0373 80.182 57.2761 80.3547 57.4723 80.5707C57.6684 80.7866 57.8175 81.0409 57.9101 81.3175C58.0026 81.5941 58.0367 81.887 58.0101 82.1774C57.9835 82.4679 57.8968 82.7497 57.7555 83.0049C57.6141 83.26 57.4213 83.4831 57.1892 83.6597C56.9571 83.8364 56.6909 83.9629 56.4073 84.0312C56.1237 84.0995 55.829 84.1081 55.5419 84.0564C55.2548 84.0047 54.9816 83.894 54.7397 83.7311C52.84 82.679 50.9403 81.583 49.0407 80.5016C48.8231 80.3816 48.6218 80.2343 48.4416 80.0633C47.8919 79.4687 47.2049 79.018 46.4406 78.7505C45.6764 78.483 44.8582 78.4069 44.0577 78.5289C43.8469 78.5739 43.627 78.5446 43.4353 78.4461C43.2436 78.3475 43.0918 78.1858 43.0056 77.9882C42.5601 77.0311 41.8172 76.2437 40.8876 75.7433C39.958 75.243 38.8915 75.0565 37.8473 75.2118C37.6401 75.2646 37.4207 75.2385 37.2317 75.1386C37.0427 75.0386 36.8975 74.8721 36.8244 74.6712C36.4226 73.8167 35.783 73.0961 34.9822 72.5959C34.1813 72.0957 33.2532 71.837 32.3091 71.8509C32.082 71.8727 31.8551 71.8081 31.6736 71.67C31.4921 71.5318 31.3694 71.3303 31.33 71.1056C31.1089 70.4127 30.7352 69.7781 30.2364 69.2485C29.7376 68.719 29.1265 68.3081 28.448 68.0459C27.7695 67.7838 27.0408 67.6771 26.3156 67.7337C25.5904 67.7903 24.8871 68.0088 24.2574 68.3731C23.5268 68.753 23.1761 68.7822 22.9715 67.8908C22.8783 67.4651 22.7011 67.0623 22.4502 66.7059C22.1992 66.3496 21.8797 66.047 21.5102 65.8158C21.0426 65.5382 21.0572 65.2313 21.2472 64.8075C23.3222 60.1607 25.368 55.5138 27.4284 50.867C27.5891 50.5016 27.7499 50.1363 28.2321 50.3847C30.2965 51.2465 32.6056 51.3193 34.7202 50.5893C36.7141 49.943 38.8345 49.7876 40.9014 50.1363C41.2228 50.224 41.6612 50.1363 41.7635 50.5601C41.8658 50.9839 41.4567 51.0569 41.2375 51.2615C38.553 53.9669 35.5385 56.3235 32.2652 58.2756C31.9602 58.391 31.6904 58.5835 31.4821 58.8344C31.2738 59.0852 31.1341 59.3858 31.0766 59.7068C31.0192 60.0277 31.046 60.3581 31.1545 60.6656C31.2629 60.9731 31.4493 61.2473 31.6953 61.4612C32.5144 62.6001 33.5916 63.5289 34.8387 64.1715C36.0858 64.8141 37.4673 65.1522 38.8702 65.1582Z" fill="url(#paint1_linear_0_167)"/>
<path id="Vector_3" d="M51.0278 49.4642C52.4376 49.5449 53.8247 49.8558 55.1339 50.3848C56.2591 50.8232 57.3843 51.2762 58.5387 51.6854C59.8313 52.1662 61.2425 52.2276 62.5719 51.8607C62.6617 51.816 62.7607 51.7928 62.8611 51.7932C62.9614 51.7936 63.0603 51.8175 63.1498 51.8629C63.2393 51.9084 63.3168 51.9741 63.3764 52.055C63.4359 52.1358 63.4756 52.2294 63.4925 52.3283C65.3044 57.0336 67.1456 61.7389 68.9576 66.4589C69.0745 66.7365 69.2645 67.0434 68.9576 67.2918C68.8095 67.401 68.6302 67.4599 68.4462 67.4599C68.2621 67.4599 68.0829 67.401 67.9347 67.2918C63.6678 64.5154 59.1671 62.192 54.7832 59.6493C53.8619 59.1771 52.8531 58.8996 51.8199 58.8342C50.7866 58.7689 49.7509 58.917 48.7774 59.2694C46.7901 59.8247 44.9342 60.7307 42.9323 61.4029C41.1887 62.1898 39.2474 62.4292 37.3648 62.0897C36.4257 61.8494 35.5552 61.3942 34.8222 60.7599C34.53 60.4969 34.3254 60.2192 34.8222 59.9562C38.7969 57.7204 41.7194 54.1988 45.3142 51.5392C46.959 50.2746 48.9547 49.5498 51.0278 49.4642Z" fill="url(#paint2_linear_0_167)"/>
<path id="Vector_4" d="M70.492 41.9386C71.0275 41.9206 71.5528 42.0883 71.9788 42.4132C72.4049 42.738 72.7056 43.2002 72.83 43.7214C74.2913 47.6084 75.8548 51.51 77.36 55.4116C78.6167 58.641 79.8587 61.8705 81.1154 65.0853C81.9191 67.1603 81.4954 68.1685 79.4642 68.9722L76.3225 70.1705C74.4666 70.8865 73.3999 70.4481 72.7277 68.5777C70.7794 63.4925 68.8018 58.4072 66.7949 53.322L64.34 46.9654C64.1706 46.6583 64.0743 46.3163 64.0587 45.9659C64.0431 45.6155 64.1085 45.2663 64.2499 44.9453C64.3913 44.6243 64.6048 44.3403 64.8739 44.1154C65.143 43.8904 65.4603 43.7306 65.8013 43.6483C67.0726 43.1369 68.3585 42.6547 69.6444 42.187C69.9076 42.0487 70.1957 41.9643 70.492 41.9386ZM70.492 47.0677C70.494 46.8971 70.4616 46.7277 70.3968 46.5698C70.3319 46.412 70.236 46.2687 70.1146 46.1487C69.9932 46.0287 69.849 45.9344 69.6903 45.8714C69.5317 45.8083 69.3621 45.7779 69.1914 45.7818C69.0187 45.7789 68.8473 45.8126 68.6885 45.8805C68.5296 45.9485 68.3869 46.0492 68.2697 46.1761C68.1524 46.303 68.0633 46.4532 68.0081 46.617C67.9529 46.7807 67.9329 46.9542 67.9494 47.1262C67.9405 47.2903 67.9669 47.4544 68.0266 47.6075C68.0863 47.7606 68.178 47.8992 68.2956 48.014C68.4132 48.1288 68.5539 48.2172 68.7084 48.2733C68.8629 48.3293 69.0276 48.3517 69.1914 48.339C69.3713 48.3707 69.5561 48.3609 69.7316 48.3103C69.9072 48.2596 70.0688 48.1695 70.2041 48.0469C70.3395 47.9242 70.445 47.7722 70.5126 47.6025C70.5803 47.4328 70.6082 47.2499 70.5943 47.0677H70.492Z" fill="url(#paint3_linear_0_167)"/>
<path id="Vector_5" d="M8.44648 64.6323C8.45664 64.2241 8.5617 63.8239 8.75335 63.4633C11.9194 56.3031 15.0807 49.1477 18.237 41.9972C18.3341 41.6794 18.5012 41.3875 18.7261 41.1429C18.951 40.8983 19.2278 40.7073 19.5363 40.5839C19.8448 40.4605 20.177 40.4079 20.5085 40.4299C20.8401 40.452 21.1624 40.5481 21.4518 40.7112C22.728 41.2373 23.9847 41.7926 25.2219 42.3771C25.5571 42.4712 25.8657 42.6423 26.1231 42.8768C26.3805 43.1113 26.5796 43.4026 26.7045 43.7276C26.8294 44.0526 26.8766 44.4023 26.8425 44.7488C26.8084 45.0953 26.6938 45.429 26.5079 45.7234C23.3515 52.9227 20.1757 60.1267 16.9803 67.3357C16.8788 67.6517 16.7078 67.941 16.4798 68.1822C16.2519 68.4234 15.9727 68.6105 15.6629 68.7297C15.3531 68.8488 15.0205 68.897 14.6897 68.8707C14.3588 68.8444 14.038 68.7444 13.7509 68.5778C12.4358 68.0079 11.1206 67.4088 9.82008 66.8242C9.38408 66.6577 9.01419 66.3537 8.76635 65.9582C8.51852 65.5628 8.40623 65.0973 8.44648 64.6323ZM21.598 46.9801C21.9417 46.9725 22.2687 46.8305 22.5091 46.5847C22.7494 46.3389 22.884 46.0088 22.8839 45.665C22.9031 45.4856 22.8843 45.3042 22.8288 45.1325C22.7733 44.9608 22.6823 44.8028 22.5617 44.6686C22.4411 44.5344 22.2937 44.4271 22.1289 44.3536C21.9641 44.2801 21.7857 44.2422 21.6053 44.2422C21.4249 44.2422 21.2465 44.2801 21.0817 44.3536C20.9169 44.4271 20.7694 44.5344 20.6488 44.6686C20.5282 44.8028 20.4372 44.9608 20.3817 45.1325C20.3262 45.3042 20.3074 45.4856 20.3267 45.665C20.3228 45.8338 20.3522 46.0018 20.4133 46.1593C20.4743 46.3168 20.5658 46.4608 20.6825 46.5829C20.7992 46.705 20.9389 46.803 21.0934 46.8711C21.248 46.9393 21.4145 46.9763 21.5834 46.9801H21.598Z" fill="url(#paint4_linear_0_167)"/>
<path id="Vector_6" d="M40.7991 31.0229C40.7904 32.3912 40.3757 33.726 39.6077 34.8584C38.8397 35.9908 37.7529 36.8697 36.4849 37.3839C35.217 37.8981 33.8249 38.0244 32.4851 37.7468C31.1453 37.4692 29.918 36.8002 28.9588 35.8245C27.9995 34.8489 27.3514 33.6105 27.0965 32.2662C26.8417 30.9218 26.9916 29.5321 27.5272 28.2731C28.0628 27.014 28.96 25.9422 30.1053 25.1935C31.2505 24.4448 32.5922 24.0528 33.9603 24.0673C34.8661 24.0749 35.7615 24.2609 36.5954 24.6146C37.4293 24.9683 38.1853 25.4828 38.8204 26.1287C39.4554 26.7746 39.957 27.5393 40.2965 28.379C40.6361 29.2188 40.8068 30.1172 40.7991 31.0229Z" fill="url(#paint5_linear_0_167)"/>
<path id="Vector_7" d="M49.2012 30.9937C49.2041 29.6298 49.6105 28.2972 50.3692 27.1638C51.1279 26.0303 52.2049 25.1467 53.4647 24.6242C54.7246 24.1016 56.1108 23.9634 57.449 24.227C58.7872 24.4907 60.0175 25.1443 60.985 26.1057C61.9524 27.0671 62.6138 28.2932 62.8859 29.6297C63.158 30.9662 63.0286 32.3533 62.5139 33.6164C61.9993 34.8795 61.1225 35.9621 59.9939 36.728C58.8653 37.4938 57.5353 37.9086 56.1715 37.9201C55.2576 37.9278 54.3514 37.7543 53.5051 37.4095C52.6588 37.0647 51.8893 36.5555 51.241 35.9113C50.5928 35.2672 50.0788 34.5009 49.7286 33.6568C49.3785 32.8127 49.1992 31.9075 49.2012 30.9937Z" fill="url(#paint6_linear_0_167)"/>
<path id="Vector_8" d="M55.8792 39.5714C58.2668 39.5963 60.613 40.1979 62.718 41.3249C63.2148 41.5879 63.3463 41.8071 62.8787 42.2747C62.1305 42.9958 61.6256 43.9323 61.4344 44.9537C61.2432 45.9751 61.3752 47.0308 61.812 47.9737C62.2504 49.0989 61.9873 49.435 60.7599 49.3327C59.8014 49.2123 58.8659 48.9513 57.9834 48.5582C55.8447 47.5322 53.5374 46.9034 51.1739 46.7024C49.2005 46.7056 47.2601 47.2083 45.5334 48.1637C45.4195 48.215 45.3117 48.2786 45.2119 48.3536C45.0294 48.5295 44.7858 48.6278 44.5324 48.6278C44.2789 48.6278 44.0354 48.5295 43.8529 48.3536C43.4291 47.9737 43.8529 47.5938 43.9552 47.2723C44.8497 45.4163 46.1601 43.7916 47.7847 42.5244C49.4092 41.2572 51.3041 40.3817 53.322 39.9659C54.1668 39.7891 55.0204 39.6574 55.8792 39.5714Z" fill="url(#paint7_linear_0_167)"/>
<path id="Vector_9" d="M39.1617 47.0823C37.0148 47.2174 34.8861 47.56 32.8052 48.1052C31.7366 48.3544 30.6205 48.3089 29.5758 47.9737C29.0205 47.7838 28.7575 47.4915 29.0643 46.8632C29.5102 45.9961 29.695 45.0183 29.5964 44.0483C29.4979 43.0783 29.1202 42.1577 28.509 41.398C28.1729 40.945 28.3629 40.7989 28.7867 40.5943C31.0641 39.683 33.5445 39.4002 35.9685 39.7755C38.3926 40.1508 40.6713 41.1704 42.5665 42.7278C42.9318 43.0785 43.0195 43.3561 42.7126 43.7652C42.0528 44.6734 41.4988 45.6539 41.0614 46.6878C41.041 46.7707 41.0042 46.8487 40.9533 46.9173C40.9024 46.9858 40.8384 47.0435 40.7649 47.0871C40.6914 47.1306 40.6101 47.1591 40.5255 47.1708C40.4409 47.1825 40.3548 47.1773 40.2723 47.1554C39.907 47.097 39.5271 47.1116 39.1617 47.0823Z" fill="url(#paint8_linear_0_167)"/>
<path id="Vector_10" d="M32.3085 74.6421C32.668 74.6334 33.0236 74.7189 33.3398 74.8901C33.656 75.0614 33.9219 75.3124 34.111 75.6183C34.3001 75.9241 34.4059 76.2741 34.4178 76.6335C34.4298 76.993 34.3474 77.3492 34.179 77.667C33.2291 79.5958 32.2355 81.4955 31.2564 83.3952C30.9962 83.9102 30.5434 84.3018 29.9963 84.4851C29.4491 84.6684 28.8518 84.6286 28.3339 84.3742C28.0799 84.2444 27.8541 84.0657 27.6695 83.8483C27.4849 83.6309 27.3451 83.3792 27.2582 83.1075C27.1712 82.8359 27.1389 82.5497 27.163 82.2656C27.1871 81.9814 27.2672 81.7048 27.3986 81.4517C28.4946 79.3766 29.6782 77.3601 30.8327 75.3435C30.99 75.1019 31.2112 74.9085 31.4717 74.7847C31.7321 74.6609 32.0218 74.6115 32.3085 74.6421Z" fill="url(#paint9_linear_0_167)"/>
<path id="Vector_11" d="M40.5793 80.1073C40.5899 80.3874 40.5242 80.6652 40.3893 80.911C39.5418 82.533 38.7089 84.1696 37.8467 85.7916C37.6634 86.1605 37.3684 86.4621 37.0037 86.6536C36.6391 86.8451 36.2233 86.9168 35.8155 86.8584C35.4097 86.8355 35.0194 86.6947 34.6924 86.4533C34.3653 86.2119 34.1158 85.8804 33.9743 85.4994C33.8577 85.2735 33.7969 85.0229 33.7969 84.7687C33.7969 84.5145 33.8577 84.264 33.9743 84.0381C34.8657 82.3576 35.7133 80.6625 36.6046 78.9821C36.7988 78.5706 37.1343 78.2425 37.55 78.0575C37.9656 77.8725 38.4339 77.8428 38.8696 77.9738C39.362 78.0675 39.8047 78.3339 40.1181 78.725C40.4316 79.1162 40.5951 79.6063 40.5793 80.1073Z" fill="url(#paint10_linear_0_167)"/>
<path id="Vector_12" d="M26.5665 70.5067C26.9165 70.5034 27.2619 70.5864 27.5724 70.7482C27.8828 70.9099 28.1486 71.1456 28.3464 71.4344C28.5442 71.7232 28.6679 72.0562 28.7067 72.4041C28.7454 72.752 28.6979 73.104 28.5684 73.4292C27.7209 75.1536 26.7126 76.8048 25.6459 78.4414C25.3475 78.7675 24.944 78.9783 24.506 79.037C24.0679 79.0958 23.6232 78.9988 23.2494 78.7629C22.8065 78.561 22.4515 78.2057 22.2501 77.7625C22.0487 77.3194 22.0143 76.8183 22.1534 76.3518C22.9025 74.5802 23.8071 72.8784 24.8568 71.2666C25.0529 71.0042 25.3131 70.7966 25.6125 70.6635C25.9118 70.5305 26.2403 70.4765 26.5665 70.5067Z" fill="url(#paint11_linear_0_167)"/>
<path id="Vector_13" d="M42.7277 89.5909C42.3486 89.64 41.9632 89.5827 41.6148 89.4254C41.2663 89.268 40.9685 89.0168 40.7547 88.6999C40.5409 88.3829 40.4195 88.0128 40.404 87.6307C40.3886 87.2487 40.4797 86.8699 40.6673 86.5368C41.3541 85.1778 42.1286 83.8334 42.7715 82.4744C42.8808 82.2251 43.0384 81.9998 43.2353 81.8117C43.4321 81.6236 43.6643 81.4763 43.9184 81.3785C44.1725 81.2807 44.4435 81.2342 44.7157 81.2417C44.9878 81.2492 45.2558 81.3106 45.5041 81.4223C46.0177 81.6306 46.4292 82.0318 46.6504 82.5398C46.8717 83.0479 46.8851 83.6225 46.6878 84.1403C45.9955 85.7469 45.1592 87.2875 44.189 88.7433C44.0257 88.9862 43.8092 89.1887 43.5561 89.3356C43.3029 89.4824 43.0196 89.5697 42.7277 89.5909Z" fill="url(#paint12_linear_0_167)"/>
<path id="Vector_14" d="M49.8441 88.8602C49.2627 88.799 48.7129 88.5649 48.266 88.188C48.2031 88.1568 48.1477 88.1122 48.1039 88.0574C48.06 88.0026 48.0286 87.9389 48.0119 87.8707C47.9952 87.8026 47.9936 87.7315 48.0072 87.6627C48.0208 87.5938 48.0492 87.5287 48.0906 87.472C48.655 86.5515 49.1157 85.5714 49.4642 84.5494C49.4785 84.4703 49.5232 84.4 49.5888 84.3536C49.6544 84.3071 49.7356 84.2883 49.8149 84.301C50.1744 84.3662 50.5168 84.5044 50.8208 84.707C51.1248 84.9096 51.3841 85.1724 51.5827 85.4791C51.7812 85.7858 51.9148 86.13 51.9752 86.4903C52.0356 86.8507 52.0215 87.2196 51.9338 87.5743C51.7674 87.9829 51.4751 88.3279 51.0994 88.5592C50.7236 88.7904 50.2839 88.8959 49.8441 88.8602Z" fill="url(#paint13_linear_0_167)"/>
</g>
<defs>
<linearGradient id="paint0_linear_0_167" x1="44.9869" y1="-0.0238647" x2="44.9869" y2="57.545" gradientUnits="userSpaceOnUse">
<stop stop-color="#FFC402"/>
<stop offset="1" stop-color="#F18200"/>
</linearGradient>
<linearGradient id="paint1_linear_0_167" x1="43.8961" y1="49.9548" x2="43.8961" y2="84.0897" gradientUnits="userSpaceOnUse">
<stop stop-color="#FFC402"/>
<stop offset="1" stop-color="#F18200"/>
</linearGradient>
<linearGradient id="paint2_linear_0_167" x1="51.8227" y1="49.4642" x2="51.8227" y2="67.4599" gradientUnits="userSpaceOnUse">
<stop stop-color="#FFC402"/>
<stop offset="1" stop-color="#F18200"/>
</linearGradient>
<linearGradient id="paint3_linear_0_167" x1="72.7771" y1="41.9373" x2="72.7771" y2="70.4957" gradientUnits="userSpaceOnUse">
<stop stop-color="#FFC402"/>
<stop offset="1" stop-color="#F18200"/>
</linearGradient>
<linearGradient id="paint4_linear_0_167" x1="17.6459" y1="40.425" x2="17.6459" y2="68.8777" gradientUnits="userSpaceOnUse">
<stop stop-color="#FFC402"/>
<stop offset="1" stop-color="#F18200"/>
</linearGradient>
<linearGradient id="paint5_linear_0_167" x1="33.8875" y1="24.0669" x2="33.8875" y2="37.8906" gradientUnits="userSpaceOnUse">
<stop stop-color="#FFC402"/>
<stop offset="1" stop-color="#F18200"/>
</linearGradient>
<linearGradient id="paint6_linear_0_167" x1="56.113" y1="24.0967" x2="56.113" y2="37.9203" gradientUnits="userSpaceOnUse">
<stop stop-color="#FFC402"/>
<stop offset="1" stop-color="#F18200"/>
</linearGradient>
<linearGradient id="paint7_linear_0_167" x1="53.4182" y1="39.5714" x2="53.4182" y2="49.35" gradientUnits="userSpaceOnUse">
<stop stop-color="#FFC402"/>
<stop offset="1" stop-color="#F18200"/>
</linearGradient>
<linearGradient id="paint8_linear_0_167" x1="35.6181" y1="39.6143" x2="35.6181" y2="48.2636" gradientUnits="userSpaceOnUse">
<stop stop-color="#FFC402"/>
<stop offset="1" stop-color="#F18200"/>
</linearGradient>
<linearGradient id="paint9_linear_0_167" x1="30.7871" y1="74.6333" x2="30.7871" y2="84.5986" gradientUnits="userSpaceOnUse">
<stop stop-color="#FFC402"/>
<stop offset="1" stop-color="#F18200"/>
</linearGradient>
<linearGradient id="paint10_linear_0_167" x1="37.1886" y1="77.8933" x2="37.1886" y2="86.8782" gradientUnits="userSpaceOnUse">
<stop stop-color="#FFC402"/>
<stop offset="1" stop-color="#F18200"/>
</linearGradient>
<linearGradient id="paint11_linear_0_167" x1="25.3945" y1="70.4985" x2="25.3945" y2="79.0538" gradientUnits="userSpaceOnUse">
<stop stop-color="#FFC402"/>
<stop offset="1" stop-color="#F18200"/>
</linearGradient>
<linearGradient id="paint12_linear_0_167" x1="43.6145" y1="81.2409" x2="43.6145" y2="89.608" gradientUnits="userSpaceOnUse">
<stop stop-color="#FFC402"/>
<stop offset="1" stop-color="#F18200"/>
</linearGradient>
<linearGradient id="paint13_linear_0_167" x1="50.005" y1="84.2971" x2="50.005" y2="88.867" gradientUnits="userSpaceOnUse">
<stop stop-color="#FFC402"/>
<stop offset="1" stop-color="#F18200"/>
</linearGradient>
<clipPath id="clip0_0_167">
<rect width="90" height="89.5908" fill="white"/>
</clipPath>
</defs>
</svg>
