<svg width="90" height="91" viewBox="0 0 90 91" fill="none" xmlns="http://www.w3.org/2000/svg">
<g id="Layer_1">
<path id="Vector" d="M27.3886 90.7994C25.2141 89.9201 24.9423 88.0334 24.8783 86.0028C24.7484 81.6887 26.0064 77.4468 28.4672 73.901C30.928 70.3551 34.4617 67.6925 38.5486 66.3048L39.4919 65.9691C38.0268 64.9866 36.8529 63.6281 36.0934 62.0359C35.3339 60.4437 35.0167 58.6765 35.175 56.9195C35.2784 55.6175 35.6465 54.3504 36.2568 53.1957C36.8672 52.041 37.7069 51.023 38.7245 50.2043C40.6895 48.6015 43.1984 47.8213 45.7257 48.0269C48.2531 48.2326 50.6028 49.4082 52.2828 51.3075C53.1969 52.3615 53.8781 53.5966 54.2821 54.9319C54.686 56.2673 54.8035 57.6728 54.627 59.0567C54.4504 60.4406 53.9837 61.7716 53.2574 62.9628C52.5311 64.1539 51.5616 65.1784 50.4122 65.9691L52.011 66.5607C55.5278 67.8571 58.6051 70.1238 60.886 73.098C63.1669 76.0722 64.5579 79.6321 64.8979 83.3647C65.0818 84.8246 65.0818 86.3018 64.8979 87.7616C64.8277 88.4285 64.5717 89.0624 64.159 89.591C63.7464 90.1196 63.1936 90.5216 62.5636 90.7515L27.3886 90.7994Z" fill="url(#paint0_linear_0_186)"/>
<path id="Vector_2" d="M66.8967 90.7993C66.6962 90.5903 66.5504 90.335 66.4723 90.0561C66.3942 89.7771 66.3862 89.4832 66.449 89.2005C67.346 84.7985 66.7848 80.2242 64.8502 76.1697C64.3512 75.0581 63.7631 73.9887 63.0914 72.972C62.5158 72.0767 62.6597 71.533 63.5391 70.9734C64.5982 70.3121 65.7303 69.7756 66.9127 69.3746C67.0726 69.3746 67.2644 69.3746 67.3284 69.1027C65.8776 68.0125 64.8064 66.4937 64.2665 64.7611C63.7266 63.0285 63.7454 61.17 64.32 59.4486C64.8947 57.7272 65.9962 56.2302 67.4687 55.1694C68.9411 54.1086 70.7099 53.5378 72.5247 53.5378C74.3395 53.5378 76.1083 54.1086 77.5808 55.1694C79.0532 56.2302 80.1547 57.7272 80.7294 59.4486C81.3041 61.17 81.3228 63.0285 80.7829 64.7611C80.243 66.4937 79.1718 68.0125 77.721 69.1027C77.8649 69.3746 78.1687 69.3746 78.4085 69.4545C81.9299 70.742 84.9477 73.1212 87.0215 76.2448C89.0953 79.3685 90.1166 83.0731 89.9363 86.8182C89.9718 87.6213 89.7672 88.4168 89.3486 89.1031C88.9299 89.7894 88.3163 90.3354 87.586 90.6714L66.8967 90.7993Z" fill="url(#paint1_linear_0_186)"/>
<path id="Vector_3" d="M2.39829 90.7995C1.62831 90.4587 0.984463 89.8852 0.557167 89.1597C0.129871 88.4342 -0.0593828 87.593 0.015999 86.7543C-0.145277 82.9794 0.922335 79.254 3.05861 76.1375C5.19489 73.021 8.28449 70.6817 11.8635 69.4706L12.2473 69.2788C10.7772 68.2003 9.68542 66.6849 9.12798 64.9489C8.57053 63.2129 8.57589 61.3452 9.1433 59.6125C9.7107 57.8797 10.8112 56.3706 12.2874 55.3006C13.7637 54.2306 15.5404 53.6545 17.3636 53.6545C19.1869 53.6545 20.9636 54.2306 22.4398 55.3006C23.9161 56.3706 25.0165 57.8797 25.5839 59.6125C26.1514 61.3452 26.1568 63.2129 25.5993 64.9489C25.0419 66.6849 23.9501 68.2003 22.48 69.2788C23.6915 69.696 24.859 70.2316 25.9655 70.8776C27.2606 71.5971 27.3885 72.1087 26.5891 73.3398C23.6432 77.7597 22.436 83.1128 23.1995 88.3692C23.3114 89.2166 23.7911 90.096 22.9596 90.8474L2.39829 90.7995Z" fill="url(#paint2_linear_0_186)"/>
<path id="Vector_4" d="M63.4749 10.5525C63.4729 11.301 63.1872 12.0209 62.6754 12.5671C62.4951 12.7168 62.3807 12.9313 62.3568 13.1645C62.3329 13.3977 62.4014 13.6309 62.5475 13.8142C63.0704 14.7419 63.4785 15.7298 63.7627 16.7561C63.8055 16.9552 63.9138 17.1343 64.0703 17.2647C64.2268 17.3952 64.4224 17.4694 64.626 17.4755C65.0621 17.4929 65.4899 17.5994 65.8832 17.7884C66.2766 17.9774 66.6271 18.2449 66.9131 18.5744C67.1992 18.9039 67.4148 19.2885 67.5467 19.7044C67.6785 20.1204 67.7239 20.5589 67.6799 20.993V24.7984C67.7103 25.2063 67.6593 25.6163 67.5298 26.0043C67.4003 26.3924 67.1949 26.7509 66.9256 27.0589C66.6563 27.3668 66.3285 27.6182 65.9611 27.7983C65.5938 27.9784 65.1943 28.0837 64.7859 28.108C64.5251 28.1056 64.2723 28.1985 64.0751 28.3693C63.8779 28.54 63.7498 28.7768 63.7147 29.0353C63.4132 30.0249 63.0057 30.9791 62.4996 31.8813C62.3837 32.0455 62.3312 32.246 62.3518 32.4459C62.3723 32.6458 62.4646 32.8314 62.6115 32.9685C62.906 33.2826 63.134 33.653 63.2819 34.0574C63.4298 34.4618 63.4945 34.892 63.4721 35.322C63.4497 35.752 63.3407 36.1731 63.1516 36.5599C62.9625 36.9468 62.6972 37.2914 62.3717 37.5733L59.7016 40.2753C59.1321 40.8851 58.3468 41.2481 57.5134 41.2869C56.68 41.3258 55.8644 41.0373 55.2407 40.4832C55.0955 40.3182 54.8948 40.2123 54.6766 40.1857C54.4584 40.1592 54.2381 40.2139 54.0576 40.3393C53.1054 40.8661 52.0971 41.2844 51.0517 41.5864C50.8512 41.6324 50.6718 41.7438 50.5415 41.903C50.4113 42.0622 50.3377 42.2602 50.3322 42.4658C50.3127 42.9004 50.2047 43.3265 50.0148 43.718C49.8249 44.1094 49.5571 44.458 49.2278 44.7424C48.8985 45.0267 48.5147 45.2409 48.0998 45.3718C47.6848 45.5027 47.2476 45.5475 46.8147 45.5036H42.9135C42.5063 45.534 42.0972 45.4828 41.7101 45.3532C41.323 45.2235 40.9656 45.0179 40.6589 44.7484C40.3521 44.4789 40.1023 44.151 39.9239 43.7837C39.7455 43.4165 39.6421 43.0173 39.6198 42.6097C39.6257 42.3479 39.5341 42.0933 39.3627 41.8953C39.1913 41.6973 38.9524 41.5701 38.6925 41.5384C37.7278 41.2593 36.7995 40.8675 35.9265 40.3713C35.756 40.2391 35.5429 40.1743 35.3277 40.189C35.1125 40.2038 34.9102 40.2971 34.7593 40.4512C34.4452 40.7457 34.0748 40.9738 33.6704 41.1217C33.266 41.2695 32.8359 41.3342 32.4059 41.3118C31.9759 41.2894 31.5548 41.1804 31.1679 40.9913C30.7811 40.8022 30.4364 40.5369 30.1546 40.2114L27.4685 37.5093C27.1446 37.2372 26.8798 36.9017 26.6904 36.5236C26.501 36.1454 26.3909 35.7325 26.367 35.3102C26.343 34.8879 26.4057 34.4651 26.5511 34.0679C26.6965 33.6707 26.9217 33.3075 27.2127 33.0005C27.3794 32.8376 27.4811 32.6195 27.4988 32.387C27.5164 32.1546 27.4488 31.9237 27.3086 31.7374C26.7965 30.8421 26.3991 29.8859 26.1254 28.8914C26.0834 28.6615 25.9602 28.4543 25.7783 28.3076C25.5963 28.1608 25.3678 28.0844 25.1342 28.092C24.7194 28.0719 24.313 27.9687 23.9389 27.7886C23.5648 27.6085 23.2307 27.3551 22.9564 27.0435C22.682 26.7319 22.473 26.3683 22.3418 25.9744C22.2105 25.5805 22.1597 25.1643 22.1922 24.7504C22.1922 23.4073 22.1922 22.0803 22.1922 20.7532C22.1619 20.3461 22.213 19.9369 22.3427 19.5498C22.4724 19.1626 22.6779 18.8053 22.9474 18.4986C23.2169 18.1919 23.5449 17.942 23.9121 17.7636C24.2794 17.5852 24.6785 17.4818 25.0862 17.4596C25.3461 17.4586 25.5971 17.3645 25.7936 17.1943C25.9901 17.0242 26.1192 16.7893 26.1574 16.5322C26.4427 15.5698 26.8342 14.6421 27.3246 13.7662C27.4546 13.5919 27.518 13.3768 27.5034 13.1599C27.4887 12.9429 27.397 12.7383 27.2447 12.583C26.9527 12.2692 26.7267 11.8999 26.5803 11.497C26.4339 11.0941 26.37 10.6659 26.3923 10.2379C26.4147 9.80978 26.5229 9.39056 26.7105 9.00514C26.8981 8.61972 27.1614 8.27596 27.4845 7.99429L30.1866 5.30821C30.749 4.67515 31.5395 4.29098 32.3848 4.24002C33.23 4.18907 34.0609 4.47546 34.6953 5.03638C34.8562 5.20552 35.0733 5.3102 35.3058 5.3308C35.5383 5.3514 35.7703 5.28652 35.9584 5.14831C36.8838 4.63214 37.8656 4.22439 38.8844 3.93316C39.0862 3.89584 39.2686 3.78911 39.4 3.63142C39.5314 3.47374 39.6035 3.27507 39.6038 3.06981C39.6234 2.63517 39.7314 2.20907 39.9213 1.81762C40.1112 1.42618 40.379 1.07758 40.7083 0.793207C41.0376 0.50883 41.4214 0.294667 41.8363 0.163771C42.2512 0.0328758 42.6885 -0.011966 43.1214 0.0319804C44.3845 0.0319804 45.6636 0.0319804 46.9267 0.0319804C47.3343 -0.00288491 47.7447 0.0444618 48.1336 0.171286C48.5226 0.298109 48.8821 0.501788 49.1908 0.770225C49.4995 1.03866 49.7511 1.36639 49.9307 1.73394C50.1103 2.1015 50.2142 2.50142 50.2363 2.90991C50.2367 3.1717 50.3303 3.42478 50.5001 3.62396C50.67 3.82313 50.9052 3.9554 51.1636 3.99713C52.1552 4.28622 53.1102 4.68858 54.0096 5.19628C54.1725 5.31554 54.3739 5.37011 54.5747 5.34944C54.7756 5.32876 54.9616 5.23429 55.0968 5.08434C55.4106 4.79234 55.78 4.56644 56.1829 4.42002C56.5857 4.2736 57.014 4.2097 57.442 4.23207C57.8701 4.25444 58.2893 4.36263 58.6747 4.55025C59.0601 4.73787 59.4039 5.00109 59.6856 5.32421C60.6449 6.25155 61.5722 7.19485 62.5156 8.13818C62.8355 8.45107 63.0862 8.82767 63.2514 9.24355C63.4167 9.65942 63.4928 10.1053 63.4749 10.5525ZM54.6172 22.5759C54.6077 20.5907 54.0099 18.6529 52.8995 17.0074C51.789 15.3618 50.2156 14.0823 48.3782 13.3307C46.5408 12.579 44.5219 12.3889 42.5764 12.7843C40.631 13.1797 38.8465 14.143 37.4483 15.5523C36.0501 16.9616 35.1011 18.7538 34.7212 20.7023C34.3412 22.6508 34.5474 24.6682 35.3137 26.4995C36.0799 28.3309 37.3719 29.8941 39.0262 30.9914C40.6806 32.0888 42.6231 32.671 44.6083 32.6647C47.2758 32.6352 49.8238 31.5538 51.6982 29.6555C53.5725 27.7572 54.6216 25.1956 54.6172 22.5279V22.5759Z" fill="url(#paint3_linear_0_186)"/>
<path id="Vector_5" d="M85.075 21.0891C85.1927 23.8186 84.5918 26.5312 83.3323 28.9555C83.0285 29.5311 82.9646 29.8829 83.6361 30.2026C83.9795 30.3521 84.265 30.6091 84.4496 30.935C84.6342 31.2609 84.7078 31.638 84.6593 32.0094C84.6164 32.3902 84.4566 32.7484 84.2018 33.0347C83.947 33.3211 83.6097 33.5214 83.2364 33.6082C81.1418 34.3117 79.0473 35.0472 76.9528 35.7347C76.6695 35.8912 76.3506 35.9721 76.027 35.9698C75.7033 35.9674 75.3857 35.8818 75.1047 35.7212C74.8237 35.5606 74.5887 35.3304 74.4223 35.0528C74.256 34.7751 74.1639 34.4594 74.1548 34.1358C73.7391 32.0573 73.3234 29.9788 72.9237 27.8843C72.769 27.3576 72.7972 26.794 73.0036 26.2854C73.1145 26.0606 73.2718 25.8618 73.465 25.7022C73.6582 25.5425 73.883 25.4257 74.1247 25.3592C74.3664 25.2927 74.6194 25.2782 74.8671 25.3166C75.1148 25.355 75.3516 25.4454 75.5618 25.5819C76.2813 25.9976 76.5851 25.8057 76.8249 25.0863C77.4402 23.5703 77.5955 21.9067 77.2714 20.303C76.9472 18.6994 76.158 17.2267 75.0022 16.0687C74.6801 15.812 74.4165 15.4895 74.229 15.1228C74.0415 14.7561 73.9345 14.3536 73.915 13.9422C74.2647 12.9387 74.8357 12.0267 75.5858 11.2739C76.3358 10.5211 77.2457 9.94668 78.2479 9.59326C78.6184 9.58815 78.9857 9.66257 79.3249 9.81152C79.6642 9.96046 79.9675 10.1805 80.2145 10.4567C81.6854 11.8211 82.8721 13.4629 83.7063 15.2876C84.5404 17.1123 85.0056 19.084 85.075 21.0891Z" fill="url(#paint4_linear_0_186)"/>
<path id="Vector_6" d="M17.0279 18.291C17.055 18.61 16.9961 18.9304 16.8574 19.2189C16.7187 19.5073 16.5051 19.7534 16.239 19.9313C15.9729 20.1093 15.664 20.2127 15.3444 20.2307C15.0247 20.2487 14.7061 20.1807 14.4217 20.0338C13.3665 19.5541 13.3185 19.5541 12.9668 20.6573C12.3939 22.1557 12.2703 23.7885 12.6111 25.356C12.9519 26.9236 13.7422 28.3577 14.8854 29.483C15.2218 29.7099 15.4973 30.0159 15.6877 30.3742C15.8782 30.7324 15.9778 31.1319 15.9778 31.5376C15.9778 31.9433 15.8782 32.3428 15.6877 32.701C15.4973 33.0592 15.2218 33.3653 14.8854 33.5921C14.3418 34.1357 13.8142 34.6794 13.2865 35.191C13.0795 35.4273 12.8257 35.6181 12.5411 35.7512C12.2565 35.8843 11.9474 35.9569 11.6333 35.9644C11.3192 35.9719 11.007 35.9142 10.7164 35.7948C10.4257 35.6754 10.1631 35.497 9.94493 35.2709C6.95843 32.6051 5.1383 28.873 4.87651 24.8783C4.6252 21.9216 5.2538 18.9567 6.68324 16.3564C6.92307 15.8927 6.89112 15.6049 6.41146 15.3651C6.01856 15.2158 5.68934 14.9353 5.47955 14.571C5.26976 14.2068 5.1923 13.7813 5.26027 13.3665C5.38818 12.4712 6.05971 12.0714 6.85914 11.7677C8.84173 11.1121 10.8083 10.4086 12.7909 9.75308C14.7735 9.09754 15.429 9.75309 15.7808 11.5118C16.1325 13.2706 16.5322 15.3811 16.916 17.3157C16.9479 17.7154 16.9959 18.0672 17.0279 18.291Z" fill="url(#paint5_linear_0_186)"/>
</g>
<defs>
<linearGradient id="paint0_linear_0_186" x1="44.9525" y1="47.9946" x2="44.9525" y2="90.7994" gradientUnits="userSpaceOnUse">
<stop stop-color="#FFC402"/>
<stop offset="1" stop-color="#F18200"/>
</linearGradient>
<linearGradient id="paint1_linear_0_186" x1="76.3519" y1="53.5378" x2="76.3519" y2="90.7993" gradientUnits="userSpaceOnUse">
<stop stop-color="#FFC402"/>
<stop offset="1" stop-color="#F18200"/>
</linearGradient>
<linearGradient id="paint2_linear_0_186" x1="13.544" y1="53.6545" x2="13.544" y2="90.8474" gradientUnits="userSpaceOnUse">
<stop stop-color="#FFC402"/>
<stop offset="1" stop-color="#F18200"/>
</linearGradient>
<linearGradient id="paint3_linear_0_186" x1="44.9394" y1="0.015625" x2="44.9394" y2="45.52" gradientUnits="userSpaceOnUse">
<stop stop-color="#FFC402"/>
<stop offset="1" stop-color="#F18200"/>
</linearGradient>
<linearGradient id="paint4_linear_0_186" x1="78.9574" y1="9.59302" x2="78.9574" y2="35.9698" gradientUnits="userSpaceOnUse">
<stop stop-color="#FFC402"/>
<stop offset="1" stop-color="#F18200"/>
</linearGradient>
<linearGradient id="paint5_linear_0_186" x1="10.9284" y1="9.50391" x2="10.9284" y2="35.9651" gradientUnits="userSpaceOnUse">
<stop stop-color="#FFC402"/>
<stop offset="1" stop-color="#F18200"/>
</linearGradient>
</defs>
</svg>
