<svg width="90" height="115" viewBox="0 0 90 115" fill="none" xmlns="http://www.w3.org/2000/svg">
<g id="Layer_1" clip-path="url(#clip0_201_258)">
<path id="Vector" d="M26.7488 4.84023C29.6289 5.38178 31.8444 4.19097 33.7275 2.15398C35.8199 -0.104561 38.2323 -0.652272 40.9862 0.827779C43.6756 2.27398 46.3249 2.24629 49.005 0.827779C51.6851 -0.590731 54.1128 -0.123021 56.1591 2.12321C58.0699 4.22174 60.3684 5.27101 63.2362 4.85561C63.387 4.83407 63.5439 4.85561 63.6947 4.85561C66.8333 4.40329 68.858 5.81872 69.9995 8.65266C71.058 11.2743 72.9043 12.9297 75.6982 13.4898C75.9197 13.5328 76.1321 13.6436 76.3536 13.699C79.1691 14.3729 80.5814 16.2406 80.6861 19.053C80.7999 22.087 81.9969 24.4286 84.6216 26.0286C85.1958 26.4126 85.7252 26.8594 86.2001 27.361C86.7186 27.8237 87.1077 28.4135 87.3289 29.0723C87.5501 29.7311 87.5959 30.4362 87.4617 31.1181C87.4148 31.575 87.3377 32.0283 87.2309 32.475C86.2247 35.629 86.6617 38.4814 88.7448 41.1276C90.5356 43.4046 90.3264 45.7832 88.591 48.0017C86.6801 50.4449 86.2401 53.088 87.1847 56.002C87.2984 56.4863 87.3867 56.9762 87.4494 57.4697C87.8186 59.2359 87.1694 60.6298 85.8678 61.7776C85.333 62.2742 84.7599 62.7279 84.1539 63.1345C81.9138 64.5469 80.9076 66.6208 80.7384 69.1932C80.6823 69.8036 80.594 70.4106 80.4737 71.0117C80.166 72.8764 79.1168 74.1503 77.3136 74.7657C76.3721 75.0888 75.4305 75.418 74.4766 75.7103C73.6473 75.9521 72.8778 76.3647 72.2175 76.9217C71.5572 77.4786 71.0207 78.1676 70.6426 78.9443C70.1195 79.97 69.5605 80.9751 68.9657 81.9598C68.1441 83.326 66.8671 83.9383 65.304 83.9691C64.1532 83.9906 62.9993 84.0122 61.8516 83.9352C60.0053 83.8122 58.4915 84.5014 57.1683 85.7353C56.4391 86.4153 55.6944 87.08 54.9252 87.7169C54.3213 88.2609 53.5758 88.623 52.7749 88.7613C51.9739 88.8996 51.1502 88.8085 50.3989 88.4985C49.5742 88.1908 48.7342 87.9015 47.9372 87.5323C47.0255 87.0739 46.0201 86.8323 44.9996 86.8264C43.979 86.8206 42.971 87.0506 42.054 87.4984C41.2232 87.8861 40.3493 88.1908 39.4877 88.5108C38.7532 88.8113 37.9492 88.8997 37.167 88.7659C36.3847 88.6321 35.6558 88.2814 35.063 87.7538C34.3245 87.1384 33.5983 86.523 32.909 85.8553C31.509 84.5137 29.9151 83.7722 27.9242 83.9352C26.8565 84.0214 25.7703 83.9875 24.7026 83.9691C23.0472 83.9445 21.7333 83.2768 20.8902 81.8152C20.3547 80.8921 19.8163 79.9536 19.3301 78.9966C18.9509 78.1966 18.4048 77.4869 17.7287 76.9154C17.0526 76.3438 16.262 75.9235 15.41 75.6826C14.453 75.3996 13.5114 75.0672 12.573 74.738C11.759 74.4874 11.0342 74.0082 10.4848 73.3574C9.93546 72.7066 9.58473 71.9116 9.47438 71.0671C9.32361 70.1994 9.14513 69.3317 9.07743 68.4547C9.03281 67.4126 8.72782 66.3983 8.19031 65.5045C7.6528 64.6106 6.89992 63.8656 6.00041 63.3376C2.75106 61.3591 1.69257 58.7005 2.948 55.0296C3.7111 52.7926 3.28648 50.6295 1.84028 48.7125C1.72335 48.5617 1.6495 48.3771 1.53257 48.2294C-0.508523 45.6324 -0.500331 43.0436 1.55718 40.463C3.32339 38.2383 3.65572 35.7674 2.81569 33.0781C2.66004 32.445 2.54493 31.8027 2.47106 31.155C2.33147 30.4744 2.37155 29.7691 2.58737 29.1087C2.80319 28.4483 3.18731 27.8555 3.70187 27.3887C4.35677 26.7411 5.07066 26.1559 5.83425 25.6409C8.10202 24.1763 9.09898 22.047 9.2036 19.4407C9.33284 16.2806 10.7913 14.2098 13.9699 13.5667C16.9146 12.9513 18.9147 11.2651 20.0224 8.47112C20.2794 7.91103 20.5884 7.37635 20.9455 6.87414C21.3103 6.2372 21.8408 5.71093 22.4806 5.3512C23.1205 4.99147 23.8457 4.81171 24.5795 4.831L26.7488 4.84023ZM44.971 13.219C40.8753 13.2081 36.8176 14.0044 33.0299 15.5625C29.2422 17.1206 25.7986 19.4099 22.8961 22.2996C19.9936 25.1892 17.689 28.6225 16.1141 32.4033C14.5392 36.1841 13.7249 40.2382 13.7176 44.3339C13.7107 48.4403 14.5145 52.5077 16.0829 56.3029C17.6513 60.098 19.9534 63.5463 22.8572 66.4498C25.7611 69.3534 29.2095 71.6552 33.0048 73.2232C36.8001 74.7912 40.8676 75.5946 44.9741 75.5873C49.0708 75.5949 53.1288 74.7956 56.9165 73.2347C60.7043 71.6739 64.1474 69.3822 67.0493 66.4906C69.9513 63.5989 72.2552 60.1639 73.8294 56.3818C75.4037 52.5996 76.2175 48.5444 76.2244 44.4477C76.2321 40.3425 75.4288 36.2761 73.8606 32.4822C72.2924 28.6883 69.9902 25.2415 67.0862 22.3398C64.1822 19.438 60.7336 17.1385 56.9384 15.5733C53.1432 14.0081 49.0762 13.208 44.971 13.219Z" fill="url(#paint0_linear_201_258)"/>
<path id="Vector_2" d="M36.2933 92.7138C36.2379 92.84 36.1425 93.0923 36.0287 93.3292C32.9742 99.8936 29.9167 106.465 26.8561 113.044C26.7964 113.185 26.7286 113.323 26.653 113.456C26.5053 113.711 26.4714 114.108 26.1114 114.133C25.7514 114.158 25.656 113.767 25.5114 113.518C23.9237 110.8 22.341 108.082 20.7635 105.364C20.1112 104.234 19.422 103.123 18.8158 101.979C18.3912 101.176 17.8681 100.954 16.9511 101.123C12.6217 101.926 8.27389 102.662 3.93528 103.407C3.60296 103.465 3.1968 103.677 2.97525 103.339C2.75371 103 3.06141 102.683 3.20295 102.379C6.69025 94.8647 10.1837 87.3536 13.6833 79.8457C14.1356 78.8764 14.6064 78.781 15.4403 79.4518C15.9603 79.8734 16.2188 80.4888 16.5326 81.058C17.2157 82.2889 17.8065 83.5997 18.7419 84.6859C19.4081 85.5101 20.2493 86.1757 21.2047 86.6345C22.16 87.0932 23.2055 87.3336 24.2652 87.3383C25.416 87.3383 26.5699 87.369 27.7145 87.3044C28.23 87.2653 28.7479 87.3373 29.2331 87.5157C29.7183 87.6941 30.1596 87.9746 30.527 88.3383C32.127 89.8214 33.6932 91.3753 35.881 92.0307C35.9564 92.0418 36.0285 92.0695 36.092 92.1117C36.1555 92.154 36.2089 92.2097 36.2483 92.275C36.2877 92.3403 36.3121 92.4135 36.3199 92.4894C36.3277 92.5653 36.3186 92.6419 36.2933 92.7138Z" fill="url(#paint1_linear_201_258)"/>
<path id="Vector_3" d="M64.2087 87.3291C68.5166 87.9198 71.3413 85.5751 73.1013 81.6273C73.4094 80.8451 73.9051 80.1505 74.5447 79.6048C75.1842 79.0592 75.9482 78.6791 76.7692 78.498C77.7938 78.2334 78.2646 78.3534 78.6862 79.3565C80.6278 83.9874 82.6371 88.5876 84.6248 93.2031C85.3387 94.8585 86.0587 96.5078 86.7603 98.1694C86.9049 98.5048 87.2249 98.8833 86.9357 99.2279C86.6464 99.5725 86.2833 99.2771 85.9572 99.2125C81.6493 98.3417 77.3169 97.4894 73.009 96.5632C72.1413 96.3786 71.6767 96.5632 71.2274 97.3171C68.9535 101.046 66.6396 104.757 64.3257 108.465C64.1133 108.804 63.9841 109.37 63.498 109.308C63.1102 109.259 63.061 108.721 62.9133 108.385C60.6455 103.154 58.4055 97.8894 56.11 92.6585C55.7161 91.76 55.8023 91.2338 56.6608 90.6799C57.5278 90.1129 58.3224 89.4423 59.027 88.6829C59.4992 88.1511 60.0987 87.7479 60.7693 87.5111C61.4399 87.2743 62.1596 87.2117 62.861 87.3291C63.3099 87.354 63.7598 87.354 64.2087 87.3291Z" fill="url(#paint2_linear_201_258)"/>
<path id="Vector_4" d="M44.9861 16.6036C59.8205 16.5636 72.8117 28.4317 72.7717 44.4446C72.7317 60.4574 59.799 72.2578 44.9 72.2178C30.001 72.1778 17.176 60.3866 17.1698 44.4138C17.1667 28.2501 30.2749 16.5328 44.9861 16.6036ZM61.0667 54.8141C61.0667 52.7033 61.0236 50.5924 61.0667 48.4847C61.1098 46.3769 60.1682 44.8107 58.5004 43.6261C57.5294 42.9324 56.4457 42.4119 55.2973 42.0875C49.7882 40.5077 43.9905 40.2109 38.349 41.2198C36.1951 41.5983 34.0411 42.0475 32.1334 43.1891C30.4226 44.2107 28.9641 45.5184 28.924 47.66C28.841 52.4141 28.8933 57.1711 28.8717 61.9282C28.8717 62.6883 29.201 62.9436 29.9179 62.9221C30.8761 62.8636 31.8368 62.8636 32.795 62.9221C33.9396 63.0267 34.3335 62.6575 34.3088 61.4574C34.2319 58.2389 34.2596 55.0141 34.3088 51.7925C34.3273 50.2232 35.7243 49.3493 36.9797 50.057C37.7428 50.4878 37.9336 51.1802 37.9305 52.0079C37.9305 55.2695 37.9305 58.5281 37.9305 61.7898C37.9305 62.5344 38.0967 62.9221 38.9459 62.916C42.9748 62.8872 47.0037 62.8872 51.0325 62.916C51.8572 62.916 52.0848 62.5806 52.0695 61.8113C52.0325 60.0482 52.0695 58.2819 52.0695 56.5188C52.0695 54.8695 52.0418 53.2172 52.091 51.571C52.1013 51.1039 52.2925 50.6591 52.6242 50.3303C52.956 50.0014 53.4024 49.8141 53.8695 49.8078C54.3337 49.8162 54.7776 49.9992 55.1129 50.3202C55.4482 50.6413 55.6503 51.0768 55.6788 51.5402C55.7127 51.9217 55.6973 52.3064 55.7004 52.691C55.7004 55.7219 55.7219 58.7527 55.685 61.7836C55.685 62.6298 55.965 62.959 56.8173 62.916C57.8525 62.8621 58.8899 62.8621 59.9251 62.916C60.8482 62.9652 61.1375 62.6082 61.119 61.7098C61.0421 59.4051 61.0698 57.1035 61.0667 54.8018V54.8141ZM52.1095 29.324C52.1095 25.9085 50.9556 23.6223 48.534 22.5207C47.4167 21.9979 46.1982 21.7269 44.9646 21.7269C43.731 21.7269 42.5125 21.9979 41.3953 22.5207C40.1197 23.0936 39.1061 24.1249 38.5551 25.41C36.8628 29.1025 38.0044 34.5119 41.0414 37.1858C43.2445 39.1213 46.2231 39.2628 48.537 37.4443C51.1586 35.3735 52.0787 32.5272 52.1095 29.3117V29.324Z" fill="url(#paint3_linear_201_258)"/>
</g>
<defs>
<linearGradient id="paint0_linear_201_258" x1="45.0008" y1="0.00146484" x2="45.0008" y2="88.8266" gradientUnits="userSpaceOnUse">
<stop stop-color="#FFC402"/>
<stop offset="1" stop-color="#F18200"/>
</linearGradient>
<linearGradient id="paint1_linear_201_258" x1="19.61" y1="79.02" x2="19.61" y2="114.134" gradientUnits="userSpaceOnUse">
<stop stop-color="#FFC402"/>
<stop offset="1" stop-color="#F18200"/>
</linearGradient>
<linearGradient id="paint2_linear_201_258" x1="71.4688" y1="78.377" x2="71.4688" y2="109.313" gradientUnits="userSpaceOnUse">
<stop stop-color="#FFC402"/>
<stop offset="1" stop-color="#F18200"/>
</linearGradient>
<linearGradient id="paint3_linear_201_258" x1="44.9708" y1="16.6033" x2="44.9708" y2="72.2179" gradientUnits="userSpaceOnUse">
<stop stop-color="#FFC402"/>
<stop offset="1" stop-color="#F18200"/>
</linearGradient>
<clipPath id="clip0_201_258">
<rect width="90" height="114.139" fill="white"/>
</clipPath>
</defs>
</svg>
