<svg width="100" height="100" viewBox="0 0 100 100" fill="none" xmlns="http://www.w3.org/2000/svg">
<g id="Layer_1" clip-path="url(#clip0_222_4)">
<path id="Vector" d="M39.7548 20.3863C47.0363 20.4801 53.8565 22.2632 60.1419 25.9841C61.1661 26.5926 61.1755 26.652 60.364 27.4638C57.5762 30.2619 54.7711 33.0429 51.9958 35.8551C51.4658 36.3931 51.0202 36.5229 50.2759 36.2054C34.5685 29.5221 17.1068 38.7784 14.036 55.5595C11.3013 70.5106 21.577 84.0368 35.9116 86.1296C50.1258 88.2051 62.8047 78.8284 65.4893 65.3773C66.5515 60.1789 65.9876 54.7795 63.8741 49.9131C63.5239 49.0935 63.6599 48.618 64.2603 48.0284C67.0549 45.2902 69.8224 42.5202 72.5628 39.7184C73.2414 39.0239 73.5603 39.038 74.056 39.8936C77.1252 45.1958 78.9734 50.8703 79.4346 56.9875C80.2852 68.2771 76.9955 78.2341 69.517 86.688C62.8484 94.2269 54.4147 98.6517 44.3782 99.7293C31.2694 101.137 20.0384 97.0313 10.8885 87.5732C4.77193 81.2512 1.31336 73.5778 0.278288 64.8189C-2.16241 44.2011 11.7407 24.9628 32.5265 21.0713C34.9086 20.6132 37.3291 20.3838 39.7548 20.3863Z" fill="url(#paint0_linear_222_4)"/>
<path id="Vector_2" d="M39.7442 53.2572C39.9866 53.2572 40.2633 53.1805 40.4666 53.2681C41.9144 53.9016 42.7244 53.0273 43.6422 52.1045C51.6538 44.0421 59.6889 36.0058 67.7474 27.9956C68.5167 27.2307 68.77 26.5066 68.6042 25.4274C68.2274 22.967 67.9679 20.4864 67.7255 18.0073C67.6744 17.5038 67.7391 16.9951 67.9147 16.5204C68.0903 16.0457 68.3722 15.6175 68.7387 15.2686C73.4648 10.5388 78.1935 5.81056 82.9248 1.08388C83.9395 0.0719164 85.1701 -0.264362 86.5522 0.214249C88.0079 0.719449 88.7881 1.79241 88.9726 3.30019C89.2025 5.18961 89.4417 7.07903 89.598 8.97315C89.6793 9.89283 90.0671 10.3183 91.0052 10.3996C92.9003 10.5638 94.789 10.8031 96.6778 11.0252C98.1819 11.2035 99.267 11.9637 99.7799 13.423C100.282 14.8463 99.9128 16.0929 98.8715 17.1377C94.1996 21.8237 89.5214 26.5045 84.837 31.1801C83.9145 32.1029 82.8138 32.4048 81.5145 32.2311C79.0128 31.898 76.5002 31.6352 73.9938 31.3302C73.7037 31.2836 73.4066 31.3102 73.1294 31.4077C72.8522 31.5053 72.6038 31.6706 72.4068 31.8886C63.9438 40.3785 55.4689 48.8569 46.9819 57.3238C46.5551 57.7493 46.4831 58.1512 46.5926 58.7112C47.4338 63.0359 44.7882 66.713 40.3478 67.1745C36.8876 67.5342 33.1054 65.052 32.7911 60.416C32.5363 56.6544 35.8526 53.2541 39.7442 53.2572Z" fill="url(#paint1_linear_222_4)"/>
<path id="Vector_3" d="M39.8392 80.8148C29.426 80.8148 20.7905 73.2556 19.3989 62.9139C19.0366 60.2199 19.2124 57.4807 19.9161 54.8552C20.6198 52.2297 21.8375 49.77 23.4985 47.6187C25.1595 45.4674 27.2309 43.6673 29.5925 42.3227C31.9541 40.9781 34.559 40.1158 37.2563 39.7857C40.1154 39.4089 43.0224 39.6603 45.7745 40.5224C46.7939 40.8446 46.8424 40.9806 46.1247 41.7064C44.3704 43.4785 42.5848 45.2193 40.8477 47.0102C40.3599 47.5123 39.8017 47.6171 39.17 47.6609C34.1667 47.9987 30.4736 50.423 28.4019 54.9542C26.2395 59.6856 26.8227 64.2996 30.164 68.2896C33.6038 72.3875 38.1475 73.7358 43.2744 72.2874C48.2464 70.8798 51.3736 67.4309 52.1303 62.3305C52.4289 60.3175 53.2123 58.9708 54.5913 57.7023C55.8641 56.5308 57.0477 55.2608 58.2751 54.0408C59.1053 53.2165 59.1913 53.2431 59.5415 54.399C62.4122 63.8492 57.8216 74.363 48.9547 78.6846C46.1232 80.0942 43.002 80.8236 39.8392 80.8148Z" fill="url(#paint2_linear_222_4)"/>
</g>
<defs>
<linearGradient id="paint0_linear_222_4" x1="39.7832" y1="20.3862" x2="39.7832" y2="99.9992" gradientUnits="userSpaceOnUse">
<stop stop-color="#FFC402"/>
<stop offset="1" stop-color="#F18200"/>
</linearGradient>
<linearGradient id="paint1_linear_222_4" x1="66.3896" y1="-0.000244141" x2="66.3896" y2="67.2088" gradientUnits="userSpaceOnUse">
<stop stop-color="#FFC402"/>
<stop offset="1" stop-color="#F18200"/>
</linearGradient>
<linearGradient id="paint2_linear_222_4" x1="39.8048" y1="39.6157" x2="39.8048" y2="80.8149" gradientUnits="userSpaceOnUse">
<stop stop-color="#FFC402"/>
<stop offset="1" stop-color="#F18200"/>
</linearGradient>
<clipPath id="clip0_222_4">
<rect width="100" height="100" fill="white"/>
</clipPath>
</defs>
</svg>
