<svg width="100" height="109" viewBox="0 0 100 109" fill="none" xmlns="http://www.w3.org/2000/svg">
<g id="Layer_1" clip-path="url(#clip0_201_267)">
<path id="Vector" d="M46.3743 108.133C43.8442 106.477 43.4597 105.024 44.8732 102.358C45.8287 100.551 46.7645 98.7334 47.7935 96.9665C48.1555 96.3544 48.6996 95.8704 49.3497 95.5821C49.9999 95.2937 50.7238 95.2154 51.4206 95.358C52.851 95.6209 53.8857 96.681 54.1967 98.1991C54.3548 99.0036 54.2162 99.8382 53.8066 100.548C52.7747 102.471 51.7372 104.393 50.7138 106.324C50.2615 107.172 49.5067 107.681 48.701 108.133H46.3743Z" fill="url(#paint0_linear_201_267)"/>
<path id="Vector_2" d="M80.2477 83.4535C79.7162 83.5016 79.0603 83.1708 78.4101 82.792L66.7176 76.1768C66.5338 76.0722 66.3529 75.9591 66.1521 75.8658C65.1118 75.3484 64.1308 75.5633 63.6531 76.4058C63.1753 77.2482 63.4184 78.2037 64.4644 78.8116C67.1473 80.3692 69.8584 81.8817 72.5582 83.4139C73.4458 83.9171 74.3477 84.4006 75.2212 84.932C77.1803 86.1194 77.791 88.1181 76.7648 89.8821C75.764 91.5981 73.7342 92.1098 71.7977 91.0469C67.6872 88.7852 63.5994 86.4869 59.5058 84.2027C59.045 83.9454 58.5871 83.674 58.1121 83.445C57.0859 82.9503 56.1106 83.1482 55.6752 83.9143C55.172 84.7963 55.4717 85.8282 56.5035 86.419C59.9921 88.4149 63.4929 90.3938 67.0059 92.3558C67.8993 92.8533 68.6173 93.4866 68.9848 94.4647C69.505 95.8782 69.2336 97.1193 68.1735 98.1399C67.1133 99.1604 65.7762 99.5533 64.4786 98.8833C61.3095 97.2126 57.9962 95.7736 55.1918 93.4696C54.3882 92.7751 53.4293 92.2841 52.396 92.0381C51.3628 91.792 50.2855 91.7982 49.2551 92.0561C48.5851 92.2088 48.2628 92.0561 47.9829 91.3918C46.5977 88.0389 43.6604 86.4501 40.0673 87.1088C39.3803 87.236 39.0637 87.1088 38.7782 86.4643C37.3788 83.2697 34.9645 81.811 31.4901 82.0824C30.6788 82.1474 30.6618 81.6244 30.5233 81.1325C29.7204 78.2348 27.8602 76.4566 24.9003 75.911C22.8762 75.535 21.05 76.0976 19.4555 77.3641C18.8138 77.8758 18.5339 77.8334 18.3728 76.991C17.8922 74.4777 16.5154 72.7957 14.0474 71.843C11.0932 70.698 8.25206 69.2619 5.33458 68.018C4.5204 67.6731 4.48647 67.2886 4.81724 66.5762C8.22096 59.3692 11.6134 52.1566 14.9945 44.9383C15.3479 44.1778 15.7012 44.0704 16.4476 44.4266C19.6902 45.9786 22.9752 47.4486 26.2177 49.0007C28.9486 50.3096 31.7474 50.1626 34.5885 49.5661C36.7229 49.1138 38.8291 48.5512 41.0115 48.2911C42.9475 48.0886 44.9039 48.3453 46.7221 49.0403C47.443 49.3003 47.3666 49.583 46.8804 50.0636C42.3741 54.519 37.5314 58.5447 32.0046 61.6883C30.0936 62.7767 29.9748 63.6333 31.3516 65.3804C34.1786 68.9509 37.7237 71.1503 42.4052 71.0033C45.0683 70.9185 47.6098 70.1552 50.0891 69.1969C52.4581 68.2866 54.796 67.2971 57.2018 66.4773C60.1815 65.4624 62.8898 65.6688 65.6829 67.3621C71.0146 70.5991 76.5019 73.5816 81.9241 76.6743C83.886 77.8051 84.6324 79.6992 83.7645 81.4803C83.0888 82.7976 81.975 83.4365 80.2477 83.4535Z" fill="url(#paint1_linear_201_267)"/>
<path id="Vector_3" d="M42.176 67.5799C39.3716 67.6251 37.1523 66.5481 35.2809 64.6596C34.9388 64.3147 34.7155 64.0179 35.2978 63.6786C40.7568 60.4756 45.3055 56.1531 49.9757 51.955C52.5737 49.6171 55.6297 47.9972 59.2257 47.6551C61.018 47.4827 62.7397 47.7936 64.4387 48.2771C66.4176 48.8425 68.2608 49.7273 70.1747 50.4369C72.4052 51.2624 74.6612 51.9267 77.0868 51.3444C78.5172 50.9995 79.747 50.2334 81.022 49.5634C82.5514 48.7577 84.078 47.9491 85.5876 47.1095C86.2067 46.7674 86.5657 46.7703 86.8569 47.5251C89.797 55.1561 92.7541 62.7796 95.7281 70.3956C96.0108 71.0939 95.8921 71.484 95.1627 71.7837C92.3611 72.9428 89.5822 74.1499 86.7891 75.3288C86.4442 75.4758 86.0908 75.6821 85.7148 75.3288C83.5691 73.3244 80.8523 72.219 78.3646 70.7603C74.6329 68.5496 70.7797 66.5424 67.0933 64.2582C63.8111 62.2312 60.43 61.9966 56.8397 63.0256C54.0127 63.8285 51.3637 65.0752 48.6159 66.0816C46.5098 66.8703 44.381 67.6223 42.176 67.5799Z" fill="url(#paint2_linear_201_267)"/>
<path id="Vector_4" d="M60.9872 33.551C60.8798 34.4302 60.3652 33.8676 60.0628 33.698C57.4789 32.2534 54.8356 30.8964 52.362 29.2822C50.7845 28.2532 49.5774 28.2645 48.0055 29.2822C45.5602 30.8738 42.948 32.211 40.4009 33.6499C40.1323 33.8026 39.8355 34.1164 39.5528 33.9326C39.1824 33.698 39.4566 33.2881 39.5217 32.9658C40.1888 29.6525 40.8391 26.3365 41.5599 23.0345C41.661 22.7005 41.6565 22.3435 41.5473 22.0121C41.438 21.6808 41.2292 21.3912 40.9493 21.1828C38.405 18.9014 35.8889 16.5889 33.3644 14.2849C33.1637 14.1011 32.799 13.9598 32.8669 13.6573C32.9545 13.2926 33.3701 13.335 33.6669 13.3039C37.0593 12.9251 40.4517 12.5378 43.8442 12.2099C44.1924 12.2086 44.5312 12.0968 44.8116 11.8905C45.0921 11.6842 45.2998 11.3941 45.4047 11.0621C46.8012 7.59899 48.2458 4.15569 49.6848 0.709555C49.7979 0.426854 49.812 -0.0141602 50.1852 -0.0141602C50.5583 -0.0141602 50.5725 0.435335 50.6884 0.709555C52.1273 4.15569 53.5719 7.59899 54.9713 11.0621C55.2766 11.8197 55.7205 12.1307 56.529 12.2099C59.9214 12.535 63.3138 12.9194 66.7062 13.2926C67.0087 13.3265 67.4186 13.2926 67.5119 13.6488C67.5883 13.9541 67.2292 14.0955 67.02 14.2792C64.5238 16.5606 62.0332 18.8533 59.5115 21.1065C58.8669 21.6719 58.6323 22.2373 58.833 23.1278C59.5567 26.3591 60.1787 29.6101 60.8402 32.8527C60.8826 33.0732 60.9278 33.2796 60.9872 33.551Z" fill="url(#paint3_linear_201_267)"/>
<path id="Vector_5" d="M0 22.3899C1.2665 21.8047 2.37751 21.9291 3.43198 21.7708C5.24127 21.4881 7.0647 21.3043 8.89095 21.1545C9.60618 21.0951 9.91999 20.7559 10.1886 20.1452C11.2035 17.8214 12.2608 15.5146 13.3152 13.2049C13.4424 12.9222 13.4933 12.4897 13.8524 12.4868C14.2114 12.484 14.2595 12.925 14.3839 13.1964C15.444 15.5033 16.5013 17.8101 17.5247 20.1339C17.6244 20.4309 17.814 20.6895 18.0673 20.8739C18.3205 21.0583 18.6249 21.1593 18.9382 21.1629C21.392 21.3891 23.8402 21.6916 26.2884 21.9658C26.6701 22.0082 27.2044 21.9658 27.34 22.3079C27.4984 22.7093 26.981 22.9383 26.7125 23.1899C24.9512 24.8155 23.1985 26.4551 21.3948 28.0326C20.7277 28.615 20.5241 29.1832 20.7277 30.0596C21.2931 32.4625 21.7454 34.8853 22.2401 37.3024C22.3023 37.6049 22.4719 37.995 22.1949 38.1957C21.9178 38.3964 21.6097 38.0826 21.3468 37.9328C19.136 36.6804 16.9225 35.4394 14.7344 34.1531C14.4797 33.9732 14.1755 33.8767 13.8637 33.8767C13.5519 33.8767 13.2477 33.9732 12.9929 34.1531C10.8077 35.4422 8.58847 36.6776 6.37775 37.9243C6.11201 38.0742 5.81234 38.3908 5.52964 38.1844C5.24694 37.978 5.44482 37.5851 5.50419 37.2939C5.99326 34.84 6.45972 32.3805 7.02796 29.9436C7.13396 29.6129 7.13371 29.2573 7.02723 28.9267C6.92075 28.5961 6.71338 28.3071 6.43427 28.1004C4.56561 26.4353 2.73372 24.7278 0.884857 23.0401C0.641734 22.845 0.375993 22.6726 0 22.3899Z" fill="url(#paint4_linear_201_267)"/>
<path id="Vector_6" d="M78.0595 37.684C78.5825 35.1397 79.0773 32.57 79.6483 30.0285C79.8321 29.2058 79.6794 28.6489 79.032 28.0807C77.1747 26.458 75.3739 24.7674 73.5618 23.0938C73.3356 22.8874 72.9313 22.698 73.0218 22.3729C73.1292 21.9856 73.5872 22.0422 73.9236 22.0054C76.4679 21.7001 79.0292 21.3976 81.5876 21.1573C81.8476 21.1547 82.1004 21.0719 82.3114 20.92C82.5225 20.7682 82.6814 20.5549 82.7665 20.3092C83.7899 17.9854 84.8368 15.6738 85.9073 13.3745C86.0572 13.0494 86.0854 12.4982 86.5434 12.5264C86.9137 12.5406 86.9646 13.041 87.1088 13.3519C88.1491 15.6305 89.198 17.9034 90.1931 20.1961C90.2826 20.477 90.4578 20.7229 90.694 20.8993C90.9302 21.0757 91.2157 21.1738 91.5105 21.1799C93.9982 21.4117 96.4804 21.7114 98.9653 21.9941C99.3356 22.0365 99.8473 21.9715 99.983 22.3701C100.119 22.7687 99.6381 22.9355 99.3922 23.1673C97.5518 24.8635 95.7171 26.5597 93.8484 28.2333C93.6022 28.4271 93.4216 28.6919 93.3311 28.9918C93.2406 29.2917 93.2445 29.6122 93.3424 29.9097C93.9078 32.3834 94.3912 34.8712 94.8831 37.3589C94.9396 37.6416 95.1658 38.0148 94.8209 38.2297C94.5382 38.3908 94.2923 38.1166 94.0576 37.9809C91.9402 36.7851 89.7888 35.6373 87.7279 34.351C86.7978 33.7715 86.108 33.8732 85.2345 34.399C83.1538 35.6571 81.0194 36.8303 78.9076 38.0318C78.6956 38.1505 78.4864 38.3456 78.2292 38.2579C77.9719 38.1703 78.0793 37.8819 78.0595 37.684Z" fill="url(#paint5_linear_201_267)"/>
<path id="Vector_7" d="M27.6288 100.8C25.3672 100.8 23.5466 98.3518 24.6011 96.1185C26.0881 92.9664 27.7872 89.899 29.5258 86.8883C30.3739 85.4324 32.5789 85.0592 34.049 85.879C35.519 86.6989 36.3304 88.641 35.5699 90.162C34.0292 93.2519 32.3782 96.2881 30.6933 99.3017C30.1194 100.351 29.0734 100.823 27.6288 100.8Z" fill="url(#paint6_linear_201_267)"/>
<path id="Vector_8" d="M41.4974 90.3259C44.0672 90.3683 45.8114 92.989 44.7428 95.2478C43.5696 97.7271 42.2409 100.138 40.8529 102.51C40.6294 102.894 40.3324 103.23 39.9789 103.498C39.6254 103.767 39.2224 103.963 38.793 104.075C38.3636 104.187 37.9162 104.214 37.4765 104.153C37.0368 104.092 36.6134 103.945 36.2307 103.72C35.4452 103.295 34.8545 102.582 34.5816 101.732C34.3088 100.881 34.3749 99.9578 34.7663 99.1547C35.9621 96.763 37.2456 94.4081 38.5404 92.0674C39.1906 90.8885 40.3242 90.4305 41.4974 90.3259Z" fill="url(#paint7_linear_201_267)"/>
<path id="Vector_9" d="M24.0127 79.2837C24.5685 79.2931 25.1133 79.4403 25.5981 79.7123C26.0829 79.9843 26.4926 80.3725 26.7903 80.842C27.0879 81.3115 27.2643 81.8476 27.3035 82.4021C27.3427 82.9567 27.2436 83.5122 27.015 84.019C25.9266 86.3852 24.6572 88.6722 23.3398 90.9254C22.4606 92.435 20.3884 92.8788 18.8562 92.0703C17.3239 91.2618 16.4561 89.345 17.2165 87.7534C18.3473 85.3731 19.6251 83.0493 20.9454 80.7651C21.5475 79.7219 22.6105 79.2583 24.0127 79.2837Z" fill="url(#paint8_linear_201_267)"/>
<path id="Vector_10" d="M62.7173 103.788C62.7343 106.333 60.4133 108.029 58.1941 107.347C55.0222 106.364 54.8017 105.841 56.3848 102.999C56.9568 102.068 57.3597 101.043 57.575 99.9717C57.6344 99.5986 57.7814 99.2084 58.2563 99.4742C59.421 100.127 60.7045 100.605 61.6855 101.532C62.305 102.125 62.6742 102.932 62.7173 103.788Z" fill="url(#paint9_linear_201_267)"/>
</g>
<defs>
<linearGradient id="paint0_linear_201_267" x1="49.1601" y1="95.2886" x2="49.1601" y2="108.133" gradientUnits="userSpaceOnUse">
<stop stop-color="#FFC402"/>
<stop offset="1" stop-color="#F18200"/>
</linearGradient>
<linearGradient id="paint1_linear_201_267" x1="44.3717" y1="44.231" x2="44.3717" y2="99.2152" gradientUnits="userSpaceOnUse">
<stop stop-color="#FFC402"/>
<stop offset="1" stop-color="#F18200"/>
</linearGradient>
<linearGradient id="paint2_linear_201_267" x1="65.4039" y1="46.8906" x2="65.4039" y2="75.5238" gradientUnits="userSpaceOnUse">
<stop stop-color="#FFC402"/>
<stop offset="1" stop-color="#F18200"/>
</linearGradient>
<linearGradient id="paint3_linear_201_267" x1="50.1905" y1="-0.0141602" x2="50.1905" y2="34.0318" gradientUnits="userSpaceOnUse">
<stop stop-color="#FFC402"/>
<stop offset="1" stop-color="#F18200"/>
</linearGradient>
<linearGradient id="paint4_linear_201_267" x1="13.6848" y1="12.4868" x2="13.6848" y2="38.2608" gradientUnits="userSpaceOnUse">
<stop stop-color="#FFC402"/>
<stop offset="1" stop-color="#F18200"/>
</linearGradient>
<linearGradient id="paint5_linear_201_267" x1="86.5078" y1="12.5254" x2="86.5078" y2="38.2799" gradientUnits="userSpaceOnUse">
<stop stop-color="#FFC402"/>
<stop offset="1" stop-color="#F18200"/>
</linearGradient>
<linearGradient id="paint6_linear_201_267" x1="30.0772" y1="85.4519" x2="30.0772" y2="100.801" gradientUnits="userSpaceOnUse">
<stop stop-color="#FFC402"/>
<stop offset="1" stop-color="#F18200"/>
</linearGradient>
<linearGradient id="paint7_linear_201_267" x1="39.7393" y1="90.3259" x2="39.7393" y2="104.185" gradientUnits="userSpaceOnUse">
<stop stop-color="#FFC402"/>
<stop offset="1" stop-color="#F18200"/>
</linearGradient>
<linearGradient id="paint8_linear_201_267" x1="22.1241" y1="79.2827" x2="22.1241" y2="92.4683" gradientUnits="userSpaceOnUse">
<stop stop-color="#FFC402"/>
<stop offset="1" stop-color="#F18200"/>
</linearGradient>
<linearGradient id="paint9_linear_201_267" x1="59.0705" y1="99.3867" x2="59.0705" y2="107.499" gradientUnits="userSpaceOnUse">
<stop stop-color="#FFC402"/>
<stop offset="1" stop-color="#F18200"/>
</linearGradient>
<clipPath id="clip0_201_267">
<rect width="100" height="108.133" fill="white"/>
</clipPath>
</defs>
</svg>
