<svg width="88" height="90" viewBox="0 0 88 90" fill="none" xmlns="http://www.w3.org/2000/svg">
<path d="M43.9836 15.0986H79.4158C80.7105 15.0986 80.7105 15.0986 80.7105 16.4229V64.0235C80.7105 65.3667 80.7105 65.3667 82.0623 65.3856C83.9662 65.3856 85.0896 66.4262 84.9944 68.1289C84.9548 68.7249 84.6998 69.2867 84.2765 69.7107C83.8532 70.1348 83.2901 70.3927 82.6906 70.437C82.3355 70.4561 81.9796 70.4561 81.6244 70.437H47.6963C46.5159 70.437 46.5159 70.437 46.5159 71.5911C46.5159 72.7452 46.5159 73.5965 46.5159 74.5992C46.4668 74.9277 46.5352 75.2628 46.7092 75.5462C46.8831 75.8297 47.1516 76.0436 47.4678 76.1506C48.6974 76.8131 49.7196 77.7992 50.4224 79.0009C51.1251 80.2026 51.4813 81.5734 51.4518 82.9629C51.4223 84.3524 51.0083 85.707 50.2551 86.8782C49.502 88.0493 48.4388 88.9918 47.1822 89.6021C45.4398 90.1869 43.5432 90.1253 41.8429 89.4288C40.1425 88.7323 38.7533 87.4479 37.9317 85.8129C37.1102 84.1778 36.9118 82.3026 37.3733 80.5335C37.8347 78.7644 38.9249 77.221 40.4423 76.1884C40.7717 76.0736 41.0506 75.8484 41.2313 75.5516C41.4119 75.2547 41.483 74.9046 41.4324 74.5614C41.3752 73.5027 41.3752 72.4417 41.4324 71.383C41.4324 70.6262 41.1849 70.4181 40.4614 70.4181C34.4068 70.4181 28.3523 70.4181 22.2978 70.4181H5.63838C5.30334 70.4293 4.96937 70.3748 4.65553 70.2577C4.34169 70.1406 4.05414 69.9633 3.80928 69.7358C3.31476 69.2763 3.02416 68.6405 3.00144 67.9681C2.97872 67.2957 3.22572 66.6419 3.68811 66.1505C4.1505 65.6591 4.79039 65.3704 5.46703 65.3478C7.21865 65.3478 7.21865 65.3478 7.21865 63.4559V16.7256C7.21865 14.8337 7.00921 15.004 8.91315 15.004L43.9836 15.0986ZM63.6132 38.5961C62.1011 38.529 60.586 38.5796 59.0818 38.7475C58.5374 38.8387 58.0446 39.1227 57.6946 39.547C57.3445 39.9713 57.161 40.5072 57.1779 41.0556C57.1903 41.588 57.386 42.1002 57.7325 42.5065C58.079 42.9128 58.5553 43.1886 59.0818 43.2881C59.7847 43.4169 60.5007 43.4613 61.2142 43.4205C61.4617 43.4205 61.8425 43.307 61.9568 43.5719C62.071 43.8367 61.7283 44.0638 61.5379 44.253C58.3393 47.4314 55.1407 50.5909 52.0182 53.7125C51.428 54.299 51.1043 54.2044 50.6284 53.6179C49.0862 51.726 47.525 49.8341 45.9637 48.0368C45.7673 47.7625 45.5141 47.5331 45.2213 47.3639C44.9284 47.1947 44.6026 47.0896 44.2655 47.0555C43.9285 47.0215 43.588 47.0594 43.2669 47.1666C42.9457 47.2738 42.6513 47.448 42.4034 47.6773C39.0715 50.4774 35.7777 53.3531 32.4839 56.1531C32.1545 56.4132 31.9075 56.7621 31.7725 57.158C31.6374 57.5539 31.62 57.9801 31.7223 58.3856C31.8049 58.8166 32.0066 59.2162 32.3048 59.5398C32.6029 59.8634 32.9858 60.0983 33.4106 60.218C33.8353 60.3378 34.2853 60.3378 34.71 60.2179C35.1348 60.0981 35.5176 59.8633 35.8158 59.5396L42.5176 53.8639C43.7361 52.8044 43.7361 52.8044 44.7452 54.0152C46.116 55.6801 47.5059 57.3261 48.8958 58.972C49.1049 59.3637 49.4129 59.6946 49.7897 59.932C50.1665 60.1695 50.599 60.3054 51.0447 60.3264C51.4904 60.3474 51.9339 60.2528 52.3316 60.0518C52.7293 59.8508 53.0675 59.5504 53.3129 59.1802C57.1208 55.3963 60.9287 51.6125 64.7365 47.8287L65.2506 47.3179C65.5933 47.0151 65.7646 47.1287 65.7646 47.5638C65.7646 47.999 65.7646 48.68 65.7646 49.2476C65.7335 49.7684 65.8699 50.2855 66.1539 50.7242C66.438 51.1629 66.8551 51.5005 67.3449 51.6882C69.0775 52.3125 70.5816 51.1395 70.6006 49.0963C70.6006 46.5233 70.6006 43.9692 70.6006 41.3962C70.6456 41.0185 70.6044 40.6356 70.4802 40.2759C70.356 39.9162 70.1519 39.5889 69.8832 39.3182C69.6144 39.0475 69.2878 38.8403 68.9275 38.712C68.5672 38.5838 68.1825 38.5377 67.8019 38.5772L63.6132 38.5961ZM32.522 25.0122H44.5548C45.0544 25.0286 45.554 24.9776 46.0399 24.8608C46.6337 24.697 47.1385 24.3073 47.445 23.776C47.7516 23.2448 47.835 22.6149 47.6773 22.023C47.5357 21.4156 47.169 20.8836 46.6503 20.533C46.1316 20.1824 45.4989 20.0388 44.8785 20.1311H20.1273C19.7464 20.1317 19.3678 20.1891 19.004 20.3013C18.708 20.3758 18.43 20.5086 18.1865 20.6916C17.943 20.8747 17.7389 21.1044 17.5863 21.3672C17.4336 21.63 17.3355 21.9205 17.2978 22.2216C17.2601 22.5227 17.2835 22.8283 17.3666 23.1203C17.5082 23.7276 17.8749 24.2596 18.3936 24.6102C18.9123 24.9609 19.545 25.1044 20.1654 25.0122H32.522ZM32.522 34.9258H44.631C46.6872 34.9258 47.8296 34.0556 47.8296 32.5231C47.8296 30.9907 46.6872 30.1014 44.631 30.1014H20.6414C18.5851 30.1014 17.4428 30.9717 17.4428 32.5042C17.4428 34.0366 18.5852 34.9258 20.6224 34.9258H32.522ZM26.8102 40.0151H20.451C19.9756 40.0051 19.5012 40.0624 19.0421 40.1853C18.7491 40.2658 18.4753 40.4036 18.2365 40.5906C17.9978 40.7776 17.7991 41.0101 17.6519 41.2744C17.5047 41.5386 17.4121 41.8295 17.3795 42.1298C17.3469 42.4301 17.3748 42.7338 17.4618 43.0232C17.7855 44.234 18.6803 44.9151 20.2606 44.9151H33.4358C33.9155 44.9261 34.3932 44.8492 34.8448 44.6881C35.2913 44.5169 35.6755 44.2159 35.9472 43.8244C36.2189 43.4329 36.3655 42.969 36.3679 42.4935C36.3643 42.0205 36.217 41.5597 35.9452 41.1714C35.6733 40.7831 35.2898 40.4856 34.8448 40.3178C34.3691 40.1477 33.8648 40.0706 33.3597 40.0908L26.8102 40.0151ZM43.9456 85.1561C44.5425 85.1031 45.0978 84.83 45.5022 84.3906C45.9067 83.9512 46.131 83.3773 46.131 82.7818C46.131 82.1863 45.9067 81.6124 45.5022 81.1729C45.0978 80.7335 44.5425 80.4604 43.9456 80.4074C43.3152 80.4214 42.714 80.674 42.2646 81.1134C41.8153 81.5529 41.5517 82.1463 41.5276 82.7723C41.5566 83.3932 41.8229 83.9798 42.2723 84.4122C42.7216 84.8446 43.3201 85.0904 43.9456 85.0994V85.1561Z" fill="white"/>
<path d="M43.9016 9.98091H5.10014C4.17148 10.0202 3.2513 9.79201 2.45187 9.32407C1.65243 8.85613 1.00831 8.16871 0.598102 7.34569C0.182601 6.57958 -0.022878 5.71966 0.0020216 4.85109C0.0269212 3.98252 0.281337 3.13543 0.740063 2.39372C1.19879 1.652 1.8459 1.0414 2.61735 0.622361C3.38879 0.203326 4.25781 -0.00957227 5.1383 0.00469989H82.7603C83.8562 -0.0425306 84.9374 0.267269 85.8372 0.886371C86.737 1.50547 87.4053 2.39947 87.7392 3.43048C87.9947 4.18446 88.0637 4.98774 87.9407 5.7734C87.8177 6.55906 87.5062 7.30435 87.0321 7.94712C86.558 8.58989 85.9351 9.11155 85.2152 9.4686C84.4954 9.82565 83.6995 10.0078 82.8938 9.99975L43.9016 9.98091Z" fill="white"/>
</svg>
