<svg width="88" height="90" viewBox="0 0 88 90" fill="none" xmlns="http://www.w3.org/2000/svg">
<g id="Layer_1" clip-path="url(#clip0_201_446)">
<path id="Vector" d="M55.6669 90.0002C54.2866 89.7435 52.9846 89.1675 51.8641 88.3176C50.7436 87.4678 49.8353 86.3675 49.211 85.1039C48.498 83.7669 48.1468 82.2652 48.1924 80.749C48.2381 79.2327 48.679 77.7552 49.4711 76.464C51.5221 72.9198 54.5762 70.0694 58.2445 68.2756C58.9421 67.9191 58.8711 67.6815 58.4455 67.1467C56.9402 65.3299 55.9917 63.1132 55.715 60.7653C55.4384 58.4175 55.8454 56.0394 56.8869 53.9194C57.9283 51.7995 59.5593 50.0289 61.5822 48.8222C63.605 47.6156 65.9327 47.0248 68.283 47.1216C71.4445 47.2636 74.4256 48.6417 76.5904 50.9618C78.7552 53.282 79.9323 56.3605 79.8705 59.5407C79.8478 62.3461 78.8384 65.053 77.0209 67.1823C76.477 67.8122 76.7135 67.9904 77.2929 68.2875C81.0932 70.1473 84.219 73.156 86.2318 76.8918C86.8717 78.1108 87.2243 79.4613 87.2625 80.839C87.3007 82.2167 87.0235 83.5849 86.4522 84.8378C85.8809 86.0908 85.0308 87.195 83.9675 88.0654C82.9043 88.9358 81.6563 89.5489 80.3198 89.8576L79.8114 90.0002H55.6669Z" fill="white"/>
<path id="Vector_2" d="M6.24352 90C4.92254 89.7296 3.69537 89.1152 2.68482 88.2184C1.67427 87.3216 0.91579 86.1737 0.485256 84.8897C0.0872997 83.7979 -0.04838 82.6271 0.0892893 81.4726C0.226959 80.3182 0.634079 79.2127 1.27746 78.2464C2.72869 75.8482 4.76318 73.8605 7.18945 72.4706C7.85159 72.0903 8.00529 71.8407 7.53233 71.1039C6.46693 69.5332 5.86526 67.6916 5.79679 65.7918C5.72832 63.8921 6.19586 62.0116 7.14541 60.3675C8.09495 58.7234 9.48777 57.3828 11.1631 56.5004C12.8383 55.6181 14.7278 55.23 16.6132 55.381C18.4197 55.4514 20.1683 56.0406 21.6519 57.079C23.1356 58.1174 24.2921 59.5613 24.9845 61.2399C25.7347 62.807 26.0567 64.5464 25.9174 66.2797C25.7782 68.0131 25.1828 69.6781 24.1923 71.1039C23.743 71.8051 23.8021 72.0903 24.5116 72.4825C26.8045 73.7742 28.7519 75.6051 30.1871 77.8185C33.3204 82.6317 31.3695 88.1579 25.9068 89.8811C25.8004 89.8811 25.694 89.9643 25.5875 90H6.24352Z" fill="white"/>
<path id="Vector_3" d="M47.6273 0.0116333H62.0407C65.975 -0.00680974 69.7781 1.4326 72.7232 4.05469C75.6682 6.67678 77.5487 10.2977 78.0051 14.2254C78.4616 18.1531 77.4621 22.1122 75.1976 25.3459C72.9331 28.5796 69.5624 30.8612 65.7298 31.7547C65.0795 31.9092 64.8076 32.1706 64.8312 32.8718C64.8312 34.6188 64.8312 36.3777 64.8312 38.1366C64.8509 38.9053 64.6228 39.6599 64.1809 40.2876C63.9513 40.6041 63.6565 40.8671 63.3166 41.0585C62.9767 41.25 62.5997 41.3655 62.2113 41.3971C61.8229 41.4287 61.4323 41.3756 61.0661 41.2416C60.7 41.1075 60.367 40.8957 60.0898 40.6204C58.3635 39.2299 56.6727 37.78 54.9818 36.3658C53.5038 35.1774 52.014 33.8939 50.5715 32.6341C50.1797 32.3248 49.6839 32.1799 49.1881 32.2301H33.4386C29.2578 32.2829 25.2163 30.7218 22.1467 27.8685C19.7782 25.6575 18.1312 22.7777 17.4221 19.6079C16.7131 16.4381 16.9753 13.1268 18.1742 10.1097C19.3732 7.09253 21.4527 4.51082 24.1392 2.70418C26.8258 0.897527 29.9935 -0.0494281 33.2257 -0.0121223C38.0144 0.035415 42.7913 0.0116333 47.6273 0.0116333Z" fill="white"/>
<path id="Vector_4" d="M31.1443 44.1978C29.3944 44.1978 27.5972 44.1978 25.9063 44.1978C25.2918 44.1782 24.6938 44.3998 24.2391 44.8158C22.3591 46.4321 20.4555 48.0127 18.5518 49.5695C18.1431 50.0143 17.6032 50.3155 17.0115 50.4289C16.4198 50.5423 15.8076 50.4618 15.2648 50.1994C14.7836 49.9758 14.3776 49.6162 14.0962 49.1646C13.8149 48.713 13.6704 48.1889 13.6803 47.6562C13.6803 46.6579 13.6803 45.6715 13.6803 44.6732C13.7146 44.4139 13.6476 44.1514 13.4932 43.9408C13.3388 43.7302 13.1092 43.5881 12.8527 43.5442C10.8652 42.9361 9.07436 41.8078 7.66359 40.275C6.25283 38.7422 5.2729 36.8599 4.82419 34.8211C4.22752 32.0993 4.58409 29.254 5.83364 26.766C7.08318 24.278 9.14905 22.2999 11.6821 21.166C12.4152 20.8689 12.5216 21.273 12.6635 21.784C13.8377 25.9889 16.2724 29.7281 19.6364 32.4925C23.0004 35.257 27.1301 36.9124 31.4636 37.2336C36.2878 37.5545 41.1238 37.2336 45.9598 37.3644C47.1422 37.3644 47.1422 37.3643 46.5628 38.3626C45.4926 40.1374 43.9815 41.6019 42.1781 42.6124C40.3746 43.623 38.3406 44.1447 36.2759 44.1265C34.6206 44.2335 32.8588 44.1978 31.1443 44.1978Z" fill="white"/>
</g>
<defs>
<clipPath id="clip0_201_446">
<rect width="87.2727" height="90" fill="white"/>
</clipPath>
</defs>
</svg>
