<svg width="90" height="90" viewBox="0 0 90 90" fill="none" xmlns="http://www.w3.org/2000/svg">
<g id="Layer_1" clip-path="url(#clip0_0_228)">
<path id="Vector" d="M41.4519 0H48.6519C48.8296 0 48.9926 0.0888545 49.1704 0.103669C51.7333 0.311077 52.5185 1.14073 52.563 3.68887C52.5668 5.19422 52.924 6.67763 53.6058 8.0197C54.2877 9.36177 55.2751 10.525 56.4887 11.4157C57.7023 12.3064 59.108 12.8997 60.5928 13.1479C62.0775 13.396 63.5998 13.2921 65.037 12.8444C66.7791 12.3082 68.3651 11.3576 69.6593 10.0741C70.0998 9.58733 70.712 9.29059 71.3669 9.24637C72.0219 9.20216 72.6684 9.41391 73.1704 9.83701C75.8206 11.9218 78.204 14.3251 80.2667 16.9926C80.6706 17.4856 80.8787 18.1101 80.8514 18.7468C80.8241 19.3835 80.5632 19.9879 80.1185 20.4444C79.8815 20.7407 79.6148 21.0074 79.3482 21.2889C78.2941 22.4642 77.5398 23.8769 77.1496 25.4067C76.7594 26.9364 76.7449 28.5378 77.1072 30.0744C77.4695 31.611 78.198 33.0372 79.2305 34.2315C80.263 35.4258 81.5689 36.3527 83.037 36.9333C84.346 37.3448 85.6982 37.6033 87.0667 37.7037C87.816 37.7563 88.5174 38.0915 89.029 38.6416C89.5405 39.1917 89.8241 39.9155 89.8222 40.6666C90.0444 43.4622 90.0444 46.2711 89.8222 49.0667C89.6148 51.6148 88.8296 52.4296 86.2815 52.5037H85.763C84.4107 52.5933 83.0917 52.9623 81.8891 53.5872C80.6865 54.2122 79.6266 55.0796 78.776 56.1348C77.9255 57.1899 77.3029 58.4099 76.9475 59.7177C76.5921 61.0255 76.5116 62.3928 76.7111 63.7333C77.0998 65.9351 78.1668 67.9603 79.763 69.5259C80.021 69.7485 80.2325 70.0198 80.3856 70.3243C80.5386 70.6288 80.6301 70.9604 80.6549 71.3003C80.6796 71.6401 80.6372 71.9815 80.5299 72.305C80.4226 72.6284 80.2526 72.9275 80.0296 73.1852C77.9323 75.8595 75.531 78.2807 72.8741 80.4C72.5368 80.657 72.1445 80.8322 71.7281 80.9119C71.3116 80.9916 70.8824 80.9735 70.4741 80.8592C69.7861 80.6082 69.174 80.1848 68.6963 79.6296C67.5792 78.6014 66.2408 77.8435 64.7843 77.4146C63.3279 76.9856 61.7924 76.897 60.2963 77.1555C58.0494 77.5142 56.0033 78.6606 54.5241 80.3895C53.0449 82.1184 52.2289 84.3172 52.2222 86.5926C52.2222 88.8148 51.2296 89.7185 49.0074 89.8963C46.2069 90.1185 43.3931 90.1185 40.5926 89.8963C38.4 89.7333 37.4074 88.7852 37.3926 86.5778C37.3905 85.3499 37.1749 84.1318 36.7556 82.9777C35.9845 80.9268 34.5361 79.2007 32.6502 78.0853C30.7643 76.9699 28.5539 76.5321 26.3852 76.8444C24.0845 77.1487 21.9437 78.188 20.2815 79.8074C20.0613 80.0666 19.7917 80.2794 19.4885 80.4334C19.1852 80.5874 18.8543 80.6795 18.5151 80.7043C18.1759 80.7291 17.8352 80.6862 17.5127 80.578C17.1903 80.4698 16.8926 80.2985 16.637 80.0741C14.0486 77.9874 11.7075 75.6115 9.65926 72.9926C9.34995 72.6143 9.15384 72.1563 9.09355 71.6714C9.03327 71.1864 9.11125 70.6943 9.31851 70.2518C9.60908 69.695 9.99519 69.1936 10.4593 68.7703C11.3811 67.7755 12.0873 66.6007 12.5334 65.3199C12.9796 64.039 13.156 62.6797 13.0517 61.3274C12.9473 59.9751 12.5645 58.659 11.9271 57.4618C11.2898 56.2645 10.4117 55.212 9.34814 54.3703C7.55414 53.038 5.38971 52.2976 3.15555 52.2518C2.75144 52.2641 2.34908 52.1936 1.97324 52.0446C1.59741 51.8956 1.25604 51.6712 0.97016 51.3854C0.684276 51.0995 0.459923 50.7581 0.310912 50.3823C0.161901 50.0065 0.0913866 49.6041 0.103703 49.2C0.0836568 48.966 0.049022 48.7334 0 48.5037V41.3037C0 40.9777 0.103704 40.6667 0.133334 40.3555C0.109572 39.9602 0.169928 39.5644 0.310426 39.1942C0.450924 38.8239 0.668367 38.4877 0.94839 38.2076C1.22841 37.9276 1.56465 37.7102 1.9349 37.5697C2.30515 37.4292 2.701 37.3688 3.0963 37.3926C3.79759 37.3772 4.49636 37.3029 5.18519 37.1704C7.55044 36.7954 9.69112 35.5526 11.1895 33.6844C12.6878 31.8163 13.4363 29.4569 13.2889 27.0667C13.163 24.5178 12.053 22.1172 10.1926 20.3704C9.92073 20.1433 9.69799 19.8632 9.53795 19.5472C9.37792 19.2312 9.28394 18.886 9.26176 18.5324C9.23958 18.1789 9.28966 17.8246 9.40894 17.4911C9.52823 17.1576 9.71421 16.8518 9.95555 16.5926C12.0124 14.0344 14.3534 11.7183 16.9333 9.68886C17.4453 9.23826 18.109 8.99845 18.7908 9.0177C19.4725 9.03694 20.1217 9.31381 20.6074 9.79257L21.3778 10.5037C23.2413 12.1146 25.6358 12.9774 28.0985 12.9254C30.5613 12.8734 32.9172 11.9103 34.7111 10.2222C35.6462 9.32859 36.3908 8.25494 36.9 7.06593C37.4093 5.87692 37.6726 4.59713 37.6741 3.30367C37.6225 2.88385 37.6647 2.45784 37.7976 2.0563C37.9306 1.65475 38.1509 1.28767 38.4429 0.981581C38.7348 0.675488 39.091 0.437998 39.4858 0.286187C39.8806 0.134376 40.3041 0.0720202 40.7259 0.103669C40.9926 0.0888545 41.2296 0.0296296 41.4519 0ZM44.9926 70.7407C49.5542 70.7724 54.0408 69.5804 57.9852 67.2889C58.5778 66.9481 58.7407 66.6963 58.1778 66.1333C54.7407 62.8049 51.3333 59.4321 47.9556 56.0148C47.795 55.8282 47.5785 55.6984 47.3381 55.645C47.0978 55.5916 46.8467 55.6174 46.6222 55.7185C43.5126 56.88 40.114 57.0224 36.9182 56.1249C33.7223 55.2273 30.8947 53.3365 28.8444 50.7259C27.2083 48.8079 26.0688 46.517 25.5263 44.055C24.9838 41.593 25.0549 39.0354 25.7333 36.6074C25.8261 36.1577 26.0814 35.758 26.4504 35.4847C26.8194 35.2114 27.2761 35.0836 27.7333 35.1259C28.3145 35.2784 28.8329 35.6102 29.2148 36.074L35.7481 42.5778C35.9164 42.8122 36.1392 43.0021 36.3974 43.1312C36.6555 43.2603 36.9411 43.3245 37.2296 43.3185C38.8 43.0963 40.3704 42.9629 41.9111 42.6222C42.186 42.588 42.4417 42.4631 42.6376 42.2672C42.8335 42.0713 42.9584 41.8156 42.9926 41.5407C43.2593 40.2222 43.3481 38.874 43.6 37.5555C43.7011 37.117 43.6785 36.6591 43.5346 36.2327C43.3908 35.8064 43.1313 35.4283 42.7852 35.1407C40.5778 32.9926 38.3407 30.8148 36.2667 28.6074C34.9185 27.2148 35.3926 25.6444 37.2741 25.2148C39.2119 24.7394 41.2205 24.6239 43.2 24.874C45.5329 25.1885 47.7675 26.0144 49.7443 27.2925C51.721 28.5707 53.391 30.2696 54.6351 32.268C55.8791 34.2664 56.6665 36.5149 56.9408 38.8529C57.2152 41.1908 56.9698 43.5605 56.2222 45.7926C56.0666 46.1139 56.0229 46.478 56.0981 46.8269C56.1732 47.1759 56.3629 47.4898 56.637 47.7185C59.8963 50.9185 63.1111 54.1629 66.3407 57.3926C67.0519 58.0889 67.0667 58.1037 67.5407 57.2148C70.1389 52.5499 71.1967 47.1834 70.563 41.8815C70.2297 38.586 69.2369 35.3912 67.6437 32.4872C66.0504 29.5832 63.8893 27.0294 61.2889 24.9778C57.839 22.0713 53.6683 20.1503 49.2171 19.4175C44.766 18.6848 40.1995 19.1675 36 20.8148C30.334 22.9106 25.5846 26.9309 22.582 32.1731C19.5794 37.4153 18.5145 43.546 19.5734 49.4937C20.6324 55.4414 23.7478 60.8278 28.3752 64.7115C33.0026 68.5953 38.8477 70.7293 44.8889 70.7407H44.9926Z" fill="white"/>
</g>
<defs>
<clipPath id="clip0_0_228">
<rect width="90" height="90" fill="white"/>
</clipPath>
</defs>
</svg>
