<svg width="70" height="64" viewBox="0 0 70 64" fill="none" xmlns="http://www.w3.org/2000/svg">
<g id="Group">
<path id="Vector" d="M14.4929 49.3035C9.56829 48.0869 7.21223 43.6451 7.92677 39.6475C8.622 35.7272 12.1947 32.7725 16.2696 32.8111C20.2478 32.869 23.724 35.9203 24.3613 39.7827C24.96 43.4134 22.9129 47.9903 17.8725 49.2649C18.1428 49.4773 18.4325 49.4001 18.7029 49.4387C25.5007 50.5202 30.9274 55.7731 32.2213 62.513C32.4337 63.6137 32.144 63.942 30.9853 63.942C24.4385 63.942 17.9111 63.942 11.3643 63.942C7.98471 63.942 4.6051 63.942 1.2255 63.942C0.124718 63.942 -0.14565 63.5944 0.066782 62.513C1.34137 55.6186 7.05773 50.2691 14.068 49.4194C14.1646 49.4001 14.2418 49.3808 14.4929 49.3035Z" fill="white"/>
<path id="Vector_2" d="M51.1662 49.3229C45.8747 47.8552 43.9822 43.4327 44.6195 39.7248C45.2761 35.7852 48.7329 32.8691 52.6726 32.8304C56.6315 32.7918 60.0884 35.5534 60.9574 39.3965C61.7106 42.7375 60.2043 47.6814 54.5651 49.3422C55.6659 49.5546 56.6702 49.6898 57.6164 50.0181C63.719 52.0845 67.4849 56.2559 68.8947 62.5516C69.1264 63.6138 68.8174 64 67.7359 64C57.7902 64 47.8446 64 37.8989 64C36.8367 64 36.547 63.6524 36.7208 62.6289C37.8409 55.8697 43.8663 50.2113 50.7027 49.4581C50.78 49.4195 50.8765 49.3808 51.1662 49.3229Z" fill="white"/>
<path id="Vector_3" d="M13.6423 0.888331C16.9447 0.888331 20.247 0.888331 23.5687 0.888331C25.9827 0.888331 27.238 2.14361 27.238 4.5383C27.238 6.58537 27.2187 8.63245 27.238 10.6795C27.238 11.2396 27.1028 11.5292 26.4655 11.4906C25.8089 11.452 25.2488 11.7417 24.7853 12.2052C24.0901 12.9004 23.3756 13.5956 22.6803 14.2909C21.7147 15.2565 21.5602 16.1255 22.0817 17.3808C22.5645 18.5202 22.0623 19.6789 20.8843 20.1424C20.2277 20.3935 19.6677 20.7797 19.3973 21.4363C19.2042 21.8998 18.8952 22.0157 18.4317 21.9964C16.1915 21.977 13.932 22.0157 11.6918 21.977C10.9966 21.9577 10.7648 22.2088 10.7841 22.904C10.8228 24.0048 10.8034 25.1249 10.7841 26.2257C10.7841 26.5154 10.8034 26.8437 10.4751 26.9595C10.1661 27.0754 9.99234 26.7857 9.81853 26.6119C8.486 25.2794 7.15348 23.9662 5.84026 22.595C5.39608 22.1315 4.93259 21.9384 4.31461 21.977C3.83181 22.0157 3.34901 21.9964 2.86621 21.9191C1.0895 21.6681 0.0273438 20.4707 0.0273438 18.6747C0.0273438 13.8853 0.0273438 9.09593 0.0273438 4.28724C0.0273438 2.18224 1.32125 0.869019 3.46488 0.869019C6.88311 0.869019 10.2627 0.888331 13.6423 0.888331ZM13.6616 3.82376C11.1124 3.82376 9.00743 5.75496 8.85293 8.26552C8.81431 8.82557 8.98812 9.28905 9.52885 9.50149C9.97303 9.67529 10.4365 9.61736 10.7648 9.19249C10.9773 8.92213 11.0159 8.57451 11.0545 8.24621C11.209 7.06817 12.0394 6.21845 13.1788 5.9867C14.241 5.77427 15.3804 6.33432 15.9211 7.31923C16.4619 8.30414 16.3074 9.038 15.3804 9.94566C14.9169 10.4092 14.4341 10.834 13.9899 11.3168C13.3526 12.0314 12.8891 12.8425 12.8505 13.8274C12.8312 14.5033 13.1595 14.9668 13.7196 15.044C14.3182 15.1213 14.8203 14.7737 14.9362 14.0784C15.0521 13.4025 15.419 12.8811 15.8825 12.4176C16.3267 11.9734 16.8095 11.5872 17.2537 11.1237C17.7944 10.5636 18.1999 9.92635 18.3158 9.11525C18.7214 6.27638 16.5584 3.82376 13.6616 3.82376ZM14.9748 16.8594C14.9942 16.2993 14.492 15.8358 13.9127 15.8358C13.2947 15.8358 12.8891 16.2414 12.8891 16.8594C12.8891 17.458 13.3333 17.9215 13.932 17.9215C14.4727 17.9215 14.9555 17.4194 14.9748 16.8594Z" fill="white"/>
<path id="Vector_4" d="M43.6547 11.51C43.8285 11.3555 44.1568 11.452 44.4658 11.452C50.8774 11.452 57.3083 11.452 63.7199 11.452C64.0096 11.452 64.2993 11.452 64.5889 11.4327C65.2262 11.3941 65.5545 11.0465 65.5738 10.4092C65.5738 9.77188 65.2069 9.44357 64.6082 9.34701C64.3572 9.30839 64.0868 9.3277 63.8165 9.3277C55.2226 9.3277 46.6288 9.3277 38.0349 9.3277C37.919 9.3277 37.7646 9.36633 37.668 9.3277C36.4513 8.63247 35.1188 8.94146 33.8442 8.90284C33.2842 8.88352 33.0717 8.6904 33.091 8.13036C33.1104 6.45021 33.091 4.75075 33.1104 3.07061C33.1297 1.4484 34.3656 0.154496 36.0072 0.019312C36.2775 0 36.5286 0 36.799 0C46.4743 0 56.1496 0 65.8442 0C68.3741 0 69.5521 1.19734 69.5521 3.72722C69.5521 8.30416 69.5521 12.8811 69.5521 17.4581C69.5521 19.7562 68.2775 21.0694 65.9601 20.9922C64.8207 20.9535 64.0096 21.2625 63.2564 22.1123C62.2329 23.2903 61.0741 24.3524 59.9541 25.4532C59.7223 25.685 59.5292 26.0905 59.1429 25.9553C58.7181 25.7815 58.8919 25.318 58.8919 24.9897C58.8726 23.9276 58.8533 22.8654 58.8919 21.8033C58.9112 21.1467 58.6601 20.9922 58.0422 20.9922C55.3964 21.0115 52.7314 20.9922 50.0856 21.0115C49.6028 21.0115 49.1973 20.9342 48.8303 20.5866C48.6565 20.4128 48.3862 20.2776 48.1351 20.2004C47.4399 20.0072 47.0923 19.5824 46.8026 18.9258C46.5515 18.3271 46.6095 17.8443 46.8605 17.2842C47.4012 16.029 47.3819 16.029 48.7724 16.029C53.7742 16.029 58.7567 16.029 63.7585 16.029C64.0289 16.029 64.2993 16.0483 64.5503 16.0097C65.1297 15.9131 65.5352 15.6234 65.5545 14.9861C65.5738 14.3488 65.2455 13.9819 64.6276 13.8853C64.3186 13.8274 64.0096 13.8274 63.7006 13.8274C58.0808 13.8274 52.461 13.8081 46.8219 13.8467C46.0301 13.8467 45.4314 13.6536 44.9293 13.0356C44.5238 12.5142 44.0796 12.0121 43.6547 11.51ZM51.3216 4.828C47.0922 4.828 42.8822 4.828 38.6529 4.828C37.4942 4.828 36.9921 5.13699 36.9728 5.85154C36.9534 6.5854 37.4942 6.93301 38.6722 6.93301C47.0729 6.93301 55.4737 6.93301 63.8744 6.93301C64.1448 6.93301 64.4151 6.95232 64.6662 6.9137C65.3035 6.81714 65.6897 6.2764 65.5352 5.65842C65.3807 4.94387 64.84 4.828 64.2027 4.828C59.9154 4.828 55.6088 4.828 51.3216 4.828Z" fill="white"/>
<path id="Vector_5" d="M26.583 13.6343C27.0272 13.8274 27.4521 13.9626 27.8576 14.1943C28.379 14.484 28.8425 14.4454 29.3446 14.1364C29.7309 13.9046 30.1558 13.6729 30.5999 13.5957C31.5655 13.4025 32.1256 12.8618 32.3187 11.9155C32.4732 11.201 32.8981 10.9499 33.6319 11.0078C34.3078 11.0658 34.9838 11.0465 35.6597 11.0078C36.1039 10.9885 36.4128 11.1623 36.5094 11.6065C36.7605 12.7845 37.4364 13.4991 38.653 13.6922C38.6917 13.6922 38.7496 13.7115 38.7882 13.7501C39.8311 14.484 40.8932 14.5613 41.9747 13.8081C42.303 13.5957 42.5927 13.6922 42.8824 13.9819C43.4424 14.5806 44.0218 15.1599 44.6205 15.72C44.9488 16.029 45.026 16.3573 44.7943 16.7435C44.6977 16.9173 44.6398 17.1104 44.5432 17.2649C44.1376 17.9215 44.1376 18.5588 44.5818 19.2154C44.8136 19.5631 45.0067 19.9879 45.0839 20.4128C45.2384 21.3011 45.7599 21.7646 46.571 21.9191C47.4593 22.0929 47.749 22.653 47.6331 23.4834C47.6138 23.6186 47.6138 23.7731 47.6331 23.9083C47.8649 25.3374 47.4593 26.3416 45.8757 26.5926C45.5281 26.6506 45.3736 26.9016 45.2771 27.2299C45.0839 27.9445 44.8136 28.659 44.4273 29.2963C44.1376 29.7984 44.1376 30.2426 44.408 30.7254C44.5432 30.9765 44.6398 31.2661 44.7749 31.5172C44.9874 31.9227 44.9294 32.2317 44.5818 32.5407C44.0025 33.0815 43.4424 33.6415 42.8824 34.2209C42.5734 34.5492 42.2644 34.6651 41.8588 34.414C40.8739 33.7767 39.9083 33.6801 38.9427 34.414C38.8848 34.4526 38.8075 34.4912 38.7496 34.4912C37.4943 34.723 36.6832 35.3989 36.4515 36.6928C36.3742 37.0791 36.0845 37.2142 35.6983 37.2142C34.8872 37.1949 34.0568 37.1949 33.2457 37.2142C32.7822 37.2336 32.4925 37.0211 32.4153 36.5963C32.1642 35.4375 31.411 34.9547 30.3489 34.4912C29.1129 33.9698 28.0507 33.6415 26.8727 34.4719C26.6217 34.6457 26.3706 34.5492 26.1582 34.3368C25.5209 33.6995 24.9029 33.0622 24.2656 32.4442C23.9759 32.1545 23.9566 31.8455 24.1497 31.5365C24.8063 30.5323 24.8643 29.5474 24.1304 28.5625C24.0918 28.5045 24.0532 28.4273 24.0532 28.3693C23.8407 27.1334 23.1262 26.3802 21.8902 26.1098C21.504 26.0326 21.3495 25.7622 21.3688 25.3567C21.3881 24.5456 21.3881 23.7151 21.3688 22.904C21.3495 22.4406 21.5233 22.1509 21.9675 22.0543C23.1069 21.8033 23.6283 21.0887 24.0725 19.9879C24.5553 18.7713 24.9608 17.7091 24.1111 16.5311C23.9566 16.3186 23.9759 16.0676 24.1883 15.8745C24.8643 15.1985 25.5402 14.5033 26.2354 13.8274C26.3127 13.7501 26.4478 13.6922 26.583 13.6343ZM34.4044 30.0881C37.784 30.1074 40.4684 27.481 40.4877 24.1593C40.507 20.857 37.8612 18.1726 34.5589 18.134C31.16 18.1147 28.4177 20.7604 28.4177 24.1014C28.4177 27.4037 31.102 30.0688 34.4044 30.0881Z" fill="white"/>
</g>
</svg>
