<svg width="65" height="64" viewBox="0 0 65 64" fill="none" xmlns="http://www.w3.org/2000/svg">
<g id="Group">
<path id="Vector" d="M64.1266 19.017C63.9084 19.4702 63.556 19.7388 63.1028 19.9738C53.4684 25.0595 43.8339 30.1621 34.1995 35.2478C33.7464 35.4996 33.2596 35.701 32.8232 35.9864C32.3029 36.3388 31.8665 36.2549 31.3294 35.9696C21.225 30.5985 11.1206 25.2609 0.999433 19.9066C-0.0915716 19.336 -0.326557 17.8925 0.479108 16.8686C0.764447 16.5329 1.11693 16.2811 1.51976 16.0797C11.1206 10.91 20.7382 5.72358 30.3558 0.553895C30.7251 0.352478 31.0944 0.184632 31.4804 0C31.9 0 32.3197 0 32.7393 0C33.1421 0.201416 33.5617 0.386048 33.9646 0.604249C43.4815 5.74036 53.0152 10.8765 62.5657 16.0126C63.2706 16.3986 63.8245 16.8854 64.1266 17.6407C64.1266 18.0939 64.1266 18.5639 64.1266 19.017Z" fill="white"/>
<path id="Vector_2" d="M64.1263 46.4097C63.8242 47.165 63.2703 47.6517 62.5654 48.0378C53.0149 53.1739 43.4644 58.2932 33.9475 63.4629C32.6886 64.1511 31.5976 64.1846 30.3052 63.4965C20.7883 58.3268 11.2378 53.1907 1.68731 48.0546C0.780935 47.5678 0.0591934 46.9468 0.0256241 45.8222C-0.00794531 44.9326 0.344533 44.2109 1.11663 43.7745C2.56011 42.952 4.03716 42.1799 5.49743 41.3743C5.78277 41.2232 6.00097 41.3071 6.25274 41.4414C14.0408 45.5704 21.8289 49.6995 29.617 53.8285C29.7009 53.8788 29.8017 53.9124 29.8856 53.9796C31.3626 55.0202 32.739 54.8356 34.2999 53.9963C42.088 49.7834 49.9433 45.6879 57.7649 41.5253C58.2013 41.2903 58.537 41.3071 58.9734 41.5421C60.1148 42.1967 61.2729 42.8177 62.4311 43.422C63.1696 43.7912 63.7235 44.3116 64.0928 45.0501C64.1263 45.4865 64.1263 45.9565 64.1263 46.4097Z" fill="white"/>
<path id="Vector_3" d="M64.1265 32.6462C63.9755 33.0658 63.7069 33.368 63.2873 33.6029C53.099 38.9908 42.9107 44.3787 32.7224 49.7834C32.2524 50.0352 31.9167 50.0184 31.4635 49.7834C21.292 44.3787 11.0869 38.9908 0.915425 33.6029C-0.276288 32.9651 -0.293073 31.0685 0.948994 30.1957C1.53646 29.776 2.20785 29.4739 2.84566 29.1214C3.66811 28.6682 4.50735 28.2486 5.31301 27.7787C5.68227 27.5605 5.9844 27.594 6.35366 27.7787C12.3122 30.951 18.2876 34.1065 24.2461 37.262C26.4114 38.4201 28.5934 39.5615 30.7586 40.7197C31.665 41.2064 32.5378 41.1896 33.4274 40.7029C41.3162 36.5067 49.2385 32.3441 57.1105 28.1144C58.0169 27.6276 58.7219 27.5605 59.6115 28.1479C60.5682 28.7857 61.6088 29.2557 62.6327 29.7928C63.3209 30.1621 63.858 30.6656 64.1098 31.4209C64.1265 31.8238 64.1265 32.2266 64.1265 32.6462Z" fill="white"/>
</g>
</svg>
