<svg width="62" height="65" viewBox="0 0 62 65" fill="none" xmlns="http://www.w3.org/2000/svg">
<g id="Group">
<path id="Vector" d="M11.5791 28.2787C11.5985 27.3266 11.9482 26.7632 12.6088 26.3746C14.6878 25.17 14.2798 25.578 14.0272 23.3825C13.8329 21.731 13.8717 20.099 14.1438 18.4669C14.3186 17.3789 14.2992 17.2817 13.3277 16.7183C13.1529 16.6211 12.978 16.524 12.8226 16.4268C11.5402 15.6691 11.2682 14.6782 12.0065 13.3764C12.8226 11.8804 13.6969 10.4038 14.5712 8.9077C15.2512 7.74194 16.3198 7.46993 17.4856 8.13053C19.4479 9.25743 18.9428 9.12142 20.5165 7.89738C21.9155 6.82877 23.4309 5.97388 25.1019 5.41043C25.7624 5.17728 26.0539 4.82755 26.0539 4.08924C26.0539 1.46629 26.5591 0.980559 29.1626 0.980559C30.5226 0.980559 31.8827 0.96113 33.2427 0.980559C34.8553 0.999988 35.6714 1.68001 35.5937 3.25378C35.5159 4.71098 36.1182 5.29386 37.3812 5.7213C38.9744 6.26532 40.3733 7.19792 41.6556 8.28596C42.5493 9.0437 42.5688 9.0437 43.6179 8.4414C43.9094 8.26653 44.2008 8.09167 44.5117 7.93624C45.4054 7.52822 46.4352 7.76137 46.9404 8.61626C47.9507 10.2677 48.9221 11.9581 49.8547 13.6484C50.3988 14.6199 50.0685 15.6108 49.1359 16.2325C49.097 16.252 49.0581 16.2908 49.0193 16.3103C47.0569 17.4177 47.4067 17.1263 47.6592 19.2052C47.873 20.8761 47.8535 22.547 47.5427 24.1985C47.3872 24.9951 47.5232 25.578 48.3198 25.9083C48.6307 26.0443 48.9221 26.2386 49.1941 26.4329C50.0685 27.0158 50.3988 28.0067 49.8936 28.9004C48.961 30.6296 47.9701 32.32 46.9598 34.0103C46.4158 34.9041 45.4249 35.1178 44.4728 34.6515C44.0648 34.4572 43.6568 34.224 43.2682 33.9714C42.7825 33.6606 42.3745 33.7383 41.947 34.1075C40.315 35.5452 38.4498 36.6333 36.3903 37.3327C35.8268 37.527 35.6325 37.8573 35.6519 38.4208C35.6519 38.9453 35.6519 39.4894 35.5548 40.014C35.3994 40.9854 34.7388 41.5877 33.7673 41.6072C31.8244 41.6266 29.8815 41.6266 27.958 41.6072C26.9865 41.5877 26.3453 40.9854 26.151 40.0334C26.0345 39.4894 26.0539 38.9259 26.0733 38.3625C26.0733 37.8767 25.9179 37.5464 25.4127 37.3716C23.2949 36.6527 21.4103 35.5452 19.7199 34.088C19.3119 33.7383 18.9039 33.7189 18.457 33.9909C18.049 34.2435 17.6216 34.496 17.1941 34.6903C16.281 35.1178 15.2901 34.8846 14.7655 34.0297C13.7552 32.3588 12.7837 30.649 11.8122 28.9393C11.6374 28.6867 11.5597 28.3952 11.5791 28.2787ZM30.8918 8.5774C23.7807 8.55797 18.0879 14.173 18.0685 21.2259C18.049 28.3564 23.7029 34.1075 30.7558 34.1269C37.8863 34.1463 43.5985 28.4924 43.6179 21.4201C43.6179 14.2896 37.9835 8.59683 30.8918 8.5774Z" fill="white"/>
<path id="Vector_2" d="M20.4017 44.0163C20.4017 46.2507 20.4017 48.4851 20.4017 50.7C20.4017 51.9435 19.9354 52.3904 18.6725 52.3904C15.8164 52.3904 12.9603 52.3709 10.0847 52.4098C9.52127 52.4098 9.26869 52.2738 9.38527 51.6715C9.42412 51.4383 9.4047 51.1858 9.4047 50.9526C9.4047 49.6897 9.38527 49.6897 10.7065 49.6897C12.7271 49.6897 14.7283 49.6508 16.749 49.7091C17.5067 49.7286 17.6816 49.4565 17.6816 48.7377C17.6427 44.7352 17.6621 40.7328 17.6621 36.7498C17.6621 36.3806 17.6233 35.9921 18.0507 35.8172C18.4004 35.6618 18.7307 35.1566 19.1388 35.5063C19.6439 35.9143 20.4017 36.1281 20.4017 37.0412C20.3822 39.3533 20.4017 41.6848 20.4017 44.0163Z" fill="white"/>
<path id="Vector_3" d="M41.248 43.9969C41.248 41.7431 41.248 39.4893 41.248 37.2355C41.248 36.5555 41.9864 35.5841 42.6275 35.4092C43.0744 35.2926 43.9487 35.9726 43.9681 36.4778C43.9876 37.2744 43.9681 38.071 43.9681 38.8676C43.9681 42.1706 43.9876 45.4541 43.9487 48.7571C43.9487 49.4954 44.1819 49.7091 44.9007 49.6897C47.0768 49.6509 49.2723 49.6897 51.4484 49.6703C52.0507 49.6703 52.3616 49.7869 52.245 50.4669C52.1867 50.7972 52.1867 51.1469 52.245 51.4772C52.381 52.2155 52.1479 52.4292 51.3901 52.4098C48.5729 52.3709 45.7751 52.3904 42.9578 52.3904C41.7143 52.3904 41.2675 51.9241 41.2675 50.6612C41.248 48.4462 41.248 46.2119 41.248 43.9969Z" fill="white"/>
<path id="Vector_4" d="M30.8343 56.898C33.0104 56.898 34.8756 58.7438 34.895 60.9198C34.9145 63.1153 32.9715 65.0388 30.7954 65C28.6194 64.9611 26.7542 63.0765 26.7736 60.9198C26.793 58.7243 28.6388 56.898 30.8343 56.898Z" fill="white"/>
<path id="Vector_5" d="M53.5866 50.9722C53.6254 48.7572 55.5101 46.9309 57.6667 46.9892C59.8817 47.0669 61.6886 48.9127 61.6692 51.0693C61.6303 53.2842 59.7068 55.1494 57.5307 55.0717C55.2769 54.994 53.5477 53.1871 53.5866 50.9722Z" fill="white"/>
<path id="Vector_6" d="M8.06315 51.0692C8.04372 53.2841 6.21737 55.1105 4.02186 55.0716C1.82635 55.0522 0 53.2064 0 51.0303C0 48.8154 1.9235 46.9308 4.09958 46.9696C6.31451 47.0279 8.08257 48.8543 8.06315 51.0692Z" fill="white"/>
<path id="Vector_7" d="M32.1945 49.4566C32.1945 51.3024 32.1751 53.1287 32.1945 54.9745C32.1945 55.4602 32.0585 55.6934 31.5339 55.6157C31.2425 55.5768 30.951 55.5768 30.6596 55.5962C29.455 55.6157 29.455 55.6157 29.455 54.3722C29.455 50.8943 29.4744 47.3971 29.4355 43.9192C29.4355 43.2198 29.6687 43.0061 30.3487 43.0255C32.4859 43.0838 32.1362 42.7923 32.1556 44.8324C32.1945 46.3479 32.1945 47.9022 32.1945 49.4566Z" fill="white"/>
<path id="Vector_8" d="M19.4297 21.3618C19.4297 15.0473 24.5007 9.84027 30.7958 9.89856C37.6738 9.95684 42.2785 15.5719 42.2396 21.323C42.1814 27.6763 37.1686 32.7668 30.8541 32.7668C24.5202 32.7668 19.4297 27.6958 19.4297 21.3618Z" fill="white"/>
</g>
</svg>
