<svg width="66" height="66" viewBox="0 0 66 66" fill="none" xmlns="http://www.w3.org/2000/svg">
<g id="Group">
<path id="Vector" d="M26.9111 57.7922C26.2954 57.7922 25.6978 57.7922 25.0821 57.7922C24.6655 57.7922 24.4301 57.6292 24.2671 57.2308C23.8325 56.0718 23.3616 54.9128 22.9451 53.7537C22.7821 53.2829 22.5105 53.0112 22.0215 52.8845C19.957 52.3593 18.0011 51.5262 16.1539 50.4397C15.7736 50.2223 15.4476 50.2223 15.0673 50.4034C13.8902 50.9467 12.7131 51.4357 11.5359 51.979C11.1737 52.142 10.9202 52.0876 10.6304 51.816C9.073 50.2405 7.51556 48.683 5.94001 47.1256C5.63214 46.8177 5.61403 46.5461 5.77702 46.1657C6.32032 45.0067 6.80928 43.8115 7.35257 42.6343C7.51556 42.2721 7.51556 41.9824 7.31635 41.6202C6.21166 39.773 5.37861 37.799 4.85342 35.6983C4.72666 35.2093 4.47312 34.9739 4.03848 34.8109C2.89757 34.3944 1.75665 33.9235 0.615733 33.507C0.162988 33.344 0 33.0905 0 32.6015C0.0181098 30.4646 0.0181098 28.3095 0 26.1544C0 25.6292 0.181098 25.3757 0.651952 25.2127C1.79287 24.7962 2.93379 24.3253 4.0747 23.9088C4.49123 23.7639 4.72666 23.5285 4.85342 23.0758C5.37861 20.9931 6.21166 19.0011 7.31635 17.1539C7.51556 16.8098 7.55178 16.52 7.38879 16.1397C6.8455 14.9807 6.35654 13.7854 5.81324 12.6083C5.61403 12.1918 5.66836 11.9201 5.99434 11.5942C7.55178 10.0548 9.10922 8.51549 10.6486 6.93994C10.9564 6.63207 11.2281 6.59585 11.6084 6.75884C12.7855 7.30214 13.9626 7.7911 15.1398 8.3344C15.5382 8.51549 15.8461 8.47927 16.2083 8.26196C18.0555 7.19348 20.0113 6.36043 22.0758 5.83524C22.5286 5.72658 22.7821 5.49116 22.927 5.07463C23.3616 3.8975 23.8506 2.72036 24.2852 1.52511C24.4482 1.09048 24.6836 0.92749 25.1364 0.92749C27.3096 0.9456 29.4827 0.9456 31.6378 0.92749C32.0905 0.92749 32.326 1.10859 32.489 1.52511C32.9055 2.66603 33.3763 3.80695 33.7929 4.94786C33.974 5.43683 34.2275 5.72658 34.7527 5.85335C36.7991 6.37854 38.7368 7.17537 40.5478 8.26196C40.9462 8.49738 41.2722 8.51549 41.6887 8.31629C42.8297 7.7911 44.0068 7.28403 45.1477 6.75884C45.528 6.57775 45.7997 6.61397 46.1075 6.92183C47.6287 8.47927 49.15 10.0186 50.7074 11.5217C51.0877 11.8839 51.1239 12.2099 50.9066 12.6445C50.3814 13.7673 49.9106 14.9264 49.3854 16.0492C49.2043 16.4295 49.2224 16.7554 49.4397 17.1358C50.5444 18.983 51.3413 20.975 51.9027 23.0577C52.0113 23.4923 52.2467 23.7096 52.627 23.8545C53.7861 24.2891 54.9451 24.76 56.1041 25.1765C56.575 25.3395 56.7923 25.593 56.7742 26.1182C56.7561 28.2552 56.7561 30.4102 56.7742 32.5653C56.7742 32.9275 56.738 33.2716 56.3214 33.3621C55.8144 33.4889 55.3435 34.0503 54.7459 33.5613C53.6774 32.674 52.446 32.3842 51.0877 32.4023C49.3854 32.4385 47.7012 32.4204 45.9989 32.4023C45.1839 32.4023 45.1477 32.3299 45.2383 31.5511C46.4154 22.2608 40.2581 14.3287 31.8008 12.6264C22.5467 10.7611 13.8359 16.4838 11.7351 25.6836C9.63441 34.9015 15.8642 44.3185 25.1726 46.0028C25.8065 46.1114 26.4584 46.2201 27.1104 46.2563C27.6174 46.2925 27.7985 46.4917 27.7623 46.9626C27.6718 48.5925 28.1064 50.0412 29.1568 51.2908C29.3379 51.49 29.356 51.7436 29.356 51.9971C29.356 53.6451 29.3379 55.2931 29.356 56.9411C29.356 57.5206 29.1205 57.7017 28.5772 57.6836C28.034 57.7922 27.4726 57.8103 26.9111 57.7922Z" fill="white"/>
<path id="Vector_2" d="M47.5011 64.9999C43.1366 64.9999 38.7902 64.9999 34.4258 64.9999C32.814 64.9999 31.7455 64.2393 31.4377 62.8811C31.3833 62.6457 31.3652 62.3921 31.3652 62.1386C31.3652 59.4583 31.3652 56.76 31.3652 54.0797C31.3652 53.2829 31.4015 53.2648 32.1077 53.5726C34.5707 54.6592 37.1966 55.112 39.8406 55.4561C40.0036 55.4742 40.1485 55.5104 40.3115 55.5104C41.6516 55.4561 42.4303 56.0175 43.1909 57.2489C45.3098 60.6536 50.5254 60.2552 52.2639 56.6332C52.6261 55.8907 53.0608 55.6734 53.7852 55.6191C56.1213 55.438 58.4394 55.0577 60.7031 54.4057C61.4999 54.1703 62.2968 53.8986 63.0393 53.5183C63.4558 53.301 63.6731 53.3553 63.6731 53.8805C63.6731 56.6875 63.7093 59.4764 63.655 62.2835C63.6188 63.9677 62.4235 64.9999 60.6488 65.018C57.4252 65.0361 54.1836 65.018 50.96 65.018C49.801 64.9999 48.6601 64.9999 47.5011 64.9999Z" fill="white"/>
<path id="Vector_3" d="M47.538 48.1578C49.9828 48.1578 52.4095 48.1578 54.8543 48.1578C57.2267 48.1578 58.7479 46.6366 58.766 44.2823C58.7841 43.1052 58.7841 41.9281 58.766 40.7509C58.766 40.2438 58.9471 40.0084 59.4904 40.0265C60.8668 40.0446 62.2431 40.0084 63.6195 40.0446C64.6698 40.0627 65.1769 40.606 65.1769 41.6564C65.1769 43.4855 65.1045 45.3146 65.195 47.1437C65.3037 49.1176 64.3438 50.4034 62.7683 51.3451C61.573 52.0695 60.2691 52.4861 58.929 52.812C57.1905 53.2286 55.4157 53.4459 53.6591 53.6451C53.1701 53.6994 52.8441 53.6451 52.6811 53.0294C52.0111 50.4759 49.9466 48.9003 47.4112 48.9184C44.9845 48.9365 42.9381 50.6026 42.3042 53.0837C42.1956 53.464 42.0869 53.6994 41.6342 53.6632C38.5736 53.3553 35.5312 53.0112 32.706 51.6168C32.2171 51.3814 31.7643 51.0735 31.3478 50.7294C30.2793 49.8964 29.7541 48.7917 29.7541 47.4334C29.7541 45.5862 29.736 43.7209 29.7541 41.8737C29.7723 40.5517 30.3155 40.0265 31.6195 40.0265C32.8147 40.0265 34.0099 40.0265 35.2052 40.0265C36.1469 40.0265 36.1469 40.0265 36.165 40.9501C36.2012 42.3265 36.0201 43.7028 36.2737 45.0792C36.5996 46.9264 38.0484 48.1397 39.9318 48.1397C42.4853 48.1759 45.0026 48.1578 47.538 48.1578Z" fill="white"/>
<path id="Vector_4" d="M17.5125 29.3779C17.5668 28.0921 18.1825 27.1322 19.3597 26.6252C20.573 26.0819 21.7321 26.3354 22.6919 27.2047C23.5793 28.0015 24.4123 28.8708 25.2273 29.7401C25.6257 30.1747 25.8611 30.1928 26.2957 29.7582C28.7949 27.2047 31.3303 24.6874 33.8656 22.1883C35.1152 20.9387 36.9262 20.83 38.1395 21.8804C39.5521 23.0938 39.6608 25.0858 38.3387 26.4441C36.7632 28.0558 35.1514 29.6495 33.5578 31.2432C31.783 33.0179 30.0082 34.7927 28.2335 36.5675C26.8934 37.8895 25.4808 38.0343 23.9052 37.0021C23.6155 36.821 23.3619 36.6037 23.1265 36.3682C21.5691 34.8289 20.0297 33.2715 18.4723 31.7321C17.8022 31.0621 17.4763 30.3015 17.5125 29.3779Z" fill="white"/>
<path id="Vector_5" d="M47.5017 40.0265C50.3087 40.0265 53.0976 40.0446 55.9046 40.0083C56.5747 40.0083 56.8282 40.2076 56.792 40.8957C56.7377 42.0185 56.792 43.1594 56.7739 44.2823C56.7558 45.4413 56.0676 46.1476 54.9086 46.1476C49.9827 46.1657 45.0569 46.1657 40.131 46.1476C38.9177 46.1476 38.2657 45.4413 38.2476 44.2279C38.2295 43.0689 38.2657 41.928 38.2295 40.769C38.2114 40.1713 38.4468 39.9902 39.0263 39.9902C41.8514 40.0446 44.6766 40.0265 47.5017 40.0265Z" fill="white"/>
<path id="Vector_6" d="M47.5033 34.4848C49.0426 34.5573 50.582 34.3762 52.1032 34.5935C53.4433 34.7927 54.4394 35.9698 54.4756 37.3281C54.4937 37.8351 54.3307 38.0887 53.7874 38.0706C53.389 38.0525 52.9725 38.0525 52.574 38.0706C52.1756 38.0887 51.8497 38.0162 51.8315 37.5273C51.8134 37.2013 51.578 37.147 51.2882 37.147C48.7891 37.147 46.2718 37.147 43.7727 37.147C43.4648 37.147 43.2294 37.2194 43.1751 37.5635C43.1207 38.0162 42.8491 38.1068 42.4688 38.0887C42.1609 38.0706 41.8349 38.0887 41.5271 38.0887C40.5673 38.0887 40.4405 37.9438 40.5854 36.9659C40.7665 35.7887 41.7082 34.7927 42.9034 34.6297C44.4246 34.3762 45.964 34.5573 47.5033 34.4848Z" fill="white"/>
<path id="Vector_7" d="M44.2227 54.279C44.2227 52.4318 45.6533 50.9468 47.4824 50.9105C49.2753 50.8743 50.8146 52.3955 50.8327 54.2246C50.8508 56.0356 49.3658 57.5749 47.5549 57.5931C45.6895 57.5931 44.2227 56.1262 44.2227 54.279Z" fill="white"/>
</g>
</svg>
