<?xml version="1.0" standalone="no"?>
<!DOCTYPE svg PUBLIC "-//W3C//DTD SVG 1.1//EN" "http://www.w3.org/Graphics/SVG/1.1/DTD/svg11.dtd" >
<svg xmlns="http://www.w3.org/2000/svg" xmlns:xlink="http://www.w3.org/1999/xlink" version="1.1">
<metadata>
Created by FontForge 20190801 at Thu Oct  8 04:21:16 2020
 By www-data
Copyright (c) 2019 by Walkeren. All rights reserved.
</metadata>
<defs>
<font id="Monday_Routines" horiz-adv-x="256" >
  <font-face 
    font-family="Monday_Routines"
    font-weight="400"
    font-stretch="normal"
    units-per-em="1000"
    panose-1="2 0 5 7 2 0 0 2 0 2"
    ascent="548"
    descent="-452"
    x-height="148"
    cap-height="450"
    bbox="-471 -440 1986 576"
    underline-thickness="50"
    underline-position="-100"
    unicode-range="U+000D-F6C0"
  />
<missing-glyph horiz-adv-x="249" 
 />
    <glyph glyph-name=".notdef" horiz-adv-x="249" 
 />
    <glyph glyph-name=".null" horiz-adv-x="0" 
 />
    <glyph glyph-name="nonmarkingreturn" unicode="&#xd;" horiz-adv-x="249" 
 />
    <glyph glyph-name="NULL" horiz-adv-x="0" 
 />
    <glyph glyph-name="NULL" horiz-adv-x="0" 
 />
    <glyph glyph-name="space" unicode=" " horiz-adv-x="249" 
 />
    <glyph glyph-name="exclam" unicode="!" horiz-adv-x="199" 
d="M38 59q-6 0 -10 5t-7 11.5t-4.5 13.5t-1.5 12q0 15 9.5 40.5t24.5 56t34.5 61.5t40 56t40 41t35.5 16q6 0 11 -5.5t5 -11.5q0 -2 -4 -4.5t-8.5 -5t-9.5 -5t-6 -3.5q-19 -12 -45 -43.5t-49.5 -69t-40 -74.5t-16.5 -60q0 -7 3.5 -12.5t3.5 -11.5q0 -7 -5 -7zM49 47
q6 0 11.5 -5.5t5.5 -11.5q0 -2 -8.5 -10t-18 -17t-17.5 -16t-7 -7q-6 0 -11 5.5t-5 11.5t6 13.5t14 15t16.5 13.5t13.5 8z" />
    <glyph glyph-name="quotedbl" unicode="&#x22;" horiz-adv-x="124" 
d="M99 421q-15 -7 -23.5 -18t-13 -22t-6.5 -19t-3 -9q-9 0 -13 7t-4 15q0 20 15 39.5t32 28.5q6 -1 12 -5t6 -11q0 -1 -1 -3t-1 -3zM19 375q-9 0 -14 8.5t-5 16.5q0 4 2.5 11.5t7 15t10 12.5t10.5 5q6 0 10 -5t4 -11q0 -2 -0.5 -3.5t-0.5 -3.5h-1q-8 -7 -14 -14.5t-8 -18.5
l3 -7z" />
    <glyph glyph-name="numbersign" unicode="#" horiz-adv-x="241" 
d="M219 112q-14 0 -27.5 4t-27.5 6l-15 -16q4 0 13 -1.5t18 -4.5t15.5 -7t6.5 -10q0 -7 -8 -7q-16 0 -31 3.5t-31 5.5q-9 -11 -20.5 -26t-21.5 -28.5t-16.5 -22.5l-6.5 -9q-5 0 -10 6t-5 11q0 4 6 14.5t14 21.5t16 21t12 14q-10 1 -19 1h-19h-1q-3 -5 -5.5 -13t-5 -15
t-4.5 -12t-4 -5q-8 0 -12.5 8.5t-4.5 15.5q0 5 2 9.5t4 9.5q-10 0 -21 1.5t-11 15.5q0 3 4.5 5t10.5 3t12 1h8h12l11 14q-5 0 -11.5 -0.5t-14.5 -0.5q-11 0 -21 3.5t-10 14.5q0 3 4.5 4.5t10.5 2.5t11.5 1h7.5h42q3 4 9.5 11t13.5 13.5t14.5 11.5t12.5 5q6 0 10.5 -6.5
t5.5 -11.5l-3 -5q-13 -9 -26 -20l38 -3q3 3 8 8.5t11 11t11.5 9.5t8.5 4q5 0 10 -6t5 -11l-3 -5q-5 -4 -10 -7.5t-10 -8.5q4 -1 11 -2.5t14 -4.5t12 -7t5 -10zM132 125q-11 1 -21 1h-21q-4 -4 -7 -7.5t-6 -7.5q11 0 20.5 -0.5t20.5 -1.5q3 5 6.5 8.5z" />
    <glyph glyph-name="dollar" unicode="$" horiz-adv-x="462" 
d="M210 -18q-1 -3 -2 -11t-2 -17t-3 -15.5t-4 -6.5q-10 0 -13 8.5t-3 16.5q0 13 3 27q-13 2 -31.5 6.5t-35.5 12t-30 18.5t-15 27l5 5q7 -1 13.5 -8t18 -15.5t30.5 -16t50 -9.5q6 25 14 49l16 48q-21 5 -50.5 13.5t-55.5 22.5t-44.5 33.5t-18.5 47.5q0 25 16.5 45.5t42.5 38
t58.5 30.5t65 22.5t62 15.5t48.5 8q4 6 10 16t13.5 19t16 16t16.5 7q6 0 11.5 -6t5.5 -12q0 -1 -5 -5t-12 -10t-13.5 -12t-9.5 -10q19 0 41.5 -3.5t41 -13t31 -25.5t12.5 -40q0 -11 -8 -27.5t-19.5 -32t-25 -26.5t-25.5 -11q-7 0 -11.5 6t-4.5 12l3 5q12 5 24 14t22 20
t16.5 24t6.5 27q0 17 -9.5 26.5t-23.5 14.5t-30 6t-28 1q-8 0 -15 -0.5t-15 -1.5q-34 -57 -60.5 -118t-49.5 -124q12 -3 33 -7.5t40.5 -13t34 -20.5t14.5 -28q0 -20 -19 -32.5t-45 -19.5t-52.5 -9t-40.5 -2h-6zM329 351q-25 -5 -68 -16t-85 -29t-72.5 -42.5t-30.5 -56.5
q0 -21 18.5 -36t43.5 -25t51 -16t42 -10q21 60 46 117.5t55 113.5zM244 95q-8 -23 -15.5 -45.5t-13.5 -45.5q11 0 33.5 2.5t45.5 8.5t40 16t17 25q0 7 -14.5 13.5t-33 11.5t-36 8.5t-23.5 5.5z" />
    <glyph glyph-name="percent" unicode="%" horiz-adv-x="299" 
d="M171 94q15 0 25 -15t10 -29q0 -11 -5 -23.5t-13.5 -23t-19 -17.5t-22.5 -7q-15 0 -25.5 11t-12.5 25q-6 -4 -15 -10.5t-19 -12.5t-20 -10.5t-16 -4.5q-17 0 -27.5 14.5t-10.5 30.5q0 17 19 49.5t49 71t66.5 79.5t71.5 74t65 54.5t46 21.5q6 0 11 -6t5 -11q0 -6 -5 -6.5
t-9 -2.5q-18 -6 -46.5 -28.5t-61.5 -54t-66.5 -68.5t-61 -72.5t-44.5 -66.5t-17 -49q0 -2 1 -4t3 -2q15 0 31.5 10t31.5 23.5t28.5 28.5t23.5 25l4 1q6 -1 9.5 -5t5.5 -9q0 -7 -5 -14.5t-11 -16t-11 -18t-5 -19.5q0 -4 3.5 -4.5t5.5 -0.5q9 0 17.5 6.5t15.5 15.5t11 19.5
t4 18.5q0 5 -3 7.5t-6.5 5t-6.5 5.5t-3 9zM184 371q6 0 10.5 -4.5t8.5 -11t6 -13.5t2 -12q0 -12 -8 -22t-19 -18t-24.5 -12.5t-23.5 -4.5q-17 0 -28.5 12.5t-11.5 28.5q0 11 7 21t17.5 18t22.5 12.5t22 4.5q8 0 14 -3zM189 343q-2 1 -7 2.5t-6 1.5q-8 0 -18 -3.5t-19 -9.5
t-15.5 -14t-6.5 -17q0 -5 3.5 -6t7.5 -1q8 0 18.5 4t19.5 10.5t15.5 15t7.5 17.5z" />
    <glyph glyph-name="ampersand" unicode="&#x26;" horiz-adv-x="369" 
d="M112 -155q-11 0 -17.5 11t-11 25.5t-6 29t-1.5 22.5q0 14 2 28t5 28q-29 0 -50 18t-21 48q0 22 14.5 46t35.5 46t44 40.5t40 30.5q-19 5 -37 19t-18 36q0 10 8 23t20 24t25.5 18.5t24.5 7.5t17.5 -7.5t10.5 -16.5q6 12 16.5 31.5t23.5 37.5t28.5 31.5t30.5 13.5
q8 0 12.5 -6t4.5 -13q-20 -11 -38 -31.5t-34 -45t-29 -49.5t-23 -46q21 12 48.5 24t52.5 12q7 0 11 -6t5 -12l-4 -5q-35 -11 -68 -25.5t-65 -32.5q-18 -45 -33 -90.5t-26 -93.5q17 4 41.5 13t47 22.5t38 31.5t15.5 39q0 9 -3.5 14.5t-8 10t-9.5 9t-7 12.5l5 6q8 -1 16 -8
t14 -16.5t10 -20t4 -18.5q0 -25 -18.5 -46t-45 -36.5t-55 -25t-49.5 -12.5q-3 -17 -5.5 -34.5t-2.5 -34.5q0 -15 2 -31.5t13 -27.5l6 -13zM89 12q10 44 23 86t27 84q-17 -11 -35.5 -26t-34 -32.5t-26 -38t-10.5 -42.5q0 -18 10.5 -25t27.5 -7h9t9 1zM174 271q0 11 4 21.5
t4 21.5q0 3 -1 6t-2 5q-8 -3 -19.5 -9.5t-22 -15t-18 -18.5t-7.5 -19q0 -8 5.5 -12.5t13 -7t15.5 -4t14 -2.5q3 9 6.5 17.5t7.5 16.5z" />
    <glyph glyph-name="quotesingle" unicode="'" horiz-adv-x="116" 
d="M99 421q-15 -7 -23.5 -18t-13 -22t-6.5 -19t-3 -9q-9 0 -13 7t-4 15q0 20 15 39.5t32 28.5q6 -1 12 -5t6 -11q0 -1 -1 -3t-1 -3z" />
    <glyph glyph-name="parenleft" unicode="(" horiz-adv-x="130" 
d="M70 -85q-4 0 -8 4q-30 28 -44.5 57.5t-14.5 71.5q0 39 13.5 82t36.5 85.5t53.5 83.5t65 75.5t70.5 62t71 44.5q14 0 19 -17l-4 -5q-50 -26 -103.5 -73t-98 -105t-73.5 -122t-29 -122q0 -29 7.5 -48t17 -32t18 -21.5t9.5 -14.5z" />
    <glyph glyph-name="parenright" unicode=")" horiz-adv-x="251" 
d="M15 -92q-13 3 -16 17q1 4 8 11.5t15 16t16 16.5t12 13q28 36 53.5 83.5t45 99t30.5 103.5t11 98q0 30 -10 56.5t-28 52.5q0 3 5 6q15 -2 25.5 -17.5t16.5 -35.5t9 -40.5t3 -32.5q0 -32 -7 -72t-19 -83.5t-29.5 -87t-39 -82.5t-46 -70.5t-51.5 -49.5z" />
    <glyph glyph-name="asterisk" unicode="*" horiz-adv-x="249" 
d="M175 194q6 0 17.5 -1t23 -3t20 -6.5t8.5 -13.5q0 -5 -6 -5q-18 0 -36.5 1.5t-36.5 3.5q3 -4 13 -12.5t20 -18t18 -18t8 -11.5t-4 -7q-7 1 -17 9t-21 18.5t-20.5 20.5t-14.5 16q-5 -6 -13.5 -15.5t-16 -20t-13 -21t-5.5 -17.5q0 -3 1 -5.5t1 -4.5q0 -7 -6 -7
q-8 0 -12.5 9.5t-4.5 16.5t4.5 17t10.5 20t12.5 19t11.5 15q-13 0 -25.5 -1.5t-25.5 -1.5q-6 0 -11.5 5.5t-5.5 11.5q0 3 6 5t13.5 3t14.5 1h10h31q-5 7 -13.5 19t-8.5 21l5 6q3 -1 8.5 -6t10.5 -12t9 -13.5t5 -9.5q3 4 9.5 10.5t14 13t14.5 11t12 4.5q6 0 11 -5.5t5 -11.5z
" />
    <glyph glyph-name="plus" unicode="+" horiz-adv-x="306" 
d="M235 111q-22 0 -42.5 4.5t-42.5 4.5h-4q-1 -4 -3.5 -16t-6 -25t-7 -23t-6.5 -10q-5 0 -10 5.5t-5 10.5q0 11 4.5 29t8.5 29q-5 -1 -12 -1.5t-15 -0.5q-12 0 -22 3.5t-10 14.5l5 6q9 2 18.5 2h18.5h25q1 4 4.5 13.5t8 19.5t10 17.5t10.5 7.5q8 0 11 -7t3 -14
q-8 -8 -13.5 -17.5t-9.5 -20.5q6 0 20.5 -1t29 -4t25.5 -8.5t11 -14.5z" />
    <glyph glyph-name="comma" unicode="," horiz-adv-x="95" 
d="M25 -24q0 -6 -7 -6q-8 0 -11.5 9t-3.5 16q0 6 4 15.5t10.5 18.5t14 15.5t13.5 6.5t11 -5.5t5 -11.5q0 -4 -5.5 -8t-12.5 -10t-12.5 -15.5t-5.5 -24.5z" />
    <glyph glyph-name="hyphen" unicode="-" horiz-adv-x="284" 
d="M47 132q25 5 49 5.5t49 0.5q9 0 19 -0.5t18.5 -2.5t14 -6t5.5 -10q0 -7 -7 -7q-13 0 -25 1.5t-25 1.5q-22 0 -43.5 -3t-43.5 -3q-5 0 -10 6t-5 11z" />
    <glyph glyph-name="period" unicode="." horiz-adv-x="106" 
d="M40 -4q-6 0 -11 5.5t-5 11.5q0 2 4 7.5t9.5 11t10.5 9.5t7 4q5 0 10.5 -6.5t5.5 -11.5z" />
    <glyph glyph-name="slash" unicode="/" horiz-adv-x="216" 
d="M19 -37q-11 0 -14.5 13.5t-3.5 21.5q0 29 22.5 73.5t58.5 95t81 102.5t90 96t85.5 75.5t67.5 40.5q1 0 2.5 0.5t2.5 0.5q6 0 11.5 -5.5t5.5 -11.5q0 -1 -6.5 -5t-15 -9t-16.5 -9.5t-11 -5.5q-23 -14 -58.5 -45t-75 -71.5t-79.5 -87t-72 -91.5t-52 -84.5t-20 -65.5
q0 -2 1 -8t1 -11q0 -9 -5 -9z" />
    <glyph glyph-name="zero" unicode="0" horiz-adv-x="247" 
d="M205 291q9 0 16 -10.5t12 -24t7.5 -27.5t2.5 -21q0 -30 -15.5 -67t-40.5 -69.5t-56.5 -54.5t-63.5 -22q-18 0 -30.5 8.5t-20.5 21.5t-11.5 29t-3.5 31q0 28 15 62.5t39 65t54 51t60 20.5q11 0 24 -7t13 -20q0 -6 -5 -6q-6 0 -8.5 5.5t-12.5 5.5q-27 0 -55 -20t-51 -49
t-37.5 -61.5t-14.5 -57.5q0 -9 1 -18.5t5 -18t11 -14t18 -5.5q29 0 58.5 21.5t53 52.5t38.5 66t15 62q0 15 -3 23t-6.5 14t-7.5 12t-6 16z" />
    <glyph glyph-name="one" unicode="1" horiz-adv-x="129" 
d="M196 274q-23 -20 -53 -55t-57 -75t-45.5 -80t-18.5 -71q0 -7 -6 -7q-8 0 -11.5 7t-3.5 14q0 25 12 55.5t30 61.5t38 58.5t35 46.5q-7 0 -13 5t-6 13q0 5 5 5q15 0 24.5 5t18 11.5t16.5 13.5t19 10q7 -1 11 -6.5t5 -11.5z" />
    <glyph glyph-name="two" unicode="2" horiz-adv-x="250" 
d="M210 -7q-7 1 -10 4.5t-8 6.5q-4 3 -13.5 4.5t-20 2.5t-20 1.5t-15.5 0.5q-27 0 -54.5 -5t-51.5 -18q-6 2 -9.5 7t-5.5 10l2 6q14 10 38.5 26.5t52 38t56 45t51 47.5t37 46t14.5 40q0 5 -2 9t-8 4q-12 0 -34 -8t-44 -21t-38 -28t-16 -28q0 -7 -6 -7q-7 0 -11 6.5t-4 12.5
q0 17 17 33.5t40 30t47 22t39 8.5q18 0 29 -14.5t11 -31.5q0 -25 -23 -55.5t-54 -60t-64 -55t-52 -39.5q5 1 12.5 1h16.5q16 0 34 -1.5t34 -5.5t26.5 -11t10.5 -19z" />
    <glyph glyph-name="three" unicode="3" horiz-adv-x="249" 
d="M169 158q24 0 38 -11.5t14 -38.5q0 -26 -19 -51.5t-46 -46t-57.5 -33.5t-54.5 -13q-5 0 -12 1.5t-14 4.5t-11.5 8t-4.5 11t5 6t12 -4t15 -4q21 0 49.5 12t55 31.5t45 42.5t18.5 46q0 8 -2 13t-12 5q-14 0 -27 -4t-26 -9t-26 -9t-26 -4q-6 0 -11 6t-5 12q0 3 13.5 11.5
t33.5 20.5t43.5 26t43.5 27.5t33.5 26t13.5 21.5q0 5 -5 6t-9 1q-12 0 -31.5 -4t-39 -11t-35.5 -17t-21 -22l-5 -3q-6 1 -11 5.5t-5 11.5q0 13 16.5 24.5t38 19.5t43.5 12.5t33 4.5q17 0 34.5 -8.5t17.5 -28.5q0 -13 -13 -27t-30 -27t-35 -23.5t-28 -17.5h6z" />
    <glyph glyph-name="four" unicode="4" horiz-adv-x="250" 
d="M184 49q-4 -8 -8 -22t-7.5 -27.5t-6 -23.5t-3.5 -10q-9 0 -12.5 8t-3.5 16q0 17 5 33l10 32q-19 2 -37 4t-37 2q-17 0 -34.5 -5t-34.5 -5q-6 0 -11 6.5t-5 11.5q0 2 5.5 7t13 10.5t14.5 10t9 6.5q19 16 34 31t27.5 31t23 34t20.5 41q7 16 13.5 37t17.5 32q6 -1 11 -6.5
t5 -11.5q0 -27 -13.5 -56.5t-33.5 -57.5t-43.5 -52.5t-43.5 -40.5q27 0 54.5 -2t53.5 -8q16 33 35.5 64t40.5 60l4 2q6 -1 11 -6t5 -11q0 -1 -0.5 -2t-0.5 -2q-20 -27 -38 -54.5t-32 -57.5q5 -2 10 -7t5 -11q0 -4 -5 -6z" />
    <glyph glyph-name="five" unicode="5" horiz-adv-x="247" 
d="M112 278l3 5l6 2q31 -7 66 -7q17 0 31.5 7t30.5 7q5 0 10.5 -6.5t5.5 -11.5q0 -6 -9 -9.5t-20.5 -6t-23 -3t-15.5 -0.5q-30 0 -60 6q0 -25 -13 -45.5t-27 -40.5q14 5 28.5 7.5t28.5 2.5q25 0 43 -14.5t18 -40.5q0 -25 -15.5 -52t-39 -49.5t-51.5 -37t-52 -14.5
q-6 0 -15.5 2t-18.5 5.5t-15.5 9t-6.5 12.5t5 7q4 0 15 -6.5t25 -6.5q22 0 48 13.5t48 34.5t36.5 46t14.5 48q0 14 -8 17t-19 3q-13 0 -25.5 -3.5t-24.5 -8t-24 -8t-25 -3.5q-7 0 -11.5 6t-4.5 12q0 3 10 16t22 30.5t22.5 35.5t10.5 30l1 -1z" />
    <glyph glyph-name="six" unicode="6" horiz-adv-x="244" 
d="M191 151q0 3 -2 13t-6 10q-23 0 -51 -12t-52 -31t-40.5 -43.5t-16.5 -48.5q0 -9 9 -14t17 -5q20 0 44.5 12.5t46.5 32t36.5 42.5t14.5 44zM244 242q-7 1 -11 5.5t-8.5 9t-10 8t-14.5 3.5q-22 0 -44.5 -13.5t-43.5 -33.5t-37.5 -42.5t-26.5 -40.5q10 10 24 20.5t30 18.5
t32 13.5t31 5.5q22 0 34 -18.5t12 -38.5q0 -23 -15 -48t-38 -46t-49.5 -34.5t-49.5 -13.5q-28 0 -43.5 22t-15.5 48q0 28 18 67t45.5 74t61 59.5t64.5 24.5q8 0 18 -3.5t19 -10t15.5 -14.5t6.5 -17z" />
    <glyph glyph-name="seven" unicode="7" horiz-adv-x="183" 
d="M12 -40q-6 0 -11 5.5t-5 11.5q0 9 10.5 29.5t24 43t27.5 43.5l20 30q-11 2 -23 6.5t-12 18.5q0 6 6 6q11 0 22 -5t22 -6q22 32 45 62t49 58q-37 -10 -80 -10q-8 0 -21 2.5t-25.5 7.5t-21.5 12.5t-9 18.5q0 7 5 7q1 0 6 -4t14 -9t20.5 -9t26.5 -4q31 0 64 8t62 19
q7 0 12.5 -5t5.5 -12l-3 -5q-11 -6 -27.5 -24t-33.5 -39t-32.5 -41.5t-24.5 -32.5h5q9 0 14.5 -4t5.5 -16q0 -2 -8 -2.5t-10 -0.5q-6 0 -12 0.5t-12 0.5q-11 -16 -24.5 -36t-26.5 -41t-23.5 -42t-16.5 -39z" />
    <glyph glyph-name="eight" unicode="8" horiz-adv-x="249" 
d="M190 182q8 -2 15 -9.5t12.5 -17.5t8.5 -20t3 -18q0 -25 -15.5 -48t-39 -40.5t-50.5 -28t-50 -10.5q-32 0 -53.5 20.5t-21.5 52.5q0 22 12 41t30.5 34t40.5 25t41 15q-17 14 -17 33q0 13 9 27.5t22 26.5t28 19.5t28 7.5q17 0 28 -14.5t11 -30.5q0 -23 -18 -42.5t-37 -29.5
q5 -3 10.5 -8.5t5.5 -11.5q0 -7 -5 -7q-4 0 -9.5 5t-18.5 5q-19 0 -43 -8.5t-45.5 -23t-36 -33.5t-14.5 -41q0 -20 11.5 -29.5t30.5 -9.5q20 0 45.5 9.5t47.5 25.5t37 36.5t15 43.5q0 10 -3.5 16.5t-8 12t-8 9.5t-3.5 9q0 4 5 7zM207 269q-10 0 -24 -6.5t-26.5 -16.5
t-21.5 -22t-9 -23q0 -5 4.5 -7.5t9.5 -2.5q12 0 25 6.5t23 17t16.5 23.5t6.5 25z" />
    <glyph glyph-name="nine" unicode="9" horiz-adv-x="250" 
d="M261 240q-9 -18 -18 -35.5t-17 -35.5q-10 -21 -23 -52t-30 -59.5t-39.5 -49t-50.5 -20.5q-9 0 -22.5 4.5t-26.5 12t-22.5 17t-10.5 19.5l5 6q10 -4 16 -10t12 -11.5t14.5 -9.5t23.5 -4q24 0 44 18.5t36 44t28 53t21 45.5q-11 -9 -25 -20t-30 -20t-32 -15.5t-31 -6.5
q-20 0 -32 17t-12 35q0 22 15.5 46t38 43t48.5 31.5t47 12.5q17 0 30.5 -10.5t21.5 -25.5l5 2q5 -1 10.5 -5t5.5 -10q0 -1 -0.5 -2t-0.5 -2zM227 238q-2 6 -3 12.5t-3.5 11.5t-7 8t-13.5 3q-19 0 -43 -11.5t-45.5 -29t-36.5 -38.5t-15 -41q0 -3 1.5 -11.5t5.5 -8.5
q17 0 40.5 11t47 27t43.5 34.5t29 32.5z" />
    <glyph glyph-name="colon" unicode=":" horiz-adv-x="102" 
d="M42 82q-6 0 -11 5.5t-5 11.5q0 2 4 7.5t9.5 11t10.5 9.5t7 4q5 0 10.5 -6.5t5.5 -11.5zM11 43q3 3 12.5 13t13.5 10q6 0 11 -6t5 -12q0 -2 -4 -6t-9 -8.5t-9.5 -8t-5.5 -3.5q-8 0 -11 7.5t-3 13.5z" />
    <glyph glyph-name="semicolon" unicode=";" horiz-adv-x="113" 
d="M20 -16q-9 0 -13.5 9t-4.5 17q0 5 3.5 14t9 18t12 16t12.5 7t11 -5.5t5 -11.5q0 -2 -4.5 -5.5t-10.5 -10.5t-10.5 -17.5t-4.5 -25.5q0 -5 -5 -5zM77 123q-5 -5 -16 -16.5t-13 -18.5q0 -1 0.5 -1.5t0.5 -1.5q0 -5 -6 -5t-10.5 6t-4.5 11q0 4 3.5 11.5t8.5 14.5t10.5 12.5
t10.5 5.5q6 0 11 -6.5t5 -11.5z" />
    <glyph glyph-name="less" unicode="&#x3c;" horiz-adv-x="264" 
d="M61 134q52 21 98 56q10 0 13.5 -6.5t3.5 -14.5q-20 -15 -41.5 -27.5t-44.5 -23.5q5 -4 17 -12t24 -17.5t21 -19t9 -15.5q0 -4 -7 -4q-3 0 -18 11t-32 25t-31 26.5t-15 15.5z" />
    <glyph glyph-name="equal" unicode="=" horiz-adv-x="289" 
d="M53 143q25 5 49.5 6t49.5 1q5 0 14.5 -0.5t18.5 -2t16 -6t7 -11.5q0 -2 -3.5 -3.5t-8.5 -2t-9.5 -0.5h-5.5q-11 0 -23 1t-23 1q-18 0 -35.5 -3t-35.5 -3q-5 0 -10 6t-5 11zM55 95q26 5 51.5 5.5t51.5 0.5q17 0 34.5 -3.5t17.5 -17.5q0 -5 -7 -5q-12 0 -24.5 1.5
t-24.5 1.5q-22 0 -43 -3t-43 -3q-6 0 -11.5 5.5t-5.5 11.5z" />
    <glyph glyph-name="greater" unicode="&#x3e;" horiz-adv-x="235" 
d="M38 49q-7 0 -11.5 6t-5.5 12l3 5q29 15 58.5 28.5t59.5 27.5l-10.5 10.5t-15 15.5t-13 16t-5.5 12q0 5 3 8h3q4 -4 15 -14.5t23 -22t21 -22.5t9 -15l-3 -4z" />
    <glyph glyph-name="question" unicode="?" horiz-adv-x="212" 
d="M57 73q2 -2 3.5 -5t1.5 -6q0 -6 -5 -6q-9 0 -15 10.5t-6 18.5q0 14 14 32t35.5 37.5t46 40.5t46 42.5t35.5 42t14 40.5q0 11 -5.5 20.5t-17.5 9.5q-15 0 -40 -7.5t-49.5 -19.5t-44.5 -27.5t-24 -30.5q-1 -2 -2 -4.5t-3 -2.5q-7 0 -12 7t-5 13q0 17 21 34t49.5 30.5
t57 21.5t43.5 8q23 0 37.5 -19.5t14.5 -41.5t-14 -44t-34.5 -44t-45 -43t-46 -40t-35.5 -36t-15 -31zM29 -20q-5 0 -10.5 5.5t-5.5 10.5q0 4 7 12.5t16.5 17t18.5 15t13 6.5q6 0 11 -5.5t5 -11.5q0 -2 -7 -8t-16 -13.5t-17.5 -14.5t-10.5 -11z" />
    <glyph glyph-name="at" unicode="@" horiz-adv-x="635" 
d="M590 115q11 -2 14.5 -11.5t3.5 -18.5q0 -27 -21.5 -53t-56.5 -49t-80.5 -42.5t-93.5 -33t-95 -21.5t-86 -8q-27 0 -56.5 4t-54.5 16t-41.5 33t-16.5 55q0 21 6.5 42t16.5 39q28 52 76 94t106 70.5t120.5 44t120.5 15.5q20 0 42.5 -3t41.5 -11.5t31.5 -24.5t12.5 -42
q0 -30 -21 -66.5t-52.5 -68t-67.5 -53t-66 -21.5q-20 0 -34 12.5t-14 33.5q0 13 5 26q-12 -11 -29.5 -24.5t-36.5 -25.5t-39 -20t-36 -8q-11 0 -24 7t-13 21q0 22 16 47t40 47t50.5 36.5t47.5 14.5q15 0 29.5 -6t25.5 -16q1 2 3.5 6.5t5.5 9.5t6 9t4 4q7 0 11.5 -6t4.5 -12
q0 -10 -8 -25.5t-18 -32.5t-18 -34t-8 -29q0 -8 7 -11t14 -3q17 0 38.5 10t43 26.5t42 37.5t36.5 43t25.5 43.5t9.5 38.5t-11 26.5t-26 14.5t-32 6t-29 1q-56 0 -117.5 -15.5t-118 -44t-103.5 -69t-74 -91.5q-8 -16 -15 -35.5t-7 -37.5q0 -25 13.5 -40t33.5 -22.5t43 -10
t42 -2.5q27 0 54 3t54 8q19 4 50 12.5t66.5 20.5t71.5 28t65.5 35t48 40.5t18.5 44.5q0 5 -1 9t-1 9zM351 133q-15 12 -35 12q-18 0 -42 -13t-46 -32t-38.5 -41t-19.5 -40q3 -1 8 -1q20 0 45 12.5t49 30.5t45.5 37.5t33.5 34.5z" />
    <glyph glyph-name="A" unicode="A" horiz-adv-x="987" 
d="M927 90q-10 0 -19.5 11t-15.5 19q-11 -49 -18 -98t-7 -99q0 -27 3 -55t12 -54q2 -5 7.5 -16.5t5.5 -14.5q0 -6 -8 -6q-14 8 -22 27.5t-12 42t-5.5 45t-1.5 37.5q0 53 7.5 105t19.5 103q-19 16 -39.5 28t-42.5 22q-56 -44 -111 -79.5t-114 -61t-123 -39.5t-136 -14
q-19 0 -47.5 2.5t-60.5 8.5t-63.5 15.5t-57 24t-41.5 34.5t-16 46q0 30 25.5 52.5t66 38.5t90 26t97 16t87.5 8.5t62 2.5q83 0 168 -12.5t162 -44.5q35 29 68 59.5t62 65.5q2 2 7.5 9.5t11.5 15.5t11 14.5t6 6.5q5 0 8.5 -3.5t5.5 -7.5q4 7 12.5 19.5t18.5 25.5t20.5 22.5
t18.5 9.5q5 0 9 -6t5 -11l-3 -5q-27 -16 -50 -52t-41.5 -78.5t-32 -85.5t-20.5 -72l8.5 -8.5t10.5 -11.5t9.5 -12.5t5.5 -10.5zM762 198q-72 26 -148.5 36.5t-152.5 10.5q-26 0 -61.5 -2t-75 -6t-80.5 -12t-77.5 -19t-66 -27t-46.5 -37q-12 -14 -12 -29q0 -20 15.5 -34.5
t39.5 -25.5t53.5 -18t58.5 -11t54 -5.5t39 -1.5q70 0 130 13.5t115 37.5t107.5 57t107.5 73zM938 329q-27 -38 -61 -69t-70 -60q36 -19 70 -45q11 45 26 88.5t35 85.5z" />
    <glyph glyph-name="B" unicode="B" horiz-adv-x="1099" 
d="M453 98q-10 0 -18 2.5t-8 14.5q0 4 5.5 5.5t12.5 2.5t14 1h9h13q7 11 21.5 30.5t31.5 39t34 33.5t31 14q6 0 11.5 -6.5t5.5 -11.5t-10 -7.5t-13 -4.5q-9 -5 -20 -15.5t-22 -23.5t-20.5 -25.5t-15.5 -20.5q39 3 92.5 8.5t113 14.5t121 21t117.5 28t102.5 36.5t76.5 46.5
q10 8 20 20.5t10 26.5q0 21 -25 37t-64 27t-86 18t-91 10.5t-80 5t-52 1.5q-121 0 -240 -11.5t-237 -37.5q-25 -6 -67.5 -17.5t-84 -30t-71.5 -43.5t-30 -57v-9q-3 -5 -6 -5q-10 0 -12.5 9.5t-2.5 16.5q0 33 26.5 60t71 47.5t102.5 36.5t121.5 27t127.5 18t121 11.5t101.5 6
t69.5 1.5q20 0 60 -1t88 -4.5t98.5 -11t91.5 -21t67.5 -33.5t26.5 -49q0 -38 -34 -68t-87 -53t-118.5 -40t-128.5 -28.5t-116 -18.5t-81 -10q13 -1 41.5 -3t62.5 -6t70.5 -10.5t66.5 -16t49 -23t19 -31.5t-22.5 -31t-57 -22t-77 -14.5t-82 -8.5t-71 -4t-45.5 -1q-33 0 -77 2
t-88 9t-84.5 20.5t-66.5 35.5q-3 3 -5.5 6t-2.5 8q0 6 6 6q2 0 7.5 -3t12 -7t12 -8t8.5 -5q23 -13 58 -21t72.5 -12.5t74 -6t63.5 -1.5q12 0 42.5 1.5t68.5 4.5t79 8t75 13t56 18t22 24q0 6 -12.5 12t-32 11t-42.5 9.5t-45 8t-39 5.5t-24 3q-57 6 -112.5 9.5t-112.5 5.5
q-10 -16 -21.5 -34.5t-17.5 -36.5q-1 -3 -2.5 -8t-7.5 -5t-11 6t-5 11q0 3 4.5 12.5t10.5 20.5t12 21t8 14h-11z" />
    <glyph glyph-name="C" unicode="C" horiz-adv-x="828" 
d="M931 -101q-25 -15 -64 -27.5t-85 -22.5t-96.5 -17.5t-98.5 -12.5t-90 -7.5t-72 -2.5q-33 0 -76 2.5t-88.5 10.5t-89.5 22t-78.5 36.5t-55.5 55.5t-21 78q0 35 13.5 69.5t34.5 65.5t47.5 58.5t52.5 48.5q115 94 257 143t290 49q14 0 36.5 -0.5t48 -3t51 -8t46.5 -15
t34 -23.5t13 -34q0 -15 -10 -29.5t-24.5 -26.5t-30.5 -21.5t-28 -15.5q-29 -16 -65.5 -31.5t-75 -27.5t-77 -19.5t-71.5 -7.5q-14 0 -27.5 1.5t-25.5 6.5t-21 15.5t-13 27.5q2 5 5 5q10 0 14.5 -10t11.5 -15q8 -5 22 -6.5t22 -1.5q32 0 70 7.5t77 19.5t75 27t64 30
q9 5 24 14t29 20.5t24 24t10 24.5q0 11 -12.5 19.5t-31.5 14t-42.5 9t-45.5 5.5t-40 2.5t-26 0.5q-146 0 -286.5 -49t-253.5 -142q-25 -20 -50.5 -46t-46.5 -56t-34 -63t-13 -67q0 -39 20.5 -66.5t53 -46.5t74 -30t83.5 -17t80.5 -8t66.5 -2q57 0 123 5t133 15.5t130.5 27.5
t114.5 41q16 0 18 -17z" />
    <glyph glyph-name="D" unicode="D" horiz-adv-x="1159" 
d="M437 10q-5 1 -10 5.5t-5 10.5t8 22t18 33t20 33t15 22q-22 0 -62.5 -6.5t-80.5 -20t-69.5 -34.5t-29.5 -50q0 -14 14.5 -23.5t37 -16t50.5 -10t54 -5.5t47 -2.5t31 -0.5q112 0 223 19.5t215 63.5q31 13 70.5 35t74.5 50.5t59 63t24 73.5q0 35 -24 60t-62.5 42t-85.5 27
t-93.5 15.5t-87 7.5t-64.5 2q-65 0 -139.5 -5.5t-149.5 -16.5t-147 -28.5t-132 -42.5q-15 -6 -36 -16.5t-40.5 -24t-33.5 -30t-14 -34.5v-6q0 -10 -6 -10q-8 0 -11.5 10t-3.5 16q0 26 19 48t49.5 40t68 32.5t74.5 25t69.5 18t52.5 11.5q92 18 184 26.5t186 8.5q31 0 76 -2
t94.5 -8.5t99 -18.5t89.5 -33t64.5 -52t24.5 -74q0 -41 -23.5 -76.5t-58.5 -65t-75 -52t-73 -36.5q-106 -46 -219 -66t-228 -20q-15 0 -40.5 0.5t-55 3.5t-59.5 8.5t-54.5 16t-40 26t-15.5 37.5q0 23 17.5 41.5t42 33t51.5 24t45 13.5q26 6 51 7.5t51 1.5h21q6 8 17.5 22
t24 27t26 22.5t24.5 9.5q6 0 11 -6t5 -12q0 -5 -5.5 -5.5t-8.5 -2.5q-20 -11 -35.5 -27.5t-29.5 -33.5q9 -2 26.5 -8t35 -14.5t31 -19t13.5 -20.5q0 -5 -5 -5q-4 0 -8 3q-27 20 -50.5 30.5t-56.5 15.5q-8 -11 -19 -26t-21.5 -32t-19 -33.5t-11.5 -28.5z" />
    <glyph glyph-name="E" unicode="E" horiz-adv-x="1075" 
d="M1031 34q-22 -24 -60 -44t-84.5 -36t-98.5 -28.5t-102 -20.5t-94.5 -12t-76.5 -4q-46 0 -98.5 7.5t-97.5 28t-74.5 55.5t-29.5 90q0 21 6 41.5t16 39.5q-21 -4 -56 -12t-69 -22t-58.5 -34t-24.5 -48q0 -2 1 -4.5t1 -4.5q-3 -5 -6 -5q-10 0 -14 11t-4 19q0 21 14 37.5
t36 30t50 23.5t55 17t51.5 11.5t40.5 7.5q30 40 75 75.5t100 66t116 54.5t122 41t119 26t106 9q23 0 57 -3t66 -12.5t55 -28.5t23 -51q0 -30 -18.5 -57.5t-45.5 -50.5t-57.5 -41t-54.5 -29q8 -2 27 -7t38 -12.5t33.5 -17t14.5 -19.5q0 -5 -6 -5q-4 0 -8 3q-30 18 -62 28
t-67 17q-24 -10 -50 -17t-52 -7q-9 0 -22.5 2.5t-26.5 7.5t-22.5 13t-10.5 19q-23 2 -45.5 2h-45.5q-86 0 -170.5 -6t-169.5 -20q-16 -22 -26 -47.5t-10 -52.5q0 -48 27.5 -77t68 -44t86.5 -19.5t82 -4.5q140 0 269 36t256 93h3l4 -4zM870 186q24 10 58.5 28t67 41.5
t55.5 51.5t23 57q0 23 -22 35.5t-51.5 18.5t-59.5 7.5t-46 1.5q-69 0 -154 -18.5t-168.5 -51t-157 -77t-121.5 -96.5q75 11 150 16.5t151 5.5q69 0 137.5 -4.5t137.5 -15.5zM832 172q-28 4 -56 6l-56 4q12 -13 23 -17t28 -4q16 0 31 3t30 8z" />
    <glyph glyph-name="F" unicode="F" horiz-adv-x="1040" 
d="M647 -189q19 0 44.5 22t52 56.5t53.5 76t49.5 82t38.5 74t22 51.5q-56 2 -110.5 2.5t-110.5 0.5q-85 0 -172.5 -3t-170.5 -26q-1 0 -2 -0.5t-2 -0.5q-5 0 -10 6t-5 11q0 7 21 12.5t55.5 9.5t78.5 6.5t89.5 4.5t88 2.5t75.5 0.5q46 0 91.5 -1t90.5 -6q11 30 18.5 61
t7.5 63q0 19 -3 32.5t-15 29.5q-12 15 -38.5 24.5t-57.5 14.5t-60.5 6.5t-48.5 1.5q-57 0 -114 -5.5t-114 -14.5q-21 -4 -64.5 -12.5t-95.5 -21t-106.5 -29.5t-99.5 -37.5t-73.5 -44t-28.5 -49.5q0 -14 9.5 -21.5t9.5 -17.5q0 -6 -6 -6q-7 0 -13 6.5t-11 15.5t-8 18t-3 15
q0 28 28 53t72 47t97.5 39.5t105 30.5t94.5 21.5t66 12.5q59 9 118 14.5t119 5.5q37 0 82.5 -3t85.5 -16.5t67 -41.5t27 -79q0 -29 -6 -58t-15 -57q7 -1 25.5 -3t37.5 -6.5t33.5 -11.5t14.5 -17q0 -6 -5 -6t-6.5 3t-5.5 5q-7 5 -20.5 8t-28.5 5t-29 3t-23 1
q-8 -20 -24.5 -56.5t-39.5 -79t-50.5 -86.5t-55.5 -80t-55.5 -58.5t-50.5 -22.5q-6 0 -10.5 6.5t-4.5 11.5z" />
    <glyph glyph-name="G" unicode="G" horiz-adv-x="989" 
d="M883 261q-6 2 -11 6.5t-5 10.5q0 10 7.5 23t17 26.5t17 26t7.5 21.5q0 16 -22.5 26.5t-52.5 16t-58.5 7.5t-40.5 2q-57 0 -112.5 -11t-109.5 -27q-32 -9 -80.5 -27t-102.5 -43t-108 -55.5t-97 -65t-70 -72.5t-27 -78q0 -22 14 -37t37 -25.5t50.5 -16.5t55.5 -8.5t52 -3.5
t39 -1q39 0 93 4.5t113.5 13t121.5 22t118.5 32t102.5 41t74 50.5q2 2 9 10.5t10 8.5q5 0 10 -6.5t5 -11.5t-6 -11l-10 -10q-35 -36 -68 -77.5t-67.5 -83.5t-71.5 -80t-79 -68t-90 -47.5t-105 -17.5q-64 0 -112.5 29.5t-74.5 89.5q-3 8 -8.5 23.5t-5.5 23.5q0 2 1 5t4 3
q7 0 12 -9t9 -20.5t7 -22.5t5 -16q21 -45 63.5 -64.5t90.5 -19.5q68 0 126 29.5t108.5 74t94 97.5t82.5 100q-57 -28 -126.5 -49.5t-143 -36t-146 -22t-135.5 -7.5q-20 0 -49 1.5t-60 5.5t-62 12.5t-55.5 22.5t-39.5 34t-15 49q0 42 27 81.5t70.5 75t97.5 67t108.5 57
t104 44t83.5 28.5q55 17 111.5 27.5t114.5 10.5q22 0 51.5 -2t59 -8.5t54.5 -19t37 -33.5q4 5 12.5 15t17.5 20.5t18 18t15 7.5q7 0 11 -5.5t5 -11.5l-2 -4q-38 -32 -70.5 -72.5t-51.5 -88.5z" />
    <glyph glyph-name="H" unicode="H" horiz-adv-x="1290" 
d="M1208 209q-16 -28 -29 -54.5t-24 -48.5q-25 -53 -42 -105.5t-25 -110.5q0 -6 -6 -6q-7 0 -11 6t-4 12q0 24 8 56.5t19.5 66t25 64.5t24.5 53q8 15 17.5 33.5t20.5 38.5q-30 4 -62.5 7t-63.5 4.5t-59.5 2t-51.5 1.5q-109 -149 -264.5 -224.5t-340.5 -75.5q-32 0 -77 4.5
t-90 15.5t-82.5 31t-55.5 51q-10 17 -10 33q0 30 28 54t74.5 42.5t108 32.5t128 23.5t133.5 16t126 10t105 5.5t70 2q9 19 28.5 44.5t43.5 47.5t50 37.5t49 15.5q17 0 29 -11.5t12 -28.5q0 -12 -5 -26t-12.5 -28.5t-16 -27.5t-15.5 -22q10 0 35 -1t57.5 -3t69 -5.5
t69.5 -8.5q15 26 32.5 52t35.5 49t37 41.5t37 29.5q3 2 11.5 6t12.5 4q7 0 12.5 -5t5.5 -12q0 -1 -0.5 -2t-0.5 -2q-2 -2 -3 -2q-22 -9 -42.5 -26t-40 -38.5t-37 -47t-33.5 -52.5q37 -7 61 -17t24 -24q0 -6 -6 -6q-2 0 -6 2q-35 17 -84 26zM815 228q-10 -23 -10 -45
q0 -17 5.5 -24t5.5 -14q0 -6 -6 -6t-11 7t-8.5 16t-5.5 18t-2 14q0 8 2 16.5t4 16.5q-24 -1 -68.5 -3t-101 -6t-121 -10t-128.5 -15.5t-122.5 -22t-103 -29.5t-71.5 -38.5t-27 -48.5q0 -20 17 -36t44 -27.5t59.5 -19t64.5 -12t58.5 -6.5t40.5 -2q180 0 324 69.5t258 208.5
q-24 0 -48.5 -0.5t-48.5 -0.5zM828 251q26 1 50.5 1h50.5q6 9 16.5 24t20.5 31.5t17.5 32.5t7.5 27q0 3 -4.5 4t-6.5 1q-18 0 -41 -13t-45 -32t-40 -39.5t-26 -36.5z" />
    <glyph glyph-name="I" unicode="I" horiz-adv-x="383" 
d="M72 -211q-5 0 -10 6t-5 11q0 2 5.5 6t13 8t14.5 7.5t9 5.5q13 9 30 28t33 41.5t30.5 44.5t23.5 36q22 36 47.5 82t47 96t35.5 99.5t14 92.5q0 34 -14 54t-51 20q-51 0 -95.5 -29t-77.5 -75t-51.5 -101.5t-18.5 -107.5q0 -14 2.5 -28t2.5 -28q0 -7 -6 -7q-8 0 -12 7.5
t-5.5 18t-2 20.5t-0.5 15q0 52 17 111.5t49.5 109.5t80 83.5t107.5 33.5q47 0 71.5 -32t24.5 -76q0 -37 -10 -78t-26 -82.5t-34.5 -80t-36.5 -70.5q-7 -13 -20.5 -36t-31.5 -49.5t-38 -54.5t-40 -50.5t-39 -37t-33 -14.5z" />
    <glyph glyph-name="J" unicode="J" horiz-adv-x="918" 
d="M950 344q-28 -72 -57 -131t-64.5 -111t-81 -99.5t-106.5 -96.5q-85 -68 -185.5 -108t-209.5 -40q-22 0 -50 3t-53 13t-42 27.5t-17 46.5q0 16 7.5 32t19.5 30t26 26t26 21q37 27 81 44.5t91 27.5t94.5 14t92.5 4q54 0 106.5 -5.5t104.5 -16.5q36 37 64.5 76t52 81
t43 86.5t37.5 92.5l5 3q16 -2 16 -18zM715 7q-45 9 -91 13t-92 4q-60 0 -119.5 -7.5t-116.5 -24.5q-24 -7 -56.5 -21.5t-62.5 -35t-51 -46t-21 -54.5q0 -18 15.5 -29t36.5 -17t43 -7.5t35 -1.5q107 0 206.5 40.5t182.5 106.5q24 19 47.5 38t43.5 42zM129 85q-6 2 -9 5
q-17 16 -34.5 35.5t-32 42t-24 47t-9.5 48.5q0 42 27 71.5t70 50t96 33t106 19t99.5 8.5t75.5 2q38 0 93 -3.5t117 -10t127.5 -16.5t125.5 -23.5t109.5 -31t80.5 -37.5q4 -2 7 -6.5t3 -9.5q0 -7 -5 -7q-2 0 -20 6t-40 13.5t-42 14.5t-26 9q-254 80 -519 80q-28 0 -73 -2
t-96.5 -8t-104 -17.5t-95 -31t-69 -48t-26.5 -67.5q0 -32 12 -53.5t27.5 -38.5t31 -32t22.5 -35z" />
    <glyph glyph-name="K" unicode="K" horiz-adv-x="1010" 
d="M1134 -106q-56 -28 -125 -37t-131 -9q-78 0 -162 20.5t-166.5 53.5t-159 75.5t-138.5 86.5q-22 -27 -42 -58t-20 -68q0 -6 -6 -6q-10 0 -13.5 9t-3.5 17q0 16 6.5 32.5t16 32t21 30.5t20.5 27q-7 6 -16.5 14t-18.5 18t-15.5 20t-6.5 20l4 6q11 -5 18.5 -11.5t15.5 -12.5
t19 -11t29 -9q8 10 23.5 27t33.5 37.5t37 42.5t34.5 43t25.5 38.5t10 28.5q0 9 -8 14t-19 7t-22 2.5t-17 0.5q-19 0 -50.5 -5t-67.5 -14t-73 -22.5t-66.5 -30.5t-48.5 -38t-19 -45q0 -8 4.5 -15.5t4.5 -15.5q0 -6 -5 -6q-6 0 -10.5 5.5t-8 13.5t-5 15.5t-1.5 12.5
q0 27 19 50t49.5 41.5t68 33t75 24.5t70.5 15t54 5q15 0 32 -2.5t31.5 -9t24 -18t9.5 -30.5q0 -18 -19.5 -47t-45 -60.5t-51 -59t-38.5 -42.5q17 -2 33.5 -3t33.5 -1q58 0 131 8t153 23t162.5 35.5t159.5 45.5t144 53.5t116 58.5q9 5 21 14t23 20t18.5 22.5t7.5 22.5
q0 4 -1.5 7.5t-1.5 7.5q0 6 6 6q9 0 13.5 -12.5t4.5 -19.5q0 -21 -18 -42t-46.5 -40.5t-63.5 -37t-69 -31.5t-63.5 -24.5t-46.5 -16.5q-75 -24 -154.5 -46.5t-160.5 -39.5t-162.5 -27t-160.5 -10q-24 0 -48 1.5t-48 6.5l-11 -14q61 -42 135 -82.5t153.5 -72.5t160.5 -52
t156 -20q64 0 127.5 12t123.5 33l1 1q15 -2 17 -17z" />
    <glyph glyph-name="L" unicode="L" horiz-adv-x="724" 
d="M983 -149q-5 0 -9 3q-57 37 -123.5 59t-136 34t-140.5 15.5t-137 3.5q-53 0 -104.5 -3t-103.5 -10q-25 -23 -54.5 -42t-64.5 -19q-11 0 -25 3.5t-16 17.5q-19 -9 -28.5 -18t-14 -17.5t-6 -14.5t-5.5 -9q-15 3 -15 19q0 17 12 31t31.5 25t43 18.5t47 13t44.5 9.5t34 6
q28 29 60 75.5t67.5 99t73.5 106t78.5 96.5t82.5 70t86 27q15 0 34 -4.5t37.5 -12.5t34.5 -18.5t26 -22.5q2 3 9 11.5t15 17.5t15 16t10 7q6 0 11 -6t5 -12q0 -1 -0.5 -2t-0.5 -2q-9 -8 -22.5 -22t-26 -30.5t-21 -33t-8.5 -29.5q0 -2 0.5 -5t0.5 -6q0 -6 -5 -6
q-10 0 -13.5 9.5t-3.5 17.5q0 17 7.5 33t17.5 29q-23 20 -51.5 34t-60.5 14q-40 0 -79.5 -25.5t-78 -65.5t-74.5 -90.5t-69 -100t-62 -93.5t-53 -72q84 9 170 9q59 0 135.5 -4.5t154.5 -18t148.5 -37t117.5 -60.5q8 -6 8 -13zM178 -55q-26 -5 -50.5 -11t-48.5 -17
q5 -1 10.5 -1.5t10.5 -0.5q22 0 41.5 9t36.5 21z" />
    <glyph glyph-name="M" unicode="M" horiz-adv-x="1895" 
d="M205 -232q-30 12 -63 32.5t-61 47t-46 59t-18 68.5q0 53 35.5 103t92.5 94t128.5 82t142.5 68t135.5 51.5t107.5 32.5q70 18 141 31t143 13q33 0 72.5 -6.5t74 -22.5t58 -43.5t23.5 -69.5q0 -35 -13.5 -67.5t-31.5 -61.5q23 20 55 46.5t69.5 55.5t78 57.5t80.5 50.5
t76.5 36t66.5 14q27 0 45 -12t18 -42q0 -29 -15 -65t-36.5 -73t-45 -70.5t-40.5 -56.5q44 37 101 82t120 84.5t127.5 66t124.5 26.5q14 0 24.5 -6t10.5 -23q0 -15 -18 -40t-44.5 -56.5t-57.5 -67.5t-57.5 -73t-44.5 -72.5t-18 -65.5q0 -13 4.5 -22t9.5 -16t9.5 -12t4.5 -9
q0 -6 -6 -6q-9 0 -16.5 9t-13 21t-8.5 24t-3 19q0 32 17.5 70t44.5 76.5t57.5 75.5t57.5 67.5t44.5 52.5t17.5 31q0 5 -4.5 5.5t-7.5 0.5q-18 0 -46 -8t-57.5 -20t-57 -25t-43.5 -22q-69 -39 -133.5 -86.5t-124.5 -100.5q-10 -9 -26 -25t-33.5 -32.5t-33 -30.5t-24.5 -18
q-6 2 -11 6.5t-5 10.5q0 3 17.5 25t44 55t57.5 73t57.5 80.5t44 77t17.5 62.5q0 17 -9.5 25t-26.5 8q-37 0 -88 -23.5t-107.5 -61t-115.5 -84.5t-112 -93.5t-97 -88.5t-71 -69q-1 0 -1.5 -0.5t-1.5 -0.5q-7 0 -11.5 6.5t-5.5 12.5q9 10 27 27t40 39.5t45 49.5t42 56.5t31 61
t12 62.5q0 36 -20 59t-49.5 35.5t-63.5 17t-62 4.5q-71 0 -140 -12.5t-138 -31.5q-42 -12 -105 -33t-134 -50t-141.5 -66t-127.5 -80t-92.5 -91t-35.5 -100q0 -29 12.5 -52.5t31.5 -42t41 -33t41.5 -26t33.5 -21t16 -16.5l-5 -5z" />
    <glyph glyph-name="N" unicode="N" horiz-adv-x="1277" 
d="M1172 -118q-11 4 -19 13t-13.5 20.5t-8 23.5t-2.5 23q0 37 17 79t43 85.5t55.5 86.5t55.5 81t43 69.5t17 52.5q0 8 -9 9.5t-14 1.5q-36 0 -82 -18t-97.5 -47t-104.5 -65.5t-101.5 -73.5t-89.5 -71t-68 -58q-5 -5 -20 -19t-31 -29t-29.5 -27t-16.5 -13q-16 3 -18 20
q23 16 54 47.5t59 69t47.5 75t19.5 66.5q0 28 -16 45.5t-39 26.5t-50 12t-48 3q-53 0 -105 -9t-103 -22q-25 -6 -69 -20t-95 -33t-103 -43.5t-94.5 -52t-69.5 -57.5t-27 -60q0 -18 10.5 -28.5t23.5 -18t23.5 -13.5t10.5 -16q0 -5 -5 -5q-1 0 -2.5 0.5t-2.5 0.5
q-14 6 -28 14.5t-25 20t-18.5 25.5t-7.5 30q0 32 27 63.5t69.5 60t95 54t103.5 45.5t95.5 34t71.5 21q54 14 107.5 22.5t108.5 8.5q27 0 59 -4.5t60 -16.5t47 -34t19 -56q0 -32 -13 -61t-30 -55q26 22 63 51.5t80 61t89.5 62.5t92 55t87.5 39t76 15q23 0 38.5 -9.5
t15.5 -35.5q0 -22 -17.5 -55t-43.5 -72.5t-56 -82.5t-56 -85.5t-43.5 -83t-17.5 -73.5q0 -16 4.5 -26.5t10.5 -17t10.5 -11.5t4.5 -10q0 -4 -5 -6z" />
    <glyph glyph-name="O" unicode="O" horiz-adv-x="886" 
d="M603 435q-60 -4 -125 -18.5t-128 -38t-121 -55.5t-104 -71q-14 -12 -29 -26.5t-28 -31.5t-21 -35.5t-8 -37.5q0 -33 29 -54t69 -32.5t81 -15.5t65 -4q49 0 110.5 8.5t126.5 25.5t129 42.5t119 59t96 75.5t61 93q4 11 4 24q0 21 -17 33t-40.5 18t-47.5 7t-39 1
q-33 0 -80 -5.5t-100 -15.5t-107.5 -25t-103.5 -34.5t-87.5 -43t-58.5 -50.5q-5 -8 -10 -16.5t-5 -18.5q0 -7 2 -13.5t4 -13.5l-4 -5q-12 5 -18 16.5t-6 24.5q0 21 13.5 39.5t34.5 35t47.5 31t53.5 26t51 20t40 13.5q79 26 160.5 42t165.5 16q23 0 53 -3t56.5 -12.5t45 -28
t18.5 -49.5q0 -32 -19.5 -62.5t-40.5 -53.5q-51 -54 -124 -96t-155 -70t-166 -42.5t-157 -14.5q-21 0 -49.5 2.5t-58.5 8t-59.5 15.5t-52.5 25.5t-37 37t-14 50.5q0 36 27 74t72.5 74t104 68.5t122.5 57t128.5 38.5t120.5 14q7 0 11 -5.5t4 -11.5z" />
    <glyph glyph-name="P" unicode="P" horiz-adv-x="1004" 
d="M299 -88q-12 4 -17.5 14.5t-5.5 22.5q0 17 6.5 36.5t16.5 38.5t21.5 36t21.5 31q-13 1 -30.5 4.5t-33.5 10.5t-27.5 18t-11.5 28q0 22 27 35.5t62.5 20.5t70 9.5t50.5 2.5q7 7 18 17t23.5 19t25 15.5t23.5 6.5q7 0 11 -5.5t5 -11.5l-5 -5q-20 -3 -35.5 -14.5t-29.5 -24.5
l18 -3t24.5 -6t21.5 -10t9 -14q0 -6 -5 -6q-23 0 -45 8t-45 11q-20 -20 -39 -42t-36 -45q14 -2 26.5 -2h26.5q42 0 100.5 4t124 12.5t132.5 23.5t126.5 36.5t106 51t70.5 67.5q10 17 10 32q0 20 -22 35t-56 25t-75.5 16t-80.5 9.5t-71 4.5t-47 1q-118 0 -235 -14t-232 -43
q-19 -5 -45.5 -12.5t-55 -18.5t-56.5 -25t-50.5 -31.5t-36.5 -38t-14 -44.5q0 -2 0.5 -5t0.5 -6q0 -7 -5 -7q-11 0 -14 10.5t-3 18.5q0 37 25.5 66.5t69 53t100 41.5t118.5 31.5t125.5 22t120.5 14t102.5 7.5t72.5 2q21 0 58 -1t79.5 -4.5t86.5 -11.5t79.5 -22t58 -35
t22.5 -52q0 -20 -11 -37q-24 -39 -71 -69.5t-108 -52.5t-130 -37t-136 -24t-127 -13t-103 -4q-37 0 -73 3q-10 -13 -23 -32t-24.5 -40t-19.5 -42t-8 -37q0 -4 2.5 -9.5t4.5 -9.5zM356 112q17 22 34 43.5t37 41.5q-12 0 -39 -3t-55.5 -10t-50 -17.5t-21.5 -25.5
q0 -8 12.5 -13t29 -9t32 -5.5t21.5 -1.5z" />
    <glyph glyph-name="Q" unicode="Q" horiz-adv-x="896" 
d="M51 85q-9 3 -15.5 12t-11 20.5t-6.5 23.5t-2 20q0 32 18 58.5t45 48.5t57.5 38.5t55.5 27.5q57 25 119 44.5t126.5 32.5t129 19.5t126.5 6.5q20 0 47.5 -1.5t56 -5.5t56.5 -12.5t50.5 -22t36 -34t13.5 -48.5q0 -25 -14 -51t-30 -45q-43 -51 -109.5 -87.5t-141.5 -60.5
t-152 -37t-141 -17q58 -3 133 -14.5t151 -30.5t145 -46.5t114 -63.5q8 -6 8 -13q0 -5 -6 -5q-4 0 -7 2q-129 75 -279 113t-303 38q-11 0 -28.5 -0.5t-35 -3.5t-32 -10t-18.5 -19q0 -2 0.5 -3.5t0.5 -3.5q0 -6 -6 -6q-8 0 -12 9.5t-4 15.5q0 10 7 17.5t17 12t21 7t19 3.5
q-18 1 -41.5 3.5t-44.5 10.5t-35.5 22.5t-14.5 38.5q0 25 17 50.5t45 49t62.5 44t69.5 36t66.5 24.5t53.5 9q6 0 17.5 -1.5t23 -4.5t19.5 -8.5t8 -14.5q0 -6 -6 -6q-14 0 -25.5 6t-25.5 6q-28 0 -54.5 -6t-52.5 -17q-21 -8 -54 -28t-64.5 -45.5t-54.5 -54t-23 -52.5
q0 -15 19 -23t43.5 -12t48.5 -4.5t35 -0.5q47 0 105.5 5t120.5 17t124.5 30t117 45t98 62t68.5 80q6 11 11 23.5t5 26.5q0 21 -13 36t-33.5 25t-46.5 15.5t-51.5 8.5t-48 4t-37.5 1q-62 0 -126 -7t-127.5 -20t-125 -32t-117.5 -44q-23 -10 -52 -26t-55 -36.5t-44 -45.5
t-18 -54q0 -16 7.5 -30.5t12.5 -28.5z" />
    <glyph glyph-name="R" unicode="R" horiz-adv-x="1051" 
d="M616 299q-22 -3 -47.5 -21t-50.5 -41.5t-46.5 -48.5t-34.5 -42q13 -6 25 -13t23 -16q36 3 96.5 12t131 23.5t145 34t139.5 43t113 51t67 58.5q2 6 2 11q0 15 -24 26t-61.5 19.5t-84.5 14t-93 8.5t-87 4.5t-66 1.5q-27 0 -72.5 -1.5t-101.5 -6t-118.5 -12.5t-123.5 -20
t-117 -29t-98.5 -40t-68 -52.5t-25.5 -66.5q0 -11 4 -21t4 -21q0 -6 -6 -6q-7 0 -11.5 7t-7.5 17t-4 19.5t-1 14.5q0 40 25.5 72t69 56.5t100.5 42t119.5 30t127 20t122 12t104.5 6t76 1.5q19 0 59 -1t89 -4t101 -10t94.5 -19t70 -30t27.5 -44q0 -24 -25 -46.5t-66.5 -43
t-96 -39t-113.5 -34.5t-118.5 -29.5t-111.5 -23.5t-92.5 -16.5t-61.5 -9.5q75 -53 144 -94.5t141 -70t150.5 -43t172.5 -14.5q6 0 17 1.5t22 1.5q13 0 22.5 -4t9.5 -15q0 -3 -4.5 -4t-10 -2t-11 -1h-7.5q-110 0 -196 15t-162.5 45t-151 75.5t-162.5 107.5q-23 -2 -46.5 -3.5
t-46.5 -1.5q-9 -12 -19 -28t-18 -33t-13.5 -34.5t-5.5 -32.5q0 -6 3 -11.5t3 -11.5t-5 -6q-6 0 -10.5 4.5t-7 11.5t-4 13.5t-1.5 11.5q0 32 16 63t32 57q-11 1 -22 8t-11 20q0 10 7 17t16.5 11.5t20.5 6t19 1.5h6.5t7.5 -1q13 17 36.5 45t51.5 54.5t56 46t50 19.5
q6 0 10.5 -5t4.5 -11zM458 115q-8 5 -16 9t-16 6q-4 -4 -7.5 -8.5t-6.5 -9.5q11 0 23 1t23 2zM396 135q-11 -1 -20.5 -6.5t-17.5 -13.5q5 -2 11 -2t12 -1q3 6 7 12t8 11z" />
    <glyph glyph-name="S" unicode="S" horiz-adv-x="827" 
d="M868 227q-6 1 -11 5.5t-5 11.5q0 4 12.5 8.5t32 10.5t41.5 14.5t41.5 20t32 26t12.5 33.5q0 20 -21.5 34t-54.5 23.5t-73.5 15.5t-79 8.5t-69.5 3.5t-46 1q-110 0 -218.5 -12t-214.5 -41q-24 -6 -60 -19t-70 -32t-58.5 -43.5t-24.5 -54.5q0 -28 30 -47.5t79.5 -33.5
t112.5 -24.5t129 -19t129 -16.5t112.5 -18.5t79.5 -25t30 -34.5q0 -18 -22.5 -31t-57 -22t-76.5 -15t-81.5 -9t-71 -4t-45.5 -1q-35 0 -78.5 2t-87.5 9t-84 20.5t-67 35.5q-7 5 -7 14q0 5 5 5q2 0 4 -1l4 -2q68 -38 143 -49.5t158 -11.5q12 0 42 1.5t68 4.5t79 8t75 13
t56 18t22 24q0 8 -23 15.5t-60 15t-84.5 14t-96.5 12.5t-95 11.5t-81 11.5q-27 4 -71 13t-86 25.5t-72.5 41.5t-30.5 61q0 34 24.5 60.5t59 46t72.5 32.5t64 21q108 30 218.5 42t222.5 12q19 0 54 -1t76.5 -5t84 -11.5t77.5 -21t57 -33t22 -46.5q0 -26 -20 -45.5t-48.5 -34
t-58.5 -24.5t-49 -16z" />
    <glyph glyph-name="T" unicode="T" horiz-adv-x="502" 
d="M1044 275q-2 0 -3 1t-3 2q-40 23 -83 36t-87 24q-126 31 -253.5 47.5t-257.5 16.5q-20 0 -51 -1t-66 -4.5t-70.5 -10.5t-64.5 -20t-47 -33t-18 -48q0 -17 7 -33.5t15.5 -30t15.5 -23.5t7 -14q0 -6 -6 -6q-10 0 -21 15.5t-20 35.5t-14.5 39.5t-5.5 28.5q0 30 18.5 51.5
t48 35.5t66.5 22.5t73.5 12.5t69 5t53.5 1q131 0 259 -16.5t256 -47.5q8 -2 24.5 -6.5t37.5 -10.5t43 -13.5t40 -16t30 -17t12 -16.5q0 -6 -5 -6zM516 271q-8 1 -11.5 7.5t-5.5 12.5q-24 -36 -57.5 -91.5t-64.5 -116.5t-53 -119.5t-22 -100.5q0 -8 4 -16t4 -16q0 -6 -7 -6
t-11 6.5t-6 14.5t-2.5 16.5t-0.5 13.5q0 35 11 73t25 70q6 14 21.5 46t37 72.5t46 83.5t48 78.5t43.5 58.5t32 23q5 0 10 -6t5 -11q0 -1 -7 -8.5t-7 -8.5q-12 -16 -19.5 -33.5t-7.5 -37.5z" />
    <glyph glyph-name="U" unicode="U" horiz-adv-x="949" 
d="M1082 448q6 -2 10.5 -6.5t4.5 -10.5q0 -1 -0.5 -2t-0.5 -2q-41 -56 -84 -108q-20 -24 -44 -57.5t-48.5 -72t-48 -81t-42 -83.5t-29.5 -79t-11 -69q0 -23 9 -34.5t9 -18.5q0 -6 -5 -6q-9 0 -15 8.5t-10 20t-6 23.5t-2 18q0 39 10.5 79.5t28 80.5t39 77t42.5 68
q-44 -40 -103.5 -84t-125.5 -80.5t-134 -60.5t-129 -24q-14 0 -30 3t-29 9.5t-21.5 18t-8.5 29.5q0 23 17 52.5t42.5 62t55 66.5t55 67t42.5 62.5t17 52.5q0 11 -6.5 17.5t-15.5 9.5t-19 4t-18 1q-51 0 -99.5 -14.5t-95.5 -33.5q-24 -10 -64.5 -30t-80 -45.5t-68.5 -55.5
t-29 -59q0 -5 2 -11t3 -11q-3 -5 -6 -5q-5 0 -9 4.5t-6.5 10.5t-3.5 12.5t-1 10.5q0 31 25.5 62t66.5 58.5t91.5 51.5t100 41t93 27t69.5 10q15 0 31.5 -3.5t30 -11.5t22 -21t8.5 -31q0 -24 -17 -54.5t-42.5 -64t-55.5 -68t-55.5 -66.5t-42.5 -60t-17 -48q0 -10 6.5 -15
t16 -7.5t19.5 -3t16 -0.5q37 0 73.5 9t70.5 22q84 32 160.5 78.5t145 104.5t129 124.5t112.5 139.5z" />
    <glyph glyph-name="V" unicode="V" horiz-adv-x="670" 
d="M1093 406q-7 4 -11 8t-8 7t-9 4.5t-14 1.5q-28 0 -70.5 -19.5t-92 -50.5t-102.5 -69.5t-100.5 -76.5t-87 -71t-62.5 -53q-6 -5 -22 -20t-34 -31.5t-33 -30t-19 -14.5q-14 4 -16 17q15 27 30.5 65.5t28 79.5t20.5 81t8 71q0 37 -11.5 59.5t-31.5 34.5t-47 16t-59 4
q-18 0 -49 -4t-67.5 -12.5t-74 -20.5t-68 -28t-49.5 -36t-19 -43q0 -10 6.5 -19t10.5 -18l-5 -6q-15 5 -23.5 23t-8.5 32q0 26 20 48t51.5 39t70 30t77 21.5t71.5 13t53 4.5q39 0 70.5 -8t54.5 -25.5t35.5 -46.5t12.5 -71q0 -60 -17.5 -121t-40.5 -116q27 24 71 62.5
t97.5 82t112.5 88t114.5 80.5t104 58.5t81.5 22.5q18 0 35 -9.5t21 -28.5z" />
    <glyph glyph-name="W" unicode="W" horiz-adv-x="1177" 
d="M781 390q8 -1 12 -7t4 -14q0 -24 -15 -58t-37.5 -73.5t-48.5 -83t-48.5 -87.5t-37.5 -87t-15 -80q0 -39 22 -55.5t58 -16.5t73 11.5t72.5 30.5t68 41.5t58.5 45.5q39 34 75.5 74.5t64 86.5t44 96.5t16.5 104.5q0 35 -9 65t-18 62q0 2 -0.5 3t-0.5 3q0 5 5 5q12 0 20 -20
t13.5 -45.5t8 -50t2.5 -33.5q0 -76 -31 -147t-81 -132.5t-113.5 -110t-128.5 -79.5q-30 -14 -62 -23.5t-66 -9.5q-48 0 -80 27.5t-32 77.5q0 42 20.5 95t49 107.5t58.5 106t49 90.5q-73 -90 -162.5 -163t-195.5 -121q-35 -17 -72.5 -29.5t-77.5 -12.5q-20 0 -39.5 9.5
t-19.5 32.5q0 18 15 43t38 52.5t49 57.5t49 57.5t38 52.5t15 43q0 6 -4.5 9t-11 4.5t-13 2t-10.5 0.5q-31 0 -78 -13t-93.5 -35t-85 -49.5t-51.5 -57.5q-1 -2 -2 -7t-1 -7q0 -5 1.5 -8t1.5 -8q0 -6 -5 -6q-10 0 -14.5 12.5t-4.5 20.5q0 23 18.5 45t48 42t66 37.5t72 30
t67 19.5t50.5 7q12 0 24 -3t22.5 -9t17 -16t6.5 -24q0 -19 -15 -45t-38 -54.5t-49 -58t-49 -57t-38 -51t-15 -39.5q0 -5 11.5 -6.5t15.5 -1.5q36 0 75.5 14t71.5 29q121 57 221 144t178 195z" />
    <glyph glyph-name="X" unicode="X" horiz-adv-x="805" 
d="M943 450q15 -5 15 -22q-30 -32 -79 -65t-104.5 -64t-110.5 -58.5t-96 -47.5q12 -32 27.5 -67.5t36 -67t48 -56.5t63.5 -35q6 -2 20.5 -4t29.5 -5t26.5 -8t11.5 -13q0 -6 -6 -6q-60 0 -103 21.5t-74.5 57t-54 81.5t-40.5 95q-26 -12 -75 -35.5t-107 -54t-119 -65.5
t-110.5 -71t-81 -71t-31.5 -65q0 -9 4 -17.5t4 -17.5q0 -5 -6 -5t-10.5 5.5t-7 13t-4 15.5t-1.5 12q0 34 31.5 71.5t81.5 75t111.5 73.5t121 67t110 55.5t79.5 38.5q-11 30 -23.5 62.5t-31.5 59.5t-45.5 45t-64.5 18q-31 0 -68 -10.5t-74 -28.5t-72.5 -43t-62.5 -54.5
t-43.5 -62.5t-16.5 -67q0 -7 1.5 -13.5t1.5 -13.5l-5 -5q-14 3 -16.5 18t-2.5 26q0 35 16.5 69.5t44.5 65.5t64 57t74.5 45t77 29.5t70.5 10.5q43 0 73.5 -18.5t52.5 -47.5t37.5 -64.5t28.5 -69.5q39 19 93 46t108 57t102 62.5t77 63.5z" />
    <glyph glyph-name="Y" unicode="Y" horiz-adv-x="857" 
d="M885 -126q-4 0 -6 1q-29 10 -52.5 20.5t-46.5 19.5t-48.5 16.5t-57.5 12.5q-38 -52 -87 -106.5t-107 -99t-122.5 -73t-133.5 -28.5q-24 0 -49.5 6.5t-46.5 19.5t-35 33t-14 48q0 42 27.5 75.5t71.5 59t98.5 43.5t109 29.5t103 16.5t80.5 5q23 0 45 -1.5t45 -3.5
q27 38 59.5 91t60.5 111.5t47 116t19 104.5q0 7 -1 13.5t-3 13.5q-13 -37 -51.5 -82t-92.5 -91t-117.5 -89.5t-125.5 -77.5t-118 -54.5t-95 -20.5q-32 0 -55 19.5t-23 52.5q0 27 16.5 58t41.5 63t53.5 63.5t53.5 59.5t41.5 52t16.5 41q0 4 -5 6.5t-11 4t-12.5 1.5h-9.5
q-17 0 -47 -7t-64 -19t-69.5 -28t-64.5 -35t-47 -39.5t-18 -40.5q0 -5 1.5 -8t1.5 -8q0 -6 -5 -6q-11 0 -15.5 12t-4.5 20q0 23 18.5 45t48 42.5t66.5 37.5t72.5 30t67 20t50.5 7q10 0 22 -2.5t22.5 -8t17 -14.5t6.5 -22q0 -19 -16.5 -44t-41.5 -54t-53.5 -60t-53.5 -62
t-41.5 -60.5t-16.5 -54.5q0 -24 14.5 -32t35.5 -8q35 0 91 21.5t119 56.5t127.5 80t118.5 91.5t90.5 91.5t43.5 81l6 5q10 -3 17 -11.5t11 -19.5t6 -22.5t2 -20.5q0 -47 -18 -103t-44.5 -113t-57.5 -109t-58 -90q14 -3 46.5 -11t66.5 -19.5t60.5 -25.5t29.5 -28zM643 -52
q-16 1 -31.5 1.5t-31.5 0.5q-35 0 -84.5 -5t-102.5 -16.5t-105.5 -28.5t-94 -41t-67 -55t-25.5 -70q0 -22 11 -36t28 -22.5t37 -12t37 -3.5q65 0 126.5 26.5t117 68.5t102.5 93t83 100z" />
    <glyph glyph-name="Z" unicode="Z" horiz-adv-x="825" 
d="M102 51q-14 1 -28.5 10t-27.5 22.5t-21 29t-8 29.5q0 30 23.5 59t61 56t84 51t92.5 43.5t85.5 33.5t64.5 21q66 20 133 32t136 12q27 0 61 -4t63.5 -16.5t49.5 -34.5t20 -58q0 -23 -16 -49t-41 -52.5t-56.5 -52t-63.5 -48t-60 -40.5t-47 -29q46 0 74.5 -23t33.5 -71
q25 3 52 3q24 0 53.5 -2.5t59.5 -8.5t57 -16t47 -25q9 -5 9 -14q-3 -5 -6 -5q-2 0 -9.5 3.5t-16.5 8l-18 9t-12 5.5q-34 14 -75.5 17.5t-77.5 3.5q-33 0 -64 -3q-5 -42 -31 -94.5t-64.5 -98.5t-85 -77.5t-92.5 -31.5q-35 0 -58.5 23t-23.5 58q0 30 14 58t35.5 52.5
t47.5 44.5t50 33q44 23 91 36.5t96 18.5q0 36 -15 54.5t-53 18.5q-22 0 -41.5 -9t-41.5 -9q-6 0 -11 5.5t-5 11.5q0 3 14 12.5t31.5 21t34 21.5t21.5 13q15 9 39 25.5t51 36.5t54.5 43t49 46t35.5 45t14 41q0 28 -18 44t-43.5 24t-53 10t-47.5 2q-68 0 -134.5 -12.5
t-131.5 -31.5q-23 -7 -61.5 -20.5t-83.5 -32.5t-91 -42t-83 -49t-60.5 -53.5t-23.5 -54.5q0 -18 10.5 -28t23 -17.5t23 -13.5t10.5 -15zM690 -54q-41 -6 -83.5 -18t-81 -31.5t-71 -47.5t-53.5 -66q-8 -15 -14.5 -32t-6.5 -35q0 -23 13 -35t36 -12q27 0 56 13.5t57 36
t53.5 51.5t45.5 60t33 61t16 55z" />
    <glyph glyph-name="bracketleft" unicode="[" horiz-adv-x="166" 
d="M148 -44q-21 -11 -46.5 -19t-49.5 -8q-18 0 -34.5 9t-16.5 30t10.5 60.5t27.5 88t38 101.5t41.5 102.5t38 90.5t27.5 66l5 4q9 -1 24 -4t30 -9t26 -14.5t12 -19.5q-1 -2 -2.5 -4.5t-3.5 -2.5q-5 0 -7 3t-5 6q-12 12 -28 15.5t-33 5.5q-11 -25 -28 -65.5t-37 -88.5
t-40 -100t-36.5 -100t-27.5 -87t-11 -61q8 -4 20 -4t26 4t27 9.5t23.5 9.5t15.5 4q6 0 10.5 -6t5.5 -11z" />
    <glyph glyph-name="backslash" unicode="\" horiz-adv-x="150" 
d="M28 469q15 -2 15 -18q0 -20 -3 -39.5t-3 -39.5q0 -90 8.5 -178t31.5 -176q1 -6 5.5 -19t9 -27t8 -26t3.5 -15q0 -6 -5 -6q-9 0 -17 15t-14.5 38.5t-12.5 51.5t-10.5 54t-7.5 47t-4 30q-8 60 -12 120t-4 121q0 16 0.5 32t5.5 31z" />
    <glyph glyph-name="bracketright" unicode="]" horiz-adv-x="279" 
d="M255 447q6 -6 6 -12q-12 -34 -21 -61q-8 -24 -14.5 -45.5t-8.5 -27.5q-4 -15 -12 -48.5t-19 -75t-24.5 -86.5t-28.5 -81.5t-31 -60.5t-31 -24q-8 0 -21.5 4.5t-26.5 11.5t-22 16t-9 19q0 5 5 5q4 0 10.5 -5t14.5 -11.5t17.5 -11.5t20.5 -5q13 0 27 23t27.5 58t26.5 77.5
t24 82.5t18.5 71.5t11.5 44.5q9 35 19.5 70t23.5 69q-18 -3 -35.5 -9t-36.5 -6q-7 0 -11.5 5.5t-4.5 11.5l4 6q24 6 49 12.5t51 6.5q5 0 10 -6t5 -11q0 -7 -8 -7h-6z" />
    <glyph glyph-name="asciicircum" unicode="^" horiz-adv-x="251" 
d="M265 284q-7 1 -13 10.5t-11.5 20.5t-9 20t-6.5 9q-12 0 -27.5 -8.5t-30.5 -21t-28 -26t-20 -23.5l-5 -3q-6 2 -10.5 6.5t-4.5 10.5q0 10 14.5 25t34 28.5t38.5 23.5t29 10q7 0 16.5 -9t18 -21.5t14 -25.5t5.5 -20z" />
    <glyph glyph-name="underscore" unicode="_" horiz-adv-x="505" 
d="M460 -31q-20 1 -39 7t-39 8q-29 4 -58 4.5t-58 0.5q-38 0 -76 -2.5t-76 -6.5q-18 -2 -38 -6.5t-38 -4.5q-7 0 -12 5.5t-5 12.5t26.5 12t64 8t78 4t68.5 1q12 0 45.5 -0.5t69.5 -4t64 -11t28 -21.5z" />
    <glyph glyph-name="grave" unicode="`" horiz-adv-x="96" 
d="M54 464q1 0 -3.5 6.5t-10.5 14.5t-11 16.5t-5 11.5q0 5 4 10t9 5q4 0 9 -6t9.5 -13.5t7.5 -15.5t3 -11q0 -4 -3.5 -11t-8.5 -7z" />
    <glyph glyph-name="a" unicode="a" horiz-adv-x="337" 
d="M128 114q-16 11 -34 11q-16 0 -38 -11t-43 -27.5t-36 -36t-18 -35.5q6 -2 10 -2q18 0 40.5 11t45 26.5t42 33t31.5 30.5zM129 76q-13 -12 -31.5 -27t-39 -28t-41.5 -22t-39 -9q-12 0 -24.5 7.5t-12.5 21.5q0 21 15 43.5t37 41.5t47 31.5t45 12.5q15 0 29 -6.5t25 -15.5
q7 11 14 21.5t15 21.5q5 -1 10.5 -5.5t5.5 -10.5q0 -14 -6.5 -29t-14.5 -30t-14.5 -30t-6.5 -30q0 -9 5 -12t13 -3q19 0 47 14t55 30.5t48 30.5t27 14q5 0 9.5 -5t4.5 -10q0 -6 -12 -15t-30.5 -19.5t-40.5 -21.5t-42.5 -19.5t-37 -14t-23.5 -5.5q-20 0 -31 14.5t-11 33.5
q0 16 6 30z" />
    <glyph glyph-name="b" unicode="b" horiz-adv-x="251" 
d="M-15 -1q-1 -2 -4 -7.5t-6.5 -11.5t-6.5 -11t-5 -5q-7 0 -11 7t-4 13q0 5 7.5 24.5t17.5 42t19.5 42.5t13.5 28q10 19 27.5 50.5t40 68t49 73.5t53 67t52.5 49t49 19q6 0 11 -5t5 -11t-12 -8.5t-16 -4.5q-22 -9 -46.5 -32t-50 -55t-50 -69t-45.5 -73.5t-38 -68.5t-27 -54
q12 12 29 26t36 25.5t38.5 19.5t36.5 8q15 0 25.5 -10.5t10.5 -25.5q0 -23 -14 -46t-35.5 -42t-46.5 -30.5t-47 -11.5q-31 0 -56 19zM165 121q-4 2 -8 2q-20 0 -43 -11.5t-45.5 -28.5t-42 -36t-31.5 -34q8 -5 17.5 -7.5t18.5 -2.5q23 0 47 13t43.5 31t32 38.5t12.5 35.5h-1z
" />
    <glyph glyph-name="c" unicode="c" horiz-adv-x="319" 
d="M330 89q-47 -39 -110.5 -65t-125.5 -26q-16 0 -36 3t-38 11t-30.5 21.5t-12.5 33.5q0 18 15.5 36.5t37.5 34t45.5 25.5t39.5 10q10 0 20.5 -4t17.5 -12q3 3 7.5 6t9.5 3q7 0 11 -6t4 -12q0 -3 -5.5 -7.5t-12 -10t-12 -12t-5.5 -13.5q0 -2 -1 -5t-4 -3q-8 0 -12 6.5
t-4 13.5t4 14.5t8 12.5q-5 6 -13 6q-12 0 -34 -9t-43.5 -23t-37 -30t-15.5 -30q0 -12 10.5 -19t24.5 -11t28.5 -5t23.5 -1q36 0 66 7t57 19t53.5 28t55.5 34l2 1q7 0 10 -5.5t3 -11.5z" />
    <glyph glyph-name="d" unicode="d" horiz-adv-x="356" 
d="M147 88q-14 -14 -32.5 -29.5t-39.5 -29t-42.5 -22.5t-42.5 -9q-14 0 -24 5t-10 21q0 22 14 46.5t35 45t45.5 34t46.5 13.5q32 0 59 -19q5 23 12 46t16 45q6 16 20.5 44t33.5 56t39.5 48.5t39.5 20.5q12 0 20 -10t8 -21q0 -23 -21 -59.5t-49 -75.5t-57 -73t-45 -52l-4 -24
t-2 -24q0 -14 3 -28.5t21 -14.5t40.5 9t45.5 21.5t43.5 27.5t33.5 27q1 0 1.5 0.5t1.5 0.5q6 0 11 -4.5t5 -10.5q0 -7 -15 -19t-34.5 -24t-38.5 -22t-26 -13q-14 -6 -28.5 -10t-28.5 -4q-15 0 -26 6.5t-17.5 17t-9.5 23.5t-3 26q0 4 0.5 7t0.5 7zM150 129q-22 10 -43 10
t-42 -11.5t-38.5 -28.5t-30.5 -38t-19 -40q23 0 47 11t47 27.5t43.5 35t35.5 34.5zM324 381q-14 -1 -28 -14t-28 -32.5t-27 -43t-23.5 -46.5t-18.5 -43t-11 -32q16 18 36.5 43.5t40 53.5t35 56t22.5 51l-1 -1z" />
    <glyph glyph-name="e" unicode="e" horiz-adv-x="322" 
d="M141 151q-4 1 -11 1q-34 0 -64.5 -19.5t-48.5 -47.5q10 -3 22 -3t28.5 6t32 16t27.5 22.5t14 24.5zM324 109q6 0 10 -4.5t4 -10.5q0 -3 -4.5 -7.5t-10.5 -8.5t-11.5 -7.5t-8.5 -5.5q-46 -30 -98 -48.5t-108 -18.5q-17 0 -36.5 2.5t-36 9.5t-28 20.5t-11.5 34.5
q0 22 13.5 42t34 35t43.5 24t43 9q15 0 28.5 -8t13.5 -25t-12 -32t-29.5 -26t-37 -18t-33.5 -7q-22 0 -39 10q-4 -7 -4 -16q0 -11 10 -17.5t24 -9.5t28 -3.5t22 -0.5q34 0 64.5 7t59 19t55.5 28t55 33z" />
    <glyph glyph-name="f" unicode="f" horiz-adv-x="232" 
d="M-28 69q10 15 27.5 39t39 51.5t46 55t49 49.5t47.5 36t42 14q5 0 10.5 -6.5t5.5 -11.5q0 -2 -7.5 -5.5t-17.5 -7.5t-19.5 -8.5t-13.5 -7.5q-57 -42 -104 -99.5t-85 -116.5q11 -12 26 -16t31 -4q23 0 48 6.5t48.5 18t45 25.5t38.5 29q1 0 2 0.5t2 0.5q5 0 10 -5t5 -10
q0 -2 -0.5 -2.5t-0.5 -2.5q-38 -34 -86.5 -58.5t-100.5 -24.5q-24 0 -44 7q12 -24 17 -50.5t5 -53.5q0 -33 -8 -70t-24 -71t-39.5 -62.5t-54.5 -43.5q-8 -4 -16 -6.5t-17 -2.5q-14 0 -23 6t-14.5 15.5t-8 21.5t-2.5 23q0 34 14 79.5t34 92t43.5 89.5t41.5 73q-6 4 -6 13
q0 1 0.5 1.5t0.5 1.5l4 3l8 -3zM-19 35q-17 -28 -39 -70.5t-42.5 -88.5t-34.5 -90.5t-14 -75.5q0 -10 2.5 -20.5t16.5 -10.5t30 9.5t31 23t27 29t19 26.5q21 35 30 75t9 81q0 10 -1.5 27t-5.5 34t-11 31.5t-17 19.5z" />
    <glyph glyph-name="g" unicode="g" 
d="M127 -64q-22 -50 -56 -108t-78.5 -108t-99 -83t-115.5 -33q-19 0 -37.5 5.5t-32.5 16t-23 26.5t-9 37q0 18 6.5 36t16.5 33q34 51 80.5 87t100.5 60t113 37.5t117 18.5q16 36 30.5 78.5t18.5 81.5q-12 -17 -32 -39.5t-44 -42.5t-49 -34.5t-46 -14.5q-12 0 -24 8t-12 22
q0 20 13 43.5t33 44t43 34t44 13.5q28 0 52 -21q8 22 23 37q13 -4 16.5 -19t3.5 -26q0 -39 -13.5 -83.5t-28.5 -80.5q22 2 43.5 2.5t43.5 0.5q11 0 37 -2t54 -6t52 -8.5t32 -8.5q6 -4 11.5 -11t5.5 -15q0 -6 -7 -6q-5 0 -14 2t-19.5 5t-20.5 6t-16 4q-36 8 -72 12t-73 4
q-17 0 -34 -1t-34 -4zM98 -65q-50 -6 -106 -19.5t-108 -37t-95.5 -57.5t-70.5 -81q-8 -14 -14.5 -29t-6.5 -32q0 -29 22 -41t47 -12q57 0 108 31t94 77t76 100t54 101zM126 121q-12 11 -31 11q-15 0 -36.5 -12.5t-41.5 -30.5t-34 -38t-14 -35q0 -2 3.5 -2.5t5.5 -0.5
q17 0 38.5 12t42.5 29t39 35.5t28 31.5z" />
    <glyph glyph-name="h" unicode="h" horiz-adv-x="332" 
d="M348 89q-15 -11 -39 -26.5t-50 -29.5t-51.5 -23.5t-44.5 -9.5q-15 0 -27 11t-12 27q0 11 4.5 22t10.5 21t10.5 19t4.5 17q0 5 -10 5q-23 0 -50 -16.5t-52 -40.5t-45 -50.5t-28 -46.5v-1q0 -4 -5 -4q-8 0 -11.5 8t-3.5 12q4 24 23 68t47 95.5t62.5 105t69.5 97t68 71.5
t59 28q5 0 10.5 -6t5.5 -11q0 -4 -5 -6q-27 -9 -49.5 -24.5t-41.5 -35t-35.5 -41.5t-32.5 -45q-34 -49 -63 -100t-55 -105q10 10 25 22.5t32 23.5t34.5 18t32.5 7q16 0 27 -11.5t11 -27.5q0 -11 -4.5 -21t-10.5 -20t-10.5 -19t-4.5 -17q0 -5 5.5 -7t9.5 -2q19 0 48 14
t57 31.5t48.5 31.5t23.5 14q5 0 9 -6t5 -11z" />
    <glyph glyph-name="i" unicode="i" horiz-adv-x="208" 
d="M223 94q0 -5 -13 -14.5t-33.5 -20t-45 -21.5t-47 -20.5t-40.5 -15t-25 -5.5q-20 0 -31.5 14.5t-11.5 32.5q0 9 8 29t19.5 41t24 36.5t21.5 15.5q6 0 11 -6.5t5 -11.5q0 -2 -11 -14.5t-23.5 -29.5t-23.5 -36.5t-11 -35.5q0 -15 17 -15q21 0 52.5 14.5t62.5 32.5t53.5 32.5
t25.5 14.5q6 0 11 -5.5t5 -11.5zM129 223q-3 -3 -10 -9.5t-15 -13t-15.5 -12t-10.5 -5.5q-5 0 -10.5 5.5t-5.5 10.5q0 3 7 9.5t15.5 13.5t16.5 12.5t11 5.5q6 0 11.5 -5.5t5.5 -11.5z" />
    <glyph glyph-name="j" unicode="j" horiz-adv-x="134" 
d="M54 137q-16 -24 -30.5 -44t-27.5 -40.5t-25.5 -42.5t-24.5 -49q22 2 43.5 2.5t43.5 0.5q10 0 36 -2.5t55 -6t53.5 -7.5t30.5 -8q5 -4 11 -11.5t6 -14.5q0 -6 -6 -6q-14 0 -32.5 6t-32.5 9q-38 8 -76 13t-77 5q-17 0 -33.5 -1t-33.5 -4q-20 -45 -50.5 -102.5t-70 -108.5
t-88.5 -86t-106 -35q-38 0 -64 23t-26 62q0 19 6 36.5t15 33.5q27 48 68 82.5t90 58.5t102.5 38t105.5 20q25 53 53.5 103.5t66.5 95.5q17 0 20 -16zM-95 -68q-47 -8 -96.5 -22t-94.5 -37t-82.5 -55.5t-61.5 -76.5q-8 -15 -14 -31t-6 -33q0 -27 17 -39t42 -12q51 0 97 32.5
t84 80t67.5 100t47.5 93.5zM107 223q0 -1 -7 -7t-16 -13.5t-17 -13.5t-10 -6q-5 0 -10.5 5.5t-5.5 10.5q0 3 7 9.5t15.5 13.5t17 12.5t11.5 5.5q5 0 10 -6t5 -11z" />
    <glyph glyph-name="k" unicode="k" horiz-adv-x="337" 
d="M-39 -41q-8 1 -11.5 7t-3.5 13q0 2 3 11t7 19.5t7.5 20.5t5.5 13q9 22 28 60.5t44.5 83t55.5 90t61 83t61 61t55 23.5q6 0 11.5 -5.5t5.5 -11.5q0 -5 -12 -8t-16 -5q-21 -8 -45.5 -31t-49.5 -54.5t-49.5 -68.5t-46 -73t-38.5 -68t-27 -53q12 11 27.5 24t33 24.5t36 19
t35.5 7.5q14 0 25.5 -9.5t11.5 -23.5q0 -15 -13.5 -25.5t-32 -17t-38 -9.5t-30.5 -3q-9 0 -14 1q3 -25 21 -40.5t43 -15.5q30 0 67.5 17.5t71.5 38.5t58.5 38.5t28.5 17.5q6 0 10 -4.5t4 -10.5t-25.5 -25t-61.5 -40t-76 -37.5t-69 -16.5q-38 0 -59 20t-32 55
q-20 -19 -36 -40.5t-27 -47.5zM58 76q9 0 24 3t30 8.5t27.5 13t15.5 16.5q-1 0 -3.5 1t-3.5 1q-22 0 -47.5 -15t-42.5 -28z" />
    <glyph glyph-name="l" unicode="l" horiz-adv-x="244" 
d="M261 94q-6 -7 -22.5 -18.5t-39.5 -24.5t-48.5 -26t-49.5 -23t-43.5 -16.5t-29.5 -6.5q-23 0 -34 19.5t-11 39.5q0 22 15.5 61.5t40.5 85t57 92.5t65 85t64 62t54 24q6 0 10.5 -5.5t4.5 -11.5q0 -5 -8 -6.5t-11 -3.5q-22 -10 -51 -36t-59 -61.5t-59 -76.5t-51.5 -81.5
t-36.5 -77t-14 -60.5q0 -10 3 -19t16 -9q14 0 35.5 8t45.5 20.5t48.5 27t44.5 27t33 20.5t15 8q7 0 11 -5.5t5 -11.5z" />
    <glyph glyph-name="m" unicode="m" horiz-adv-x="472" 
d="M315 139q-14 0 -39.5 -17t-52.5 -39t-50 -44t-31 -34l-4 -2q-9 0 -13 8.5t-4 16.5q0 22 10.5 41t10.5 41q0 5 -1.5 9t-7.5 4q-18 0 -39.5 -13t-41 -31t-36.5 -38t-26 -35l-4 -2q-8 0 -12.5 7t-4.5 15q0 16 7.5 36t18.5 39.5t24.5 36.5t25.5 27q1 0 2 0.5t2 0.5
q6 0 11 -6.5t5 -11.5q-9 -19 -25.5 -34t-26.5 -35q9 9 22.5 21t28 22t30 17t29.5 7q19 0 29.5 -15t10.5 -32q0 -11 -3 -20t-6 -19q12 12 31 29t41 33t43.5 27.5t38.5 11.5q14 0 21.5 -12t7.5 -24q0 -13 -5.5 -26.5t-12.5 -26.5t-12.5 -24.5t-5.5 -21.5q0 -5 3.5 -7t8.5 -2
q18 0 43.5 14.5t50 32t43.5 32t23 14.5q5 0 9.5 -4.5t4.5 -9.5q0 -7 -10.5 -17t-27 -21t-36.5 -21.5t-38.5 -19t-34 -14t-22.5 -5.5q-16 0 -26.5 11t-10.5 27q0 13 6 27t13 26.5t13 24.5t6 22z" />
    <glyph glyph-name="n" unicode="n" horiz-adv-x="320" 
d="M-19 2q-8 0 -11.5 8.5t-3.5 14.5q0 13 8.5 34.5t21.5 43.5t28 39.5t27 21.5q6 -1 11 -6t5 -11q0 -3 -7 -11t-16 -18.5l-18 -21t-13 -16.5q10 9 23.5 21t28.5 22.5t30.5 17.5t29.5 7q16 0 27.5 -12.5t11.5 -28.5q0 -10 -3.5 -20.5t-8 -20t-8 -18.5t-3.5 -17t5.5 -9.5
t11.5 -1.5q17 0 39.5 9.5t45 23.5t43 28.5t33.5 25.5q1 0 1.5 0.5t1.5 0.5q5 0 10.5 -4.5t5.5 -9.5q0 -2 -0.5 -3t-0.5 -3q-14 -12 -35.5 -27.5t-45.5 -30t-47.5 -24t-42.5 -9.5q-18 0 -32.5 10.5t-14.5 30.5q0 10 3.5 20.5t8 21t8.5 20t4 17.5t-9 8q-16 0 -38.5 -13.5
t-44.5 -32.5t-40 -39.5t-24 -34.5z" />
    <glyph glyph-name="o" unicode="o" 
d="M105 147q15 -2 27 -20.5t13 -32.5q19 -13 45 -13q37 0 63 26q1 0 1.5 0.5t1.5 0.5q5 0 10.5 -4.5t5.5 -9.5q0 -10 -9.5 -16.5t-22.5 -11t-26.5 -6.5t-20.5 -2q-27 0 -54 11q-6 -14 -19 -27t-29 -23t-33.5 -16.5t-32.5 -6.5q-22 0 -38.5 13t-16.5 36q0 21 15.5 44.5t38 43
t48 32.5t45.5 13q16 0 16 -16q0 -4 -5 -6zM118 81q-10 8 -16.5 18t-6.5 23q0 5 0.5 11.5t4.5 11.5q-18 -8 -37.5 -18.5t-35.5 -24.5t-26 -30.5t-10 -36.5q0 -17 19 -17q14 0 30 5t31.5 14t28 20.5t18.5 23.5z" />
    <glyph glyph-name="p" unicode="p" horiz-adv-x="258" 
d="M-18 35q1 4 3 17t5 26.5t6.5 24.5t7.5 11q6 0 11 -6t5 -12q0 -8 -2.5 -15.5t-4.5 -15.5q12 10 29 24t35.5 26t37.5 20.5t36 8.5t28.5 -11t11.5 -28q0 -22 -12.5 -44.5t-32 -40.5t-43 -29.5t-45.5 -11.5q-17 0 -32 5.5t-29 14.5q-3 -14 -10.5 -41.5t-18 -61t-23.5 -69
t-27.5 -64t-31 -47t-32.5 -18.5q-11 0 -17.5 6t-10.5 14.5t-5 18.5t-1 18q0 36 16.5 75t40.5 76.5t52.5 70.5t52.5 58zM2 16q20 -14 45 -14q18 0 40 11t40.5 27.5t31.5 36.5t13 39q0 4 -3.5 5t-6.5 1q-17 0 -40 -12t-45.5 -28.5t-42.5 -34.5t-32 -30v-1zM-31 -17
q-18 -22 -40.5 -50.5t-42 -60.5t-33 -64.5t-13.5 -61.5q0 -8 1.5 -19t9.5 -11q12 0 25 16.5t25.5 42.5t23.5 57.5t20 61t15 54t9 35.5z" />
    <glyph glyph-name="q" unicode="q" horiz-adv-x="347" 
d="M360 90q-18 -22 -56 -50t-84.5 -53.5t-95.5 -43.5t-91 -21l-2 -4q20 -23 32.5 -52t12.5 -60q0 -23 -11 -49.5t-29 -49.5t-41.5 -38.5t-47.5 -15.5q-21 0 -31.5 15.5t-10.5 34.5q0 21 11 51t26 61.5t31.5 60t28.5 46.5q-6 1 -16.5 3.5t-20.5 7t-17 10.5t-7 14q0 6 5 6
q1 0 7.5 -3t14 -7t16 -7t14.5 -4l3 1q2 -1 6 -1h7q14 23 29 44t31 42q-20 -11 -47.5 -24t-50.5 -13q-11 0 -22.5 6t-11.5 19q0 20 15 43t37 42.5t46.5 32t44.5 12.5q7 0 18.5 -3.5t22.5 -9.5t19.5 -13.5t8.5 -15.5q0 -3 -2 -7q5 -5 5 -10q0 -2 -5.5 -9t-12.5 -15.5
t-13.5 -15.5t-8.5 -10q-18 -22 -34.5 -44.5t-32.5 -45.5q37 8 77 25.5t78.5 40t74 48t65.5 49.5q1 0 1.5 0.5t1.5 0.5q6 0 10 -6t4 -11zM22 -95q-10 -18 -26.5 -46t-32 -58.5t-26.5 -59.5t-11 -48q0 -6 1.5 -11t9.5 -5q21 0 42 14.5t38 35.5t27.5 45t10.5 44q0 25 -9 47
t-24 42zM138 103q-18 20 -43 20q-22 0 -44.5 -13.5t-42 -31.5t-32.5 -37t-16 -29q1 0 2 -0.5t2 -0.5q12 0 37.5 10.5t52.5 25.5t50.5 30.5t32.5 25.5h1z" />
    <glyph glyph-name="r" unicode="r" horiz-adv-x="232" 
d="M220 157q-5 -2 -9.5 -2h-9.5q-19 0 -45 4.5t-43 13.5q-5 -13 -17 -42t-27.5 -59t-32.5 -53t-32 -23t-21 14.5t-6 26.5q0 7 5 24.5t13 35.5t16.5 31.5t16.5 13.5q6 0 11 -5t5 -11q-4 -13 -12 -23.5t-15.5 -21.5t-13.5 -24t-6 -31q0 -2 0.5 -3.5t0.5 -3.5q14 11 29.5 34
t30 50t27 53.5t20.5 43.5l4 3q15 -7 26.5 -11.5t22 -7t22.5 -3.5t29 -1q5 0 9 -6t5 -11z" />
    <glyph glyph-name="s" unicode="s" horiz-adv-x="236" 
d="M62 29q8 -11 16.5 -23t8.5 -26q0 -18 -12 -32t-29.5 -23t-37 -13.5t-34.5 -4.5q-20 0 -36.5 10.5t-16.5 32.5q0 13 12 27.5t28.5 26.5t34.5 21.5t29 14.5q-11 10 -22 22.5t-11 27.5q0 11 11 20.5t26.5 16.5t31.5 11t25 4q6 0 11 -5.5t5 -11.5q0 -2 -14 -5.5t-30.5 -9
t-30.5 -13.5t-14 -18q0 -3 3.5 -7.5t8 -9t9.5 -9t7 -5.5q16 8 42.5 19t54.5 21t54.5 17t43.5 7q5 0 10 -4t5 -10q0 -3 -4.5 -4.5t-10.5 -2.5t-11.5 -2t-7.5 -1q-41 -8 -79 -25zM47 22q-9 -6 -27 -15.5t-35 -21t-30 -24t-13 -24.5q0 -5 8.5 -6t11.5 -1q12 0 29.5 4t34 11.5
t28 18.5t11.5 26q0 10 -5.5 17.5t-12.5 14.5z" />
    <glyph glyph-name="t" unicode="t" horiz-adv-x="235" 
d="M196 360q-12 -6 -23.5 -15.5t-22 -21.5t-20 -24.5t-16.5 -22.5q8 0 26 -0.5t39.5 -2.5t44.5 -5t42 -9t31 -14t12 -19q0 -5 -6 -5q-1 0 -3 1t-3 1q-43 16 -80 23t-83 7h-18t-18 -1q-14 -21 -29 -47t-27.5 -53t-21 -55t-8.5 -54q0 -11 3 -22t17 -11q21 0 54 16t65.5 34.5
t56.5 34.5t27 16q5 0 9 -5t4 -10q0 -7 -13.5 -17.5t-34 -22.5t-45.5 -24t-48.5 -21.5t-42 -15.5t-26.5 -6q-13 0 -22 6t-14.5 15.5t-8 20.5t-2.5 22q0 24 7 50.5t18 52t24.5 50t25.5 44.5q-10 -1 -27 -4.5l-34 -7t-31.5 -6.5t-19.5 -3q-7 0 -12.5 5t-5.5 13q0 7 19.5 12
t45 8t49.5 5t32 2q20 32 44 61t58 48q6 -2 10 -7t5 -11z" />
    <glyph glyph-name="u" unicode="u" horiz-adv-x="348" 
d="M362 90q-16 -11 -39.5 -26.5t-49 -29.5t-50.5 -23.5t-45 -9.5t-31.5 13.5t-11.5 33.5q0 5 1 11t3 11q-10 -10 -25 -23.5t-31.5 -25.5t-34 -20.5t-32.5 -8.5q-20 0 -30.5 14.5t-10.5 32.5q0 26 15.5 54t32.5 48l4 2q6 -1 10.5 -6t5.5 -11q-3 -12 -11 -22t-16 -21
t-14.5 -24.5t-6.5 -31.5q0 -5 1.5 -9t7.5 -4q21 0 47.5 17t51.5 41.5t45 51t28 44.5l5 3q6 -1 11 -6.5t5 -11.5q0 -10 -6.5 -24t-14 -30t-14 -32.5t-6.5 -30.5q0 -15 16 -15q19 0 48 14t56.5 30.5t48 30.5t23.5 14q6 0 10.5 -5.5t5.5 -10.5z" />
    <glyph glyph-name="v" unicode="v" horiz-adv-x="215" 
d="M-12 -8q-8 1 -12.5 14t-4.5 20q0 15 5 30.5t12.5 31.5t16.5 30t17 26l4 2q6 -1 11 -6t5 -11q0 -2 -0.5 -2.5t-0.5 -2.5q-16 -23 -32 -51t-18 -56q28 6 55 22.5t49 39.5t35.5 51t13.5 58q0 6 6 6q9 0 12.5 -7.5t3.5 -15.5q0 -28 -11 -53t-29 -46t-40.5 -37.5t-45.5 -27.5
q-8 -3 -20 -8.5t-21 -5.5q-4 0 -6 1z" />
    <glyph glyph-name="w" unicode="w" horiz-adv-x="343" 
d="M238 85q-12 19 -12 44q0 9 3 23t8.5 28t14 24t19.5 10q8 0 13.5 -5t8.5 -12.5t4.5 -16t1.5 -14.5q0 -25 -15.5 -55.5t-39 -57t-51.5 -44.5t-54 -18q-12 0 -21 6.5t-14.5 16.5t-8.5 21.5t-3 21.5q-7 -8 -16.5 -19t-20.5 -21t-23 -17t-24 -7q-17 0 -26 15.5t-9 29.5
q0 7 6 24t15 35t18.5 31.5t17.5 13.5q7 0 11.5 -5.5t4.5 -11.5q-5 -14 -14 -24.5t-17.5 -21t-15 -23t-6.5 -30.5q0 -4 1.5 -8.5t6.5 -4.5q12 0 32.5 20t40.5 44.5t35.5 44.5t17.5 20q5 0 10 -6t5 -11q0 -2 -4.5 -9t-10.5 -18t-10.5 -24.5t-4.5 -26.5q0 -9 3 -21t15 -12
q14 0 29.5 7.5t30 18t27 23t21.5 22.5zM249 99q12 17 20.5 36.5t8.5 40.5q0 9 -1 14q-30 -30 -30 -73v-9t2 -9z" />
    <glyph glyph-name="x" unicode="x" horiz-adv-x="310" 
d="M324 89q-16 -16 -38 -31t-46.5 -27t-50 -19t-48.5 -7t-44 8.5t-39 22.5q-17 -20 -32.5 -40.5t-28.5 -42.5q-6 -10 -10.5 -20t-12.5 -18q-5 1 -10.5 6t-5.5 11q0 9 10 26.5t23.5 36t27 35.5t20.5 25q-24 29 -24 66q0 4 1 15t7 11t11 -5.5t5 -11.5q0 -5 -1.5 -10t-1.5 -10
q0 -24 14 -44q13 14 30 28.5t36 26.5t39 19.5t41 7.5q8 0 14.5 -3.5t6.5 -12.5q0 -5 -2.5 -5.5t-5.5 -0.5q-20 0 -39 -7.5t-37 -18.5t-34.5 -25.5t-29.5 -27.5q28 -19 61 -19q50 0 96 25t81 57q1 0 1.5 0.5t1.5 0.5q6 0 11 -5.5t5 -11.5z" />
    <glyph glyph-name="y" unicode="y" horiz-adv-x="273" 
d="M76 -69q-14 -30 -32.5 -66.5t-41.5 -73.5t-50.5 -71.5t-58.5 -61.5t-66.5 -43t-73.5 -16q-35 0 -61 22t-26 59q0 20 6 38.5t17 35.5q30 48 71.5 82t90 58t101.5 38t106 21q10 22 20.5 43.5t21.5 42.5q-17 -14 -43.5 -29.5t-48.5 -15.5q-17 0 -27 14.5t-10 29.5
q0 10 8.5 30t21 39t26.5 33.5t25 14.5q7 0 12 -5t5 -12q-11 -12 -24.5 -24t-25 -25.5t-19.5 -29t-8 -33.5q0 -13 12 -13q17 0 43 17t53 40t51 46.5t38 35.5q1 0 2 0.5t2 0.5q5 0 10 -5.5t5 -10.5q0 -2 -0.5 -2.5t-0.5 -2.5q-39 -38 -68 -82t-52 -93q29 3 58 5.5t58 2.5
q22 0 54.5 -1.5t62 -5t50.5 -10.5t21 -17q0 -6 -7 -6q-13 0 -28 3.5t-28 5.5q-28 4 -56 5.5t-57 1.5q-35 0 -69.5 -2.5t-69.5 -7.5zM46 -74q-47 -8 -96.5 -22.5t-95 -37.5t-83.5 -55.5t-63 -75.5q-8 -15 -15 -31.5t-7 -33.5q0 -26 17 -37t40 -11q35 0 67.5 15t61.5 39.5
t55.5 56.5t48.5 65.5t39.5 66.5t30.5 61z" />
    <glyph glyph-name="z" unicode="z" horiz-adv-x="227" 
d="M410 -78q-43 5 -84.5 10.5t-84.5 5.5q-35 0 -69.5 -2.5t-69.5 -7.5q0 -31 -12.5 -67.5t-33 -73t-48.5 -70.5t-59.5 -60t-65.5 -42t-67 -16q-38 0 -64 23t-26 62q0 19 5.5 36.5t14.5 33.5q26 45 63 78t81.5 56.5t93 38t97.5 22.5q-2 23 -12 38t-35 15q-9 0 -19 -1.5
t-18 -6.5l-5 1q-9 2 -13 11l-1 3l3 7q19 10 41.5 22.5t43.5 27t39 31.5t28 37q-2 0 -3.5 0.5t-3.5 0.5q-33 0 -64 -16t-57 -34q-8 0 -13 4t-5 12q0 1 0.5 2t0.5 2q11 9 26.5 18t32.5 16.5t34.5 12.5t31.5 5t28 -6.5t14 -23.5q0 -12 -13 -28t-31 -31t-36.5 -28t-28.5 -19
q23 -7 36.5 -26.5t17.5 -42.5q64 9 130 9q23 0 55.5 -1t62 -4.5t50 -10.5t20.5 -18q0 -5 -5 -5h-3zM80 -76q-45 -8 -91 -22.5t-88 -37t-77 -54.5t-58 -74q-8 -15 -14.5 -31t-6.5 -33q0 -28 17.5 -39t42.5 -11q47 0 94 31t86 77t64.5 98.5t30.5 95.5z" />
    <glyph glyph-name="braceleft" unicode="{" horiz-adv-x="165" 
d="M248 420q-5 3 -10.5 6t-11.5 3q-16 0 -29.5 -15t-26.5 -38t-25.5 -51t-25.5 -54t-26 -47t-28 -29q0 -36 -9 -67.5t-22.5 -61t-29.5 -59t-30 -60.5q2 -1 12.5 -4.5t11.5 -3.5q23 0 47 9t45 19q6 -1 11 -5.5t5 -11.5q0 -6 -13 -11.5t-30 -10t-33 -7t-22 -2.5
q-7 0 -15.5 1.5t-15.5 4.5t-12 9t-5 15q0 25 13.5 55t29.5 61.5t29.5 62.5t13.5 59q0 13 -4 22q15 11 29 33t27.5 49t27 55.5t28 52t30 38.5t33.5 15q12 0 23.5 -7t14.5 -19z" />
    <glyph glyph-name="bar" unicode="|" horiz-adv-x="129" 
d="M13 -96q-14 4 -16 16.5t-2 23.5q0 17 6 59.5t16.5 97t24 113.5t28 109t29 84.5t26.5 38.5q4 -2 9.5 -7t5.5 -10q0 -2 -0.5 -2.5t-0.5 -2.5q-13 -16 -27 -52.5t-27.5 -84t-26 -101.5t-21.5 -103.5t-14.5 -90.5t-5.5 -63v-9.5t1 -9.5z" />
    <glyph glyph-name="braceright" unicode="}" horiz-adv-x="204" 
d="M-58 -30q7 -2 13 -7.5t12.5 -11t15 -10t20.5 -4.5q10 0 20 15t19 37.5t16.5 50.5t14.5 54t12 47t9 30q-10 14 -10 34q0 24 9 47t20 46.5t20 47.5t9 48q0 10 -4 17t-9.5 12t-10 10t-5.5 12l5 7q21 -7 33 -25t12 -40q0 -25 -9 -50t-20.5 -49t-20.5 -48t-9 -47
q0 -10 5.5 -16.5t7.5 -16.5q-5 -10 -10.5 -32.5t-12.5 -50t-15 -56.5t-17.5 -52.5t-21 -39t-24.5 -15.5q-10 0 -23 4t-25 10.5t-20.5 16t-10.5 20.5z" />
    <glyph glyph-name="asciitilde" unicode="~" horiz-adv-x="255" 
d="M204 259q11 0 18 -10.5t7 -20.5q0 -14 -9.5 -26t-23 -22t-29 -15.5t-27.5 -5.5q-17 0 -27 11t-10 28v7q-42 -19 -68 -55l-4 -2q-5 2 -10.5 6.5t-5.5 10.5q0 10 13 22t30.5 22.5t35 18t26.5 7.5q5 0 10 -6t5 -11q0 -10 -6 -17.5t-6 -17.5l7 -3q9 0 22 5.5t26 14t22 18.5
t9 20q-8 6 -9 15z" />
    <glyph glyph-name="exclamdown" unicode="&#xa1;" horiz-adv-x="199" 
d="M94 123q1 0 2 0.5t2 0.5q5 0 10 -4.5t5 -9.5q0 -4 -13.5 -21t-29 -43.5t-29 -60.5t-13.5 -70q0 -15 6 -20t6 -13q0 -6 -6 -6q-7 0 -11.5 6.5t-7.5 15t-4.5 17.5t-1.5 14q0 22 7 50t18.5 55.5t27 51t32.5 37.5zM134 182q-10 -4 -18.5 -11.5t-14.5 -15t-10 -13l-4 -5.5
q-7 0 -11.5 6.5t-4.5 12.5t5.5 14t14 15.5t17 13t14.5 5.5q5 0 10.5 -6t5.5 -11t-4 -5zM-262 59q-6 0 -10 5t-7 11.5t-4.5 13.5t-1.5 12q0 15 9.5 40.5t24.5 56t34.5 61.5t40 56t40 41t35.5 16q6 0 11 -5.5t5 -11.5q0 -2 -4 -4.5t-8.5 -5t-9.5 -5t-6 -3.5q-19 -12 -45 -43.5
t-49.5 -69t-40 -74.5t-16.5 -60q0 -7 3.5 -12.5t3.5 -11.5q0 -7 -5 -7zM-251 47q6 0 11.5 -5.5t5.5 -11.5q0 -2 -8.5 -10t-18 -17t-17.5 -16t-7 -7q-6 0 -11 5.5t-5 11.5t6 13.5t14 15t16.5 13.5t13.5 8z" />
    <glyph glyph-name="cent" unicode="&#xa2;" horiz-adv-x="319" 
d="M221 25q-25 -16 -59.5 -21.5t-63.5 -5.5q-8 0 -16 0.5t-16 1.5q-10 -28 -21 -66.5t-11 -67.5q0 -5 -5 -5q-10 0 -13 8.5t-3 16.5q0 11 3 26.5t7.5 32t9.5 32.5t9 27q-23 6 -44 21t-21 42q0 17 14.5 35t35.5 33t43 25.5t37 11.5l12 27t18.5 39t22.5 44t24.5 41t24.5 30
t22 12q6 0 11.5 -6t5.5 -12q0 -2 -9 -7t-11 -7q-11 -8 -25 -29t-28 -46.5t-25.5 -50t-17.5 -37.5q8 -3 16.5 -9t8.5 -16q0 -6 -5 -6q-7 0 -11.5 5.5t-12.5 5.5q-5 0 -13 -16.5t-16 -38.5t-15.5 -43t-10.5 -30q21 0 37 2t30.5 5t29.5 7.5t35 9.5q2 0 3 0.5t3 0.5q6 0 9 -5.5
t3 -10.5q0 -1 -1 -3t-1 -3zM94 141q-10 -4 -26 -13t-31.5 -20.5t-27 -24.5t-11.5 -25q0 -9 5.5 -15t13.5 -9.5t16.5 -5.5t15.5 -3l22 58t23 58z" />
    <glyph glyph-name="sterling" unicode="&#xa3;" horiz-adv-x="462" 
d="M413 260q-6 0 -13 6.5t-17 15t-23.5 15t-31.5 6.5q-21 0 -40.5 -13.5t-35.5 -33.5t-29 -42t-22 -38q5 0 13 0.5t18 0.5q19 0 43.5 -1.5t45.5 -6t35.5 -13t14.5 -21.5q0 -6 -7 -6q-2 0 -8 4q-23 17 -51 19.5t-55 2.5q-16 0 -31.5 -1.5t-31.5 -3.5q-17 -32 -34 -63.5
t-37 -60.5q57 9 116 9q24 0 51 -1.5t54.5 -6t53 -13t45.5 -22.5q4 -3 7 -6t3 -8q0 -6 -8 -6q-50 25 -93.5 33t-99.5 8q-37 0 -78 -2t-76 -15q-10 -9 -22 -16.5t-26 -7.5q-8 0 -12 6t-4 13q3 10 19.5 17t25.5 9q26 25 46.5 60t37.5 67q-9 -2 -20.5 -5t-19.5 -8q-16 2 -16 18
l2 5q16 8 33.5 12t34.5 6q10 20 24.5 46.5t33 50.5t41 40.5t48.5 16.5q10 0 26.5 -5.5t33 -14t28.5 -19.5t12 -22z" />
    <glyph glyph-name="dieresis" unicode="&#xa8;" horiz-adv-x="92" 
d="M15 517q7 11 18 11q9 0 13 -9l-9.5 -9.5t-10.5 -7.5t-6 3t-5 6v6zM54 519q7 11 18 11q9 0 13 -9l-9.5 -9.5t-10.5 -7.5t-6 3t-5 6v6z" />
    <glyph glyph-name="copyright" unicode="&#xa9;" horiz-adv-x="575" 
d="M283 173q-2 4 -6 5t-8 1q-13 0 -35 -9.5t-43 -23.5t-36.5 -30.5t-15.5 -30.5q0 -9 9.5 -15.5t22 -10t25 -5t19.5 -1.5q25 0 56 8.5t63 24t62.5 36t54 45t38 52t14.5 55.5q0 16 -8 26t-20 15t-26 6.5t-27 1.5q-33 0 -74.5 -11.5t-85 -31t-85.5 -47t-75 -60t-53 -68
t-20 -72.5q0 -25 9 -41t24.5 -25.5t35 -13.5t40.5 -4q36 0 76 9t79 24t75 35t64 43q33 26 53 54t30 70q2 5 4 5q6 0 11.5 -6.5t5.5 -11.5q0 -18 -8.5 -36.5t-21.5 -36t-28.5 -33t-28.5 -25.5q-30 -24 -66 -44.5t-75.5 -36t-80 -24.5t-78.5 -9q-27 0 -52.5 6.5t-45 21
t-31.5 36.5t-12 53q0 39 20.5 76.5t53.5 71t75.5 62t87.5 49.5t88 32.5t78 11.5q21 0 41.5 -4t36.5 -14t25.5 -26.5t9.5 -41.5q0 -19 -7.5 -38t-19 -36.5t-26 -33t-27.5 -27.5q-45 -40 -102 -67.5t-118 -27.5q-15 0 -33 3.5t-34 11t-27 20.5t-11 31q0 17 16 35.5t38 33.5
t45.5 25t38.5 10q24 0 38 -17q3 3 8.5 7t9.5 4q7 0 10.5 -7.5t3.5 -12.5q0 -2 -5.5 -5.5t-12 -9t-12 -12.5t-5.5 -15q0 -7 -6 -7q-8 0 -11.5 7t-3.5 14q0 15 12 27z" />
    <glyph glyph-name="guillemotleft" unicode="&#xab;" horiz-adv-x="318" 
d="M61 134q52 21 98 56q10 0 13.5 -6.5t3.5 -14.5q-20 -15 -41.5 -27.5t-44.5 -23.5q5 -4 17 -12t24 -17.5t21 -19t9 -15.5q0 -4 -7 -4q-3 0 -18 11t-32 25t-31 26.5t-15 15.5zM133 123q52 21 98 56q10 0 13.5 -6.5t3.5 -14.5q-20 -15 -41.5 -27.5t-44.5 -23.5q5 -4 17 -12
t24 -17.5t21 -19t9 -15.5q0 -4 -7 -4q-3 0 -18 11t-32 25t-31 26.5t-15 15.5z" />
    <glyph glyph-name="registered" unicode="&#xae;" horiz-adv-x="337" 
d="M151 496q17 5 34 7.5t34 2.5q13 0 28.5 -2.5t28.5 -9t21.5 -17.5t8.5 -27q0 -14 -6.5 -26t-15.5 -21q5 -1 8.5 -4.5t3.5 -8.5q0 -20 -26.5 -37.5t-61 -30.5t-69.5 -20t-51 -7q-17 0 -33 3.5t-29 11.5t-20.5 21t-7.5 33q0 22 12.5 42t31.5 36.5t41.5 28t41.5 17.5
q1 1 3 5.5t4 8.5t4.5 7.5t3.5 3.5q13 0 13 -13zM111 462q-15 -7 -32.5 -17.5t-31.5 -23.5t-23.5 -29.5t-9.5 -35.5q0 -14 5.5 -22.5t14.5 -13.5t20.5 -6.5t22.5 -1.5q10 0 28.5 3t41.5 8.5t46.5 13.5t42.5 17.5t31.5 20.5t12.5 23q-9 -9 -22.5 -18.5t-28.5 -17t-31 -12.5
t-29 -5q-19 0 -39.5 10.5t-34.5 22.5q-1 -2 -3 -8t-4 -12.5t-4 -11.5t-4 -5q-7 0 -10.5 5.5t-3.5 11.5q0 8 4.5 15.5t8.5 14.5q-6 0 -11 3t-5 10q0 4 7.5 4.5t9.5 0.5h6zM102 387q14 -9 28.5 -17t31.5 -8q15 0 37.5 8.5t42.5 22t34.5 31t14.5 34.5q0 10 -7 16t-16.5 9.5
t-20.5 4.5t-18 1q-23 0 -45.5 -5.5t-45.5 -11.5q-5 -8 -9.5 -17t-7.5 -18q13 12 29.5 23.5t35.5 11.5q12 0 24 -8.5t12 -21.5q0 -12 -15 -21t-35 -15.5t-39.5 -10.5t-28.5 -5zM123 412q6 1 19.5 4.5t28 9t25.5 12t11 12.5q-5 5 -14 5q-19 0 -38.5 -15t-31.5 -28z" />
    <glyph glyph-name="macron" unicode="&#xaf;" horiz-adv-x="284" 
d="M92 535q25 3 50 3q5 0 15 -0.5t20 -2t17.5 -5.5t7.5 -11t-7 -7q-9 0 -18.5 2t-18.5 2q-14 0 -27.5 -2t-27.5 -2q-5 0 -10 6t-5 11z" />
    <glyph glyph-name="degree" unicode="&#xb0;" horiz-adv-x="129" 
d="M91 364q-7 -1 -15 -4.5t-15 -9t-12.5 -12t-6.5 -13.5q15 0 31 11.5t18 27.5zM112 354q0 -9 -5.5 -18.5t-14 -17t-18.5 -12t-19 -4.5q-14 0 -24 9.5t-10 23.5q0 10 7 20t17 17t21.5 11.5t20.5 4.5t17 -13t8 -21z" />
    <glyph glyph-name="plusminus" unicode="&#xb1;" horiz-adv-x="297" 
d="M235 111q-22 0 -42.5 4.5t-42.5 4.5h-4q-1 -4 -3.5 -16t-6 -25t-7 -23t-6.5 -10q-5 0 -10 5.5t-5 10.5q0 11 4.5 29t8.5 29q-5 -1 -12 -1.5t-15 -0.5q-12 0 -22 3.5t-10 14.5l5 6q9 2 18.5 2h18.5h25q1 4 4.5 13.5t8 19.5t10 17.5t10.5 7.5q8 0 11 -7t3 -14
q-8 -8 -13.5 -17.5t-9.5 -20.5q6 0 20.5 -1t29 -4t25.5 -8.5t11 -14.5zM43 25q25 5 49 5.5t49 0.5q9 0 19 -0.5t18.5 -2.5t14 -6t5.5 -10q0 -7 -7 -7q-13 0 -25 1.5t-25 1.5q-22 0 -43.5 -3t-43.5 -3q-5 0 -10 6t-5 11z" />
    <glyph glyph-name="acute" unicode="&#xb4;" horiz-adv-x="113" 
d="M45 489q-5 0 -8.5 4.5t-3.5 9.5q0 4 5 13.5t11.5 18.5t13.5 16t12 7t8.5 -3.5t3.5 -8.5q0 -3 -6 -9l-13.5 -13.5t-13.5 -16t-6 -15.5z" />
    <glyph glyph-name="cedilla" unicode="&#xb8;" horiz-adv-x="148" 
d="M80 -9q11 0 23.5 -4.5t12.5 -18.5q0 -11 -10.5 -19.5t-25 -14.5t-29.5 -9.5t-24 -3.5q-5 0 -8 5t-3 10l3 2q6 0 20 3t27.5 8t24 12t10.5 15q-2 0 -2.5 0.5t-2.5 0.5q-10 0 -19 -5t-19 -5q-4 0 -8 4t-4 8l2 4q8 4 12 10t6 14l-1 4l4 4q8 0 9.5 -6t1.5 -11v-7z" />
    <glyph glyph-name="guillemotright" unicode="&#xbb;" horiz-adv-x="284" 
d="M38 62q-7 0 -11.5 6t-5.5 12l3 5q29 15 58.5 28.5t59.5 27.5l-10.5 10.5t-15 15.5t-13 16t-5.5 12q0 5 3 8h3q4 -4 15 -14.5t23 -22t21 -22.5t9 -15l-3 -4zM104 41q-7 0 -11.5 6t-5.5 12l3 5q29 15 58.5 28.5t59.5 27.5l-10.5 10.5t-15 15.5t-13 16t-5.5 12q0 5 3 8h3
q4 -4 15 -14.5t23 -22t21 -22.5t9 -15l-3 -4z" />
    <glyph glyph-name="questiondown" unicode="&#xbf;" horiz-adv-x="217" 
d="M-7 -80q10 0 33.5 6.5t46.5 16t41 22t18 24.5q0 8 6 8q8 0 11.5 -7t3.5 -13q0 -15 -18 -29.5t-42 -25.5t-48 -18t-37 -7q-20 0 -33.5 18t-13.5 37q0 18 11.5 37t29.5 38t38.5 37t38.5 34t30.5 30t13.5 25q-4 6 -4 10q0 3 5 6q10 0 15 -10t5 -18q0 -13 -12 -28.5
t-30 -32.5t-39 -34.5t-39 -35t-30 -35t-12 -34.5q0 -13 11 -21zM87 179q-7 0 -12.5 4t-5.5 12l28 26t28 25q6 0 10.5 -6.5t4.5 -11.5q0 -7 -6 -14.5t-14.5 -14t-17.5 -12t-15 -8.5z" />
    <glyph glyph-name="Agrave" unicode="&#xc0;" horiz-adv-x="987" 
d="M927 90q-10 0 -19.5 11t-15.5 19q-11 -49 -18 -98t-7 -99q0 -27 3 -55t12 -54q2 -5 7.5 -16.5t5.5 -14.5q0 -6 -8 -6q-14 8 -22 27.5t-12 42t-5.5 45t-1.5 37.5q0 53 7.5 105t19.5 103q-19 16 -39.5 28t-42.5 22q-56 -44 -111 -79.5t-114 -61t-123 -39.5t-136 -14
q-19 0 -47.5 2.5t-60.5 8.5t-63.5 15.5t-57 24t-41.5 34.5t-16 46q0 30 25.5 52.5t66 38.5t90 26t97 16t87.5 8.5t62 2.5q83 0 168 -12.5t162 -44.5q35 29 68 59.5t62 65.5q2 2 7.5 9.5t11.5 15.5t11 14.5t6 6.5q5 0 8.5 -3.5t5.5 -7.5q4 7 12.5 19.5t18.5 25.5t20.5 22.5
t18.5 9.5q5 0 9 -6t5 -11l-3 -5q-27 -16 -50 -52t-41.5 -78.5t-32 -85.5t-20.5 -72l8.5 -8.5t10.5 -11.5t9.5 -12.5t5.5 -10.5zM762 198q-72 26 -148.5 36.5t-152.5 10.5q-26 0 -61.5 -2t-75 -6t-80.5 -12t-77.5 -19t-66 -27t-46.5 -37q-12 -14 -12 -29q0 -20 15.5 -34.5
t39.5 -25.5t53.5 -18t58.5 -11t54 -5.5t39 -1.5q70 0 130 13.5t115 37.5t107.5 57t107.5 73zM938 329q-27 -38 -61 -69t-70 -60q36 -19 70 -45q11 45 26 88.5t35 85.5zM966 486q1 0 -3.5 6.5t-10.5 14.5t-11 16.5t-5 11.5q0 5 4 10t9 5q4 0 9 -6t9.5 -13.5t7.5 -15.5t3 -11
q0 -4 -3.5 -11t-8.5 -7z" />
    <glyph glyph-name="Aacute" unicode="&#xc1;" horiz-adv-x="987" 
d="M927 90q-10 0 -19.5 11t-15.5 19q-11 -49 -18 -98t-7 -99q0 -27 3 -55t12 -54q2 -5 7.5 -16.5t5.5 -14.5q0 -6 -8 -6q-14 8 -22 27.5t-12 42t-5.5 45t-1.5 37.5q0 53 7.5 105t19.5 103q-19 16 -39.5 28t-42.5 22q-56 -44 -111 -79.5t-114 -61t-123 -39.5t-136 -14
q-19 0 -47.5 2.5t-60.5 8.5t-63.5 15.5t-57 24t-41.5 34.5t-16 46q0 30 25.5 52.5t66 38.5t90 26t97 16t87.5 8.5t62 2.5q83 0 168 -12.5t162 -44.5q35 29 68 59.5t62 65.5q2 2 7.5 9.5t11.5 15.5t11 14.5t6 6.5q5 0 8.5 -3.5t5.5 -7.5q4 7 12.5 19.5t18.5 25.5t20.5 22.5
t18.5 9.5q5 0 9 -6t5 -11l-3 -5q-27 -16 -50 -52t-41.5 -78.5t-32 -85.5t-20.5 -72l8.5 -8.5t10.5 -11.5t9.5 -12.5t5.5 -10.5zM762 198q-72 26 -148.5 36.5t-152.5 10.5q-26 0 -61.5 -2t-75 -6t-80.5 -12t-77.5 -19t-66 -27t-46.5 -37q-12 -14 -12 -29q0 -20 15.5 -34.5
t39.5 -25.5t53.5 -18t58.5 -11t54 -5.5t39 -1.5q70 0 130 13.5t115 37.5t107.5 57t107.5 73zM938 329q-27 -38 -61 -69t-70 -60q36 -19 70 -45q11 45 26 88.5t35 85.5zM976 482q-5 0 -8.5 4.5t-3.5 9.5q0 4 5 13.5t11.5 18.5t13.5 16t12 7t8.5 -3.5t3.5 -8.5q0 -3 -6 -9
l-13.5 -13.5t-13.5 -16t-6 -15.5z" />
    <glyph glyph-name="Acircumflex" unicode="&#xc2;" horiz-adv-x="987" 
d="M927 90q-10 0 -19.5 11t-15.5 19q-11 -49 -18 -98t-7 -99q0 -27 3 -55t12 -54q2 -5 7.5 -16.5t5.5 -14.5q0 -6 -8 -6q-14 8 -22 27.5t-12 42t-5.5 45t-1.5 37.5q0 53 7.5 105t19.5 103q-19 16 -39.5 28t-42.5 22q-56 -44 -111 -79.5t-114 -61t-123 -39.5t-136 -14
q-19 0 -47.5 2.5t-60.5 8.5t-63.5 15.5t-57 24t-41.5 34.5t-16 46q0 30 25.5 52.5t66 38.5t90 26t97 16t87.5 8.5t62 2.5q83 0 168 -12.5t162 -44.5q35 29 68 59.5t62 65.5q2 2 7.5 9.5t11.5 15.5t11 14.5t6 6.5q5 0 8.5 -3.5t5.5 -7.5q4 7 12.5 19.5t18.5 25.5t20.5 22.5
t18.5 9.5q5 0 9 -6t5 -11l-3 -5q-27 -16 -50 -52t-41.5 -78.5t-32 -85.5t-20.5 -72l8.5 -8.5t10.5 -11.5t9.5 -12.5t5.5 -10.5zM762 198q-72 26 -148.5 36.5t-152.5 10.5q-26 0 -61.5 -2t-75 -6t-80.5 -12t-77.5 -19t-66 -27t-46.5 -37q-12 -14 -12 -29q0 -20 15.5 -34.5
t39.5 -25.5t53.5 -18t58.5 -11t54 -5.5t39 -1.5q70 0 130 13.5t115 37.5t107.5 57t107.5 73zM938 329q-27 -38 -61 -69t-70 -60q36 -19 70 -45q11 45 26 88.5t35 85.5zM1028 502q-5 9 -9 18t-7 19q-19 0 -39.5 -15.5t-32.5 -28.5q-4 0 -6.5 3t-4.5 6q0 8 9.5 17t21.5 17
t24.5 13t20.5 5q5 0 11 -6.5t11.5 -15.5t9.5 -18t4 -13t-4 -6z" />
    <glyph glyph-name="Atilde" unicode="&#xc3;" horiz-adv-x="987" 
d="M927 90q-10 0 -19.5 11t-15.5 19q-11 -49 -18 -98t-7 -99q0 -27 3 -55t12 -54q2 -5 7.5 -16.5t5.5 -14.5q0 -6 -8 -6q-14 8 -22 27.5t-12 42t-5.5 45t-1.5 37.5q0 53 7.5 105t19.5 103q-19 16 -39.5 28t-42.5 22q-56 -44 -111 -79.5t-114 -61t-123 -39.5t-136 -14
q-19 0 -47.5 2.5t-60.5 8.5t-63.5 15.5t-57 24t-41.5 34.5t-16 46q0 30 25.5 52.5t66 38.5t90 26t97 16t87.5 8.5t62 2.5q83 0 168 -12.5t162 -44.5q35 29 68 59.5t62 65.5q2 2 7.5 9.5t11.5 15.5t11 14.5t6 6.5q5 0 8.5 -3.5t5.5 -7.5q4 7 12.5 19.5t18.5 25.5t20.5 22.5
t18.5 9.5q5 0 9 -6t5 -11l-3 -5q-27 -16 -50 -52t-41.5 -78.5t-32 -85.5t-20.5 -72l8.5 -8.5t10.5 -11.5t9.5 -12.5t5.5 -10.5zM762 198q-72 26 -148.5 36.5t-152.5 10.5q-26 0 -61.5 -2t-75 -6t-80.5 -12t-77.5 -19t-66 -27t-46.5 -37q-12 -14 -12 -29q0 -20 15.5 -34.5
t39.5 -25.5t53.5 -18t58.5 -11t54 -5.5t39 -1.5q70 0 130 13.5t115 37.5t107.5 57t107.5 73zM938 329q-27 -38 -61 -69t-70 -60q36 -19 70 -45q11 45 26 88.5t35 85.5zM1046 554q5 0 8.5 -4.5t3.5 -9.5q0 -9 -7 -17t-17 -13.5t-21 -9t-18 -3.5q-11 0 -19 7.5t-13 17.5
q-3 -2 -12 -9.5t-11 -7.5q-3 0 -7 3.5t-4 6.5q0 7 12 17t22 10q6 0 8.5 -4.5t4 -9.5t4 -9.5t9.5 -4.5q17 0 32.5 10t20.5 27z" />
    <glyph glyph-name="Adieresis" unicode="&#xc4;" horiz-adv-x="987" 
d="M927 90q-10 0 -19.5 11t-15.5 19q-11 -49 -18 -98t-7 -99q0 -27 3 -55t12 -54q2 -5 7.5 -16.5t5.5 -14.5q0 -6 -8 -6q-14 8 -22 27.5t-12 42t-5.5 45t-1.5 37.5q0 53 7.5 105t19.5 103q-19 16 -39.5 28t-42.5 22q-56 -44 -111 -79.5t-114 -61t-123 -39.5t-136 -14
q-19 0 -47.5 2.5t-60.5 8.5t-63.5 15.5t-57 24t-41.5 34.5t-16 46q0 30 25.5 52.5t66 38.5t90 26t97 16t87.5 8.5t62 2.5q83 0 168 -12.5t162 -44.5q35 29 68 59.5t62 65.5q2 2 7.5 9.5t11.5 15.5t11 14.5t6 6.5q5 0 8.5 -3.5t5.5 -7.5q4 7 12.5 19.5t18.5 25.5t20.5 22.5
t18.5 9.5q5 0 9 -6t5 -11l-3 -5q-27 -16 -50 -52t-41.5 -78.5t-32 -85.5t-20.5 -72l8.5 -8.5t10.5 -11.5t9.5 -12.5t5.5 -10.5zM762 198q-72 26 -148.5 36.5t-152.5 10.5q-26 0 -61.5 -2t-75 -6t-80.5 -12t-77.5 -19t-66 -27t-46.5 -37q-12 -14 -12 -29q0 -20 15.5 -34.5
t39.5 -25.5t53.5 -18t58.5 -11t54 -5.5t39 -1.5q70 0 130 13.5t115 37.5t107.5 57t107.5 73zM938 329q-27 -38 -61 -69t-70 -60q36 -19 70 -45q11 45 26 88.5t35 85.5zM951 534q7 11 18 11q9 0 13 -9l-9.5 -9.5t-10.5 -7.5t-6 3t-5 6v6zM990 536q7 11 18 11q9 0 13 -9
l-9.5 -9.5t-10.5 -7.5t-6 3t-5 6v6z" />
    <glyph glyph-name="Aring" unicode="&#xc5;" horiz-adv-x="987" 
d="M927 90q-10 0 -19.5 11t-15.5 19q-11 -49 -18 -98t-7 -99q0 -27 3 -55t12 -54q2 -5 7.5 -16.5t5.5 -14.5q0 -6 -8 -6q-14 8 -22 27.5t-12 42t-5.5 45t-1.5 37.5q0 53 7.5 105t19.5 103q-19 16 -39.5 28t-42.5 22q-56 -44 -111 -79.5t-114 -61t-123 -39.5t-136 -14
q-19 0 -47.5 2.5t-60.5 8.5t-63.5 15.5t-57 24t-41.5 34.5t-16 46q0 30 25.5 52.5t66 38.5t90 26t97 16t87.5 8.5t62 2.5q83 0 168 -12.5t162 -44.5q35 29 68 59.5t62 65.5q2 2 7.5 9.5t11.5 15.5t11 14.5t6 6.5q5 0 8.5 -3.5t5.5 -7.5q4 7 12.5 19.5t18.5 25.5t20.5 22.5
t18.5 9.5q5 0 9 -6t5 -11l-3 -5q-27 -16 -50 -52t-41.5 -78.5t-32 -85.5t-20.5 -72l8.5 -8.5t10.5 -11.5t9.5 -12.5t5.5 -10.5zM762 198q-72 26 -148.5 36.5t-152.5 10.5q-26 0 -61.5 -2t-75 -6t-80.5 -12t-77.5 -19t-66 -27t-46.5 -37q-12 -14 -12 -29q0 -20 15.5 -34.5
t39.5 -25.5t53.5 -18t58.5 -11t54 -5.5t39 -1.5q70 0 130 13.5t115 37.5t107.5 57t107.5 73zM938 329q-27 -38 -61 -69t-70 -60q36 -19 70 -45q11 45 26 88.5t35 85.5zM1012 557q8 0 13.5 -10t5.5 -17q0 -17 -17.5 -30t-33.5 -13q-14 0 -22 8.5t-8 22.5q0 8 5 15t12.5 12.5
t16 8.5t15.5 3q6 0 9 -2zM1004 540q-11 -2 -22 -8.5t-16 -17.5v-7q1 0 3 -1t3 -1q14 0 26.5 9t16.5 23q-3 0 -8 5z" />
    <glyph glyph-name="AE" unicode="&#xc6;" horiz-adv-x="1720" 
d="M1677 34q-23 -24 -61 -44t-84.5 -36t-97.5 -28.5t-101 -20.5t-94.5 -12t-77.5 -4q-46 0 -98.5 7.5t-97.5 27.5t-74.5 55t-29.5 91q0 14 3.5 32t8.5 37t10.5 37t9.5 32q-18 1 -36 1h-36q-53 -48 -113.5 -87.5t-126 -68t-135.5 -44t-142 -15.5q-37 0 -86 7t-93 21.5
t-74.5 38t-30.5 56.5q0 22 28 38.5t75 29t108 20.5t126.5 13.5t131.5 8t122.5 4t99 1.5h61.5h35q36 35 69.5 72t65.5 77l4 2q5 0 8 -3t5 -7q4 7 12.5 19.5t18 25t20 21.5t19.5 9q5 0 9 -6t5 -11l-3 -5q-21 -14 -39 -37.5t-32.5 -51t-25.5 -56t-19 -51.5l23 -1
q52 48 124.5 88.5t153 70t162 46t151.5 16.5q23 0 57 -3t66 -12.5t55 -28.5t23 -51q0 -29 -18 -56t-44.5 -50t-56 -41t-52.5 -29q9 -2 26.5 -5t35.5 -8.5t31.5 -13.5t15.5 -18l-2 -5q-2 0 -22 4.5t-44.5 10.5t-47 11.5t-30.5 7.5q-23 -10 -48.5 -16.5t-51.5 -6.5
q-10 0 -23 2.5t-25.5 7.5t-21.5 13.5t-12 19.5l1 1q-6 2 -33.5 4.5t-66.5 5t-84 5t-86 4t-73 3t-45 1.5q-31 -29 -55.5 -66.5t-24.5 -82.5q0 -48 27.5 -77t68 -44t86.5 -19.5t82 -4.5q139 0 269.5 36.5t255.5 92.5h3l4 -4zM987 228q134 -5 266.5 -13t265.5 -28q23 9 57.5 27
t66.5 42t54.5 51.5t22.5 56.5q0 23 -22 35.5t-52 18.5t-60 7.5t-45 1.5q-66 0 -142 -15.5t-150 -42t-142.5 -63t-119.5 -78.5zM781 209q-22 0 -65 -0.5t-99.5 -2t-121 -4t-128 -7.5t-122.5 -12.5t-104.5 -18t-72.5 -25t-27 -32.5q0 -11 5 -16q21 -23 51.5 -37t64 -22.5
t67.5 -11.5t64 -3q67 0 133 14t127.5 39.5t119 60.5t108.5 78zM901 231q16 54 39 105q-44 -56 -95 -104q14 0 28 -0.5t28 -0.5zM1475 171q-29 4 -56.5 7t-56.5 5q10 -5 15 -9t9.5 -7t11 -4.5t19.5 -1.5q15 0 29.5 3t28.5 7zM925 208h-8q-2 -4 -2.5 -7.5t-2.5 -6.5z" />
    <glyph glyph-name="Ccedilla" unicode="&#xc7;" horiz-adv-x="828" 
d="M931 -101q-25 -15 -64 -27.5t-85 -22.5t-96.5 -17.5t-98.5 -12.5t-90 -7.5t-72 -2.5h-16t-16 1q3 -6 3 -13v-7q11 0 23.5 -4.5t12.5 -18.5q0 -11 -10.5 -19.5t-25 -14.5t-29.5 -9.5t-24 -3.5q-5 0 -8 5t-3 10l3 2q6 0 20 3t27.5 8t24 12t10.5 15q-2 0 -2.5 0.5t-2.5 0.5
q-10 0 -19 -5t-19 -5q-4 0 -8 4t-4 8l2 4q8 4 12 10t6 14l-1 4q-53 2 -116.5 11.5t-119 32t-92.5 61t-37 99.5q0 35 13.5 69.5t34.5 65.5t47.5 58.5t52.5 48.5q115 94 257 143t290 49q14 0 36.5 -0.5t48 -3t51 -8t46.5 -15t34 -23.5t13 -34q0 -15 -10 -29.5t-24.5 -26.5
t-30.5 -21.5t-28 -15.5q-29 -16 -65.5 -31.5t-75 -27.5t-77 -19.5t-71.5 -7.5q-14 0 -27.5 1.5t-25.5 6.5t-21 15.5t-13 27.5q2 5 5 5q10 0 14.5 -10t11.5 -15q8 -5 22 -6.5t22 -1.5q32 0 70 7.5t77 19.5t75 27t64 30q9 5 24 14t29 20.5t24 24t10 24.5q0 11 -12.5 19.5
t-31.5 14t-42.5 9t-45.5 5.5t-40 2.5t-26 0.5q-146 0 -286.5 -49t-253.5 -142q-25 -20 -50.5 -46t-46.5 -56t-34 -63t-13 -67q0 -39 20.5 -66.5t53 -46.5t74 -30t83.5 -17t80.5 -8t66.5 -2q57 0 123 5t133 15.5t130.5 27.5t114.5 41q16 0 18 -17z" />
    <glyph glyph-name="Egrave" unicode="&#xc8;" horiz-adv-x="1075" 
d="M1031 34q-22 -24 -60 -44t-84.5 -36t-98.5 -28.5t-102 -20.5t-94.5 -12t-76.5 -4q-46 0 -98.5 7.5t-97.5 28t-74.5 55.5t-29.5 90q0 21 6 41.5t16 39.5q-21 -4 -56 -12t-69 -22t-58.5 -34t-24.5 -48q0 -2 1 -4.5t1 -4.5q-3 -5 -6 -5q-10 0 -14 11t-4 19q0 21 14 37.5
t36 30t50 23.5t55 17t51.5 11.5t40.5 7.5q30 40 75 75.5t100 66t116 54.5t122 41t119 26t106 9q23 0 57 -3t66 -12.5t55 -28.5t23 -51q0 -30 -18.5 -57.5t-45.5 -50.5t-57.5 -41t-54.5 -29q8 -2 27 -7t38 -12.5t33.5 -17t14.5 -19.5q0 -5 -6 -5q-4 0 -8 3q-30 18 -62 28
t-67 17q-24 -10 -50 -17t-52 -7q-9 0 -22.5 2.5t-26.5 7.5t-22.5 13t-10.5 19q-23 2 -45.5 2h-45.5q-86 0 -170.5 -6t-169.5 -20q-16 -22 -26 -47.5t-10 -52.5q0 -48 27.5 -77t68 -44t86.5 -19.5t82 -4.5q140 0 269 36t256 93h3l4 -4zM870 186q24 10 58.5 28t67 41.5
t55.5 51.5t23 57q0 23 -22 35.5t-51.5 18.5t-59.5 7.5t-46 1.5q-69 0 -154 -18.5t-168.5 -51t-157 -77t-121.5 -96.5q75 11 150 16.5t151 5.5q69 0 137.5 -4.5t137.5 -15.5zM832 172q-28 4 -56 6l-56 4q12 -13 23 -17t28 -4q16 0 31 3t30 8zM905 486q1 0 -3.5 6.5
t-10.5 14.5t-11 16.5t-5 11.5q0 5 4 10t9 5q4 0 9 -6t9.5 -13.5t7.5 -15.5t3 -11q0 -4 -3.5 -11t-8.5 -7z" />
    <glyph glyph-name="Eacute" unicode="&#xc9;" horiz-adv-x="1075" 
d="M1031 34q-22 -24 -60 -44t-84.5 -36t-98.5 -28.5t-102 -20.5t-94.5 -12t-76.5 -4q-46 0 -98.5 7.5t-97.5 28t-74.5 55.5t-29.5 90q0 21 6 41.5t16 39.5q-21 -4 -56 -12t-69 -22t-58.5 -34t-24.5 -48q0 -2 1 -4.5t1 -4.5q-3 -5 -6 -5q-10 0 -14 11t-4 19q0 21 14 37.5
t36 30t50 23.5t55 17t51.5 11.5t40.5 7.5q30 40 75 75.5t100 66t116 54.5t122 41t119 26t106 9q23 0 57 -3t66 -12.5t55 -28.5t23 -51q0 -30 -18.5 -57.5t-45.5 -50.5t-57.5 -41t-54.5 -29q8 -2 27 -7t38 -12.5t33.5 -17t14.5 -19.5q0 -5 -6 -5q-4 0 -8 3q-30 18 -62 28
t-67 17q-24 -10 -50 -17t-52 -7q-9 0 -22.5 2.5t-26.5 7.5t-22.5 13t-10.5 19q-23 2 -45.5 2h-45.5q-86 0 -170.5 -6t-169.5 -20q-16 -22 -26 -47.5t-10 -52.5q0 -48 27.5 -77t68 -44t86.5 -19.5t82 -4.5q140 0 269 36t256 93h3l4 -4zM870 186q24 10 58.5 28t67 41.5
t55.5 51.5t23 57q0 23 -22 35.5t-51.5 18.5t-59.5 7.5t-46 1.5q-69 0 -154 -18.5t-168.5 -51t-157 -77t-121.5 -96.5q75 11 150 16.5t151 5.5q69 0 137.5 -4.5t137.5 -15.5zM832 172q-28 4 -56 6l-56 4q12 -13 23 -17t28 -4q16 0 31 3t30 8zM888 482q-5 0 -8.5 4.5t-3.5 9.5
q0 4 5 13.5t11.5 18.5t13.5 16t12 7t8.5 -3.5t3.5 -8.5q0 -3 -6 -9l-13.5 -13.5t-13.5 -16t-6 -15.5z" />
    <glyph glyph-name="Ecircumflex" unicode="&#xca;" horiz-adv-x="1075" 
d="M1031 34q-22 -24 -60 -44t-84.5 -36t-98.5 -28.5t-102 -20.5t-94.5 -12t-76.5 -4q-46 0 -98.5 7.5t-97.5 28t-74.5 55.5t-29.5 90q0 21 6 41.5t16 39.5q-21 -4 -56 -12t-69 -22t-58.5 -34t-24.5 -48q0 -2 1 -4.5t1 -4.5q-3 -5 -6 -5q-10 0 -14 11t-4 19q0 21 14 37.5
t36 30t50 23.5t55 17t51.5 11.5t40.5 7.5q30 40 75 75.5t100 66t116 54.5t122 41t119 26t106 9q23 0 57 -3t66 -12.5t55 -28.5t23 -51q0 -30 -18.5 -57.5t-45.5 -50.5t-57.5 -41t-54.5 -29q8 -2 27 -7t38 -12.5t33.5 -17t14.5 -19.5q0 -5 -6 -5q-4 0 -8 3q-30 18 -62 28
t-67 17q-24 -10 -50 -17t-52 -7q-9 0 -22.5 2.5t-26.5 7.5t-22.5 13t-10.5 19q-23 2 -45.5 2h-45.5q-86 0 -170.5 -6t-169.5 -20q-16 -22 -26 -47.5t-10 -52.5q0 -48 27.5 -77t68 -44t86.5 -19.5t82 -4.5q140 0 269 36t256 93h3l4 -4zM870 186q24 10 58.5 28t67 41.5
t55.5 51.5t23 57q0 23 -22 35.5t-51.5 18.5t-59.5 7.5t-46 1.5q-69 0 -154 -18.5t-168.5 -51t-157 -77t-121.5 -96.5q75 11 150 16.5t151 5.5q69 0 137.5 -4.5t137.5 -15.5zM832 172q-28 4 -56 6l-56 4q12 -13 23 -17t28 -4q16 0 31 3t30 8zM937 502q-5 9 -9 18t-7 19
q-19 0 -39.5 -15.5t-32.5 -28.5q-4 0 -6.5 3t-4.5 6q0 8 9.5 17t21.5 17t24.5 13t20.5 5q5 0 11 -6.5t11.5 -15.5t9.5 -18t4 -13t-4 -6z" />
    <glyph glyph-name="Edieresis" unicode="&#xcb;" horiz-adv-x="1075" 
d="M1031 34q-22 -24 -60 -44t-84.5 -36t-98.5 -28.5t-102 -20.5t-94.5 -12t-76.5 -4q-46 0 -98.5 7.5t-97.5 28t-74.5 55.5t-29.5 90q0 21 6 41.5t16 39.5q-21 -4 -56 -12t-69 -22t-58.5 -34t-24.5 -48q0 -2 1 -4.5t1 -4.5q-3 -5 -6 -5q-10 0 -14 11t-4 19q0 21 14 37.5
t36 30t50 23.5t55 17t51.5 11.5t40.5 7.5q30 40 75 75.5t100 66t116 54.5t122 41t119 26t106 9q23 0 57 -3t66 -12.5t55 -28.5t23 -51q0 -30 -18.5 -57.5t-45.5 -50.5t-57.5 -41t-54.5 -29q8 -2 27 -7t38 -12.5t33.5 -17t14.5 -19.5q0 -5 -6 -5q-4 0 -8 3q-30 18 -62 28
t-67 17q-24 -10 -50 -17t-52 -7q-9 0 -22.5 2.5t-26.5 7.5t-22.5 13t-10.5 19q-23 2 -45.5 2h-45.5q-86 0 -170.5 -6t-169.5 -20q-16 -22 -26 -47.5t-10 -52.5q0 -48 27.5 -77t68 -44t86.5 -19.5t82 -4.5q140 0 269 36t256 93h3l4 -4zM870 186q24 10 58.5 28t67 41.5
t55.5 51.5t23 57q0 23 -22 35.5t-51.5 18.5t-59.5 7.5t-46 1.5q-69 0 -154 -18.5t-168.5 -51t-157 -77t-121.5 -96.5q75 11 150 16.5t151 5.5q69 0 137.5 -4.5t137.5 -15.5zM832 172q-28 4 -56 6l-56 4q12 -13 23 -17t28 -4q16 0 31 3t30 8zM866 543q7 11 18 11q9 0 13 -9
l-9.5 -9.5t-10.5 -7.5t-6 3t-5 6v6zM905 545q7 11 18 11q9 0 13 -9l-9.5 -9.5t-10.5 -7.5t-6 3t-5 6v6z" />
    <glyph glyph-name="Igrave" unicode="&#xcc;" horiz-adv-x="383" 
d="M72 -211q-5 0 -10 6t-5 11q0 2 5.5 6t13 8t14.5 7.5t9 5.5q13 9 30 28t33 41.5t30.5 44.5t23.5 36q22 36 47.5 82t47 96t35.5 99.5t14 92.5q0 34 -14 54t-51 20q-51 0 -95.5 -29t-77.5 -75t-51.5 -101.5t-18.5 -107.5q0 -14 2.5 -28t2.5 -28q0 -7 -6 -7q-8 0 -12 7.5
t-5.5 18t-2 20.5t-0.5 15q0 52 17 111.5t49.5 109.5t80 83.5t107.5 33.5q47 0 71.5 -32t24.5 -76q0 -37 -10 -78t-26 -82.5t-34.5 -80t-36.5 -70.5q-7 -13 -20.5 -36t-31.5 -49.5t-38 -54.5t-40 -50.5t-39 -37t-33 -14.5zM340 488q1 0 -3.5 6.5t-10.5 14.5t-11 16.5t-5 11.5
q0 5 4 10t9 5q4 0 9 -6t9.5 -13.5t7.5 -15.5t3 -11q0 -4 -3.5 -11t-8.5 -7z" />
    <glyph glyph-name="Iacute" unicode="&#xcd;" horiz-adv-x="383" 
d="M72 -211q-5 0 -10 6t-5 11q0 2 5.5 6t13 8t14.5 7.5t9 5.5q13 9 30 28t33 41.5t30.5 44.5t23.5 36q22 36 47.5 82t47 96t35.5 99.5t14 92.5q0 34 -14 54t-51 20q-51 0 -95.5 -29t-77.5 -75t-51.5 -101.5t-18.5 -107.5q0 -14 2.5 -28t2.5 -28q0 -7 -6 -7q-8 0 -12 7.5
t-5.5 18t-2 20.5t-0.5 15q0 52 17 111.5t49.5 109.5t80 83.5t107.5 33.5q47 0 71.5 -32t24.5 -76q0 -37 -10 -78t-26 -82.5t-34.5 -80t-36.5 -70.5q-7 -13 -20.5 -36t-31.5 -49.5t-38 -54.5t-40 -50.5t-39 -37t-33 -14.5zM321 489q-5 0 -8.5 4.5t-3.5 9.5q0 4 5 13.5
t11.5 18.5t13.5 16t12 7t8.5 -3.5t3.5 -8.5q0 -3 -6 -9l-13.5 -13.5t-13.5 -16t-6 -15.5z" />
    <glyph glyph-name="Icircumflex" unicode="&#xce;" horiz-adv-x="383" 
d="M72 -211q-5 0 -10 6t-5 11q0 2 5.5 6t13 8t14.5 7.5t9 5.5q13 9 30 28t33 41.5t30.5 44.5t23.5 36q22 36 47.5 82t47 96t35.5 99.5t14 92.5q0 34 -14 54t-51 20q-51 0 -95.5 -29t-77.5 -75t-51.5 -101.5t-18.5 -107.5q0 -14 2.5 -28t2.5 -28q0 -7 -6 -7q-8 0 -12 7.5
t-5.5 18t-2 20.5t-0.5 15q0 52 17 111.5t49.5 109.5t80 83.5t107.5 33.5q47 0 71.5 -32t24.5 -76q0 -37 -10 -78t-26 -82.5t-34.5 -80t-36.5 -70.5q-7 -13 -20.5 -36t-31.5 -49.5t-38 -54.5t-40 -50.5t-39 -37t-33 -14.5zM365 500q-5 9 -9 18t-7 19q-19 0 -39.5 -15.5
t-32.5 -28.5q-4 0 -6.5 3t-4.5 6q0 8 9.5 17t21.5 17t24.5 13t20.5 5q5 0 11 -6.5t11.5 -15.5t9.5 -18t4 -13t-4 -6z" />
    <glyph glyph-name="Idieresis" unicode="&#xcf;" horiz-adv-x="383" 
d="M72 -211q-5 0 -10 6t-5 11q0 2 5.5 6t13 8t14.5 7.5t9 5.5q13 9 30 28t33 41.5t30.5 44.5t23.5 36q22 36 47.5 82t47 96t35.5 99.5t14 92.5q0 34 -14 54t-51 20q-51 0 -95.5 -29t-77.5 -75t-51.5 -101.5t-18.5 -107.5q0 -14 2.5 -28t2.5 -28q0 -7 -6 -7q-8 0 -12 7.5
t-5.5 18t-2 20.5t-0.5 15q0 52 17 111.5t49.5 109.5t80 83.5t107.5 33.5q47 0 71.5 -32t24.5 -76q0 -37 -10 -78t-26 -82.5t-34.5 -80t-36.5 -70.5q-7 -13 -20.5 -36t-31.5 -49.5t-38 -54.5t-40 -50.5t-39 -37t-33 -14.5zM308 527q7 11 18 11q9 0 13 -9l-9.5 -9.5
t-10.5 -7.5t-6 3t-5 6v6zM347 529q7 11 18 11q9 0 13 -9l-9.5 -9.5t-10.5 -7.5t-6 3t-5 6v6z" />
    <glyph glyph-name="Eth" unicode="&#xd0;" horiz-adv-x="1159" 
d="M437 10q-5 1 -10 5.5t-5 10.5q0 1 2 6t4 10.5t4.5 10.5l3.5 7q-21 -3 -42 -3q-6 0 -10 6t-5 11l4 6q17 3 33.5 4t33.5 2q8 13 16.5 25.5t16.5 24.5q-22 0 -62.5 -6.5t-80.5 -20t-69.5 -34.5t-29.5 -50q0 -14 14.5 -23.5t37 -16t50.5 -10t54 -5.5t47 -2.5t31 -0.5
q113 0 223.5 19.5t214.5 63.5q31 13 70.5 35t74.5 50.5t59 63t24 73.5q0 35 -24 60t-62.5 42t-85.5 27t-93.5 15.5t-87 7.5t-64.5 2q-65 0 -139.5 -5.5t-149.5 -16.5t-147 -28.5t-132 -42.5q-14 -6 -35.5 -16.5t-41 -24t-33.5 -30t-14 -34.5v-6q0 -10 -6 -10q-8 0 -11.5 10
t-3.5 16q0 26 19 48t49.5 40t68 32.5t74.5 25t69.5 18t52.5 11.5q92 18 184 26.5t186 8.5q31 0 76 -2t94.5 -8.5t99 -18.5t89.5 -33t64.5 -52t24.5 -74q0 -41 -23.5 -76.5t-58.5 -65t-75 -52t-73 -36.5q-106 -46 -219 -66t-228 -20q-15 0 -40.5 0.5t-55 3.5t-59.5 8.5
t-54.5 16t-40 26t-15.5 37.5q0 23 17.5 42t42 33t51.5 23.5t45 13.5q26 6 51 7.5t51 1.5h21q6 8 17.5 22t24 27t26 22.5t24.5 9.5q6 0 11 -6t5 -12q0 -5 -5.5 -5.5t-8.5 -2.5q-20 -9 -35.5 -26.5t-29.5 -34.5q9 -2 26.5 -8t35 -14.5t31 -19t13.5 -20.5q0 -5 -5 -5q-4 0 -8 3
q-27 19 -50.5 30t-56.5 16q-17 -21 -33 -47h14.5t19 -2t16.5 -6t7 -11t-7 -7q-13 0 -25 1.5t-25 1.5q-16 0 -24.5 -17.5t-13.5 -32.5z" />
    <glyph glyph-name="Ntilde" unicode="&#xd1;" horiz-adv-x="1277" 
d="M1172 -118q-11 4 -19 13t-13.5 20.5t-8 23.5t-2.5 23q0 37 17 79t43 85.5t55.5 86.5t55.5 81t43 69.5t17 52.5q0 8 -9 9.5t-14 1.5q-36 0 -82 -18t-97.5 -47t-104.5 -65.5t-101.5 -73.5t-89.5 -71t-68 -58q-5 -5 -20 -19t-31 -29t-29.5 -27t-16.5 -13q-16 3 -18 20
q23 16 54 47.5t59 69t47.5 75t19.5 66.5q0 28 -16 45.5t-39 26.5t-50 12t-48 3q-53 0 -105 -9t-103 -22q-25 -6 -69 -20t-95 -33t-103 -43.5t-94.5 -52t-69.5 -57.5t-27 -60q0 -18 10.5 -28.5t23.5 -18t23.5 -13.5t10.5 -16q0 -5 -5 -5q-1 0 -2.5 0.5t-2.5 0.5
q-14 6 -28 14.5t-25 20t-18.5 25.5t-7.5 30q0 32 27 63.5t69.5 60t95 54t103.5 45.5t95.5 34t71.5 21q54 14 107.5 22.5t108.5 8.5q27 0 59 -4.5t60 -16.5t47 -34t19 -56q0 -32 -13 -61t-30 -55q26 22 63 51.5t80 61t89.5 62.5t92 55t87.5 39t76 15q23 0 38.5 -9.5
t15.5 -35.5q0 -22 -17.5 -55t-43.5 -72.5t-56 -82.5t-56 -85.5t-43.5 -83t-17.5 -73.5q0 -16 4.5 -26.5t10.5 -17t10.5 -11.5t4.5 -10q0 -4 -5 -6zM1177 556q5 0 8.5 -4.5t3.5 -9.5q0 -9 -7 -17t-17 -13.5t-21 -9t-18 -3.5q-11 0 -19 7.5t-13 17.5q-3 -2 -12 -9.5t-11 -7.5
q-3 0 -7 3.5t-4 6.5q0 7 12 17t22 10q6 0 8.5 -4.5t4 -9.5t4 -9.5t9.5 -4.5q17 0 32.5 10t20.5 27z" />
    <glyph glyph-name="Ograve" unicode="&#xd2;" horiz-adv-x="886" 
d="M603 435q-60 -4 -125 -18.5t-128 -38t-121 -55.5t-104 -71q-14 -12 -29 -26.5t-28 -31.5t-21 -35.5t-8 -37.5q0 -33 29 -54t69 -32.5t81 -15.5t65 -4q49 0 110.5 8.5t126.5 25.5t129 42.5t119 59t96 75.5t61 93q4 11 4 24q0 21 -17 33t-40.5 18t-47.5 7t-39 1
q-33 0 -80 -5.5t-100 -15.5t-107.5 -25t-103.5 -34.5t-87.5 -43t-58.5 -50.5q-5 -8 -10 -16.5t-5 -18.5q0 -7 2 -13.5t4 -13.5l-4 -5q-12 5 -18 16.5t-6 24.5q0 21 13.5 39.5t34.5 35t47.5 31t53.5 26t51 20t40 13.5q79 26 160.5 42t165.5 16q23 0 53 -3t56.5 -12.5t45 -28
t18.5 -49.5q0 -32 -19.5 -62.5t-40.5 -53.5q-51 -54 -124 -96t-155 -70t-166 -42.5t-157 -14.5q-21 0 -49.5 2.5t-58.5 8t-59.5 15.5t-52.5 25.5t-37 37t-14 50.5q0 36 27 74t72.5 74t104 68.5t122.5 57t128.5 38.5t120.5 14q7 0 11 -5.5t4 -11.5zM777 484q1 0 -3.5 6.5
t-10.5 14.5t-11 16.5t-5 11.5q0 5 4 10t9 5q4 0 9 -6t9.5 -13.5t7.5 -15.5t3 -11q0 -4 -3.5 -11t-8.5 -7z" />
    <glyph glyph-name="Oacute" unicode="&#xd3;" horiz-adv-x="886" 
d="M603 435q-60 -4 -125 -18.5t-128 -38t-121 -55.5t-104 -71q-14 -12 -29 -26.5t-28 -31.5t-21 -35.5t-8 -37.5q0 -33 29 -54t69 -32.5t81 -15.5t65 -4q49 0 110.5 8.5t126.5 25.5t129 42.5t119 59t96 75.5t61 93q4 11 4 24q0 21 -17 33t-40.5 18t-47.5 7t-39 1
q-33 0 -80 -5.5t-100 -15.5t-107.5 -25t-103.5 -34.5t-87.5 -43t-58.5 -50.5q-5 -8 -10 -16.5t-5 -18.5q0 -7 2 -13.5t4 -13.5l-4 -5q-12 5 -18 16.5t-6 24.5q0 21 13.5 39.5t34.5 35t47.5 31t53.5 26t51 20t40 13.5q79 26 160.5 42t165.5 16q23 0 53 -3t56.5 -12.5t45 -28
t18.5 -49.5q0 -32 -19.5 -62.5t-40.5 -53.5q-51 -54 -124 -96t-155 -70t-166 -42.5t-157 -14.5q-21 0 -49.5 2.5t-58.5 8t-59.5 15.5t-52.5 25.5t-37 37t-14 50.5q0 36 27 74t72.5 74t104 68.5t122.5 57t128.5 38.5t120.5 14q7 0 11 -5.5t4 -11.5zM760 480q-5 0 -8.5 4.5
t-3.5 9.5q0 4 5 13.5t11.5 18.5t13.5 16t12 7t8.5 -3.5t3.5 -8.5q0 -3 -6 -9l-13.5 -13.5t-13.5 -16t-6 -15.5z" />
    <glyph glyph-name="Ocircumflex" unicode="&#xd4;" horiz-adv-x="886" 
d="M603 435q-60 -4 -125 -18.5t-128 -38t-121 -55.5t-104 -71q-14 -12 -29 -26.5t-28 -31.5t-21 -35.5t-8 -37.5q0 -33 29 -54t69 -32.5t81 -15.5t65 -4q49 0 110.5 8.5t126.5 25.5t129 42.5t119 59t96 75.5t61 93q4 11 4 24q0 21 -17 33t-40.5 18t-47.5 7t-39 1
q-33 0 -80 -5.5t-100 -15.5t-107.5 -25t-103.5 -34.5t-87.5 -43t-58.5 -50.5q-5 -8 -10 -16.5t-5 -18.5q0 -7 2 -13.5t4 -13.5l-4 -5q-12 5 -18 16.5t-6 24.5q0 21 13.5 39.5t34.5 35t47.5 31t53.5 26t51 20t40 13.5q79 26 160.5 42t165.5 16q23 0 53 -3t56.5 -12.5t45 -28
t18.5 -49.5q0 -32 -19.5 -62.5t-40.5 -53.5q-51 -54 -124 -96t-155 -70t-166 -42.5t-157 -14.5q-21 0 -49.5 2.5t-58.5 8t-59.5 15.5t-52.5 25.5t-37 37t-14 50.5q0 36 27 74t72.5 74t104 68.5t122.5 57t128.5 38.5t120.5 14q7 0 11 -5.5t4 -11.5zM814 502q-5 9 -9 18t-7 19
q-19 0 -39.5 -15.5t-32.5 -28.5q-4 0 -6.5 3t-4.5 6q0 8 9.5 17t21.5 17t24.5 13t20.5 5q5 0 11 -6.5t11.5 -15.5t9.5 -18t4 -13t-4 -6z" />
    <glyph glyph-name="Otilde" unicode="&#xd5;" horiz-adv-x="886" 
d="M603 435q-60 -4 -125 -18.5t-128 -38t-121 -55.5t-104 -71q-14 -12 -29 -26.5t-28 -31.5t-21 -35.5t-8 -37.5q0 -33 29 -54t69 -32.5t81 -15.5t65 -4q49 0 110.5 8.5t126.5 25.5t129 42.5t119 59t96 75.5t61 93q4 11 4 24q0 21 -17 33t-40.5 18t-47.5 7t-39 1
q-33 0 -80 -5.5t-100 -15.5t-107.5 -25t-103.5 -34.5t-87.5 -43t-58.5 -50.5q-5 -8 -10 -16.5t-5 -18.5q0 -7 2 -13.5t4 -13.5l-4 -5q-12 5 -18 16.5t-6 24.5q0 21 13.5 39.5t34.5 35t47.5 31t53.5 26t51 20t40 13.5q79 26 160.5 42t165.5 16q23 0 53 -3t56.5 -12.5t45 -28
t18.5 -49.5q0 -32 -19.5 -62.5t-40.5 -53.5q-51 -54 -124 -96t-155 -70t-166 -42.5t-157 -14.5q-21 0 -49.5 2.5t-58.5 8t-59.5 15.5t-52.5 25.5t-37 37t-14 50.5q0 36 27 74t72.5 74t104 68.5t122.5 57t128.5 38.5t120.5 14q7 0 11 -5.5t4 -11.5zM830 556q5 0 8.5 -4.5
t3.5 -9.5q0 -9 -7 -17t-17 -13.5t-21 -9t-18 -3.5q-11 0 -19 7.5t-13 17.5q-3 -2 -12 -9.5t-11 -7.5q-3 0 -7 3.5t-4 6.5q0 7 12 17t22 10q6 0 8.5 -4.5t4 -9.5t4 -9.5t9.5 -4.5q17 0 32.5 10t20.5 27z" />
    <glyph glyph-name="Odieresis" unicode="&#xd6;" horiz-adv-x="886" 
d="M603 435q-60 -4 -125 -18.5t-128 -38t-121 -55.5t-104 -71q-14 -12 -29 -26.5t-28 -31.5t-21 -35.5t-8 -37.5q0 -33 29 -54t69 -32.5t81 -15.5t65 -4q49 0 110.5 8.5t126.5 25.5t129 42.5t119 59t96 75.5t61 93q4 11 4 24q0 21 -17 33t-40.5 18t-47.5 7t-39 1
q-33 0 -80 -5.5t-100 -15.5t-107.5 -25t-103.5 -34.5t-87.5 -43t-58.5 -50.5q-5 -8 -10 -16.5t-5 -18.5q0 -7 2 -13.5t4 -13.5l-4 -5q-12 5 -18 16.5t-6 24.5q0 21 13.5 39.5t34.5 35t47.5 31t53.5 26t51 20t40 13.5q79 26 160.5 42t165.5 16q23 0 53 -3t56.5 -12.5t45 -28
t18.5 -49.5q0 -32 -19.5 -62.5t-40.5 -53.5q-51 -54 -124 -96t-155 -70t-166 -42.5t-157 -14.5q-21 0 -49.5 2.5t-58.5 8t-59.5 15.5t-52.5 25.5t-37 37t-14 50.5q0 36 27 74t72.5 74t104 68.5t122.5 57t128.5 38.5t120.5 14q7 0 11 -5.5t4 -11.5zM753 524q7 11 18 11
q9 0 13 -9l-9.5 -9.5t-10.5 -7.5t-6 3t-5 6v6zM792 526q7 11 18 11q9 0 13 -9l-9.5 -9.5t-10.5 -7.5t-6 3t-5 6v6z" />
    <glyph glyph-name="multiply" unicode="&#xd7;" horiz-adv-x="272" 
d="M185 50q-7 0 -16.5 7.5t-19.5 17t-18.5 19.5t-12.5 16q-6 -6 -14 -16.5t-16 -21.5q-9 -12 -18 -27q-5 0 -10.5 6t-5.5 11q0 7 5.5 17t13.5 20t16.5 18.5l13.5 13.5q-6 9 -13.5 22t-7.5 24q0 6 5 6q6 0 10 -5t6.5 -12t4 -14.5t4.5 -11.5q4 4 12 10.5t16.5 13t17 11
t14.5 4.5t10.5 -6.5t4.5 -11.5l-3 -5q-14 -4 -29 -15.5t-26 -21.5l13.5 -13.5t20 -19.5t19 -19t8.5 -12z" />
    <glyph glyph-name="Oslash" unicode="&#xd8;" horiz-adv-x="886" 
d="M603 435q-60 -4 -125 -18.5t-128 -38t-121 -55.5t-104 -71q-14 -12 -29 -26.5t-28 -31.5t-21 -35.5t-8 -37.5q0 -33 29 -54t69 -32.5t81 -15.5t65 -4h29t31 2q16 39 39 83.5t50.5 90.5t58.5 91.5t63 87.5q-48 -11 -95 -25.5t-88 -32.5t-73 -39t-50 -45q-5 -8 -10 -16.5
t-5 -18.5q0 -7 2 -13.5t4 -13.5l-4 -5q-12 5 -18 16.5t-6 24.5q0 21 13.5 39.5t34.5 35t47.5 31t53.5 26t51 20t40 13.5q32 10 64 18.5t64 16.5q48 60 90.5 102t71.5 54q1 0 2.5 0.5t2.5 0.5q7 0 12.5 -7t5.5 -15q0 -2 -7 -7.5t-16 -12t-17 -12t-11 -7.5
q-16 -12 -37.5 -34.5t-46.5 -51.5q37 6 73.5 9.5t74.5 3.5q23 0 53 -3t56.5 -12.5t45 -28t18.5 -49.5q0 -32 -19.5 -62.5t-40.5 -53.5q-45 -48 -107.5 -86t-133 -65.5t-145 -44.5t-143.5 -23q-11 -27 -16.5 -50.5t-5.5 -42.5q0 -3 1 -10.5t1 -14.5q0 -12 -5 -12
q-6 0 -9.5 5.5t-6 13t-3 15t-0.5 12.5q0 33 17 82q-11 -1 -23 -1.5t-23 -0.5q-21 0 -49.5 2.5t-58.5 8t-59.5 15.5t-52.5 25.5t-37 37t-14 50.5q0 36 27 74t72.5 74t104 68.5t122.5 57t128.5 38.5t120.5 14q7 0 11 -5.5t4 -11.5zM603 380q-31 -39 -64 -84t-64 -92t-57.5 -94
t-45.5 -89q51 6 107 18.5t111.5 31t108.5 43t97.5 55.5t78 68.5t50.5 81.5q4 11 4 24q0 21 -17 33t-40.5 18t-47.5 7t-39 1q-34 0 -81 -5.5t-101 -16.5z" />
    <glyph glyph-name="Ugrave" unicode="&#xd9;" horiz-adv-x="949" 
d="M1082 448q6 -2 10.5 -6.5t4.5 -10.5q0 -1 -0.5 -2t-0.5 -2q-41 -56 -84 -108q-20 -24 -44 -57.5t-48.5 -72t-48 -81t-42 -83.5t-29.5 -79t-11 -69q0 -23 9 -34.5t9 -18.5q0 -6 -5 -6q-9 0 -15 8.5t-10 20t-6 23.5t-2 18q0 39 10.5 79.5t28 80.5t39 77t42.5 68
q-44 -40 -103.5 -84t-125.5 -80.5t-134 -60.5t-129 -24q-14 0 -30 3t-29 9.5t-21.5 18t-8.5 29.5q0 23 17 52.5t42.5 62t55 66.5t55 67t42.5 62.5t17 52.5q0 11 -6.5 17.5t-15.5 9.5t-19 4t-18 1q-51 0 -99.5 -14.5t-95.5 -33.5q-24 -10 -64.5 -30t-80 -45.5t-68.5 -55.5
t-29 -59q0 -5 2 -11t3 -11q-3 -5 -6 -5q-5 0 -9 4.5t-6.5 10.5t-3.5 12.5t-1 10.5q0 31 25.5 62t66.5 58.5t91.5 51.5t100 41t93 27t69.5 10q15 0 31.5 -3.5t30 -11.5t22 -21t8.5 -31q0 -24 -17 -54.5t-42.5 -64t-55.5 -68t-55.5 -66.5t-42.5 -60t-17 -48q0 -10 6.5 -15
t16 -7.5t19.5 -3t16 -0.5q37 0 73.5 9t70.5 22q84 32 160.5 78.5t145 104.5t129 124.5t112.5 139.5zM857 469q1 0 -3.5 6.5t-10.5 14.5t-11 16.5t-5 11.5q0 5 4 10t9 5q4 0 9 -6t9.5 -13.5t7.5 -15.5t3 -11q0 -4 -3.5 -11t-8.5 -7z" />
    <glyph glyph-name="Uacute" unicode="&#xda;" horiz-adv-x="949" 
d="M1082 448q6 -2 10.5 -6.5t4.5 -10.5q0 -1 -0.5 -2t-0.5 -2q-41 -56 -84 -108q-20 -24 -44 -57.5t-48.5 -72t-48 -81t-42 -83.5t-29.5 -79t-11 -69q0 -23 9 -34.5t9 -18.5q0 -6 -5 -6q-9 0 -15 8.5t-10 20t-6 23.5t-2 18q0 39 10.5 79.5t28 80.5t39 77t42.5 68
q-44 -40 -103.5 -84t-125.5 -80.5t-134 -60.5t-129 -24q-14 0 -30 3t-29 9.5t-21.5 18t-8.5 29.5q0 23 17 52.5t42.5 62t55 66.5t55 67t42.5 62.5t17 52.5q0 11 -6.5 17.5t-15.5 9.5t-19 4t-18 1q-51 0 -99.5 -14.5t-95.5 -33.5q-24 -10 -64.5 -30t-80 -45.5t-68.5 -55.5
t-29 -59q0 -5 2 -11t3 -11q-3 -5 -6 -5q-5 0 -9 4.5t-6.5 10.5t-3.5 12.5t-1 10.5q0 31 25.5 62t66.5 58.5t91.5 51.5t100 41t93 27t69.5 10q15 0 31.5 -3.5t30 -11.5t22 -21t8.5 -31q0 -24 -17 -54.5t-42.5 -64t-55.5 -68t-55.5 -66.5t-42.5 -60t-17 -48q0 -10 6.5 -15
t16 -7.5t19.5 -3t16 -0.5q37 0 73.5 9t70.5 22q84 32 160.5 78.5t145 104.5t129 124.5t112.5 139.5zM855 477q-5 0 -8.5 4.5t-3.5 9.5q0 4 5 13.5t11.5 18.5t13.5 16t12 7t8.5 -3.5t3.5 -8.5q0 -3 -6 -9l-13.5 -13.5t-13.5 -16t-6 -15.5z" />
    <glyph glyph-name="Ucircumflex" unicode="&#xdb;" horiz-adv-x="949" 
d="M1082 448q6 -2 10.5 -6.5t4.5 -10.5q0 -1 -0.5 -2t-0.5 -2q-41 -56 -84 -108q-20 -24 -44 -57.5t-48.5 -72t-48 -81t-42 -83.5t-29.5 -79t-11 -69q0 -23 9 -34.5t9 -18.5q0 -6 -5 -6q-9 0 -15 8.5t-10 20t-6 23.5t-2 18q0 39 10.5 79.5t28 80.5t39 77t42.5 68
q-44 -40 -103.5 -84t-125.5 -80.5t-134 -60.5t-129 -24q-14 0 -30 3t-29 9.5t-21.5 18t-8.5 29.5q0 23 17 52.5t42.5 62t55 66.5t55 67t42.5 62.5t17 52.5q0 11 -6.5 17.5t-15.5 9.5t-19 4t-18 1q-51 0 -99.5 -14.5t-95.5 -33.5q-24 -10 -64.5 -30t-80 -45.5t-68.5 -55.5
t-29 -59q0 -5 2 -11t3 -11q-3 -5 -6 -5q-5 0 -9 4.5t-6.5 10.5t-3.5 12.5t-1 10.5q0 31 25.5 62t66.5 58.5t91.5 51.5t100 41t93 27t69.5 10q15 0 31.5 -3.5t30 -11.5t22 -21t8.5 -31q0 -24 -17 -54.5t-42.5 -64t-55.5 -68t-55.5 -66.5t-42.5 -60t-17 -48q0 -10 6.5 -15
t16 -7.5t19.5 -3t16 -0.5q37 0 73.5 9t70.5 22q84 32 160.5 78.5t145 104.5t129 124.5t112.5 139.5zM874 494q-5 9 -9 18t-7 19q-19 0 -39.5 -15.5t-32.5 -28.5q-4 0 -6.5 3t-4.5 6q0 8 9.5 17t21.5 17t24.5 13t20.5 5q5 0 11 -6.5t11.5 -15.5t9.5 -18t4 -13t-4 -6z" />
    <glyph glyph-name="Udieresis" unicode="&#xdc;" horiz-adv-x="949" 
d="M1082 448q6 -2 10.5 -6.5t4.5 -10.5q0 -1 -0.5 -2t-0.5 -2q-41 -56 -84 -108q-20 -24 -44 -57.5t-48.5 -72t-48 -81t-42 -83.5t-29.5 -79t-11 -69q0 -23 9 -34.5t9 -18.5q0 -6 -5 -6q-9 0 -15 8.5t-10 20t-6 23.5t-2 18q0 39 10.5 79.5t28 80.5t39 77t42.5 68
q-44 -40 -103.5 -84t-125.5 -80.5t-134 -60.5t-129 -24q-14 0 -30 3t-29 9.5t-21.5 18t-8.5 29.5q0 23 17 52.5t42.5 62t55 66.5t55 67t42.5 62.5t17 52.5q0 11 -6.5 17.5t-15.5 9.5t-19 4t-18 1q-51 0 -99.5 -14.5t-95.5 -33.5q-24 -10 -64.5 -30t-80 -45.5t-68.5 -55.5
t-29 -59q0 -5 2 -11t3 -11q-3 -5 -6 -5q-5 0 -9 4.5t-6.5 10.5t-3.5 12.5t-1 10.5q0 31 25.5 62t66.5 58.5t91.5 51.5t100 41t93 27t69.5 10q15 0 31.5 -3.5t30 -11.5t22 -21t8.5 -31q0 -24 -17 -54.5t-42.5 -64t-55.5 -68t-55.5 -66.5t-42.5 -60t-17 -48q0 -10 6.5 -15
t16 -7.5t19.5 -3t16 -0.5q37 0 73.5 9t70.5 22q84 32 160.5 78.5t145 104.5t129 124.5t112.5 139.5zM818 517q7 11 18 11q9 0 13 -9l-9.5 -9.5t-10.5 -7.5t-6 3t-5 6v6zM857 519q7 11 18 11q9 0 13 -9l-9.5 -9.5t-10.5 -7.5t-6 3t-5 6v6z" />
    <glyph glyph-name="Yacute" unicode="&#xdd;" horiz-adv-x="857" 
d="M885 -126q-4 0 -6 1q-29 10 -52.5 20.5t-46.5 19.5t-48.5 16.5t-57.5 12.5q-38 -52 -87 -106.5t-107 -99t-122.5 -73t-133.5 -28.5q-24 0 -49.5 6.5t-46.5 19.5t-35 33t-14 48q0 42 27.5 75.5t71.5 59t98.5 43.5t109 29.5t103 16.5t80.5 5q23 0 45 -1.5t45 -3.5
q27 38 59.5 91t60.5 111.5t47 116t19 104.5q0 7 -1 13.5t-3 13.5q-13 -37 -51.5 -82t-92.5 -91t-117.5 -89.5t-125.5 -77.5t-118 -54.5t-95 -20.5q-32 0 -55 19.5t-23 52.5q0 27 16.5 58t41.5 63t53.5 63.5t53.5 59.5t41.5 52t16.5 41q0 4 -5 6.5t-11 4t-12.5 1.5h-9.5
q-17 0 -47 -7t-64 -19t-69.5 -28t-64.5 -35t-47 -39.5t-18 -40.5q0 -5 1.5 -8t1.5 -8q0 -6 -5 -6q-11 0 -15.5 12t-4.5 20q0 23 18.5 45t48 42.5t66.5 37.5t72.5 30t67 20t50.5 7q10 0 22 -2.5t22.5 -8t17 -14.5t6.5 -22q0 -19 -16.5 -44t-41.5 -54t-53.5 -60t-53.5 -62
t-41.5 -60.5t-16.5 -54.5q0 -24 14.5 -32t35.5 -8q35 0 91 21.5t119 56.5t127.5 80t118.5 91.5t90.5 91.5t43.5 81l6 5q10 -3 17 -11.5t11 -19.5t6 -22.5t2 -20.5q0 -47 -18 -103t-44.5 -113t-57.5 -109t-58 -90q14 -3 46.5 -11t66.5 -19.5t60.5 -25.5t29.5 -28zM643 -52
q-16 1 -31.5 1.5t-31.5 0.5q-35 0 -84.5 -5t-102.5 -16.5t-105.5 -28.5t-94 -41t-67 -55t-25.5 -70q0 -22 11 -36t28 -22.5t37 -12t37 -3.5q65 0 126.5 26.5t117 68.5t102.5 93t83 100zM559 480q-5 0 -8.5 4.5t-3.5 9.5q0 4 5 13.5t11.5 18.5t13.5 16t12 7t8.5 -3.5
t3.5 -8.5q0 -3 -6 -9l-13.5 -13.5t-13.5 -16t-6 -15.5z" />
    <glyph glyph-name="Thorn" unicode="&#xde;" horiz-adv-x="833" 
 />
    <glyph glyph-name="germandbls" unicode="&#xdf;" horiz-adv-x="833" 
 />
    <glyph glyph-name="agrave" unicode="&#xe0;" horiz-adv-x="337" 
d="M128 114q-16 11 -34 11q-16 0 -38 -11t-43 -27.5t-36 -36t-18 -35.5q6 -2 10 -2q18 0 40.5 11t45 26.5t42 33t31.5 30.5zM129 76q-13 -12 -31.5 -27t-39 -28t-41.5 -22t-39 -9q-12 0 -24.5 7.5t-12.5 21.5q0 21 15 43.5t37 41.5t47 31.5t45 12.5q15 0 29 -6.5t25 -15.5
q7 11 14 21.5t15 21.5q5 -1 10.5 -5.5t5.5 -10.5q0 -14 -6.5 -29t-14.5 -30t-14.5 -30t-6.5 -30q0 -9 5 -12t13 -3q19 0 47 14t55 30.5t48 30.5t27 14q5 0 9.5 -5t4.5 -10q0 -6 -12 -15t-30.5 -19.5t-40.5 -21.5t-42.5 -19.5t-37 -14t-23.5 -5.5q-20 0 -31 14.5t-11 33.5
q0 16 6 30zM146 233q1 0 -3.5 6.5t-10.5 14.5t-11 16.5t-5 11.5q0 5 4 10t9 5q4 0 9 -6t9.5 -13.5t7.5 -15.5t3 -11q0 -4 -3.5 -11t-8.5 -7z" />
    <glyph glyph-name="aacute" unicode="&#xe1;" horiz-adv-x="337" 
d="M128 114q-16 11 -34 11q-16 0 -38 -11t-43 -27.5t-36 -36t-18 -35.5q6 -2 10 -2q18 0 40.5 11t45 26.5t42 33t31.5 30.5zM129 76q-13 -12 -31.5 -27t-39 -28t-41.5 -22t-39 -9q-12 0 -24.5 7.5t-12.5 21.5q0 21 15 43.5t37 41.5t47 31.5t45 12.5q15 0 29 -6.5t25 -15.5
q7 11 14 21.5t15 21.5q5 -1 10.5 -5.5t5.5 -10.5q0 -14 -6.5 -29t-14.5 -30t-14.5 -30t-6.5 -30q0 -9 5 -12t13 -3q19 0 47 14t55 30.5t48 30.5t27 14q5 0 9.5 -5t4.5 -10q0 -6 -12 -15t-30.5 -19.5t-40.5 -21.5t-42.5 -19.5t-37 -14t-23.5 -5.5q-20 0 -31 14.5t-11 33.5
q0 16 6 30zM126 230q-5 0 -8.5 4.5t-3.5 9.5q0 4 5 13.5t11.5 18.5t13.5 16t12 7t8.5 -3.5t3.5 -8.5q0 -3 -6 -9l-13.5 -13.5t-13.5 -16t-6 -15.5z" />
    <glyph glyph-name="acircumflex" unicode="&#xe2;" horiz-adv-x="337" 
d="M128 114q-16 11 -34 11q-16 0 -38 -11t-43 -27.5t-36 -36t-18 -35.5q6 -2 10 -2q18 0 40.5 11t45 26.5t42 33t31.5 30.5zM129 76q-13 -12 -31.5 -27t-39 -28t-41.5 -22t-39 -9q-12 0 -24.5 7.5t-12.5 21.5q0 21 15 43.5t37 41.5t47 31.5t45 12.5q15 0 29 -6.5t25 -15.5
q7 11 14 21.5t15 21.5q5 -1 10.5 -5.5t5.5 -10.5q0 -14 -6.5 -29t-14.5 -30t-14.5 -30t-6.5 -30q0 -9 5 -12t13 -3q19 0 47 14t55 30.5t48 30.5t27 14q5 0 9.5 -5t4.5 -10q0 -6 -12 -15t-30.5 -19.5t-40.5 -21.5t-42.5 -19.5t-37 -14t-23.5 -5.5q-20 0 -31 14.5t-11 33.5
q0 16 6 30zM228 244q-5 9 -9 18t-7 19q-19 0 -39.5 -15.5t-32.5 -28.5q-4 0 -6.5 3t-4.5 6q0 8 9.5 17t21.5 17t24.5 13t20.5 5q5 0 11 -6.5t11.5 -15.5t9.5 -18t4 -13t-4 -6z" />
    <glyph glyph-name="atilde" unicode="&#xe3;" horiz-adv-x="337" 
d="M128 114q-16 11 -34 11q-16 0 -38 -11t-43 -27.5t-36 -36t-18 -35.5q6 -2 10 -2q18 0 40.5 11t45 26.5t42 33t31.5 30.5zM129 76q-13 -12 -31.5 -27t-39 -28t-41.5 -22t-39 -9q-12 0 -24.5 7.5t-12.5 21.5q0 21 15 43.5t37 41.5t47 31.5t45 12.5q15 0 29 -6.5t25 -15.5
q7 11 14 21.5t15 21.5q5 -1 10.5 -5.5t5.5 -10.5q0 -14 -6.5 -29t-14.5 -30t-14.5 -30t-6.5 -30q0 -9 5 -12t13 -3q19 0 47 14t55 30.5t48 30.5t27 14q5 0 9.5 -5t4.5 -10q0 -6 -12 -15t-30.5 -19.5t-40.5 -21.5t-42.5 -19.5t-37 -14t-23.5 -5.5q-20 0 -31 14.5t-11 33.5
q0 16 6 30zM238 297q5 0 8.5 -4.5t3.5 -9.5q0 -9 -7 -17t-17 -13.5t-21 -9t-18 -3.5q-11 0 -19 7.5t-13 17.5q-3 -2 -12 -9.5t-11 -7.5q-3 0 -7 3.5t-4 6.5q0 7 12 17t22 10q6 0 8.5 -4.5t4 -9.5t4 -9.5t9.5 -4.5q17 0 32.5 10t20.5 27z" />
    <glyph glyph-name="adieresis" unicode="&#xe4;" horiz-adv-x="337" 
d="M128 114q-16 11 -34 11q-16 0 -38 -11t-43 -27.5t-36 -36t-18 -35.5q6 -2 10 -2q18 0 40.5 11t45 26.5t42 33t31.5 30.5zM129 76q-13 -12 -31.5 -27t-39 -28t-41.5 -22t-39 -9q-12 0 -24.5 7.5t-12.5 21.5q0 21 15 43.5t37 41.5t47 31.5t45 12.5q15 0 29 -6.5t25 -15.5
q7 11 14 21.5t15 21.5q5 -1 10.5 -5.5t5.5 -10.5q0 -14 -6.5 -29t-14.5 -30t-14.5 -30t-6.5 -30q0 -9 5 -12t13 -3q19 0 47 14t55 30.5t48 30.5t27 14q5 0 9.5 -5t4.5 -10q0 -6 -12 -15t-30.5 -19.5t-40.5 -21.5t-42.5 -19.5t-37 -14t-23.5 -5.5q-20 0 -31 14.5t-11 33.5
q0 16 6 30zM140 265q7 11 18 11q9 0 13 -9l-9.5 -9.5t-10.5 -7.5t-6 3t-5 6v6zM179 267q7 11 18 11q9 0 13 -9l-9.5 -9.5t-10.5 -7.5t-6 3t-5 6v6z" />
    <glyph glyph-name="aring" unicode="&#xe5;" horiz-adv-x="337" 
d="M128 114q-16 11 -34 11q-16 0 -38 -11t-43 -27.5t-36 -36t-18 -35.5q6 -2 10 -2q18 0 40.5 11t45 26.5t42 33t31.5 30.5zM129 76q-13 -12 -31.5 -27t-39 -28t-41.5 -22t-39 -9q-12 0 -24.5 7.5t-12.5 21.5q0 21 15 43.5t37 41.5t47 31.5t45 12.5q15 0 29 -6.5t25 -15.5
q7 11 14 21.5t15 21.5q5 -1 10.5 -5.5t5.5 -10.5q0 -14 -6.5 -29t-14.5 -30t-14.5 -30t-6.5 -30q0 -9 5 -12t13 -3q19 0 47 14t55 30.5t48 30.5t27 14q5 0 9.5 -5t4.5 -10q0 -6 -12 -15t-30.5 -19.5t-40.5 -21.5t-42.5 -19.5t-37 -14t-23.5 -5.5q-20 0 -31 14.5t-11 33.5
q0 16 6 30zM188 295q8 0 13.5 -10t5.5 -17q0 -17 -17.5 -30t-33.5 -13q-14 0 -22 8.5t-8 22.5q0 8 5 15t12.5 12.5t16 8.5t15.5 3q6 0 9 -2zM180 278q-11 -2 -22 -8.5t-16 -17.5v-7q1 0 3 -1t3 -1q14 0 26.5 9t16.5 23q-2 0 -4 1.5t-4 3.5z" />
    <glyph glyph-name="ae" unicode="&#xe6;" horiz-adv-x="494" 
d="M498 109q5 0 11 -4.5t6 -10.5q0 -5 -2 -7q-20 -22 -49 -39.5t-61.5 -29.5t-66 -18t-62.5 -6q-16 0 -35.5 2.5t-37 9t-29 19.5t-11.5 34q0 10 3 21l-12 15q-13 -14 -33 -31.5t-43 -33t-46.5 -26t-42.5 -10.5q-13 0 -24.5 7.5t-11.5 21.5q0 22 16 47t40 46.5t50.5 35.5
t47.5 14q29 0 53 -21q1 1 4 6t6 9.5t6 8.5t5 4q5 0 10.5 -5.5t5.5 -10.5q0 -8 -4 -13.5t-8.5 -11.5t-8.5 -12t-4 -13q0 -4 2 -10q8 14 22 27.5t30.5 24t34.5 16.5t35 6q16 0 29.5 -9t13.5 -26q0 -15 -12 -30t-29.5 -26t-36.5 -18t-32 -7q-11 0 -21.5 2t-20.5 7q-3 -8 -3 -15
q0 -12 9.5 -18.5t23 -9.5t27.5 -4t22 -1q40 0 69.5 6.5t55 18.5t50.5 29t57 38zM149 132q-15 12 -34 12t-42.5 -13t-45.5 -32t-38.5 -41t-20.5 -40q6 -2 10 -2q19 0 43.5 13t49 31t45.5 38t33 34zM317 146q-4 2 -8 2h-8q-15 0 -31 -6t-30.5 -16t-26.5 -22t-20 -24
q9 -3 19 -3q13 0 30 5.5t32.5 15t27.5 22t15 26.5z" />
    <glyph glyph-name="ccedilla" unicode="&#xe7;" horiz-adv-x="319" 
d="M330 89q-32 -27 -73 -48.5t-86 -32.5q2 -3 2 -10v-7q11 0 23.5 -4.5t12.5 -18.5q0 -11 -10.5 -19.5t-25 -14.5t-29.5 -9.5t-24 -3.5q-5 0 -8 5t-3 10l3 2q6 0 20 3t27.5 8t24 12t10.5 15q-2 0 -2.5 0.5t-2.5 0.5q-10 0 -19 -5t-19 -5q-4 0 -8 4t-4 8l2 4q12 7 17 22
q-16 -3 -32 -5t-32 -2t-36 3t-38 11t-30.5 21.5t-12.5 33.5q0 18 15.5 36.5t37.5 34t45.5 25.5t39.5 10q10 0 20.5 -4t17.5 -12q3 3 7.5 6t9.5 3q7 0 11 -6t4 -12q0 -3 -5.5 -7.5t-12 -10t-12 -12t-5.5 -13.5q0 -2 -1 -5t-4 -3q-8 0 -12 6.5t-4 13.5t4 14.5t8 12.5
q-5 6 -13 6q-12 0 -34 -9t-43.5 -23t-37 -30t-15.5 -30q0 -12 10.5 -19t24.5 -11t28.5 -5t23.5 -1q36 0 66 7t57 19t53.5 28t55.5 34l2 1q7 0 10 -5.5t3 -11.5z" />
    <glyph glyph-name="egrave" unicode="&#xe8;" horiz-adv-x="322" 
d="M141 151q-4 1 -11 1q-34 0 -64.5 -19.5t-48.5 -47.5q10 -3 22 -3t28.5 6t32 16t27.5 22.5t14 24.5zM324 109q6 0 10 -4.5t4 -10.5q0 -3 -4.5 -7.5t-10.5 -8.5t-11.5 -7.5t-8.5 -5.5q-46 -30 -98 -48.5t-108 -18.5q-17 0 -36.5 2.5t-36 9.5t-28 20.5t-11.5 34.5
q0 22 13.5 42t34 35t43.5 24t43 9q15 0 28.5 -8t13.5 -25t-12 -32t-29.5 -26t-37 -18t-33.5 -7q-22 0 -39 10q-4 -7 -4 -16q0 -11 10 -17.5t24 -9.5t28 -3.5t22 -0.5q34 0 64.5 7t59 19t55.5 28t55 33zM101 235q1 0 -3.5 6.5t-10.5 14.5t-11 16.5t-5 11.5q0 5 4 10t9 5
q4 0 9 -6t9.5 -13.5t7.5 -15.5t3 -11q0 -4 -3.5 -11t-8.5 -7z" />
    <glyph glyph-name="eacute" unicode="&#xe9;" horiz-adv-x="322" 
d="M141 151q-4 1 -11 1q-34 0 -64.5 -19.5t-48.5 -47.5q10 -3 22 -3t28.5 6t32 16t27.5 22.5t14 24.5zM324 109q6 0 10 -4.5t4 -10.5q0 -3 -4.5 -7.5t-10.5 -8.5t-11.5 -7.5t-8.5 -5.5q-46 -30 -98 -48.5t-108 -18.5q-17 0 -36.5 2.5t-36 9.5t-28 20.5t-11.5 34.5
q0 22 13.5 42t34 35t43.5 24t43 9q15 0 28.5 -8t13.5 -25t-12 -32t-29.5 -26t-37 -18t-33.5 -7q-22 0 -39 10q-4 -7 -4 -16q0 -11 10 -17.5t24 -9.5t28 -3.5t22 -0.5q34 0 64.5 7t59 19t55.5 28t55 33zM105 227q-5 0 -8.5 4.5t-3.5 9.5q0 4 5 13.5t11.5 18.5t13.5 16t12 7
t8.5 -3.5t3.5 -8.5q0 -3 -6 -9l-13.5 -13.5t-13.5 -16t-6 -15.5z" />
    <glyph glyph-name="ecircumflex" unicode="&#xea;" horiz-adv-x="322" 
d="M141 151q-4 1 -11 1q-34 0 -64.5 -19.5t-48.5 -47.5q10 -3 22 -3t28.5 6t32 16t27.5 22.5t14 24.5zM324 109q6 0 10 -4.5t4 -10.5q0 -3 -4.5 -7.5t-10.5 -8.5t-11.5 -7.5t-8.5 -5.5q-46 -30 -98 -48.5t-108 -18.5q-17 0 -36.5 2.5t-36 9.5t-28 20.5t-11.5 34.5
q0 22 13.5 42t34 35t43.5 24t43 9q15 0 28.5 -8t13.5 -25t-12 -32t-29.5 -26t-37 -18t-33.5 -7q-22 0 -39 10q-4 -7 -4 -16q0 -11 10 -17.5t24 -9.5t28 -3.5t22 -0.5q34 0 64.5 7t59 19t55.5 28t55 33zM225 247q-5 9 -9 18t-7 19q-19 0 -39.5 -15.5t-32.5 -28.5q-4 0 -6.5 3
t-4.5 6q0 8 9.5 17t21.5 17t24.5 13t20.5 5q5 0 11 -6.5t11.5 -15.5t9.5 -18t4 -13t-4 -6z" />
    <glyph glyph-name="edieresis" unicode="&#xeb;" horiz-adv-x="322" 
d="M141 151q-4 1 -11 1q-34 0 -64.5 -19.5t-48.5 -47.5q10 -3 22 -3t28.5 6t32 16t27.5 22.5t14 24.5zM324 109q6 0 10 -4.5t4 -10.5q0 -3 -4.5 -7.5t-10.5 -8.5t-11.5 -7.5t-8.5 -5.5q-46 -30 -98 -48.5t-108 -18.5q-17 0 -36.5 2.5t-36 9.5t-28 20.5t-11.5 34.5
q0 22 13.5 42t34 35t43.5 24t43 9q15 0 28.5 -8t13.5 -25t-12 -32t-29.5 -26t-37 -18t-33.5 -7q-22 0 -39 10q-4 -7 -4 -16q0 -11 10 -17.5t24 -9.5t28 -3.5t22 -0.5q34 0 64.5 7t59 19t55.5 28t55 33zM121 270q7 11 18 11q9 0 13 -9l-9.5 -9.5t-10.5 -7.5t-6 3t-5 6v6z
M160 272q7 11 18 11q9 0 13 -9l-9.5 -9.5t-10.5 -7.5t-6 3t-5 6v6z" />
    <glyph glyph-name="igrave" unicode="&#xec;" horiz-adv-x="208" 
d="M223 94q0 -5 -13 -14.5t-33.5 -20t-45 -21.5t-47 -20.5t-40.5 -15t-25 -5.5q-20 0 -31.5 14.5t-11.5 32.5q0 9 8 29t19.5 41t24 36.5t21.5 15.5q6 0 11 -6.5t5 -11.5q0 -2 -11 -14.5t-23.5 -29.5t-23.5 -36.5t-11 -35.5q0 -15 17 -15q21 0 52.5 14.5t62.5 32.5t53.5 32.5
t25.5 14.5q6 0 11 -5.5t5 -11.5zM108 238q1 0 -3.5 6.5t-10.5 14.5t-11 16.5t-5 11.5q0 5 4 10t9 5q4 0 9 -6t9.5 -13.5t7.5 -15.5t3 -11q0 -4 -3.5 -11t-8.5 -7z" />
    <glyph glyph-name="iacute" unicode="&#xed;" horiz-adv-x="208" 
d="M223 94q0 -5 -13 -14.5t-33.5 -20t-45 -21.5t-47 -20.5t-40.5 -15t-25 -5.5q-20 0 -31.5 14.5t-11.5 32.5q0 9 8 29t19.5 41t24 36.5t21.5 15.5q6 0 11 -6.5t5 -11.5q0 -2 -11 -14.5t-23.5 -29.5t-23.5 -36.5t-11 -35.5q0 -15 17 -15q21 0 52.5 14.5t62.5 32.5t53.5 32.5
t25.5 14.5q6 0 11 -5.5t5 -11.5zM23 225q-5 0 -8.5 4.5t-3.5 9.5q0 4 5 13.5t11.5 18.5t13.5 16t12 7t8.5 -3.5t3.5 -8.5q0 -3 -6 -9l-13.5 -13.5t-13.5 -16t-6 -15.5z" />
    <glyph glyph-name="icircumflex" unicode="&#xee;" horiz-adv-x="208" 
d="M223 94q0 -5 -13 -14.5t-33.5 -20t-45 -21.5t-47 -20.5t-40.5 -15t-25 -5.5q-20 0 -31.5 14.5t-11.5 32.5q0 9 8 29t19.5 41t24 36.5t21.5 15.5q6 0 11 -6.5t5 -11.5q0 -2 -11 -14.5t-23.5 -29.5t-23.5 -36.5t-11 -35.5q0 -15 17 -15q21 0 52.5 14.5t62.5 32.5t53.5 32.5
t25.5 14.5q6 0 11 -5.5t5 -11.5zM121 250q-5 9 -9 18t-7 19q-19 0 -39.5 -15.5t-32.5 -28.5q-4 0 -6.5 3t-4.5 6q0 8 9.5 17t21.5 17t24.5 13t20.5 5q5 0 11 -6.5t11.5 -15.5t9.5 -18t4 -13t-4 -6z" />
    <glyph glyph-name="idieresis" unicode="&#xef;" horiz-adv-x="208" 
d="M223 94q0 -5 -13 -14.5t-33.5 -20t-45 -21.5t-47 -20.5t-40.5 -15t-25 -5.5q-20 0 -31.5 14.5t-11.5 32.5q0 9 8 29t19.5 41t24 36.5t21.5 15.5q6 0 11 -6.5t5 -11.5q0 -2 -11 -14.5t-23.5 -29.5t-23.5 -36.5t-11 -35.5q0 -15 17 -15q21 0 52.5 14.5t62.5 32.5t53.5 32.5
t25.5 14.5q6 0 11 -5.5t5 -11.5zM54 275q7 11 18 11q9 0 13 -9l-9.5 -9.5t-10.5 -7.5t-6 3t-5 6v6zM93 277q7 11 18 11q9 0 13 -9l-9.5 -9.5t-10.5 -7.5t-6 3t-5 6v6z" />
    <glyph glyph-name="ntilde" unicode="&#xf1;" horiz-adv-x="320" 
d="M-19 2q-8 0 -11.5 8.5t-3.5 14.5q0 13 8.5 34.5t21.5 43.5t28 39.5t27 21.5q6 -1 11 -6t5 -11q0 -3 -7 -11t-16 -18.5l-18 -21t-13 -16.5q10 9 23.5 21t28.5 22.5t30.5 17.5t29.5 7q16 0 27.5 -12.5t11.5 -28.5q0 -10 -3.5 -20.5t-8 -20t-8 -18.5t-3.5 -17t5.5 -9.5
t11.5 -1.5q17 0 39.5 9.5t45 23.5t43 28.5t33.5 25.5q1 0 1.5 0.5t1.5 0.5q5 0 10.5 -4.5t5.5 -9.5q0 -2 -0.5 -3t-0.5 -3q-14 -12 -35.5 -27.5t-45.5 -30t-47.5 -24t-42.5 -9.5q-18 0 -32.5 10.5t-14.5 30.5q0 10 3.5 20.5t8 21t8.5 20t4 17.5t-9 8q-16 0 -38.5 -13.5
t-44.5 -32.5t-40 -39.5t-24 -34.5zM222 297q5 0 8.5 -4.5t3.5 -9.5q0 -9 -7 -17t-17 -13.5t-21 -9t-18 -3.5q-11 0 -19 7.5t-13 17.5q-3 -2 -12 -9.5t-11 -7.5q-3 0 -7 3.5t-4 6.5q0 7 12 17t22 10q6 0 8.5 -4.5t4 -9.5t4 -9.5t9.5 -4.5q17 0 32.5 10t20.5 27z" />
    <glyph glyph-name="ograve" unicode="&#xf2;" 
d="M105 147q15 -2 27 -20.5t13 -32.5q19 -13 45 -13q37 0 63 26q1 0 1.5 0.5t1.5 0.5q5 0 10.5 -4.5t5.5 -9.5q0 -10 -9.5 -16.5t-22.5 -11t-26.5 -6.5t-20.5 -2q-27 0 -54 11q-6 -14 -19 -27t-29 -23t-33.5 -16.5t-32.5 -6.5q-22 0 -38.5 13t-16.5 36q0 21 15.5 44.5t38 43
t48 32.5t45.5 13q16 0 16 -16q0 -4 -5 -6zM118 81q-10 8 -16.5 18t-6.5 23q0 5 0.5 11.5t4.5 11.5q-18 -8 -37.5 -18.5t-35.5 -24.5t-26 -30.5t-10 -36.5q0 -17 19 -17q14 0 30 5t31.5 14t28 20.5t18.5 23.5zM107 238q1 0 -3.5 6.5t-10.5 14.5t-11 16.5t-5 11.5q0 5 4 10
t9 5q4 0 9 -6t9.5 -13.5t7.5 -15.5t3 -11q0 -4 -3.5 -11t-8.5 -7z" />
    <glyph glyph-name="oacute" unicode="&#xf3;" 
d="M105 147q15 -2 27 -20.5t13 -32.5q19 -13 45 -13q37 0 63 26q1 0 1.5 0.5t1.5 0.5q5 0 10.5 -4.5t5.5 -9.5q0 -10 -9.5 -16.5t-22.5 -11t-26.5 -6.5t-20.5 -2q-27 0 -54 11q-6 -14 -19 -27t-29 -23t-33.5 -16.5t-32.5 -6.5q-22 0 -38.5 13t-16.5 36q0 21 15.5 44.5t38 43
t48 32.5t45.5 13q16 0 16 -16q0 -4 -5 -6zM118 81q-10 8 -16.5 18t-6.5 23q0 5 0.5 11.5t4.5 11.5q-18 -8 -37.5 -18.5t-35.5 -24.5t-26 -30.5t-10 -36.5q0 -17 19 -17q14 0 30 5t31.5 14t28 20.5t18.5 23.5zM118 227q-5 0 -8.5 4.5t-3.5 9.5q0 4 5 13.5t11.5 18.5t13.5 16
t12 7t8.5 -3.5t3.5 -8.5q0 -3 -6 -9l-13.5 -13.5t-13.5 -16t-6 -15.5z" />
    <glyph glyph-name="ocircumflex" unicode="&#xf4;" 
d="M105 147q15 -2 27 -20.5t13 -32.5q19 -13 45 -13q37 0 63 26q1 0 1.5 0.5t1.5 0.5q5 0 10.5 -4.5t5.5 -9.5q0 -10 -9.5 -16.5t-22.5 -11t-26.5 -6.5t-20.5 -2q-27 0 -54 11q-6 -14 -19 -27t-29 -23t-33.5 -16.5t-32.5 -6.5q-22 0 -38.5 13t-16.5 36q0 21 15.5 44.5t38 43
t48 32.5t45.5 13q16 0 16 -16q0 -4 -5 -6zM118 81q-10 8 -16.5 18t-6.5 23q0 5 0.5 11.5t4.5 11.5q-18 -8 -37.5 -18.5t-35.5 -24.5t-26 -30.5t-10 -36.5q0 -17 19 -17q14 0 30 5t31.5 14t28 20.5t18.5 23.5zM174 243q-5 9 -9 18t-7 19q-19 0 -39.5 -15.5t-32.5 -28.5
q-4 0 -6.5 3t-4.5 6q0 8 9.5 17t21.5 17t24.5 13t20.5 5q5 0 11 -6.5t11.5 -15.5t9.5 -18t4 -13t-4 -6z" />
    <glyph glyph-name="otilde" unicode="&#xf5;" 
d="M105 147q15 -2 27 -20.5t13 -32.5q19 -13 45 -13q37 0 63 26q1 0 1.5 0.5t1.5 0.5q5 0 10.5 -4.5t5.5 -9.5q0 -10 -9.5 -16.5t-22.5 -11t-26.5 -6.5t-20.5 -2q-27 0 -54 11q-6 -14 -19 -27t-29 -23t-33.5 -16.5t-32.5 -6.5q-22 0 -38.5 13t-16.5 36q0 21 15.5 44.5t38 43
t48 32.5t45.5 13q16 0 16 -16q0 -4 -5 -6zM118 81q-10 8 -16.5 18t-6.5 23q0 5 0.5 11.5t4.5 11.5q-18 -8 -37.5 -18.5t-35.5 -24.5t-26 -30.5t-10 -36.5q0 -17 19 -17q14 0 30 5t31.5 14t28 20.5t18.5 23.5zM203 294q5 0 8.5 -4.5t3.5 -9.5q0 -9 -7 -17t-17 -13.5t-21 -9
t-18 -3.5q-11 0 -19 7.5t-13 17.5q-3 -2 -12 -9.5t-11 -7.5q-3 0 -7 3.5t-4 6.5q0 7 12 17t22 10q6 0 8.5 -4.5t4 -9.5t4 -9.5t9.5 -4.5q17 0 32.5 10t20.5 27z" />
    <glyph glyph-name="odieresis" unicode="&#xf6;" 
d="M105 147q15 -2 27 -20.5t13 -32.5q19 -13 45 -13q37 0 63 26q1 0 1.5 0.5t1.5 0.5q5 0 10.5 -4.5t5.5 -9.5q0 -10 -9.5 -16.5t-22.5 -11t-26.5 -6.5t-20.5 -2q-27 0 -54 11q-6 -14 -19 -27t-29 -23t-33.5 -16.5t-32.5 -6.5q-22 0 -38.5 13t-16.5 36q0 21 15.5 44.5t38 43
t48 32.5t45.5 13q16 0 16 -16q0 -4 -5 -6zM118 81q-10 8 -16.5 18t-6.5 23q0 5 0.5 11.5t4.5 11.5q-18 -8 -37.5 -18.5t-35.5 -24.5t-26 -30.5t-10 -36.5q0 -17 19 -17q14 0 30 5t31.5 14t28 20.5t18.5 23.5zM100 272q7 11 18 11q9 0 13 -9l-9.5 -9.5t-10.5 -7.5t-6 3t-5 6
v6zM139 274q7 11 18 11q9 0 13 -9l-9.5 -9.5t-10.5 -7.5t-6 3t-5 6v6z" />
    <glyph glyph-name="divide" unicode="&#xf7;" horiz-adv-x="172" 
d="M75 132q-7 7 -7 15q0 4 4 12t9 16t11 14t10 6q5 0 10.5 -5.5t5.5 -10.5q-3 -11 -14.5 -19.5t-15.5 -28.5q6 0 16 -1t20 -3.5t17.5 -7.5t7.5 -13q0 -7 -6 -7q-17 7 -33 8.5t-35 1.5q-17 0 -34.5 -2t-34.5 -2q-5 0 -10 6t-5 11q0 4 9 6t20.5 3t22.5 1h14h18zM102 73
q-3 -1 -8 -6t-9.5 -11t-8.5 -10.5t-5 -4.5q-5 0 -10 6.5t-5 11.5q0 3 4 9t9.5 12.5t11 11t8.5 4.5q6 0 11 -6.5t5 -11.5z" />
    <glyph glyph-name="oslash" unicode="&#xf8;" 
d="M139 69q-6 -13 -17.5 -25t-26 -22t-30.5 -17t-31 -8q-10 -21 -15.5 -41t-5.5 -38q0 -2 1 -8t1 -11q0 -9 -5 -9q-11 0 -14.5 13.5t-3.5 21.5q0 16 4.5 34.5t12.5 38.5q-16 3 -27.5 15t-11.5 32q0 21 15.5 44.5t38 43t48 32.5t45.5 13q6 0 12 -6q26 27 52.5 46.5t49.5 27.5
q1 0 2.5 0.5t2.5 0.5q7 0 11.5 -5.5t5.5 -11.5q-18 -8 -35.5 -16t-32.5 -21q-13 -11 -28 -26t-31 -33q8 -9 13 -20.5t6 -19.5q19 -13 45 -13q37 0 63 26q1 0 1.5 0.5t1.5 0.5q5 0 10.5 -4.5t5.5 -9.5q0 -10 -9.5 -16.5t-22.5 -11t-26.5 -6.5t-20.5 -2q-27 0 -54 11zM19 18
q29 60 77 117q1 2 1.5 5t2.5 5q-18 -8 -37.5 -18.5t-35.5 -24.5t-26 -30.5t-10 -36.5q0 -17 19 -17h9zM118 81q-12 7 -18 20q-30 -38 -50 -75q21 9 40 23.5t28 31.5zM106 147h-1q1 0 2 1z" />
    <glyph glyph-name="ugrave" unicode="&#xf9;" horiz-adv-x="348" 
d="M362 90q-16 -11 -39.5 -26.5t-49 -29.5t-50.5 -23.5t-45 -9.5t-31.5 13.5t-11.5 33.5q0 5 1 11t3 11q-10 -10 -25 -23.5t-31.5 -25.5t-34 -20.5t-32.5 -8.5q-20 0 -30.5 14.5t-10.5 32.5q0 26 15.5 54t32.5 48l4 2q6 -1 10.5 -6t5.5 -11q-3 -12 -11 -22t-16 -21
t-14.5 -24.5t-6.5 -31.5q0 -5 1.5 -9t7.5 -4q21 0 47.5 17t51.5 41.5t45 51t28 44.5l5 3q6 -1 11 -6.5t5 -11.5q0 -10 -6.5 -24t-14 -30t-14 -32.5t-6.5 -30.5q0 -15 16 -15q19 0 48 14t56.5 30.5t48 30.5t23.5 14q6 0 10.5 -5.5t5.5 -10.5zM170 235q1 0 -3.5 6.5
t-10.5 14.5t-11 16.5t-5 11.5q0 5 4 10t9 5q4 0 9 -6t9.5 -13.5t7.5 -15.5t3 -11q0 -4 -3.5 -11t-8.5 -7z" />
    <glyph glyph-name="uacute" unicode="&#xfa;" horiz-adv-x="348" 
d="M362 90q-16 -11 -39.5 -26.5t-49 -29.5t-50.5 -23.5t-45 -9.5t-31.5 13.5t-11.5 33.5q0 5 1 11t3 11q-10 -10 -25 -23.5t-31.5 -25.5t-34 -20.5t-32.5 -8.5q-20 0 -30.5 14.5t-10.5 32.5q0 26 15.5 54t32.5 48l4 2q6 -1 10.5 -6t5.5 -11q-3 -12 -11 -22t-16 -21
t-14.5 -24.5t-6.5 -31.5q0 -5 1.5 -9t7.5 -4q21 0 47.5 17t51.5 41.5t45 51t28 44.5l5 3q6 -1 11 -6.5t5 -11.5q0 -10 -6.5 -24t-14 -30t-14 -32.5t-6.5 -30.5q0 -15 16 -15q19 0 48 14t56.5 30.5t48 30.5t23.5 14q6 0 10.5 -5.5t5.5 -10.5zM105 227q-5 0 -8.5 4.5t-3.5 9.5
q0 4 5 13.5t11.5 18.5t13.5 16t12 7t8.5 -3.5t3.5 -8.5q0 -3 -6 -9l-13.5 -13.5t-13.5 -16t-6 -15.5z" />
    <glyph glyph-name="ucircumflex" unicode="&#xfb;" horiz-adv-x="348" 
d="M362 90q-16 -11 -39.5 -26.5t-49 -29.5t-50.5 -23.5t-45 -9.5t-31.5 13.5t-11.5 33.5q0 5 1 11t3 11q-10 -10 -25 -23.5t-31.5 -25.5t-34 -20.5t-32.5 -8.5q-20 0 -30.5 14.5t-10.5 32.5q0 26 15.5 54t32.5 48l4 2q6 -1 10.5 -6t5.5 -11q-3 -12 -11 -22t-16 -21
t-14.5 -24.5t-6.5 -31.5q0 -5 1.5 -9t7.5 -4q21 0 47.5 17t51.5 41.5t45 51t28 44.5l5 3q6 -1 11 -6.5t5 -11.5q0 -10 -6.5 -24t-14 -30t-14 -32.5t-6.5 -30.5q0 -15 16 -15q19 0 48 14t56.5 30.5t48 30.5t23.5 14q6 0 10.5 -5.5t5.5 -10.5zM210 247q-5 9 -9 18t-7 19
q-19 0 -39.5 -15.5t-32.5 -28.5q-4 0 -6.5 3t-4.5 6q0 8 9.5 17t21.5 17t24.5 13t20.5 5q5 0 11 -6.5t11.5 -15.5t9.5 -18t4 -13t-4 -6z" />
    <glyph glyph-name="udieresis" unicode="&#xfc;" horiz-adv-x="348" 
d="M362 90q-16 -11 -39.5 -26.5t-49 -29.5t-50.5 -23.5t-45 -9.5t-31.5 13.5t-11.5 33.5q0 5 1 11t3 11q-10 -10 -25 -23.5t-31.5 -25.5t-34 -20.5t-32.5 -8.5q-20 0 -30.5 14.5t-10.5 32.5q0 26 15.5 54t32.5 48l4 2q6 -1 10.5 -6t5.5 -11q-3 -12 -11 -22t-16 -21
t-14.5 -24.5t-6.5 -31.5q0 -5 1.5 -9t7.5 -4q21 0 47.5 17t51.5 41.5t45 51t28 44.5l5 3q6 -1 11 -6.5t5 -11.5q0 -10 -6.5 -24t-14 -30t-14 -32.5t-6.5 -30.5q0 -15 16 -15q19 0 48 14t56.5 30.5t48 30.5t23.5 14q6 0 10.5 -5.5t5.5 -10.5zM126 275q7 11 18 11q9 0 13 -9
l-9.5 -9.5t-10.5 -7.5t-6 3t-5 6v6zM165 277q7 11 18 11q9 0 13 -9l-9.5 -9.5t-10.5 -7.5t-6 3t-5 6v6z" />
    <glyph glyph-name="yacute" unicode="&#xfd;" horiz-adv-x="249" 
d="M76 -69q-14 -30 -32.5 -66.5t-41.5 -73.5t-50.5 -71.5t-58.5 -61.5t-66.5 -43t-73.5 -16q-35 0 -61 22t-26 59q0 20 6 38.5t17 35.5q30 48 71.5 82t90 58t101.5 38t106 21q10 22 20.5 43.5t21.5 42.5q-17 -14 -43.5 -29.5t-48.5 -15.5q-17 0 -27 14.5t-10 29.5
q0 10 8.5 30t21 39t26.5 33.5t25 14.5q7 0 12 -5t5 -12q-11 -12 -24.5 -24t-25 -25.5t-19.5 -29t-8 -33.5q0 -13 12 -13q17 0 43 17t53 40t51 46.5t38 35.5q1 0 2 0.5t2 0.5q5 0 10 -5.5t5 -10.5q0 -2 -0.5 -2.5t-0.5 -2.5q-39 -38 -68 -82t-52 -93q29 3 58 5.5t58 2.5
q22 0 54.5 -1.5t62 -5t50.5 -10.5t21 -17q0 -6 -7 -6q-13 0 -28 3.5t-28 5.5q-28 4 -56 5.5t-57 1.5q-35 0 -69.5 -2.5t-69.5 -7.5zM46 -74q-47 -8 -96.5 -22.5t-95 -37.5t-83.5 -55.5t-63 -75.5q-8 -15 -15 -31.5t-7 -33.5q0 -26 17 -37t40 -11q35 0 67.5 15t61.5 39.5
t55.5 56.5t48.5 65.5t39.5 66.5t30.5 61zM170 225q-5 0 -8.5 4.5t-3.5 9.5q0 4 5 13.5t11.5 18.5t13.5 16t12 7t8.5 -3.5t3.5 -8.5q0 -3 -6 -9l-13.5 -13.5t-13.5 -16t-6 -15.5z" />
    <glyph glyph-name="ydieresis" unicode="&#xff;" horiz-adv-x="249" 
d="M76 -69q-14 -30 -32.5 -66.5t-41.5 -73.5t-50.5 -71.5t-58.5 -61.5t-66.5 -43t-73.5 -16q-35 0 -61 22t-26 59q0 20 6 38.5t17 35.5q30 48 71.5 82t90 58t101.5 38t106 21q10 22 20.5 43.5t21.5 42.5q-17 -14 -43.5 -29.5t-48.5 -15.5q-17 0 -27 14.5t-10 29.5
q0 10 8.5 30t21 39t26.5 33.5t25 14.5q7 0 12 -5t5 -12q-11 -12 -24.5 -24t-25 -25.5t-19.5 -29t-8 -33.5q0 -13 12 -13q17 0 43 17t53 40t51 46.5t38 35.5q1 0 2 0.5t2 0.5q5 0 10 -5.5t5 -10.5q0 -2 -0.5 -2.5t-0.5 -2.5q-39 -38 -68 -82t-52 -93q29 3 58 5.5t58 2.5
q22 0 54.5 -1.5t62 -5t50.5 -10.5t21 -17q0 -6 -7 -6q-13 0 -28 3.5t-28 5.5q-28 4 -56 5.5t-57 1.5q-35 0 -69.5 -2.5t-69.5 -7.5zM46 -74q-47 -8 -96.5 -22.5t-95 -37.5t-83.5 -55.5t-63 -75.5q-8 -15 -15 -31.5t-7 -33.5q0 -26 17 -37t40 -11q35 0 67.5 15t61.5 39.5
t55.5 56.5t48.5 65.5t39.5 66.5t30.5 61zM132 273q7 11 18 11q9 0 13 -9l-9.5 -9.5t-10.5 -7.5t-6 3t-5 6v6zM171 275q7 11 18 11q9 0 13 -9l-9.5 -9.5t-10.5 -7.5t-6 3t-5 6v6z" />
    <glyph glyph-name="Amacron" unicode="&#x100;" horiz-adv-x="987" 
d="M927 90q-10 0 -19.5 11t-15.5 19q-11 -49 -18 -98t-7 -99q0 -27 3 -55t12 -54q2 -5 7.5 -16.5t5.5 -14.5q0 -6 -8 -6q-14 8 -22 27.5t-12 42t-5.5 45t-1.5 37.5q0 53 7.5 105t19.5 103q-19 16 -39.5 28t-42.5 22q-56 -44 -111 -79.5t-114 -61t-123 -39.5t-136 -14
q-19 0 -47.5 2.5t-60.5 8.5t-63.5 15.5t-57 24t-41.5 34.5t-16 46q0 30 25.5 52.5t66 38.5t90 26t97 16t87.5 8.5t62 2.5q83 0 168 -12.5t162 -44.5q35 29 68 59.5t62 65.5q2 2 7.5 9.5t11.5 15.5t11 14.5t6 6.5q5 0 8.5 -3.5t5.5 -7.5q4 7 12.5 19.5t18.5 25.5t20.5 22.5
t18.5 9.5q5 0 9 -6t5 -11l-3 -5q-27 -16 -50 -52t-41.5 -78.5t-32 -85.5t-20.5 -72l8.5 -8.5t10.5 -11.5t9.5 -12.5t5.5 -10.5zM762 198q-72 26 -148.5 36.5t-152.5 10.5q-26 0 -61.5 -2t-75 -6t-80.5 -12t-77.5 -19t-66 -27t-46.5 -37q-12 -14 -12 -29q0 -20 15.5 -34.5
t39.5 -25.5t53.5 -18t58.5 -11t54 -5.5t39 -1.5q70 0 130 13.5t115 37.5t107.5 57t107.5 73zM938 329q-27 -38 -61 -69t-70 -60q36 -19 70 -45q11 45 26 88.5t35 85.5zM862 540q25 3 50 3q5 0 15 -0.5t20 -2t17.5 -5.5t7.5 -11t-7 -7q-9 0 -18.5 2t-18.5 2q-14 0 -27.5 -2
t-27.5 -2q-5 0 -10 6t-5 11z" />
    <glyph glyph-name="amacron" unicode="&#x101;" horiz-adv-x="337" 
d="M128 114q-16 11 -34 11q-16 0 -38 -11t-43 -27.5t-36 -36t-18 -35.5q6 -2 10 -2q18 0 40.5 11t45 26.5t42 33t31.5 30.5zM129 76q-13 -12 -31.5 -27t-39 -28t-41.5 -22t-39 -9q-12 0 -24.5 7.5t-12.5 21.5q0 21 15 43.5t37 41.5t47 31.5t45 12.5q15 0 29 -6.5t25 -15.5
q7 11 14 21.5t15 21.5q5 -1 10.5 -5.5t5.5 -10.5q0 -14 -6.5 -29t-14.5 -30t-14.5 -30t-6.5 -30q0 -9 5 -12t13 -3q19 0 47 14t55 30.5t48 30.5t27 14q5 0 9.5 -5t4.5 -10q0 -6 -12 -15t-30.5 -19.5t-40.5 -21.5t-42.5 -19.5t-37 -14t-23.5 -5.5q-20 0 -31 14.5t-11 33.5
q0 16 6 30zM113 270q25 3 50 3q5 0 15 -0.5t20 -2t17.5 -5.5t7.5 -11t-7 -7q-9 0 -18.5 2t-18.5 2q-14 0 -27.5 -2t-27.5 -2q-5 0 -10 6t-5 11z" />
    <glyph glyph-name="Abreve" unicode="&#x102;" horiz-adv-x="987" 
d="M927 90q-10 0 -19.5 11t-15.5 19q-11 -49 -18 -98t-7 -99q0 -27 3 -55t12 -54q2 -5 7.5 -16.5t5.5 -14.5q0 -6 -8 -6q-14 8 -22 27.5t-12 42t-5.5 45t-1.5 37.5q0 53 7.5 105t19.5 103q-19 16 -39.5 28t-42.5 22q-56 -44 -111 -79.5t-114 -61t-123 -39.5t-136 -14
q-19 0 -47.5 2.5t-60.5 8.5t-63.5 15.5t-57 24t-41.5 34.5t-16 46q0 30 25.5 52.5t66 38.5t90 26t97 16t87.5 8.5t62 2.5q83 0 168 -12.5t162 -44.5q35 29 68 59.5t62 65.5q2 2 7.5 9.5t11.5 15.5t11 14.5t6 6.5q5 0 8.5 -3.5t5.5 -7.5q4 7 12.5 19.5t18.5 25.5t20.5 22.5
t18.5 9.5q5 0 9 -6t5 -11l-3 -5q-27 -16 -50 -52t-41.5 -78.5t-32 -85.5t-20.5 -72l8.5 -8.5t10.5 -11.5t9.5 -12.5t5.5 -10.5zM762 198q-72 26 -148.5 36.5t-152.5 10.5q-26 0 -61.5 -2t-75 -6t-80.5 -12t-77.5 -19t-66 -27t-46.5 -37q-12 -14 -12 -29q0 -20 15.5 -34.5
t39.5 -25.5t53.5 -18t58.5 -11t54 -5.5t39 -1.5q70 0 130 13.5t115 37.5t107.5 57t107.5 73zM938 329q-27 -38 -61 -69t-70 -60q36 -19 70 -45q11 45 26 88.5t35 85.5zM1018 558q5 0 7.5 -3.5t2.5 -7.5q0 -5 -7.5 -11.5t-17.5 -13t-20 -11t-14 -4.5q-11 0 -21.5 8t-10.5 19
q0 5 5.5 16t11.5 11q3 0 7.5 -3.5t4.5 -6.5q0 -4 -7 -10t-7 -14q0 -5 7 -5q13 0 31 13.5t28 22.5z" />
    <glyph glyph-name="abreve" unicode="&#x103;" horiz-adv-x="337" 
d="M128 114q-16 11 -34 11q-16 0 -38 -11t-43 -27.5t-36 -36t-18 -35.5q6 -2 10 -2q18 0 40.5 11t45 26.5t42 33t31.5 30.5zM129 76q-13 -12 -31.5 -27t-39 -28t-41.5 -22t-39 -9q-12 0 -24.5 7.5t-12.5 21.5q0 21 15 43.5t37 41.5t47 31.5t45 12.5q15 0 29 -6.5t25 -15.5
q7 11 14 21.5t15 21.5q5 -1 10.5 -5.5t5.5 -10.5q0 -14 -6.5 -29t-14.5 -30t-14.5 -30t-6.5 -30q0 -9 5 -12t13 -3q19 0 47 14t55 30.5t48 30.5t27 14q5 0 9.5 -5t4.5 -10q0 -6 -12 -15t-30.5 -19.5t-40.5 -21.5t-42.5 -19.5t-37 -14t-23.5 -5.5q-20 0 -31 14.5t-11 33.5
q0 16 6 30zM232 286q5 0 7.5 -3.5t2.5 -7.5q0 -5 -7.5 -11.5t-17.5 -13t-20 -11t-14 -4.5q-11 0 -21.5 8t-10.5 19q0 5 5.5 16t11.5 11q3 0 7.5 -3.5t4.5 -6.5q0 -4 -7 -10t-7 -14q0 -5 7 -5q13 0 31 13.5t28 22.5z" />
    <glyph glyph-name="Aogonek" unicode="&#x104;" horiz-adv-x="987" 
d="M939 -243q-17 -14 -41.5 -21.5t-45.5 -7.5q-11 0 -22 5t-11 18q0 7 5.5 14t13.5 13t17 10t17 5q-9 13 -14 31t-7.5 37.5t-3.5 37.5t-1 30q0 53 7.5 105t19.5 103q-19 16 -39.5 28t-42.5 22q-56 -44 -111 -79.5t-114 -61t-123 -39.5t-136 -14q-19 0 -47.5 2.5t-60.5 8.5
t-63.5 15.5t-57 24t-41.5 34.5t-16 46q0 30 25.5 52.5t66 38.5t90 26t97 16t87.5 8.5t62 2.5q83 0 168 -12.5t162 -44.5q35 29 68 59.5t62 65.5q2 2 7.5 9.5t11.5 15.5t11 14.5t6 6.5q5 0 8.5 -3.5t5.5 -7.5q4 7 12.5 19.5t18.5 25.5t20.5 22.5t18.5 9.5q5 0 9 -6t5 -11
l-3 -5q-27 -16 -50 -52t-41.5 -78.5t-32 -85.5t-20.5 -72l8.5 -8.5t10.5 -11.5t9.5 -12.5t5.5 -10.5l-3 -5q-10 0 -19.5 11t-15.5 19q-11 -49 -18 -98t-7 -99q0 -27 3 -55t12 -54q2 -5 7.5 -16.5t5.5 -14.5q0 -6 -8 -6q-1 0 -1 1l-1 -1q-13 -1 -28 -10.5t-22 -20.5
q4 -1 11 -1q26 0 43 9t39 19q5 0 7.5 -3.5t4.5 -7.5zM762 198q-72 26 -148.5 36.5t-152.5 10.5q-26 0 -61.5 -2t-75 -6t-80.5 -12t-77.5 -19t-66 -27t-46.5 -37q-12 -14 -12 -29q0 -20 15.5 -34.5t39.5 -25.5t53.5 -18t58.5 -11t54 -5.5t39 -1.5q70 0 130 13.5t115 37.5
t107.5 57t107.5 73zM938 329q-27 -38 -61 -69t-70 -60q36 -19 70 -45q11 45 26 88.5t35 85.5z" />
    <glyph glyph-name="aogonek" unicode="&#x105;" horiz-adv-x="337" 
d="M223 -24q-17 -14 -41.5 -21.5t-45.5 -7.5q-11 0 -22 5t-11 18q0 11 11.5 21t24.5 15q-8 7 -12 17.5t-4 22.5q0 16 6 30q-13 -12 -31.5 -27t-39 -28t-41.5 -22t-39 -9q-12 0 -24.5 7.5t-12.5 21.5q0 21 15 43.5t37 41.5t47 31.5t45 12.5q15 0 29 -6.5t25 -15.5
q7 11 14 21.5t15 21.5q5 -1 10.5 -5.5t5.5 -10.5q0 -14 -6.5 -29t-14.5 -30t-14.5 -30t-6.5 -30q0 -9 5 -12t13 -3q19 0 47 14t55 30.5t48 30.5t27 14q5 0 9.5 -5t4.5 -10q0 -8 -22 -22.5t-51.5 -29.5t-59 -27t-45.5 -15v-1l-4 -2q-13 -1 -28 -10.5t-22 -20.5q4 -1 11 -1
q26 0 43 9t39 19q5 0 7.5 -3.5t4.5 -7.5zM128 114q-16 11 -34 11q-16 0 -38 -11t-43 -27.5t-36 -36t-18 -35.5q6 -2 10 -2q18 0 40.5 11t45 26.5t42 33t31.5 30.5z" />
    <glyph glyph-name="Cacute" unicode="&#x106;" horiz-adv-x="828" 
d="M931 -101q-25 -15 -64 -27.5t-85 -22.5t-96.5 -17.5t-98.5 -12.5t-90 -7.5t-72 -2.5q-33 0 -76 2.5t-88.5 10.5t-89.5 22t-78.5 36.5t-55.5 55.5t-21 78q0 35 13.5 69.5t34.5 65.5t47.5 58.5t52.5 48.5q115 94 257 143t290 49q14 0 36.5 -0.5t48 -3t51 -8t46.5 -15
t34 -23.5t13 -34q0 -15 -10 -29.5t-24.5 -26.5t-30.5 -21.5t-28 -15.5q-29 -16 -65.5 -31.5t-75 -27.5t-77 -19.5t-71.5 -7.5q-14 0 -27.5 1.5t-25.5 6.5t-21 15.5t-13 27.5q2 5 5 5q10 0 14.5 -10t11.5 -15q8 -5 22 -6.5t22 -1.5q32 0 70 7.5t77 19.5t75 27t64 30
q9 5 24 14t29 20.5t24 24t10 24.5q0 11 -12.5 19.5t-31.5 14t-42.5 9t-45.5 5.5t-40 2.5t-26 0.5q-146 0 -286.5 -49t-253.5 -142q-25 -20 -50.5 -46t-46.5 -56t-34 -63t-13 -67q0 -39 20.5 -66.5t53 -46.5t74 -30t83.5 -17t80.5 -8t66.5 -2q57 0 123 5t133 15.5t130.5 27.5
t114.5 41q16 0 18 -17zM743 494q-5 0 -8.5 4.5t-3.5 9.5q0 4 5 13.5t11.5 18.5t13.5 16t12 7t8.5 -3.5t3.5 -8.5q0 -3 -6 -9l-13.5 -13.5t-13.5 -16t-6 -15.5z" />
    <glyph glyph-name="cacute" unicode="&#x107;" horiz-adv-x="319" 
d="M330 89q-47 -39 -110.5 -65t-125.5 -26q-16 0 -36 3t-38 11t-30.5 21.5t-12.5 33.5q0 18 15.5 36.5t37.5 34t45.5 25.5t39.5 10q10 0 20.5 -4t17.5 -12q3 3 7.5 6t9.5 3q7 0 11 -6t4 -12q0 -3 -5.5 -7.5t-12 -10t-12 -12t-5.5 -13.5q0 -2 -1 -5t-4 -3q-8 0 -12 6.5
t-4 13.5t4 14.5t8 12.5q-5 6 -13 6q-12 0 -34 -9t-43.5 -23t-37 -30t-15.5 -30q0 -12 10.5 -19t24.5 -11t28.5 -5t23.5 -1q36 0 66 7t57 19t53.5 28t55.5 34l2 1q7 0 10 -5.5t3 -11.5zM162 230q-5 0 -8.5 4.5t-3.5 9.5q0 4 5 13.5t11.5 18.5t13.5 16t12 7t8.5 -3.5t3.5 -8.5
q0 -3 -6 -9l-13.5 -13.5t-13.5 -16t-6 -15.5z" />
    <glyph glyph-name="Ccircumflex" unicode="&#x108;" horiz-adv-x="828" 
d="M931 -101q-25 -15 -64 -27.5t-85 -22.5t-96.5 -17.5t-98.5 -12.5t-90 -7.5t-72 -2.5q-33 0 -76 2.5t-88.5 10.5t-89.5 22t-78.5 36.5t-55.5 55.5t-21 78q0 35 13.5 69.5t34.5 65.5t47.5 58.5t52.5 48.5q115 94 257 143t290 49q14 0 36.5 -0.5t48 -3t51 -8t46.5 -15
t34 -23.5t13 -34q0 -15 -10 -29.5t-24.5 -26.5t-30.5 -21.5t-28 -15.5q-29 -16 -65.5 -31.5t-75 -27.5t-77 -19.5t-71.5 -7.5q-14 0 -27.5 1.5t-25.5 6.5t-21 15.5t-13 27.5q2 5 5 5q10 0 14.5 -10t11.5 -15q8 -5 22 -6.5t22 -1.5q32 0 70 7.5t77 19.5t75 27t64 30
q9 5 24 14t29 20.5t24 24t10 24.5q0 11 -12.5 19.5t-31.5 14t-42.5 9t-45.5 5.5t-40 2.5t-26 0.5q-146 0 -286.5 -49t-253.5 -142q-25 -20 -50.5 -46t-46.5 -56t-34 -63t-13 -67q0 -39 20.5 -66.5t53 -46.5t74 -30t83.5 -17t80.5 -8t66.5 -2q57 0 123 5t133 15.5t130.5 27.5
t114.5 41q16 0 18 -17zM780 509q-5 9 -9 18t-7 19q-19 0 -39.5 -15.5t-32.5 -28.5q-4 0 -6.5 3t-4.5 6q0 8 9.5 17t21.5 17t24.5 13t20.5 5q5 0 11 -6.5t11.5 -15.5t9.5 -18t4 -13t-4 -6z" />
    <glyph glyph-name="ccircumflex" unicode="&#x109;" horiz-adv-x="319" 
d="M330 89q-47 -39 -110.5 -65t-125.5 -26q-16 0 -36 3t-38 11t-30.5 21.5t-12.5 33.5q0 18 15.5 36.5t37.5 34t45.5 25.5t39.5 10q10 0 20.5 -4t17.5 -12q3 3 7.5 6t9.5 3q7 0 11 -6t4 -12q0 -3 -5.5 -7.5t-12 -10t-12 -12t-5.5 -13.5q0 -2 -1 -5t-4 -3q-8 0 -12 6.5
t-4 13.5t4 14.5t8 12.5q-5 6 -13 6q-12 0 -34 -9t-43.5 -23t-37 -30t-15.5 -30q0 -12 10.5 -19t24.5 -11t28.5 -5t23.5 -1q36 0 66 7t57 19t53.5 28t55.5 34l2 1q7 0 10 -5.5t3 -11.5zM247 248q-5 9 -9 18t-7 19q-19 0 -39.5 -15.5t-32.5 -28.5q-4 0 -6.5 3t-4.5 6
q0 8 9.5 17t21.5 17t24.5 13t20.5 5q5 0 11 -6.5t11.5 -15.5t9.5 -18t4 -13t-4 -6z" />
    <glyph glyph-name="Cdotaccent" unicode="&#x10a;" horiz-adv-x="828" 
d="M931 -101q-25 -15 -64 -27.5t-85 -22.5t-96.5 -17.5t-98.5 -12.5t-90 -7.5t-72 -2.5q-33 0 -76 2.5t-88.5 10.5t-89.5 22t-78.5 36.5t-55.5 55.5t-21 78q0 35 13.5 69.5t34.5 65.5t47.5 58.5t52.5 48.5q115 94 257 143t290 49q14 0 36.5 -0.5t48 -3t51 -8t46.5 -15
t34 -23.5t13 -34q0 -15 -10 -29.5t-24.5 -26.5t-30.5 -21.5t-28 -15.5q-29 -16 -65.5 -31.5t-75 -27.5t-77 -19.5t-71.5 -7.5q-14 0 -27.5 1.5t-25.5 6.5t-21 15.5t-13 27.5q2 5 5 5q10 0 14.5 -10t11.5 -15q8 -5 22 -6.5t22 -1.5q32 0 70 7.5t77 19.5t75 27t64 30
q9 5 24 14t29 20.5t24 24t10 24.5q0 11 -12.5 19.5t-31.5 14t-42.5 9t-45.5 5.5t-40 2.5t-26 0.5q-146 0 -286.5 -49t-253.5 -142q-25 -20 -50.5 -46t-46.5 -56t-34 -63t-13 -67q0 -39 20.5 -66.5t53 -46.5t74 -30t83.5 -17t80.5 -8t66.5 -2q57 0 123 5t133 15.5t130.5 27.5
t114.5 41q16 0 18 -17zM806 537q0 -14 -14.5 -20.5t-25.5 -6.5q-5 0 -9 2.5t-4 7.5q0 4 3 11t8 13t10.5 10.5t10.5 4.5q9 0 15 -7t6 -15z" />
    <glyph glyph-name="cdotaccent" unicode="&#x10b;" horiz-adv-x="319" 
d="M330 89q-47 -39 -110.5 -65t-125.5 -26q-16 0 -36 3t-38 11t-30.5 21.5t-12.5 33.5q0 18 15.5 36.5t37.5 34t45.5 25.5t39.5 10q10 0 20.5 -4t17.5 -12q3 3 7.5 6t9.5 3q7 0 11 -6t4 -12q0 -3 -5.5 -7.5t-12 -10t-12 -12t-5.5 -13.5q0 -2 -1 -5t-4 -3q-8 0 -12 6.5
t-4 13.5t4 14.5t8 12.5q-5 6 -13 6q-12 0 -34 -9t-43.5 -23t-37 -30t-15.5 -30q0 -12 10.5 -19t24.5 -11t28.5 -5t23.5 -1q36 0 66 7t57 19t53.5 28t55.5 34l2 1q7 0 10 -5.5t3 -11.5zM234 265q0 -14 -14.5 -20.5t-25.5 -6.5q-5 0 -9 2.5t-4 7.5q0 4 3 11t8 13t10.5 10.5
t10.5 4.5q9 0 15 -7t6 -15z" />
    <glyph glyph-name="Ccaron" unicode="&#x10c;" horiz-adv-x="828" 
d="M931 -101q-25 -15 -64 -27.5t-85 -22.5t-96.5 -17.5t-98.5 -12.5t-90 -7.5t-72 -2.5q-33 0 -76 2.5t-88.5 10.5t-89.5 22t-78.5 36.5t-55.5 55.5t-21 78q0 35 13.5 69.5t34.5 65.5t47.5 58.5t52.5 48.5q115 94 257 143t290 49q14 0 36.5 -0.5t48 -3t51 -8t46.5 -15
t34 -23.5t13 -34q0 -15 -10 -29.5t-24.5 -26.5t-30.5 -21.5t-28 -15.5q-29 -16 -65.5 -31.5t-75 -27.5t-77 -19.5t-71.5 -7.5q-14 0 -27.5 1.5t-25.5 6.5t-21 15.5t-13 27.5q2 5 5 5q10 0 14.5 -10t11.5 -15q8 -5 22 -6.5t22 -1.5q32 0 70 7.5t77 19.5t75 27t64 30
q9 5 24 14t29 20.5t24 24t10 24.5q0 11 -12.5 19.5t-31.5 14t-42.5 9t-45.5 5.5t-40 2.5t-26 0.5q-146 0 -286.5 -49t-253.5 -142q-25 -20 -50.5 -46t-46.5 -56t-34 -63t-13 -67q0 -39 20.5 -66.5t53 -46.5t74 -30t83.5 -17t80.5 -8t66.5 -2q57 0 123 5t133 15.5t130.5 27.5
t114.5 41q16 0 18 -17zM717 546q6 0 9 -5t4.5 -11.5t3.5 -11.5t6 -5q5 0 14.5 4.5t19.5 10.5t18.5 12.5t13.5 9.5q4 0 7.5 -3.5t3.5 -7.5q0 -3 -8.5 -10t-19.5 -14.5t-23 -13t-18 -5.5t-12 5t-11.5 12.5t-8.5 15.5t-3 13z" />
    <glyph glyph-name="ccaron" unicode="&#x10d;" horiz-adv-x="319" 
d="M330 89q-47 -39 -110.5 -65t-125.5 -26q-16 0 -36 3t-38 11t-30.5 21.5t-12.5 33.5q0 18 15.5 36.5t37.5 34t45.5 25.5t39.5 10q10 0 20.5 -4t17.5 -12q3 3 7.5 6t9.5 3q7 0 11 -6t4 -12q0 -3 -5.5 -7.5t-12 -10t-12 -12t-5.5 -13.5q0 -2 -1 -5t-4 -3q-8 0 -12 6.5
t-4 13.5t4 14.5t8 12.5q-5 6 -13 6q-12 0 -34 -9t-43.5 -23t-37 -30t-15.5 -30q0 -12 10.5 -19t24.5 -11t28.5 -5t23.5 -1q36 0 66 7t57 19t53.5 28t55.5 34l2 1q7 0 10 -5.5t3 -11.5zM154 292q6 0 9 -5t4.5 -11.5t3.5 -11.5t6 -5q5 0 14.5 4.5t19.5 10.5t18.5 12.5
t13.5 9.5q4 0 7.5 -3.5t3.5 -7.5q0 -3 -8.5 -10t-19.5 -14.5t-23 -13t-18 -5.5t-12 5t-11.5 12.5t-8.5 15.5t-3 13z" />
    <glyph glyph-name="Dcaron" unicode="&#x10e;" horiz-adv-x="1159" 
d="M437 10q-5 1 -10 5.5t-5 10.5t8 22t18 33t20 33t15 22q-22 0 -62.5 -6.5t-80.5 -20t-69.5 -34.5t-29.5 -50q0 -14 14.5 -23.5t37 -16t50.5 -10t54 -5.5t47 -2.5t31 -0.5q112 0 223 19.5t215 63.5q31 13 70.5 35t74.5 50.5t59 63t24 73.5q0 35 -24 60t-62.5 42t-85.5 27
t-93.5 15.5t-87 7.5t-64.5 2q-65 0 -139.5 -5.5t-149.5 -16.5t-147 -28.5t-132 -42.5q-15 -6 -36 -16.5t-40.5 -24t-33.5 -30t-14 -34.5v-6q0 -10 -6 -10q-8 0 -11.5 10t-3.5 16q0 26 19 48t49.5 40t68 32.5t74.5 25t69.5 18t52.5 11.5q92 18 184 26.5t186 8.5q31 0 76 -2
t94.5 -8.5t99 -18.5t89.5 -33t64.5 -52t24.5 -74q0 -41 -23.5 -76.5t-58.5 -65t-75 -52t-73 -36.5q-106 -46 -219 -66t-228 -20q-15 0 -40.5 0.5t-55 3.5t-59.5 8.5t-54.5 16t-40 26t-15.5 37.5q0 23 17.5 41.5t42 33t51.5 24t45 13.5q26 6 51 7.5t51 1.5h21q6 8 17.5 22
t24 27t26 22.5t24.5 9.5q6 0 11 -6t5 -12q0 -5 -5.5 -5.5t-8.5 -2.5q-20 -11 -35.5 -27.5t-29.5 -33.5q9 -2 26.5 -8t35 -14.5t31 -19t13.5 -20.5q0 -5 -5 -5q-4 0 -8 3q-27 20 -50.5 30.5t-56.5 15.5q-8 -11 -19 -26t-21.5 -32t-19 -33.5t-11.5 -28.5zM712 552q6 0 9 -5
t4.5 -11.5t3.5 -11.5t6 -5q5 0 14.5 4.5t19.5 10.5t18.5 12.5t13.5 9.5q4 0 7.5 -3.5t3.5 -7.5q0 -3 -8.5 -10t-19.5 -14.5t-23 -13t-18 -5.5t-12 5t-11.5 12.5t-8.5 15.5t-3 13z" />
    <glyph glyph-name="dcaron" unicode="&#x10f;" horiz-adv-x="438" 
d="M147 88q-14 -14 -32.5 -29.5t-39.5 -29t-42.5 -22.5t-42.5 -9q-14 0 -24 5t-10 21q0 22 14 46.5t35 45t45.5 34t46.5 13.5q32 0 59 -19q5 23 12 46t16 45q6 16 20.5 44t33.5 56t39.5 48.5t39.5 20.5q12 0 20 -10t8 -21q0 -23 -21 -59.5t-49 -75.5t-57 -73t-45 -52l-4 -24
t-2 -24q0 -14 3 -28.5t21 -14.5t40.5 9t45.5 21.5t43.5 27.5t33.5 27q1 0 1.5 0.5t1.5 0.5q6 0 11 -4.5t5 -10.5q0 -7 -15 -19t-34.5 -24t-38.5 -22t-26 -13q-14 -6 -28.5 -10t-28.5 -4q-15 0 -26 6.5t-17.5 17t-9.5 23.5t-3 26q0 4 0.5 7t0.5 7zM150 129q-22 10 -43 10
t-42 -11.5t-38.5 -28.5t-30.5 -38t-19 -40q23 0 47 11t47 27.5t43.5 35t35.5 34.5zM324 381q-14 -1 -28 -14t-28 -32.5t-27 -43t-23.5 -46.5t-18.5 -43t-11 -32q16 18 36.5 43.5t40 53.5t35 56t22.5 51l-1 -1zM367 343q9 0 12.5 -8t3.5 -16q0 -6 -5 -17.5t-12.5 -22.5
t-16 -19t-15.5 -8q-6 0 -11.5 5.5t-5.5 11.5q0 3 7 8.5t15.5 14t15.5 20t7 26.5z" />
    <glyph glyph-name="Dcroat" unicode="&#x110;" horiz-adv-x="1159" 
d="M437 10q-5 1 -10 5.5t-5 10.5q0 5 4 14.5t11 21.5h-13q-8 0 -15 6.5t-7 11.5l6 6q22 3 45 3q9 15 17 28t13 19q-22 0 -62.5 -6.5t-80.5 -20t-69.5 -34.5t-29.5 -50q0 -14 14.5 -23.5t37 -16t50.5 -10t54 -5.5t47 -2.5t31 -0.5q112 0 223 19.5t215 63.5q31 13 70.5 35
t74.5 50.5t59 63t24 73.5q0 35 -24 60t-62.5 42t-85.5 27t-93.5 15.5t-87 7.5t-64.5 2q-65 0 -139.5 -5.5t-149.5 -16.5t-147 -28.5t-132 -42.5q-15 -6 -36 -16.5t-40.5 -24t-33.5 -30t-14 -34.5v-6q0 -10 -6 -10q-8 0 -11.5 10t-3.5 16q0 26 19 48t49.5 40t68 32.5t74.5 25
t69.5 18t52.5 11.5q92 18 184 26.5t186 8.5q31 0 76 -2t94.5 -8.5t99 -18.5t89.5 -33t64.5 -52t24.5 -74q0 -41 -23.5 -76.5t-58.5 -65t-75 -52t-73 -36.5q-106 -46 -219 -66t-228 -20q-15 0 -40.5 0.5t-55 3.5t-59.5 8.5t-54.5 16t-40 26t-15.5 37.5q0 23 17.5 41.5t42 33
t51.5 24t45 13.5q26 6 51 7.5t51 1.5h21q6 8 17.5 22t24 27t26 22.5t24.5 9.5q6 0 11 -6t5 -12q0 -5 -5.5 -5.5t-8.5 -2.5q-20 -11 -35.5 -27.5t-29.5 -33.5q9 -2 26.5 -8t35 -14.5t31 -19t13.5 -20.5q0 -5 -5 -5q-4 0 -8 3q-27 20 -50.5 30.5t-56.5 15.5l-31 -43
q8 0 22.5 -0.5t29 -2.5t25 -6t10.5 -11q0 -8 -11 -8q-13 0 -26.5 2t-27.5 2q-10 0 -19.5 -0.5t-18.5 -1.5q-9 -14 -15.5 -27t-8.5 -24z" />
    <glyph glyph-name="dcroat" unicode="&#x111;" horiz-adv-x="356" 
d="M184 235q6 16 20.5 44t33.5 56t39.5 48.5t39.5 20.5q12 0 20 -10t8 -21q0 -14 -8.5 -34t-22 -42.5t-31 -47t-35.5 -47.5q12 -2 20.5 -5.5t8.5 -11.5q0 -7 -7 -7q-11 0 -20 1t-19 2q-18 -22 -33 -39.5t-25 -28.5l-4 -24t-2 -24q0 -14 3 -28.5t21 -14.5t40.5 9t45.5 21.5
t43.5 27.5t33.5 27q1 0 1.5 0.5t1.5 0.5q6 0 11 -4.5t5 -10.5q0 -7 -15 -19t-34.5 -24t-38.5 -22t-26 -13q-14 -6 -28.5 -10t-28.5 -4q-15 0 -26 6.5t-17.5 17t-9.5 23.5t-3 26q0 4 0.5 7t0.5 7q-14 -14 -32.5 -29.5t-39.5 -29t-42.5 -22.5t-42.5 -9q-14 0 -24 5t-10 21
q0 22 14 46.5t35 45t45.5 34t46.5 13.5q32 0 59 -19l4 16l4 16q-8 -1 -15.5 -1h-15.5q-5 0 -10 6t-5 11l4 6q25 4 50 6zM150 129q-22 10 -43 10t-42 -11.5t-38.5 -28.5t-30.5 -38t-19 -40q23 0 47 11t47 27.5t43.5 35t35.5 34.5zM217 204q15 19 31.5 41t31 44.5t25.5 44.5
t17 40l-1 -1l3 8q-17 -2 -35 -20.5t-34.5 -45.5t-31 -57t-23.5 -54h17zM197 180q-2 0 -3 -0.5t-3 -0.5l-3 -9z" />
    <glyph glyph-name="Emacron" unicode="&#x112;" horiz-adv-x="1075" 
d="M1031 34q-22 -24 -60 -44t-84.5 -36t-98.5 -28.5t-102 -20.5t-94.5 -12t-76.5 -4q-46 0 -98.5 7.5t-97.5 28t-74.5 55.5t-29.5 90q0 21 6 41.5t16 39.5q-21 -4 -56 -12t-69 -22t-58.5 -34t-24.5 -48q0 -2 1 -4.5t1 -4.5q-3 -5 -6 -5q-10 0 -14 11t-4 19q0 21 14 37.5
t36 30t50 23.5t55 17t51.5 11.5t40.5 7.5q30 40 75 75.5t100 66t116 54.5t122 41t119 26t106 9q23 0 57 -3t66 -12.5t55 -28.5t23 -51q0 -30 -18.5 -57.5t-45.5 -50.5t-57.5 -41t-54.5 -29q8 -2 27 -7t38 -12.5t33.5 -17t14.5 -19.5q0 -5 -6 -5q-4 0 -8 3q-30 18 -62 28
t-67 17q-24 -10 -50 -17t-52 -7q-9 0 -22.5 2.5t-26.5 7.5t-22.5 13t-10.5 19q-23 2 -45.5 2h-45.5q-86 0 -170.5 -6t-169.5 -20q-16 -22 -26 -47.5t-10 -52.5q0 -48 27.5 -77t68 -44t86.5 -19.5t82 -4.5q140 0 269 36t256 93h3l4 -4zM870 186q24 10 58.5 28t67 41.5
t55.5 51.5t23 57q0 23 -22 35.5t-51.5 18.5t-59.5 7.5t-46 1.5q-69 0 -154 -18.5t-168.5 -51t-157 -77t-121.5 -96.5q75 11 150 16.5t151 5.5q69 0 137.5 -4.5t137.5 -15.5zM832 172q-28 4 -56 6l-56 4q12 -13 23 -17t28 -4q16 0 31 3t30 8zM853 534q21 2 41 3t41 1
q8 0 25 -0.5t33.5 -2t29 -6t12.5 -11.5q0 -8 -12 -8q-15 0 -30.5 2t-30.5 2q-23 0 -45.5 -2t-45.5 -2q-9 0 -17 6.5t-8 11.5z" />
    <glyph glyph-name="emacron" unicode="&#x113;" horiz-adv-x="322" 
d="M141 151q-4 1 -11 1q-34 0 -64.5 -19.5t-48.5 -47.5q10 -3 22 -3t28.5 6t32 16t27.5 22.5t14 24.5zM324 109q6 0 10 -4.5t4 -10.5q0 -3 -4.5 -7.5t-10.5 -8.5t-11.5 -7.5t-8.5 -5.5q-46 -30 -98 -48.5t-108 -18.5q-17 0 -36.5 2.5t-36 9.5t-28 20.5t-11.5 34.5
q0 22 13.5 42t34 35t43.5 24t43 9q15 0 28.5 -8t13.5 -25t-12 -32t-29.5 -26t-37 -18t-33.5 -7q-22 0 -39 10q-4 -7 -4 -16q0 -11 10 -17.5t24 -9.5t28 -3.5t22 -0.5q34 0 64.5 7t59 19t55.5 28t55 33zM119 278q25 3 50 3q5 0 15 -0.5t20 -2t17.5 -5.5t7.5 -11t-7 -7
q-9 0 -18.5 2t-18.5 2q-14 0 -27.5 -2t-27.5 -2q-5 0 -10 6t-5 11z" />
    <glyph glyph-name="Ebreve" unicode="&#x114;" horiz-adv-x="1075" 
d="M1031 34q-22 -24 -60 -44t-84.5 -36t-98.5 -28.5t-102 -20.5t-94.5 -12t-76.5 -4q-46 0 -98.5 7.5t-97.5 28t-74.5 55.5t-29.5 90q0 21 6 41.5t16 39.5q-21 -4 -56 -12t-69 -22t-58.5 -34t-24.5 -48q0 -2 1 -4.5t1 -4.5q-3 -5 -6 -5q-10 0 -14 11t-4 19q0 21 14 37.5
t36 30t50 23.5t55 17t51.5 11.5t40.5 7.5q30 40 75 75.5t100 66t116 54.5t122 41t119 26t106 9q23 0 57 -3t66 -12.5t55 -28.5t23 -51q0 -30 -18.5 -57.5t-45.5 -50.5t-57.5 -41t-54.5 -29q8 -2 27 -7t38 -12.5t33.5 -17t14.5 -19.5q0 -5 -6 -5q-4 0 -8 3q-30 18 -62 28
t-67 17q-24 -10 -50 -17t-52 -7q-9 0 -22.5 2.5t-26.5 7.5t-22.5 13t-10.5 19q-23 2 -45.5 2h-45.5q-86 0 -170.5 -6t-169.5 -20q-16 -22 -26 -47.5t-10 -52.5q0 -48 27.5 -77t68 -44t86.5 -19.5t82 -4.5q140 0 269 36t256 93h3l4 -4zM870 186q24 10 58.5 28t67 41.5
t55.5 51.5t23 57q0 23 -22 35.5t-51.5 18.5t-59.5 7.5t-46 1.5q-69 0 -154 -18.5t-168.5 -51t-157 -77t-121.5 -96.5q75 11 150 16.5t151 5.5q69 0 137.5 -4.5t137.5 -15.5zM832 172q-28 4 -56 6l-56 4q12 -13 23 -17t28 -4q16 0 31 3t30 8zM1014 543q5 0 7.5 -3.5t2.5 -7.5
q0 -5 -7.5 -11.5t-17.5 -13t-20 -11t-14 -4.5q-11 0 -21.5 8t-10.5 19q0 5 5.5 16t11.5 11q3 0 7.5 -3.5t4.5 -6.5q0 -4 -7 -10t-7 -14q0 -5 7 -5q13 0 31 13.5t28 22.5z" />
    <glyph glyph-name="ebreve" unicode="&#x115;" horiz-adv-x="322" 
d="M141 151q-4 1 -11 1q-34 0 -64.5 -19.5t-48.5 -47.5q10 -3 22 -3t28.5 6t32 16t27.5 22.5t14 24.5zM324 109q6 0 10 -4.5t4 -10.5q0 -3 -4.5 -7.5t-10.5 -8.5t-11.5 -7.5t-8.5 -5.5q-46 -30 -98 -48.5t-108 -18.5q-17 0 -36.5 2.5t-36 9.5t-28 20.5t-11.5 34.5
q0 22 13.5 42t34 35t43.5 24t43 9q15 0 28.5 -8t13.5 -25t-12 -32t-29.5 -26t-37 -18t-33.5 -7q-22 0 -39 10q-4 -7 -4 -16q0 -11 10 -17.5t24 -9.5t28 -3.5t22 -0.5q34 0 64.5 7t59 19t55.5 28t55 33zM222 288q5 0 7.5 -3.5t2.5 -7.5q0 -5 -7.5 -11.5t-17.5 -13t-20 -11
t-14 -4.5q-11 0 -21.5 8t-10.5 19q0 5 5.5 16t11.5 11q3 0 7.5 -3.5t4.5 -6.5q0 -4 -7 -10t-7 -14q0 -5 7 -5q13 0 31 13.5t28 22.5z" />
    <glyph glyph-name="Edotaccent" unicode="&#x116;" horiz-adv-x="1075" 
d="M1031 34q-22 -24 -60 -44t-84.5 -36t-98.5 -28.5t-102 -20.5t-94.5 -12t-76.5 -4q-46 0 -98.5 7.5t-97.5 28t-74.5 55.5t-29.5 90q0 21 6 41.5t16 39.5q-21 -4 -56 -12t-69 -22t-58.5 -34t-24.5 -48q0 -2 1 -4.5t1 -4.5q-3 -5 -6 -5q-10 0 -14 11t-4 19q0 21 14 37.5
t36 30t50 23.5t55 17t51.5 11.5t40.5 7.5q30 40 75 75.5t100 66t116 54.5t122 41t119 26t106 9q23 0 57 -3t66 -12.5t55 -28.5t23 -51q0 -30 -18.5 -57.5t-45.5 -50.5t-57.5 -41t-54.5 -29q8 -2 27 -7t38 -12.5t33.5 -17t14.5 -19.5q0 -5 -6 -5q-4 0 -8 3q-30 18 -62 28
t-67 17q-24 -10 -50 -17t-52 -7q-9 0 -22.5 2.5t-26.5 7.5t-22.5 13t-10.5 19q-23 2 -45.5 2h-45.5q-86 0 -170.5 -6t-169.5 -20q-16 -22 -26 -47.5t-10 -52.5q0 -48 27.5 -77t68 -44t86.5 -19.5t82 -4.5q140 0 269 36t256 93h3l4 -4zM870 186q24 10 58.5 28t67 41.5
t55.5 51.5t23 57q0 23 -22 35.5t-51.5 18.5t-59.5 7.5t-46 1.5q-69 0 -154 -18.5t-168.5 -51t-157 -77t-121.5 -96.5q75 11 150 16.5t151 5.5q69 0 137.5 -4.5t137.5 -15.5zM832 172q-28 4 -56 6l-56 4q12 -13 23 -17t28 -4q16 0 31 3t30 8zM986 534q0 -14 -14.5 -20.5
t-25.5 -6.5q-5 0 -9 2.5t-4 7.5q0 4 3 11t8 13t10.5 10.5t10.5 4.5q9 0 15 -7t6 -15z" />
    <glyph glyph-name="edotaccent" unicode="&#x117;" horiz-adv-x="322" 
d="M141 151q-4 1 -11 1q-34 0 -64.5 -19.5t-48.5 -47.5q10 -3 22 -3t28.5 6t32 16t27.5 22.5t14 24.5zM324 109q6 0 10 -4.5t4 -10.5q0 -3 -4.5 -7.5t-10.5 -8.5t-11.5 -7.5t-8.5 -5.5q-46 -30 -98 -48.5t-108 -18.5q-17 0 -36.5 2.5t-36 9.5t-28 20.5t-11.5 34.5
q0 22 13.5 42t34 35t43.5 24t43 9q15 0 28.5 -8t13.5 -25t-12 -32t-29.5 -26t-37 -18t-33.5 -7q-22 0 -39 10q-4 -7 -4 -16q0 -11 10 -17.5t24 -9.5t28 -3.5t22 -0.5q34 0 64.5 7t59 19t55.5 28t55 33zM187 270q0 -14 -14.5 -20.5t-25.5 -6.5q-5 0 -9 2.5t-4 7.5q0 4 3 11
t8 13t10.5 10.5t10.5 4.5q9 0 15 -7t6 -15z" />
    <glyph glyph-name="Eogonek" unicode="&#x118;" horiz-adv-x="1075" 
d="M1031 34q-22 -24 -60 -44t-84.5 -36t-98.5 -28.5t-102 -20.5t-94.5 -12t-76.5 -4h-7q2 -4 2 -7l-4 -2q-13 -1 -28 -10.5t-22 -20.5q4 -1 11 -1q26 0 43 9t39 19q5 0 7.5 -3.5t4.5 -7.5l-1 -5q-17 -14 -41.5 -21.5t-45.5 -7.5q-11 0 -22 5t-11 18q0 11 11 20.5t24 15.5
q-44 3 -90.5 12.5t-84 30.5t-61.5 54t-24 83q0 21 6 41.5t16 39.5q-21 -4 -56 -12t-69 -22t-58.5 -34t-24.5 -48q0 -2 1 -4.5t1 -4.5q-3 -5 -6 -5q-10 0 -14 11t-4 19q0 21 14 37.5t36 30t50 23.5t55 17t51.5 11.5t40.5 7.5q30 40 75 75.5t100 66t116 54.5t122 41t119 26
t106 9q23 0 57 -3t66 -12.5t55 -28.5t23 -51q0 -30 -18.5 -57.5t-45.5 -50.5t-57.5 -41t-54.5 -29q8 -2 27 -7t38 -12.5t33.5 -17t14.5 -19.5q0 -5 -6 -5q-4 0 -8 3q-30 18 -62 28t-67 17q-24 -10 -50 -17t-52 -7q-9 0 -22.5 2.5t-26.5 7.5t-22.5 13t-10.5 19q-23 2 -45.5 2
h-45.5q-86 0 -170.5 -6t-169.5 -20q-16 -22 -26 -47.5t-10 -52.5q0 -48 27.5 -77t68 -44t86.5 -19.5t82 -4.5q140 0 269 36t256 93h3l4 -4zM870 186q24 10 58.5 28t67 41.5t55.5 51.5t23 57q0 23 -22 35.5t-51.5 18.5t-59.5 7.5t-46 1.5q-69 0 -154 -18.5t-168.5 -51
t-157 -77t-121.5 -96.5q75 11 150 16.5t151 5.5q69 0 137.5 -4.5t137.5 -15.5zM832 172q-28 4 -56 6l-56 4q12 -13 23 -17t28 -4q16 0 31 3t30 8z" />
    <glyph glyph-name="eogonek" unicode="&#x119;" horiz-adv-x="322" 
d="M205 -21q-17 -14 -41.5 -21.5t-45.5 -7.5q-11 0 -22 5t-11 18t17 25h-5q-17 0 -36.5 2.5t-36 9.5t-28 20.5t-11.5 34.5q0 22 13.5 42t34 35t43.5 24t43 9q15 0 28.5 -8t13.5 -25t-12 -32t-29.5 -26t-37 -18t-33.5 -7q-22 0 -39 10q-4 -7 -4 -16q0 -11 10 -17.5t24 -9.5
t28 -3.5t22 -0.5q34 0 64.5 7t59 19t55.5 28t55 33q6 0 10 -4.5t4 -10.5q0 -3 -4.5 -7.5t-10.5 -8.5t-11.5 -7.5t-8.5 -5.5q-34 -23 -71 -38.5t-77 -23.5v-2l-4 -2q-13 -1 -28 -10.5t-22 -20.5q4 -1 11 -1q26 0 43 9t39 19q5 0 7.5 -3.5t4.5 -7.5zM141 151q-4 1 -11 1
q-34 0 -64.5 -19.5t-48.5 -47.5q10 -3 22 -3t28.5 6t32 16t27.5 22.5t14 24.5z" />
    <glyph glyph-name="Ecaron" unicode="&#x11a;" horiz-adv-x="1075" 
d="M1031 34q-22 -24 -60 -44t-84.5 -36t-98.5 -28.5t-102 -20.5t-94.5 -12t-76.5 -4q-46 0 -98.5 7.5t-97.5 28t-74.5 55.5t-29.5 90q0 21 6 41.5t16 39.5q-21 -4 -56 -12t-69 -22t-58.5 -34t-24.5 -48q0 -2 1 -4.5t1 -4.5q-3 -5 -6 -5q-10 0 -14 11t-4 19q0 21 14 37.5
t36 30t50 23.5t55 17t51.5 11.5t40.5 7.5q30 40 75 75.5t100 66t116 54.5t122 41t119 26t106 9q23 0 57 -3t66 -12.5t55 -28.5t23 -51q0 -30 -18.5 -57.5t-45.5 -50.5t-57.5 -41t-54.5 -29q8 -2 27 -7t38 -12.5t33.5 -17t14.5 -19.5q0 -5 -6 -5q-4 0 -8 3q-30 18 -62 28
t-67 17q-24 -10 -50 -17t-52 -7q-9 0 -22.5 2.5t-26.5 7.5t-22.5 13t-10.5 19q-23 2 -45.5 2h-45.5q-86 0 -170.5 -6t-169.5 -20q-16 -22 -26 -47.5t-10 -52.5q0 -48 27.5 -77t68 -44t86.5 -19.5t82 -4.5q140 0 269 36t256 93h3l4 -4zM870 186q24 10 58.5 28t67 41.5
t55.5 51.5t23 57q0 23 -22 35.5t-51.5 18.5t-59.5 7.5t-46 1.5q-69 0 -154 -18.5t-168.5 -51t-157 -77t-121.5 -96.5q75 11 150 16.5t151 5.5q69 0 137.5 -4.5t137.5 -15.5zM832 172q-28 4 -56 6l-56 4q12 -13 23 -17t28 -4q16 0 31 3t30 8zM929 549q6 0 9 -5t4.5 -11.5
t3.5 -11.5t6 -5q5 0 14.5 4.5t19.5 10.5t18.5 12.5t13.5 9.5q4 0 7.5 -3.5t3.5 -7.5q0 -3 -8.5 -10t-19.5 -14.5t-23 -13t-18 -5.5t-12 5t-11.5 12.5t-8.5 15.5t-3 13z" />
    <glyph glyph-name="ecaron" unicode="&#x11b;" horiz-adv-x="322" 
d="M141 151q-4 1 -11 1q-34 0 -64.5 -19.5t-48.5 -47.5q10 -3 22 -3t28.5 6t32 16t27.5 22.5t14 24.5zM324 109q6 0 10 -4.5t4 -10.5q0 -3 -4.5 -7.5t-10.5 -8.5t-11.5 -7.5t-8.5 -5.5q-46 -30 -98 -48.5t-108 -18.5q-17 0 -36.5 2.5t-36 9.5t-28 20.5t-11.5 34.5
q0 22 13.5 42t34 35t43.5 24t43 9q15 0 28.5 -8t13.5 -25t-12 -32t-29.5 -26t-37 -18t-33.5 -7q-22 0 -39 10q-4 -7 -4 -16q0 -11 10 -17.5t24 -9.5t28 -3.5t22 -0.5q34 0 64.5 7t59 19t55.5 28t55 33zM144 287q6 0 9 -5t4.5 -11.5t3.5 -11.5t6 -5q5 0 14.5 4.5t19.5 10.5
t18.5 12.5t13.5 9.5q4 0 7.5 -3.5t3.5 -7.5q0 -3 -8.5 -10t-19.5 -14.5t-23 -13t-18 -5.5t-12 5t-11.5 12.5t-8.5 15.5t-3 13z" />
    <glyph glyph-name="Gcircumflex" unicode="&#x11c;" horiz-adv-x="989" 
d="M883 261q-6 2 -11 6.5t-5 10.5q0 10 7.5 23t17 26.5t17 26t7.5 21.5q0 16 -22.5 26.5t-52.5 16t-58.5 7.5t-40.5 2q-57 0 -112.5 -11t-109.5 -27q-32 -9 -80.5 -27t-102.5 -43t-108 -55.5t-97 -65t-70 -72.5t-27 -78q0 -22 14 -37t37 -25.5t50.5 -16.5t55.5 -8.5t52 -3.5
t39 -1q39 0 93 4.5t113.5 13t121.5 22t118.5 32t102.5 41t74 50.5q2 2 9 10.5t10 8.5q5 0 10 -6.5t5 -11.5t-6 -11l-10 -10q-35 -36 -68 -77.5t-67.5 -83.5t-71.5 -80t-79 -68t-90 -47.5t-105 -17.5q-64 0 -112.5 29.5t-74.5 89.5q-3 8 -8.5 23.5t-5.5 23.5q0 2 1 5t4 3
q7 0 12 -9t9 -20.5t7 -22.5t5 -16q21 -45 63.5 -64.5t90.5 -19.5q68 0 126 29.5t108.5 74t94 97.5t82.5 100q-57 -28 -126.5 -49.5t-143 -36t-146 -22t-135.5 -7.5q-20 0 -49 1.5t-60 5.5t-62 12.5t-55.5 22.5t-39.5 34t-15 49q0 42 27 81.5t70.5 75t97.5 67t108.5 57
t104 44t83.5 28.5q55 17 111.5 27.5t114.5 10.5q22 0 51.5 -2t59 -8.5t54.5 -19t37 -33.5q4 5 12.5 15t17.5 20.5t18 18t15 7.5q7 0 11 -5.5t5 -11.5l-2 -4q-38 -32 -70.5 -72.5t-51.5 -88.5zM871 500q-5 9 -9 18t-7 19q-19 0 -39.5 -15.5t-32.5 -28.5q-4 0 -6.5 3t-4.5 6
q0 8 9.5 17t21.5 17t24.5 13t20.5 5q5 0 11 -6.5t11.5 -15.5t9.5 -18t4 -13t-4 -6z" />
    <glyph glyph-name="gcircumflex" unicode="&#x11d;" 
d="M127 -64q-22 -50 -56 -108t-78.5 -108t-99 -83t-115.5 -33q-19 0 -37.5 5.5t-32.5 16t-23 26.5t-9 37q0 18 6.5 36t16.5 33q34 51 80.5 87t100.5 60t113 37.5t117 18.5q16 36 30.5 78.5t18.5 81.5q-12 -17 -32 -39.5t-44 -42.5t-49 -34.5t-46 -14.5q-12 0 -24 8t-12 22
q0 20 13 43.5t33 44t43 34t44 13.5q28 0 52 -21q8 22 23 37q13 -4 16.5 -19t3.5 -26q0 -39 -13.5 -83.5t-28.5 -80.5q22 2 43.5 2.5t43.5 0.5q11 0 37 -2t54 -6t52 -8.5t32 -8.5q6 -4 11.5 -11t5.5 -15q0 -6 -7 -6q-5 0 -14 2t-19.5 5t-20.5 6t-16 4q-36 8 -72 12t-73 4
q-17 0 -34 -1t-34 -4zM98 -65q-50 -6 -106 -19.5t-108 -37t-95.5 -57.5t-70.5 -81q-8 -14 -14.5 -29t-6.5 -32q0 -29 22 -41t47 -12q57 0 108 31t94 77t76 100t54 101zM126 121q-12 11 -31 11q-15 0 -36.5 -12.5t-41.5 -30.5t-34 -38t-14 -35q0 -2 3.5 -2.5t5.5 -0.5
q17 0 38.5 12t42.5 29t39 35.5t28 31.5zM211 240q-5 9 -9 18t-7 19q-19 0 -39.5 -15.5t-32.5 -28.5q-4 0 -6.5 3t-4.5 6q0 8 9.5 17t21.5 17t24.5 13t20.5 5q5 0 11 -6.5t11.5 -15.5t9.5 -18t4 -13t-4 -6z" />
    <glyph glyph-name="Gbreve" unicode="&#x11e;" horiz-adv-x="989" 
d="M883 261q-6 2 -11 6.5t-5 10.5q0 10 7.5 23t17 26.5t17 26t7.5 21.5q0 16 -22.5 26.5t-52.5 16t-58.5 7.5t-40.5 2q-57 0 -112.5 -11t-109.5 -27q-32 -9 -80.5 -27t-102.5 -43t-108 -55.5t-97 -65t-70 -72.5t-27 -78q0 -22 14 -37t37 -25.5t50.5 -16.5t55.5 -8.5t52 -3.5
t39 -1q39 0 93 4.5t113.5 13t121.5 22t118.5 32t102.5 41t74 50.5q2 2 9 10.5t10 8.5q5 0 10 -6.5t5 -11.5t-6 -11l-10 -10q-35 -36 -68 -77.5t-67.5 -83.5t-71.5 -80t-79 -68t-90 -47.5t-105 -17.5q-64 0 -112.5 29.5t-74.5 89.5q-3 8 -8.5 23.5t-5.5 23.5q0 2 1 5t4 3
q7 0 12 -9t9 -20.5t7 -22.5t5 -16q21 -45 63.5 -64.5t90.5 -19.5q68 0 126 29.5t108.5 74t94 97.5t82.5 100q-57 -28 -126.5 -49.5t-143 -36t-146 -22t-135.5 -7.5q-20 0 -49 1.5t-60 5.5t-62 12.5t-55.5 22.5t-39.5 34t-15 49q0 42 27 81.5t70.5 75t97.5 67t108.5 57
t104 44t83.5 28.5q55 17 111.5 27.5t114.5 10.5q22 0 51.5 -2t59 -8.5t54.5 -19t37 -33.5q4 5 12.5 15t17.5 20.5t18 18t15 7.5q7 0 11 -5.5t5 -11.5l-2 -4q-38 -32 -70.5 -72.5t-51.5 -88.5zM935 543q5 0 7.5 -3.5t2.5 -7.5q0 -5 -7.5 -11.5t-17.5 -13t-20 -11t-14 -4.5
q-11 0 -21.5 8t-10.5 19q0 5 5.5 16t11.5 11q3 0 7.5 -3.5t4.5 -6.5q0 -4 -7 -10t-7 -14q0 -5 7 -5q13 0 31 13.5t28 22.5z" />
    <glyph glyph-name="gbreve" unicode="&#x11f;" 
d="M127 -64q-22 -50 -56 -108t-78.5 -108t-99 -83t-115.5 -33q-19 0 -37.5 5.5t-32.5 16t-23 26.5t-9 37q0 18 6.5 36t16.5 33q34 51 80.5 87t100.5 60t113 37.5t117 18.5q16 36 30.5 78.5t18.5 81.5q-12 -17 -32 -39.5t-44 -42.5t-49 -34.5t-46 -14.5q-12 0 -24 8t-12 22
q0 20 13 43.5t33 44t43 34t44 13.5q28 0 52 -21q8 22 23 37q13 -4 16.5 -19t3.5 -26q0 -39 -13.5 -83.5t-28.5 -80.5q22 2 43.5 2.5t43.5 0.5q11 0 37 -2t54 -6t52 -8.5t32 -8.5q6 -4 11.5 -11t5.5 -15q0 -6 -7 -6q-5 0 -14 2t-19.5 5t-20.5 6t-16 4q-36 8 -72 12t-73 4
q-17 0 -34 -1t-34 -4zM98 -65q-50 -6 -106 -19.5t-108 -37t-95.5 -57.5t-70.5 -81q-8 -14 -14.5 -29t-6.5 -32q0 -29 22 -41t47 -12q57 0 108 31t94 77t76 100t54 101zM126 121q-12 11 -31 11q-15 0 -36.5 -12.5t-41.5 -30.5t-34 -38t-14 -35q0 -2 3.5 -2.5t5.5 -0.5
q17 0 38.5 12t42.5 29t39 35.5t28 31.5zM209 284q5 0 7.5 -3.5t2.5 -7.5q0 -5 -7.5 -11.5t-17.5 -13t-20 -11t-14 -4.5q-11 0 -21.5 8t-10.5 19q0 5 5.5 16t11.5 11q3 0 7.5 -3.5t4.5 -6.5q0 -4 -7 -10t-7 -14q0 -5 7 -5q13 0 31 13.5t28 22.5z" />
    <glyph glyph-name="Gdotaccent" unicode="&#x120;" horiz-adv-x="989" 
d="M883 261q-6 2 -11 6.5t-5 10.5q0 10 7.5 23t17 26.5t17 26t7.5 21.5q0 16 -22.5 26.5t-52.5 16t-58.5 7.5t-40.5 2q-57 0 -112.5 -11t-109.5 -27q-32 -9 -80.5 -27t-102.5 -43t-108 -55.5t-97 -65t-70 -72.5t-27 -78q0 -22 14 -37t37 -25.5t50.5 -16.5t55.5 -8.5t52 -3.5
t39 -1q39 0 93 4.5t113.5 13t121.5 22t118.5 32t102.5 41t74 50.5q2 2 9 10.5t10 8.5q5 0 10 -6.5t5 -11.5t-6 -11l-10 -10q-35 -36 -68 -77.5t-67.5 -83.5t-71.5 -80t-79 -68t-90 -47.5t-105 -17.5q-64 0 -112.5 29.5t-74.5 89.5q-3 8 -8.5 23.5t-5.5 23.5q0 2 1 5t4 3
q7 0 12 -9t9 -20.5t7 -22.5t5 -16q21 -45 63.5 -64.5t90.5 -19.5q68 0 126 29.5t108.5 74t94 97.5t82.5 100q-57 -28 -126.5 -49.5t-143 -36t-146 -22t-135.5 -7.5q-20 0 -49 1.5t-60 5.5t-62 12.5t-55.5 22.5t-39.5 34t-15 49q0 42 27 81.5t70.5 75t97.5 67t108.5 57
t104 44t83.5 28.5q55 17 111.5 27.5t114.5 10.5q22 0 51.5 -2t59 -8.5t54.5 -19t37 -33.5q4 5 12.5 15t17.5 20.5t18 18t15 7.5q7 0 11 -5.5t5 -11.5l-2 -4q-38 -32 -70.5 -72.5t-51.5 -88.5zM789 535q0 -14 -14.5 -20.5t-25.5 -6.5q-5 0 -9 2.5t-4 7.5q0 4 3 11t8 13
t10.5 10.5t10.5 4.5q9 0 15 -7t6 -15z" />
    <glyph glyph-name="gdotaccent" unicode="&#x121;" 
d="M127 -64q-22 -50 -56 -108t-78.5 -108t-99 -83t-115.5 -33q-19 0 -37.5 5.5t-32.5 16t-23 26.5t-9 37q0 18 6.5 36t16.5 33q34 51 80.5 87t100.5 60t113 37.5t117 18.5q16 36 30.5 78.5t18.5 81.5q-12 -17 -32 -39.5t-44 -42.5t-49 -34.5t-46 -14.5q-12 0 -24 8t-12 22
q0 20 13 43.5t33 44t43 34t44 13.5q28 0 52 -21q8 22 23 37q13 -4 16.5 -19t3.5 -26q0 -39 -13.5 -83.5t-28.5 -80.5q22 2 43.5 2.5t43.5 0.5q11 0 37 -2t54 -6t52 -8.5t32 -8.5q6 -4 11.5 -11t5.5 -15q0 -6 -7 -6q-5 0 -14 2t-19.5 5t-20.5 6t-16 4q-36 8 -72 12t-73 4
q-17 0 -34 -1t-34 -4zM98 -65q-50 -6 -106 -19.5t-108 -37t-95.5 -57.5t-70.5 -81q-8 -14 -14.5 -29t-6.5 -32q0 -29 22 -41t47 -12q57 0 108 31t94 77t76 100t54 101zM126 121q-12 11 -31 11q-15 0 -36.5 -12.5t-41.5 -30.5t-34 -38t-14 -35q0 -2 3.5 -2.5t5.5 -0.5
q17 0 38.5 12t42.5 29t39 35.5t28 31.5zM174 270q0 -14 -14.5 -20.5t-25.5 -6.5q-5 0 -9 2.5t-4 7.5q0 4 3 11t8 13t10.5 10.5t10.5 4.5q9 0 15 -7t6 -15z" />
    <glyph glyph-name="uni0122" unicode="&#x122;" horiz-adv-x="989" 
d="M883 261q-6 2 -11 6.5t-5 10.5q0 10 7.5 23t17 26.5t17 26t7.5 21.5q0 16 -22.5 26.5t-52.5 16t-58.5 7.5t-40.5 2q-57 0 -112.5 -11t-109.5 -27q-32 -9 -80.5 -27t-102.5 -43t-108 -55.5t-97 -65t-70 -72.5t-27 -78q0 -22 14 -37t37 -25.5t50.5 -16.5t55.5 -8.5t52 -3.5
t39 -1q39 0 93 4.5t113.5 13t121.5 22t118.5 32t102.5 41t74 50.5q2 2 9 10.5t10 8.5q5 0 10 -6.5t5 -11.5t-6 -11l-10 -10q-35 -36 -68 -77.5t-67.5 -83.5t-71.5 -80t-79 -68t-90 -47.5t-105 -17.5q-64 0 -112.5 29.5t-74.5 89.5q-3 8 -8.5 23.5t-5.5 23.5q0 2 1 5t4 3
q7 0 12 -9t9 -20.5t7 -22.5t5 -16q21 -45 63.5 -64.5t90.5 -19.5q68 0 126 29.5t108.5 74t94 97.5t82.5 100q-57 -28 -126.5 -49.5t-143 -36t-146 -22t-135.5 -7.5q-20 0 -49 1.5t-60 5.5t-62 12.5t-55.5 22.5t-39.5 34t-15 49q0 42 27 81.5t70.5 75t97.5 67t108.5 57
t104 44t83.5 28.5q55 17 111.5 27.5t114.5 10.5q22 0 51.5 -2t59 -8.5t54.5 -19t37 -33.5q4 5 12.5 15t17.5 20.5t18 18t15 7.5q7 0 11 -5.5t5 -11.5l-2 -4q-38 -32 -70.5 -72.5t-51.5 -88.5zM479 -327q-15 -7 -23.5 -18t-13 -22t-6.5 -19t-3 -9q-9 0 -13 7t-4 15
q0 20 15 39.5t32 28.5q6 -1 12 -5t6 -11q0 -1 -1 -3t-1 -3z" />
    <glyph glyph-name="uni0123" unicode="&#x123;" 
d="M127 -64q-22 -50 -56 -108t-78.5 -108t-99 -83t-115.5 -33q-19 0 -37.5 5.5t-32.5 16t-23 26.5t-9 37q0 18 6.5 36t16.5 33q34 51 80.5 87t100.5 60t113 37.5t117 18.5q16 36 30.5 78.5t18.5 81.5q-12 -17 -32 -39.5t-44 -42.5t-49 -34.5t-46 -14.5q-12 0 -24 8t-12 22
q0 20 13 43.5t33 44t43 34t44 13.5q28 0 52 -21q8 22 23 37q13 -4 16.5 -19t3.5 -26q0 -39 -13.5 -83.5t-28.5 -80.5q22 2 43.5 2.5t43.5 0.5q11 0 37 -2t54 -6t52 -8.5t32 -8.5q6 -4 11.5 -11t5.5 -15q0 -6 -7 -6q-5 0 -14 2t-19.5 5t-20.5 6t-16 4q-36 8 -72 12t-73 4
q-17 0 -34 -1t-34 -4zM98 -65q-50 -6 -106 -19.5t-108 -37t-95.5 -57.5t-70.5 -81q-8 -14 -14.5 -29t-6.5 -32q0 -29 22 -41t47 -12q57 0 108 31t94 77t76 100t54 101zM126 121q-12 11 -31 11q-15 0 -36.5 -12.5t-41.5 -30.5t-34 -38t-14 -35q0 -2 3.5 -2.5t5.5 -0.5
q17 0 38.5 12t42.5 29t39 35.5t28 31.5zM-48 -372q-15 -7 -23.5 -18t-13 -22t-6.5 -19t-3 -9q-9 0 -13 7t-4 15q0 20 15 39.5t32 28.5q6 -1 12 -5t6 -11q0 -1 -1 -3t-1 -3z" />
    <glyph glyph-name="Hcircumflex" unicode="&#x124;" horiz-adv-x="1284" 
d="M1208 209q-16 -28 -29 -54.5t-24 -48.5q-25 -53 -42 -105.5t-25 -110.5q0 -6 -6 -6q-7 0 -11 6t-4 12q0 24 8 56.5t19.5 66t25 64.5t24.5 53q8 15 17.5 33.5t20.5 38.5q-30 4 -62.5 7t-63.5 4.5t-59.5 2t-51.5 1.5q-109 -149 -264.5 -224.5t-340.5 -75.5q-32 0 -77 4.5
t-90 15.5t-82.5 31t-55.5 51q-10 17 -10 33q0 30 28 54t74.5 42.5t108 32.5t128 23.5t133.5 16t126 10t105 5.5t70 2q9 19 28.5 44.5t43.5 47.5t50 37.5t49 15.5q17 0 29 -11.5t12 -28.5q0 -12 -5 -26t-12.5 -28.5t-16 -27.5t-15.5 -22q10 0 35 -1t57.5 -3t69 -5.5
t69.5 -8.5q15 26 32.5 52t35.5 49t37 41.5t37 29.5q3 2 11.5 6t12.5 4q7 0 12.5 -5t5.5 -12q0 -1 -0.5 -2t-0.5 -2q-2 -2 -3 -2q-22 -9 -42.5 -26t-40 -38.5t-37 -47t-33.5 -52.5q37 -7 61 -17t24 -24q0 -6 -6 -6q-2 0 -6 2q-35 17 -84 26zM815 228q-10 -23 -10 -45
q0 -17 5.5 -24t5.5 -14q0 -6 -6 -6t-11 7t-8.5 16t-5.5 18t-2 14q0 8 2 16.5t4 16.5q-24 -1 -68.5 -3t-101 -6t-121 -10t-128.5 -15.5t-122.5 -22t-103 -29.5t-71.5 -38.5t-27 -48.5q0 -20 17 -36t44 -27.5t59.5 -19t64.5 -12t58.5 -6.5t40.5 -2q180 0 324 69.5t258 208.5
q-24 0 -48.5 -0.5t-48.5 -0.5zM828 251q26 1 50.5 1h50.5q6 9 16.5 24t20.5 31.5t17.5 32.5t7.5 27q0 3 -4.5 4t-6.5 1q-18 0 -41 -13t-45 -32t-40 -39.5t-26 -36.5zM1274 501q-5 9 -9 18t-7 19q-19 0 -39.5 -15.5t-32.5 -28.5q-4 0 -6.5 3t-4.5 6q0 8 9.5 17t21.5 17
t24.5 13t20.5 5q5 0 11 -6.5t11.5 -15.5t9.5 -18t4 -13t-4 -6z" />
    <glyph glyph-name="hcircumflex" unicode="&#x125;" horiz-adv-x="332" 
d="M348 89q-15 -11 -39 -26.5t-50 -29.5t-51.5 -23.5t-44.5 -9.5q-15 0 -27 11t-12 27q0 11 4.5 22t10.5 21t10.5 19t4.5 17q0 5 -10 5q-23 0 -50 -16.5t-52 -40.5t-45 -50.5t-28 -46.5v-1q0 -4 -5 -4q-8 0 -11.5 8t-3.5 12q4 24 23 68t47 95.5t62.5 105t69.5 97t68 71.5
t59 28q5 0 10.5 -6t5.5 -11q0 -4 -5 -6q-27 -9 -49.5 -24.5t-41.5 -35t-35.5 -41.5t-32.5 -45q-34 -49 -63 -100t-55 -105q10 10 25 22.5t32 23.5t34.5 18t32.5 7q16 0 27 -11.5t11 -27.5q0 -11 -4.5 -21t-10.5 -20t-10.5 -19t-4.5 -17q0 -5 5.5 -7t9.5 -2q19 0 48 14
t57 31.5t48.5 31.5t23.5 14q5 0 9 -6t5 -11zM349 502q-5 9 -9 18t-7 19q-19 0 -39.5 -15.5t-32.5 -28.5q-4 0 -6.5 3t-4.5 6q0 8 9.5 17t21.5 17t24.5 13t20.5 5q5 0 11 -6.5t11.5 -15.5t9.5 -18t4 -13t-4 -6z" />
    <glyph glyph-name="Hbar" unicode="&#x126;" horiz-adv-x="1291" 
d="M1270 304q-14 -17 -27 -36.5t-24 -39.5q37 -7 61 -17t24 -24q0 -6 -6 -6q-2 0 -6 2q-35 17 -84 26q-16 -28 -29 -54.5t-24 -48.5q-25 -53 -42 -105.5t-25 -110.5q0 -6 -6 -6q-7 0 -11 6t-4 12q0 24 8 56.5t19.5 66t25 64.5t24.5 53q8 15 17.5 33.5t20.5 38.5
q-30 4 -62.5 7t-63.5 4.5t-59.5 2t-51.5 1.5q-109 -149 -264.5 -224.5t-340.5 -75.5q-32 0 -77 4.5t-90 15.5t-82.5 31t-55.5 51q-10 17 -10 33q0 30 28 54t74.5 42.5t108 32.5t128 23.5t133.5 16t126 10t105 5.5t70 2q9 19 28.5 44.5t43.5 47.5t50 37.5t49 15.5
q17 0 29 -11.5t12 -28.5q0 -5 -1 -11t-3 -13q-8 0 -14.5 -0.5t-13.5 -1.5q13 24 13 38q0 3 -4.5 4t-6.5 1q-18 0 -41 -13t-45 -32t-40 -39.5t-26 -36.5q26 1 50.5 1h50.5q5 8 14 20t18 26q7 2 13 3t13 2q2 0 3.5 0.5t3.5 0.5q-8 -15 -17 -29t-16 -24q10 0 35 -1t57.5 -3
t69 -5.5t69.5 -8.5q23 38 49 75q3 0 6.5 -0.5t7.5 -0.5zM815 228q-10 -23 -10 -45q0 -17 5.5 -24t5.5 -14q0 -6 -6 -6t-11 7t-8.5 16t-5.5 18t-2 14q0 8 2 16.5t4 16.5q-24 -1 -68.5 -3t-101 -6t-121 -10t-128.5 -15.5t-122.5 -22t-103 -29.5t-71.5 -38.5t-27 -48.5
q0 -20 17 -36t44 -27.5t59.5 -19t64.5 -12t58.5 -6.5t40.5 -2q180 0 324 69.5t258 208.5q-24 0 -48.5 -0.5t-48.5 -0.5zM1241 308q-26 3 -51 3.5t-51 0.5q-37 0 -73 -2.5t-72 -5.5q7 13 12 27q33 2 67 3t58 1h19t30.5 -0.5t37 -2t38.5 -3.5q-4 -5 -7.5 -10t-7.5 -11z
M1287 325q-8 2 -15.5 2.5t-15.5 1.5q19 25 38.5 45t39.5 31q3 2 11.5 6t12.5 4q7 0 12.5 -5t5.5 -12q0 -1 -0.5 -2t-0.5 -2q-2 -2 -3 -2q-23 -10 -44 -27t-41 -40zM961 298l-26 -4t-24 -2q-7 0 -12 5.5t-5 12.5t24.5 11.5t59.5 7.5zM1333 292q-17 1 -32.5 5t-30.5 7
q4 5 8 10.5t9 10.5q22 -5 36.5 -11t14.5 -16z" />
    <glyph glyph-name="hbar" unicode="&#x127;" horiz-adv-x="332" 
d="M348 89q-15 -11 -39 -26.5t-50 -29.5t-51.5 -23.5t-44.5 -9.5q-15 0 -27 11t-12 27q0 11 4.5 22t10.5 21t10.5 19t4.5 17q0 5 -10 5q-23 0 -50 -16.5t-52 -40.5t-45 -50.5t-28 -46.5v-1q0 -4 -5 -4q-8 0 -11.5 8t-3.5 12q3 19 16 51t32 70.5t44 81t52 83.5q-6 -1 -12 -1
h-11t-10 6t-5 11l4 6q25 3 50 3q22 32 45 60t45 49t42 33t37 12q5 0 10.5 -6t5.5 -11q0 -4 -5 -6q-51 -17 -85.5 -54t-64.5 -79q11 -2 20.5 -5.5t9.5 -11.5q0 -7 -7 -7q-9 0 -18.5 2t-18.5 2q-32 -48 -60 -97.5t-53 -100.5q10 10 25 22.5t32 23.5t34.5 18t32.5 7
q16 0 27 -11.5t11 -27.5q0 -11 -4.5 -21t-10.5 -20t-10.5 -19t-4.5 -17q0 -5 5.5 -7t9.5 -2q19 0 48 14t57 31.5t48.5 31.5t23.5 14q5 0 9 -6t5 -11z" />
    <glyph glyph-name="Itilde" unicode="&#x128;" horiz-adv-x="383" 
d="M72 -211q-5 0 -10 6t-5 11q0 2 5.5 6t13 8t14.5 7.5t9 5.5q13 9 30 28t33 41.5t30.5 44.5t23.5 36q22 36 47.5 82t47 96t35.5 99.5t14 92.5q0 34 -14 54t-51 20q-51 0 -95.5 -29t-77.5 -75t-51.5 -101.5t-18.5 -107.5q0 -14 2.5 -28t2.5 -28q0 -7 -6 -7q-8 0 -12 7.5
t-5.5 18t-2 20.5t-0.5 15q0 52 17 111.5t49.5 109.5t80 83.5t107.5 33.5q47 0 71.5 -32t24.5 -76q0 -37 -10 -78t-26 -82.5t-34.5 -80t-36.5 -70.5q-7 -13 -20.5 -36t-31.5 -49.5t-38 -54.5t-40 -50.5t-39 -37t-33 -14.5zM402 574q5 0 8.5 -4.5t3.5 -9.5q0 -9 -7 -17
t-17 -13.5t-21 -9t-18 -3.5q-11 0 -19 7.5t-13 17.5q-3 -2 -12 -9.5t-11 -7.5q-3 0 -7 3.5t-4 6.5q0 7 12 17t22 10q6 0 8.5 -4.5t4 -9.5t4 -9.5t9.5 -4.5q17 0 32.5 10t20.5 27z" />
    <glyph glyph-name="itilde" unicode="&#x129;" horiz-adv-x="208" 
d="M223 94q0 -5 -13 -14.5t-33.5 -20t-45 -21.5t-47 -20.5t-40.5 -15t-25 -5.5q-20 0 -31.5 14.5t-11.5 32.5q0 9 8 29t19.5 41t24 36.5t21.5 15.5q6 0 11 -6.5t5 -11.5q0 -2 -11 -14.5t-23.5 -29.5t-23.5 -36.5t-11 -35.5q0 -15 17 -15q21 0 52.5 14.5t62.5 32.5t53.5 32.5
t25.5 14.5q6 0 11 -5.5t5 -11.5zM174 300q5 0 8.5 -4.5t3.5 -9.5q0 -9 -7 -17t-17 -13.5t-21 -9t-18 -3.5q-11 0 -19 7.5t-13 17.5q-3 -2 -12 -9.5t-11 -7.5q-3 0 -7 3.5t-4 6.5q0 7 12 17t22 10q6 0 8.5 -4.5t4 -9.5t4 -9.5t9.5 -4.5q17 0 32.5 10t20.5 27z" />
    <glyph glyph-name="Imacron" unicode="&#x12a;" horiz-adv-x="383" 
d="M72 -211q-5 0 -10 6t-5 11q0 2 5.5 6t13 8t14.5 7.5t9 5.5q13 9 30 28t33 41.5t30.5 44.5t23.5 36q22 36 47.5 82t47 96t35.5 99.5t14 92.5q0 34 -14 54t-51 20q-51 0 -95.5 -29t-77.5 -75t-51.5 -101.5t-18.5 -107.5q0 -14 2.5 -28t2.5 -28q0 -7 -6 -7q-8 0 -12 7.5
t-5.5 18t-2 20.5t-0.5 15q0 52 17 111.5t49.5 109.5t80 83.5t107.5 33.5q47 0 71.5 -32t24.5 -76q0 -37 -10 -78t-26 -82.5t-34.5 -80t-36.5 -70.5q-7 -13 -20.5 -36t-31.5 -49.5t-38 -54.5t-40 -50.5t-39 -37t-33 -14.5zM298 533q25 3 50 3q5 0 15 -0.5t20 -2t17.5 -5.5
t7.5 -11t-7 -7q-9 0 -18.5 2t-18.5 2q-14 0 -27.5 -2t-27.5 -2q-5 0 -10 6t-5 11z" />
    <glyph glyph-name="imacron" unicode="&#x12b;" horiz-adv-x="208" 
d="M223 94q0 -5 -13 -14.5t-33.5 -20t-45 -21.5t-47 -20.5t-40.5 -15t-25 -5.5q-20 0 -31.5 14.5t-11.5 32.5q0 9 8 29t19.5 41t24 36.5t21.5 15.5q6 0 11 -6.5t5 -11.5q0 -2 -11 -14.5t-23.5 -29.5t-23.5 -36.5t-11 -35.5q0 -15 17 -15q21 0 52.5 14.5t62.5 32.5t53.5 32.5
t25.5 14.5q6 0 11 -5.5t5 -11.5zM23 283q25 3 50 3q5 0 15 -0.5t20 -2t17.5 -5.5t7.5 -11t-7 -7q-9 0 -18.5 2t-18.5 2q-14 0 -27.5 -2t-27.5 -2q-5 0 -10 6t-5 11z" />
    <glyph glyph-name="Iogonek" unicode="&#x12e;" horiz-adv-x="383" 
d="M261 -134q-17 -14 -41.5 -21.5t-45.5 -7.5q-15 0 -26 8q-22 -24 -41.5 -40t-34.5 -16q-5 0 -10 6t-5 11q0 2 5.5 6t13 8t14.5 7.5t9 5.5q13 9 30 28t33 41.5t30.5 44.5t23.5 36q22 36 47.5 82t47 96t35.5 99.5t14 92.5q0 34 -14 54t-51 20q-51 0 -95.5 -29t-77.5 -75
t-51.5 -101.5t-18.5 -107.5q0 -14 2.5 -28t2.5 -28q0 -7 -6 -7q-8 0 -12 7.5t-5.5 18t-2 20.5t-0.5 15q0 52 17 111.5t49.5 109.5t80 83.5t107.5 33.5q47 0 71.5 -32t24.5 -76q0 -37 -10 -78t-26 -82.5t-34.5 -80t-36.5 -70.5q-10 -18 -32.5 -54.5t-50.5 -75.5q3 1 8 1
t8.5 -4.5t3.5 -9.5l-4 -2q-13 -1 -28 -10.5t-22 -20.5q4 -1 11 -1q26 0 43 9t39 19q5 0 7.5 -3.5t4.5 -7.5z" />
    <glyph glyph-name="iogonek" unicode="&#x12f;" horiz-adv-x="208" 
d="M127 -13q-17 -14 -41.5 -21.5t-45.5 -7.5q-11 0 -22 5t-11 18q0 7 7 16q-17 2 -27.5 16t-10.5 31q0 9 8 29t19.5 41t24 36.5t21.5 15.5q6 0 11 -6.5t5 -11.5q0 -2 -11 -14.5t-23.5 -29.5t-23.5 -36.5t-11 -35.5q0 -15 17 -15q21 0 52.5 14.5t62.5 32.5t53.5 32.5
t25.5 14.5q6 0 11 -5.5t5 -11.5t-14.5 -16t-36 -21t-47.5 -22.5t-49 -20.5q0 -2 0.5 -3t0.5 -2l-4 -2q-13 -1 -28 -10.5t-22 -20.5q4 -1 11 -1q26 0 43 9t39 19q5 0 7.5 -3.5t4.5 -7.5zM129 223q-3 -3 -10 -9.5t-15 -13t-15.5 -12t-10.5 -5.5q-5 0 -10.5 5.5t-5.5 10.5
q0 3 7 9.5t15.5 13.5t16.5 12.5t11 5.5q6 0 11.5 -5.5t5.5 -11.5z" />
    <glyph glyph-name="Idotaccent" unicode="&#x130;" horiz-adv-x="383" 
d="M72 -211q-5 0 -10 6t-5 11q0 2 5.5 6t13 8t14.5 7.5t9 5.5q13 9 30 28t33 41.5t30.5 44.5t23.5 36q22 36 47.5 82t47 96t35.5 99.5t14 92.5q0 34 -14 54t-51 20q-51 0 -95.5 -29t-77.5 -75t-51.5 -101.5t-18.5 -107.5q0 -14 2.5 -28t2.5 -28q0 -7 -6 -7q-8 0 -12 7.5
t-5.5 18t-2 20.5t-0.5 15q0 52 17 111.5t49.5 109.5t80 83.5t107.5 33.5q47 0 71.5 -32t24.5 -76q0 -37 -10 -78t-26 -82.5t-34.5 -80t-36.5 -70.5q-7 -13 -20.5 -36t-31.5 -49.5t-38 -54.5t-40 -50.5t-39 -37t-33 -14.5zM362 537q0 -14 -14.5 -20.5t-25.5 -6.5q-5 0 -9 2.5
t-4 7.5q0 4 3 11t8 13t10.5 10.5t10.5 4.5q9 0 15 -7t6 -15z" />
    <glyph glyph-name="dotlessi" unicode="&#x131;" horiz-adv-x="208" 
d="M223 94q0 -5 -13 -14.5t-33.5 -20t-45 -21.5t-47 -20.5t-40.5 -15t-25 -5.5q-20 0 -31.5 14.5t-11.5 32.5q0 9 8 29t19.5 41t24 36.5t21.5 15.5q6 0 11 -6.5t5 -11.5q0 -2 -11 -14.5t-23.5 -29.5t-23.5 -36.5t-11 -35.5q0 -15 17 -15q21 0 52.5 14.5t62.5 32.5t53.5 32.5
t25.5 14.5q6 0 11 -5.5t5 -11.5z" />
    <glyph glyph-name="Jcircumflex" unicode="&#x134;" horiz-adv-x="918" 
d="M950 344q-28 -72 -57 -131t-64.5 -111t-81 -99.5t-106.5 -96.5q-85 -68 -185.5 -108t-209.5 -40q-22 0 -50 3t-53 13t-42 27.5t-17 46.5q0 16 7.5 32t19.5 30t26 26t26 21q37 27 81 44.5t91 27.5t94.5 14t92.5 4q54 0 106.5 -5.5t104.5 -16.5q36 37 64.5 76t52 81
t43 86.5t37.5 92.5l5 3q16 -2 16 -18zM715 7q-45 9 -91 13t-92 4q-60 0 -119.5 -7.5t-116.5 -24.5q-24 -7 -56.5 -21.5t-62.5 -35t-51 -46t-21 -54.5q0 -18 15.5 -29t36.5 -17t43 -7.5t35 -1.5q107 0 206.5 40.5t182.5 106.5q24 19 47.5 38t43.5 42zM129 85q-6 2 -9 5
q-17 16 -34.5 35.5t-32 42t-24 47t-9.5 48.5q0 42 27 71.5t70 50t96 33t106 19t99.5 8.5t75.5 2q38 0 93 -3.5t117 -10t127.5 -16.5t125.5 -23.5t109.5 -31t80.5 -37.5q4 -2 7 -6.5t3 -9.5q0 -7 -5 -7q-2 0 -20 6t-40 13.5t-42 14.5t-26 9q-254 80 -519 80q-28 0 -73 -2
t-96.5 -8t-104 -17.5t-95 -31t-69 -48t-26.5 -67.5q0 -32 12 -53.5t27.5 -38.5t31 -32t22.5 -35zM912 507q-5 9 -9 18t-7 19q-19 0 -39.5 -15.5t-32.5 -28.5q-4 0 -6.5 3t-4.5 6q0 8 9.5 17t21.5 17t24.5 13t20.5 5q5 0 11 -6.5t11.5 -15.5t9.5 -18t4 -13t-4 -6z" />
    <glyph glyph-name="jcircumflex" unicode="&#x135;" horiz-adv-x="134" 
d="M54 137q-16 -24 -30.5 -44t-27.5 -40.5t-25.5 -42.5t-24.5 -49q22 2 43.5 2.5t43.5 0.5q10 0 36 -2.5t55 -6t53.5 -7.5t30.5 -8q5 -4 11 -11.5t6 -14.5q0 -6 -6 -6q-14 0 -32.5 6t-32.5 9q-38 8 -76 13t-77 5q-17 0 -33.5 -1t-33.5 -4q-20 -45 -50.5 -102.5t-70 -108.5
t-88.5 -86t-106 -35q-38 0 -64 23t-26 62q0 19 6 36.5t15 33.5q27 48 68 82.5t90 58.5t102.5 38t105.5 20q25 53 53.5 103.5t66.5 95.5q17 0 20 -16zM-95 -68q-47 -8 -96.5 -22t-94.5 -37t-82.5 -55.5t-61.5 -76.5q-8 -15 -14 -31t-6 -33q0 -27 17 -39t42 -12q51 0 97 32.5
t84 80t67.5 100t47.5 93.5zM118 250q-5 9 -9 18t-7 19q-19 0 -39.5 -15.5t-32.5 -28.5q-4 0 -6.5 3t-4.5 6q0 8 9.5 17t21.5 17t24.5 13t20.5 5q5 0 11 -6.5t11.5 -15.5t9.5 -18t4 -13t-4 -6z" />
    <glyph glyph-name="uni0136" unicode="&#x136;" horiz-adv-x="1010" 
d="M1134 -106q-56 -28 -125 -37t-131 -9q-78 0 -162 20.5t-166.5 53.5t-159 75.5t-138.5 86.5q-22 -27 -42 -58t-20 -68q0 -6 -6 -6q-10 0 -13.5 9t-3.5 17q0 16 6.5 32.5t16 32t21 30.5t20.5 27q-7 6 -16.5 14t-18.5 18t-15.5 20t-6.5 20l4 6q11 -5 18.5 -11.5t15.5 -12.5
t19 -11t29 -9q8 10 23.5 27t33.5 37.5t37 42.5t34.5 43t25.5 38.5t10 28.5q0 9 -8 14t-19 7t-22 2.5t-17 0.5q-19 0 -50.5 -5t-67.5 -14t-73 -22.5t-66.5 -30.5t-48.5 -38t-19 -45q0 -8 4.5 -15.5t4.5 -15.5q0 -6 -5 -6q-6 0 -10.5 5.5t-8 13.5t-5 15.5t-1.5 12.5
q0 27 19 50t49.5 41.5t68 33t75 24.5t70.5 15t54 5q15 0 32 -2.5t31.5 -9t24 -18t9.5 -30.5q0 -18 -19.5 -47t-45 -60.5t-51 -59t-38.5 -42.5q17 -2 33.5 -3t33.5 -1q58 0 131 8t153 23t162.5 35.5t159.5 45.5t144 53.5t116 58.5q9 5 21 14t23 20t18.5 22.5t7.5 22.5
q0 4 -1.5 7.5t-1.5 7.5q0 6 6 6q9 0 13.5 -12.5t4.5 -19.5q0 -21 -18 -42t-46.5 -40.5t-63.5 -37t-69 -31.5t-63.5 -24.5t-46.5 -16.5q-75 -24 -154.5 -46.5t-160.5 -39.5t-162.5 -27t-160.5 -10q-24 0 -48 1.5t-48 6.5l-11 -14q61 -42 135 -82.5t153.5 -72.5t160.5 -52
t156 -20q64 0 127.5 12t123.5 33l1 1q15 -2 17 -17zM552 -124q-15 -7 -23.5 -18t-13 -22t-6.5 -19t-3 -9q-9 0 -13 7t-4 15q0 20 15 39.5t32 28.5q6 -1 12 -5t6 -11q0 -1 -1 -3t-1 -3z" />
    <glyph glyph-name="uni0137" unicode="&#x137;" horiz-adv-x="337" 
d="M-39 -41q-8 1 -11.5 7t-3.5 13q0 2 3 11t7 19.5t7.5 20.5t5.5 13q9 22 28 60.5t44.5 83t55.5 90t61 83t61 61t55 23.5q6 0 11.5 -5.5t5.5 -11.5q0 -5 -12 -8t-16 -5q-21 -8 -45.5 -31t-49.5 -54.5t-49.5 -68.5t-46 -73t-38.5 -68t-27 -53q12 11 27.5 24t33 24.5t36 19
t35.5 7.5q14 0 25.5 -9.5t11.5 -23.5q0 -15 -13.5 -25.5t-32 -17t-38 -9.5t-30.5 -3q-9 0 -14 1q3 -25 21 -40.5t43 -15.5q30 0 67.5 17.5t71.5 38.5t58.5 38.5t28.5 17.5q6 0 10 -4.5t4 -10.5t-25.5 -25t-61.5 -40t-76 -37.5t-69 -16.5q-38 0 -59 20t-32 55
q-20 -19 -36 -40.5t-27 -47.5zM58 76q9 0 24 3t30 8.5t27.5 13t15.5 16.5q-1 0 -3.5 1t-3.5 1q-22 0 -47.5 -15t-42.5 -28zM130 -61q-15 -7 -23.5 -18t-13 -22t-6.5 -19t-3 -9q-9 0 -13 7t-4 15q0 20 15 39.5t32 28.5q6 -1 12 -5t6 -11q0 -1 -1 -3t-1 -3z" />
    <glyph glyph-name="kgreenlandic" unicode="&#x138;" horiz-adv-x="337" 
d="M-39 -41q-7 2 -11 7.5t-4 12.5q0 14 11.5 44.5t29.5 67t41 75t46 70.5t44 52.5t36 20.5q6 0 12.5 -4t6.5 -11q0 -6 -10 -10l-15 -6q-8 -4 -16.5 -12t-17 -17.5t-16 -19.5t-12.5 -17h1q-22 -35 -42.5 -71.5t-37.5 -74.5q11 4 26 4q25 0 49.5 5t44 17t32 32t12.5 49l5 3
q8 -2 13.5 -10.5t5.5 -16.5q0 -34 -21.5 -54t-50 -30t-57 -12.5t-42.5 -2.5q11 -28 23.5 -42t44.5 -14q29 0 66.5 17.5t72 38.5t59 38.5t28.5 17.5q6 0 10 -4.5t4 -10.5t-25.5 -25t-61.5 -40t-76 -37.5t-69 -16.5q-44 0 -64.5 20t-31.5 60q-14 -20 -21.5 -43t-16.5 -46z" />
    <glyph glyph-name="Lacute" unicode="&#x139;" horiz-adv-x="724" 
d="M983 -149q-5 0 -9 3q-57 37 -123.5 59t-136 34t-140.5 15.5t-137 3.5q-53 0 -104.5 -3t-103.5 -10q-25 -23 -54.5 -42t-64.5 -19q-11 0 -25 3.5t-16 17.5q-19 -9 -28.5 -18t-14 -17.5t-6 -14.5t-5.5 -9q-15 3 -15 19q0 17 12 31t31.5 25t43 18.5t47 13t44.5 9.5t34 6
q28 29 60 75.5t67.5 99t73.5 106t78.5 96.5t82.5 70t86 27q15 0 34 -4.5t37.5 -12.5t34.5 -18.5t26 -22.5q2 3 9 11.5t15 17.5t15 16t10 7q6 0 11 -6t5 -12q0 -1 -0.5 -2t-0.5 -2q-9 -8 -22.5 -22t-26 -30.5t-21 -33t-8.5 -29.5q0 -2 0.5 -5t0.5 -6q0 -6 -5 -6
q-10 0 -13.5 9.5t-3.5 17.5q0 17 7.5 33t17.5 29q-23 20 -51.5 34t-60.5 14q-40 0 -79.5 -25.5t-78 -65.5t-74.5 -90.5t-69 -100t-62 -93.5t-53 -72q84 9 170 9q59 0 135.5 -4.5t154.5 -18t148.5 -37t117.5 -60.5q8 -6 8 -13zM178 -55q-26 -5 -50.5 -11t-48.5 -17
q5 -1 10.5 -1.5t10.5 -0.5q22 0 41.5 9t36.5 21zM699 497q-5 0 -8.5 4.5t-3.5 9.5q0 4 5 13.5t11.5 18.5t13.5 16t12 7t8.5 -3.5t3.5 -8.5q0 -3 -6 -9l-13.5 -13.5t-13.5 -16t-6 -15.5z" />
    <glyph glyph-name="lacute" unicode="&#x13a;" horiz-adv-x="244" 
d="M261 94q-6 -7 -22.5 -18.5t-39.5 -24.5t-48.5 -26t-49.5 -23t-43.5 -16.5t-29.5 -6.5q-23 0 -34 19.5t-11 39.5q0 22 15.5 61.5t40.5 85t57 92.5t65 85t64 62t54 24q6 0 10.5 -5.5t4.5 -11.5q0 -5 -8 -6.5t-11 -3.5q-22 -10 -51 -36t-59 -61.5t-59 -76.5t-51.5 -81.5
t-36.5 -77t-14 -60.5q0 -10 3 -19t16 -9q14 0 35.5 8t45.5 20.5t48.5 27t44.5 27t33 20.5t15 8q7 0 11 -5.5t5 -11.5zM229 491q-5 0 -8.5 4.5t-3.5 9.5q0 4 5 13.5t11.5 18.5t13.5 16t12 7t8.5 -3.5t3.5 -8.5q0 -3 -6 -9l-13.5 -13.5t-13.5 -16t-6 -15.5z" />
    <glyph glyph-name="uni013B" unicode="&#x13b;" horiz-adv-x="724" 
d="M983 -149q-5 0 -9 3q-57 37 -123.5 59t-136 34t-140.5 15.5t-137 3.5q-53 0 -104.5 -3t-103.5 -10q-25 -23 -54.5 -42t-64.5 -19q-11 0 -25 3.5t-16 17.5q-19 -9 -28.5 -18t-14 -17.5t-6 -14.5t-5.5 -9q-15 3 -15 19q0 17 12 31t31.5 25t43 18.5t47 13t44.5 9.5t34 6
q28 29 60 75.5t67.5 99t73.5 106t78.5 96.5t82.5 70t86 27q15 0 34 -4.5t37.5 -12.5t34.5 -18.5t26 -22.5q2 3 9 11.5t15 17.5t15 16t10 7q6 0 11 -6t5 -12q0 -1 -0.5 -2t-0.5 -2q-9 -8 -22.5 -22t-26 -30.5t-21 -33t-8.5 -29.5q0 -2 0.5 -5t0.5 -6q0 -6 -5 -6
q-10 0 -13.5 9.5t-3.5 17.5q0 17 7.5 33t17.5 29q-23 20 -51.5 34t-60.5 14q-40 0 -79.5 -25.5t-78 -65.5t-74.5 -90.5t-69 -100t-62 -93.5t-53 -72q84 9 170 9q59 0 135.5 -4.5t154.5 -18t148.5 -37t117.5 -60.5q8 -6 8 -13zM178 -55q-26 -5 -50.5 -11t-48.5 -17
q5 -1 10.5 -1.5t10.5 -0.5q22 0 41.5 9t36.5 21zM548 -89q-15 -7 -23.5 -18t-13 -22t-6.5 -19t-3 -9q-9 0 -13 7t-4 15q0 20 15 39.5t32 28.5q6 -1 12 -5t6 -11q0 -1 -1 -3t-1 -3z" />
    <glyph glyph-name="uni013C" unicode="&#x13c;" horiz-adv-x="244" 
d="M261 94q-6 -7 -22.5 -18.5t-39.5 -24.5t-48.5 -26t-49.5 -23t-43.5 -16.5t-29.5 -6.5q-23 0 -34 19.5t-11 39.5q0 22 15.5 61.5t40.5 85t57 92.5t65 85t64 62t54 24q6 0 10.5 -5.5t4.5 -11.5q0 -5 -8 -6.5t-11 -3.5q-22 -10 -51 -36t-59 -61.5t-59 -76.5t-51.5 -81.5
t-36.5 -77t-14 -60.5q0 -10 3 -19t16 -9q14 0 35.5 8t45.5 20.5t48.5 27t44.5 27t33 20.5t15 8q7 0 11 -5.5t5 -11.5zM105 -74q-15 -7 -23.5 -18t-13 -22t-6.5 -19t-3 -9q-9 0 -13 7t-4 15q0 20 15 39.5t32 28.5q6 -1 12 -5t6 -11q0 -1 -1 -3t-1 -3z" />
    <glyph glyph-name="Lcaron" unicode="&#x13d;" horiz-adv-x="724" 
d="M983 -149q-5 0 -9 3q-57 37 -123.5 59t-136 34t-140.5 15.5t-137 3.5q-53 0 -104.5 -3t-103.5 -10q-25 -23 -54.5 -42t-64.5 -19q-11 0 -25 3.5t-16 17.5q-19 -9 -28.5 -18t-14 -17.5t-6 -14.5t-5.5 -9q-15 3 -15 19q0 17 12 31t31.5 25t43 18.5t47 13t44.5 9.5t34 6
q28 29 60 75.5t67.5 99t73.5 106t78.5 96.5t82.5 70t86 27q15 0 34 -4.5t37.5 -12.5t34.5 -18.5t26 -22.5q2 3 9 11.5t15 17.5t15 16t10 7q6 0 11 -6t5 -12q0 -1 -0.5 -2t-0.5 -2q-9 -8 -22.5 -22t-26 -30.5t-21 -33t-8.5 -29.5q0 -2 0.5 -5t0.5 -6q0 -6 -5 -6
q-10 0 -13.5 9.5t-3.5 17.5q0 17 7.5 33t17.5 29q-23 20 -51.5 34t-60.5 14q-40 0 -79.5 -25.5t-78 -65.5t-74.5 -90.5t-69 -100t-62 -93.5t-53 -72q84 9 170 9q59 0 135.5 -4.5t154.5 -18t148.5 -37t117.5 -60.5q8 -6 8 -13zM178 -55q-26 -5 -50.5 -11t-48.5 -17
q5 -1 10.5 -1.5t10.5 -0.5q22 0 41.5 9t36.5 21zM754 558q9 0 12.5 -8t3.5 -16q0 -6 -5 -17.5t-12.5 -22.5t-16 -19t-15.5 -8q-6 0 -11.5 5.5t-5.5 11.5q0 3 7 8.5t15.5 14t15.5 20t7 26.5z" />
    <glyph glyph-name="lcaron" unicode="&#x13e;" horiz-adv-x="326" 
d="M261 94q-6 -7 -22.5 -18.5t-39.5 -24.5t-48.5 -26t-49.5 -23t-43.5 -16.5t-29.5 -6.5q-23 0 -34 19.5t-11 39.5q0 22 15.5 61.5t40.5 85t57 92.5t65 85t64 62t54 24q6 0 10.5 -5.5t4.5 -11.5q0 -5 -8 -6.5t-11 -3.5q-22 -10 -51 -36t-59 -61.5t-59 -76.5t-51.5 -81.5
t-36.5 -77t-14 -60.5q0 -10 3 -19t16 -9q14 0 35.5 8t45.5 20.5t48.5 27t44.5 27t33 20.5t15 8q7 0 11 -5.5t5 -11.5zM240 556q9 0 12.5 -8t3.5 -16q0 -6 -5 -17.5t-12.5 -22.5t-16 -19t-15.5 -8q-6 0 -11.5 5.5t-5.5 11.5q0 3 7 8.5t15.5 14t15.5 20t7 26.5z" />
    <glyph glyph-name="Ldot" unicode="&#x13f;" horiz-adv-x="724" 
d="M983 -149q-5 0 -9 3q-57 37 -123.5 59t-136 34t-140.5 15.5t-137 3.5q-53 0 -104.5 -3t-103.5 -10q-25 -23 -54.5 -42t-64.5 -19q-11 0 -25 3.5t-16 17.5q-19 -9 -28.5 -18t-14 -17.5t-6 -14.5t-5.5 -9q-15 3 -15 19q0 17 12 31t31.5 25t43 18.5t47 13t44.5 9.5t34 6
q28 29 60 75.5t67.5 99t73.5 106t78.5 96.5t82.5 70t86 27q15 0 34 -4.5t37.5 -12.5t34.5 -18.5t26 -22.5q2 3 9 11.5t15 17.5t15 16t10 7q6 0 11 -6t5 -12q0 -1 -0.5 -2t-0.5 -2q-9 -8 -22.5 -22t-26 -30.5t-21 -33t-8.5 -29.5q0 -2 0.5 -5t0.5 -6q0 -6 -5 -6
q-10 0 -13.5 9.5t-3.5 17.5q0 17 7.5 33t17.5 29q-23 20 -51.5 34t-60.5 14q-40 0 -79.5 -25.5t-78 -65.5t-74.5 -90.5t-69 -100t-62 -93.5t-53 -72q84 9 170 9q59 0 135.5 -4.5t154.5 -18t148.5 -37t117.5 -60.5q8 -6 8 -13zM178 -55q-26 -5 -50.5 -11t-48.5 -17
q5 -1 10.5 -1.5t10.5 -0.5q22 0 41.5 9t36.5 21zM742 173q0 -14 -14.5 -20.5t-25.5 -6.5q-5 0 -9 2.5t-4 7.5q0 4 3 11t8 13t10.5 10.5t10.5 4.5q9 0 15 -7t6 -15z" />
    <glyph glyph-name="ldot" unicode="&#x140;" horiz-adv-x="244" 
d="M261 94q-6 -7 -22.5 -18.5t-39.5 -24.5t-48.5 -26t-49.5 -23t-43.5 -16.5t-29.5 -6.5q-23 0 -34 19.5t-11 39.5q0 22 15.5 61.5t40.5 85t57 92.5t65 85t64 62t54 24q6 0 10.5 -5.5t4.5 -11.5q0 -5 -8 -6.5t-11 -3.5q-22 -10 -51 -36t-59 -61.5t-59 -76.5t-51.5 -81.5
t-36.5 -77t-14 -60.5q0 -10 3 -19t16 -9q14 0 35.5 8t45.5 20.5t48.5 27t44.5 27t33 20.5t15 8q7 0 11 -5.5t5 -11.5zM235 272q0 -14 -14.5 -20.5t-25.5 -6.5q-5 0 -9 2.5t-4 7.5q0 4 3 11t8 13t10.5 10.5t10.5 4.5q9 0 15 -7t6 -15z" />
    <glyph glyph-name="Lslash" unicode="&#x141;" horiz-adv-x="724" 
d="M983 -149q-5 0 -9 3q-57 37 -123.5 59t-136 34t-140.5 15.5t-137 3.5q-53 0 -104.5 -3t-103.5 -10q-25 -23 -54.5 -42t-64.5 -19q-11 0 -25 3.5t-16 17.5q-19 -9 -28.5 -18t-14 -17.5t-6 -14.5t-5.5 -9q-15 3 -15 19q0 17 12 31t31.5 25t43 18.5t47 13t44.5 9.5t34 6
q23 24 48.5 59t53 76.5t57 85.5t61.5 85q-20 -6 -36.5 -10.5t-23.5 -4.5q-5 0 -11.5 3.5t-8.5 8.5l4 8q16 6 45 15.5t61 17.5q48 56 97 93t101 37q15 0 34 -4.5t37.5 -12.5t34.5 -18.5t26 -22.5q2 3 9 11.5t15 17.5t15 16t10 7q6 0 11 -6t5 -12q0 -1 -0.5 -2t-0.5 -2
q-9 -8 -22.5 -22t-26 -30.5t-21 -33t-8.5 -29.5q0 -2 0.5 -5t0.5 -6q0 -6 -5 -6q-10 0 -13.5 9.5t-3.5 17.5q0 17 7.5 33t17.5 29q-23 20 -51.5 34t-60.5 14q-42 0 -83 -27t-80 -70q13 3 24 4.5t19 1.5q5 0 14 -2t9 -9q0 -5 -10.5 -9t-24 -6.5t-26 -4.5t-17.5 -3l-17 -5
q-33 -40 -64.5 -85.5t-60 -88.5t-53.5 -80.5t-46 -62.5q84 9 170 9q59 0 135.5 -4.5t154.5 -18t148.5 -37t117.5 -60.5q8 -6 8 -13zM178 -55q-26 -5 -50.5 -11t-48.5 -17q5 -1 10.5 -1.5t10.5 -0.5q22 0 41.5 9t36.5 21z" />
    <glyph glyph-name="lslash" unicode="&#x142;" horiz-adv-x="244" 
d="M261 94q-6 -7 -22.5 -18.5t-39.5 -24.5t-48.5 -26t-49.5 -23t-43.5 -16.5t-29.5 -6.5q-23 0 -34 19.5t-11 39.5q0 22 15.5 61.5t40.5 85t57 92.5t65 85t64 62t54 24q6 0 10.5 -5.5t4.5 -11.5q0 -5 -8 -6.5t-11 -3.5q-22 -10 -51 -36t-59 -61.5t-59 -76.5t-51.5 -81.5
t-36.5 -77t-14 -60.5q0 -10 3 -19t16 -9q14 0 35.5 8t45.5 20.5t48.5 27t44.5 27t33 20.5t15 8q7 0 11 -5.5t5 -11.5zM207 506q25 5 49 5.5t49 0.5q9 0 19 -0.5t18.5 -2.5t14 -6t5.5 -10q0 -7 -7 -7q-13 0 -25 1.5t-25 1.5q-22 0 -43.5 -3t-43.5 -3q-5 0 -10 6t-5 11z" />
    <glyph glyph-name="Nacute" unicode="&#x143;" horiz-adv-x="1277" 
d="M1172 -118q-11 4 -19 13t-13.5 20.5t-8 23.5t-2.5 23q0 37 17 79t43 85.5t55.5 86.5t55.5 81t43 69.5t17 52.5q0 8 -9 9.5t-14 1.5q-36 0 -82 -18t-97.5 -47t-104.5 -65.5t-101.5 -73.5t-89.5 -71t-68 -58q-5 -5 -20 -19t-31 -29t-29.5 -27t-16.5 -13q-16 3 -18 20
q23 16 54 47.5t59 69t47.5 75t19.5 66.5q0 28 -16 45.5t-39 26.5t-50 12t-48 3q-53 0 -105 -9t-103 -22q-25 -6 -69 -20t-95 -33t-103 -43.5t-94.5 -52t-69.5 -57.5t-27 -60q0 -18 10.5 -28.5t23.5 -18t23.5 -13.5t10.5 -16q0 -5 -5 -5q-1 0 -2.5 0.5t-2.5 0.5
q-14 6 -28 14.5t-25 20t-18.5 25.5t-7.5 30q0 32 27 63.5t69.5 60t95 54t103.5 45.5t95.5 34t71.5 21q54 14 107.5 22.5t108.5 8.5q27 0 59 -4.5t60 -16.5t47 -34t19 -56q0 -32 -13 -61t-30 -55q26 22 63 51.5t80 61t89.5 62.5t92 55t87.5 39t76 15q23 0 38.5 -9.5
t15.5 -35.5q0 -22 -17.5 -55t-43.5 -72.5t-56 -82.5t-56 -85.5t-43.5 -83t-17.5 -73.5q0 -16 4.5 -26.5t10.5 -17t10.5 -11.5t4.5 -10q0 -4 -5 -6zM1107 507q-5 0 -8.5 4.5t-3.5 9.5q0 4 5 13.5t11.5 18.5t13.5 16t12 7t8.5 -3.5t3.5 -8.5q0 -3 -6 -9l-13.5 -13.5t-13.5 -16
t-6 -15.5z" />
    <glyph glyph-name="nacute" unicode="&#x144;" horiz-adv-x="320" 
d="M-19 2q-8 0 -11.5 8.5t-3.5 14.5q0 13 8.5 34.5t21.5 43.5t28 39.5t27 21.5q6 -1 11 -6t5 -11q0 -3 -7 -11t-16 -18.5l-18 -21t-13 -16.5q10 9 23.5 21t28.5 22.5t30.5 17.5t29.5 7q16 0 27.5 -12.5t11.5 -28.5q0 -10 -3.5 -20.5t-8 -20t-8 -18.5t-3.5 -17t5.5 -9.5
t11.5 -1.5q17 0 39.5 9.5t45 23.5t43 28.5t33.5 25.5q1 0 1.5 0.5t1.5 0.5q5 0 10.5 -4.5t5.5 -9.5q0 -2 -0.5 -3t-0.5 -3q-14 -12 -35.5 -27.5t-45.5 -30t-47.5 -24t-42.5 -9.5q-18 0 -32.5 10.5t-14.5 30.5q0 10 3.5 20.5t8 21t8.5 20t4 17.5t-9 8q-16 0 -38.5 -13.5
t-44.5 -32.5t-40 -39.5t-24 -34.5zM140 237q-5 0 -8.5 4.5t-3.5 9.5q0 4 5 13.5t11.5 18.5t13.5 16t12 7t8.5 -3.5t3.5 -8.5q0 -3 -6 -9l-13.5 -13.5t-13.5 -16t-6 -15.5z" />
    <glyph glyph-name="uni0145" unicode="&#x145;" horiz-adv-x="1277" 
d="M1157 -118q-11 4 -19 13t-13.5 20.5t-8 23.5t-2.5 23q0 37 17 79t43 85.5t55.5 86.5t55.5 81t43 69.5t17 52.5q0 8 -9 9.5t-14 1.5q-36 0 -82 -18t-97.5 -47t-104.5 -65.5t-101.5 -73.5t-89.5 -71t-68 -58q-5 -5 -20 -19t-31 -29t-29.5 -27t-16.5 -13q-16 3 -18 20
q23 16 54 47.5t59 69t47.5 75t19.5 66.5q0 28 -16 45.5t-39 26.5t-50 12t-48 3q-53 0 -105 -9t-103 -22q-25 -6 -69 -20t-95 -33t-103 -43.5t-94.5 -52t-69.5 -57.5t-27 -60q0 -18 10.5 -28.5t23.5 -18t23.5 -13.5t10.5 -16q0 -5 -5 -5q-1 0 -2.5 0.5t-2.5 0.5
q-14 6 -28 14.5t-25 20t-18.5 25.5t-7.5 30q0 32 27 63.5t69.5 60t95 54t103.5 45.5t95.5 34t71.5 21q54 14 107.5 22.5t108.5 8.5q27 0 59 -4.5t60 -16.5t47 -34t19 -56q0 -32 -13 -61t-30 -55q26 22 63 51.5t80 61t89.5 62.5t92 55t87.5 39t76 15q23 0 38.5 -9.5
t15.5 -35.5q0 -22 -17.5 -55t-43.5 -72.5t-56 -82.5t-56 -85.5t-43.5 -83t-17.5 -73.5q0 -16 4.5 -26.5t10.5 -17t10.5 -11.5t4.5 -10q0 -4 -5 -6zM907 -35q-15 -7 -23.5 -18t-13 -22t-6.5 -19t-3 -9q-9 0 -13 7t-4 15q0 20 15 39.5t32 28.5q6 -1 12 -5t6 -11q0 -1 -1 -3
t-1 -3z" />
    <glyph glyph-name="uni0146" unicode="&#x146;" horiz-adv-x="320" 
d="M-19 2q-8 0 -11.5 8.5t-3.5 14.5q0 13 8.5 34.5t21.5 43.5t28 39.5t27 21.5q6 -1 11 -6t5 -11q0 -3 -7 -11t-16 -18.5l-18 -21t-13 -16.5q10 9 23.5 21t28.5 22.5t30.5 17.5t29.5 7q16 0 27.5 -12.5t11.5 -28.5q0 -10 -3.5 -20.5t-8 -20t-8 -18.5t-3.5 -17t5.5 -9.5
t11.5 -1.5q17 0 39.5 9.5t45 23.5t43 28.5t33.5 25.5q1 0 1.5 0.5t1.5 0.5q5 0 10.5 -4.5t5.5 -9.5q0 -2 -0.5 -3t-0.5 -3q-14 -12 -35.5 -27.5t-45.5 -30t-47.5 -24t-42.5 -9.5q-18 0 -32.5 10.5t-14.5 30.5q0 10 3.5 20.5t8 21t8.5 20t4 17.5t-9 8q-16 0 -38.5 -13.5
t-44.5 -32.5t-40 -39.5t-24 -34.5zM92 -42q-15 -7 -23.5 -18t-13 -22t-6.5 -19t-3 -9q-9 0 -13 7t-4 15q0 20 15 39.5t32 28.5q6 -1 12 -5t6 -11q0 -1 -1 -3t-1 -3z" />
    <glyph glyph-name="Ncaron" unicode="&#x147;" horiz-adv-x="1277" 
d="M1172 -118q-11 4 -19 13t-13.5 20.5t-8 23.5t-2.5 23q0 37 17 79t43 85.5t55.5 86.5t55.5 81t43 69.5t17 52.5q0 8 -9 9.5t-14 1.5q-36 0 -82 -18t-97.5 -47t-104.5 -65.5t-101.5 -73.5t-89.5 -71t-68 -58q-5 -5 -20 -19t-31 -29t-29.5 -27t-16.5 -13q-16 3 -18 20
q23 16 54 47.5t59 69t47.5 75t19.5 66.5q0 28 -16 45.5t-39 26.5t-50 12t-48 3q-53 0 -105 -9t-103 -22q-25 -6 -69 -20t-95 -33t-103 -43.5t-94.5 -52t-69.5 -57.5t-27 -60q0 -18 10.5 -28.5t23.5 -18t23.5 -13.5t10.5 -16q0 -5 -5 -5q-1 0 -2.5 0.5t-2.5 0.5
q-14 6 -28 14.5t-25 20t-18.5 25.5t-7.5 30q0 32 27 63.5t69.5 60t95 54t103.5 45.5t95.5 34t71.5 21q54 14 107.5 22.5t108.5 8.5q27 0 59 -4.5t60 -16.5t47 -34t19 -56q0 -32 -13 -61t-30 -55q26 22 63 51.5t80 61t89.5 62.5t92 55t87.5 39t76 15q23 0 38.5 -9.5
t15.5 -35.5q0 -22 -17.5 -55t-43.5 -72.5t-56 -82.5t-56 -85.5t-43.5 -83t-17.5 -73.5q0 -16 4.5 -26.5t10.5 -17t10.5 -11.5t4.5 -10q0 -4 -5 -6zM1068 541q6 0 9 -5t4.5 -11.5t3.5 -11.5t6 -5q5 0 14.5 4.5t19.5 10.5t18.5 12.5t13.5 9.5q4 0 7.5 -3.5t3.5 -7.5
q0 -3 -8.5 -10t-19.5 -14.5t-23 -13t-18 -5.5t-12 5t-11.5 12.5t-8.5 15.5t-3 13z" />
    <glyph glyph-name="ncaron" unicode="&#x148;" horiz-adv-x="320" 
d="M-19 2q-8 0 -11.5 8.5t-3.5 14.5q0 13 8.5 34.5t21.5 43.5t28 39.5t27 21.5q6 -1 11 -6t5 -11q0 -3 -7 -11t-16 -18.5l-18 -21t-13 -16.5q10 9 23.5 21t28.5 22.5t30.5 17.5t29.5 7q16 0 27.5 -12.5t11.5 -28.5q0 -10 -3.5 -20.5t-8 -20t-8 -18.5t-3.5 -17t5.5 -9.5
t11.5 -1.5q17 0 39.5 9.5t45 23.5t43 28.5t33.5 25.5q1 0 1.5 0.5t1.5 0.5q5 0 10.5 -4.5t5.5 -9.5q0 -2 -0.5 -3t-0.5 -3q-14 -12 -35.5 -27.5t-45.5 -30t-47.5 -24t-42.5 -9.5q-18 0 -32.5 10.5t-14.5 30.5q0 10 3.5 20.5t8 21t8.5 20t4 17.5t-9 8q-16 0 -38.5 -13.5
t-44.5 -32.5t-40 -39.5t-24 -34.5zM124 287q6 0 9 -5t4.5 -11.5t3.5 -11.5t6 -5q5 0 14.5 4.5t19.5 10.5t18.5 12.5t13.5 9.5q4 0 7.5 -3.5t3.5 -7.5q0 -3 -8.5 -10t-19.5 -14.5t-23 -13t-18 -5.5t-12 5t-11.5 12.5t-8.5 15.5t-3 13z" />
    <glyph glyph-name="napostrophe" unicode="&#x149;" horiz-adv-x="320" 
d="M-19 2q-8 0 -11.5 8.5t-3.5 14.5q0 13 8.5 34.5t21.5 43.5t28 39.5t27 21.5q6 -1 11 -6t5 -11q0 -3 -7 -11t-16 -18.5l-18 -21t-13 -16.5q10 9 23.5 21t28.5 22.5t30.5 17.5t29.5 7q16 0 27.5 -12.5t11.5 -28.5q0 -10 -3.5 -20.5t-8 -20t-8 -18.5t-3.5 -17t5.5 -9.5
t11.5 -1.5q17 0 39.5 9.5t45 23.5t43 28.5t33.5 25.5q1 0 1.5 0.5t1.5 0.5q5 0 10.5 -4.5t5.5 -9.5q0 -2 -0.5 -3t-0.5 -3q-14 -12 -35.5 -27.5t-45.5 -30t-47.5 -24t-42.5 -9.5q-18 0 -32.5 10.5t-14.5 30.5q0 10 3.5 20.5t8 21t8.5 20t4 17.5t-9 8q-16 0 -38.5 -13.5
t-44.5 -32.5t-40 -39.5t-24 -34.5zM33 276q-15 -7 -23.5 -18t-13 -22t-6.5 -19t-3 -9q-9 0 -13 7t-4 15q0 20 15 39.5t32 28.5q6 -1 12 -5t6 -11q0 -1 -1 -3t-1 -3z" />
    <glyph glyph-name="Omacron" unicode="&#x14c;" horiz-adv-x="886" 
d="M603 435q-60 -4 -125 -18.5t-128 -38t-121 -55.5t-104 -71q-14 -12 -29 -26.5t-28 -31.5t-21 -35.5t-8 -37.5q0 -33 29 -54t69 -32.5t81 -15.5t65 -4q49 0 110.5 8.5t126.5 25.5t129 42.5t119 59t96 75.5t61 93q4 11 4 24q0 21 -17 33t-40.5 18t-47.5 7t-39 1
q-33 0 -80 -5.5t-100 -15.5t-107.5 -25t-103.5 -34.5t-87.5 -43t-58.5 -50.5q-5 -8 -10 -16.5t-5 -18.5q0 -7 2 -13.5t4 -13.5l-4 -5q-12 5 -18 16.5t-6 24.5q0 21 13.5 39.5t34.5 35t47.5 31t53.5 26t51 20t40 13.5q79 26 160.5 42t165.5 16q23 0 53 -3t56.5 -12.5t45 -28
t18.5 -49.5q0 -32 -19.5 -62.5t-40.5 -53.5q-51 -54 -124 -96t-155 -70t-166 -42.5t-157 -14.5q-21 0 -49.5 2.5t-58.5 8t-59.5 15.5t-52.5 25.5t-37 37t-14 50.5q0 36 27 74t72.5 74t104 68.5t122.5 57t128.5 38.5t120.5 14q7 0 11 -5.5t4 -11.5zM644 553q25 3 50 3
q5 0 15 -0.5t20 -2t17.5 -5.5t7.5 -11t-7 -7q-9 0 -18.5 2t-18.5 2q-14 0 -27.5 -2t-27.5 -2q-5 0 -10 6t-5 11z" />
    <glyph glyph-name="omacron" unicode="&#x14d;" 
d="M105 147q15 -2 27 -20.5t13 -32.5q19 -13 45 -13q37 0 63 26q1 0 1.5 0.5t1.5 0.5q5 0 10.5 -4.5t5.5 -9.5q0 -10 -9.5 -16.5t-22.5 -11t-26.5 -6.5t-20.5 -2q-27 0 -54 11q-6 -14 -19 -27t-29 -23t-33.5 -16.5t-32.5 -6.5q-22 0 -38.5 13t-16.5 36q0 21 15.5 44.5t38 43
t48 32.5t45.5 13q16 0 16 -16q0 -4 -5 -6zM118 81q-10 8 -16.5 18t-6.5 23q0 5 0.5 11.5t4.5 11.5q-18 -8 -37.5 -18.5t-35.5 -24.5t-26 -30.5t-10 -36.5q0 -17 19 -17q14 0 30 5t31.5 14t28 20.5t18.5 23.5zM106 286q25 3 50 3q5 0 15 -0.5t20 -2t17.5 -5.5t7.5 -11t-7 -7
q-9 0 -18.5 2t-18.5 2q-14 0 -27.5 -2t-27.5 -2q-5 0 -10 6t-5 11z" />
    <glyph glyph-name="Obreve" unicode="&#x14e;" horiz-adv-x="886" 
d="M603 435q-60 -4 -125 -18.5t-128 -38t-121 -55.5t-104 -71q-14 -12 -29 -26.5t-28 -31.5t-21 -35.5t-8 -37.5q0 -33 29 -54t69 -32.5t81 -15.5t65 -4q49 0 110.5 8.5t126.5 25.5t129 42.5t119 59t96 75.5t61 93q4 11 4 24q0 21 -17 33t-40.5 18t-47.5 7t-39 1
q-33 0 -80 -5.5t-100 -15.5t-107.5 -25t-103.5 -34.5t-87.5 -43t-58.5 -50.5q-5 -8 -10 -16.5t-5 -18.5q0 -7 2 -13.5t4 -13.5l-4 -5q-12 5 -18 16.5t-6 24.5q0 21 13.5 39.5t34.5 35t47.5 31t53.5 26t51 20t40 13.5q79 26 160.5 42t165.5 16q23 0 53 -3t56.5 -12.5t45 -28
t18.5 -49.5q0 -32 -19.5 -62.5t-40.5 -53.5q-51 -54 -124 -96t-155 -70t-166 -42.5t-157 -14.5q-21 0 -49.5 2.5t-58.5 8t-59.5 15.5t-52.5 25.5t-37 37t-14 50.5q0 36 27 74t72.5 74t104 68.5t122.5 57t128.5 38.5t120.5 14q7 0 11 -5.5t4 -11.5zM750 546q5 0 7.5 -3.5
t2.5 -7.5q0 -5 -7.5 -11.5t-17.5 -13t-20 -11t-14 -4.5q-11 0 -21.5 8t-10.5 19q0 5 5.5 16t11.5 11q3 0 7.5 -3.5t4.5 -6.5q0 -4 -7 -10t-7 -14q0 -5 7 -5q13 0 31 13.5t28 22.5z" />
    <glyph glyph-name="obreve" unicode="&#x14f;" 
d="M105 147q15 -2 27 -20.5t13 -32.5q19 -13 45 -13q37 0 63 26q1 0 1.5 0.5t1.5 0.5q5 0 10.5 -4.5t5.5 -9.5q0 -10 -9.5 -16.5t-22.5 -11t-26.5 -6.5t-20.5 -2q-27 0 -54 11q-6 -14 -19 -27t-29 -23t-33.5 -16.5t-32.5 -6.5q-22 0 -38.5 13t-16.5 36q0 21 15.5 44.5t38 43
t48 32.5t45.5 13q16 0 16 -16q0 -4 -5 -6zM118 81q-10 8 -16.5 18t-6.5 23q0 5 0.5 11.5t4.5 11.5q-18 -8 -37.5 -18.5t-35.5 -24.5t-26 -30.5t-10 -36.5q0 -17 19 -17q14 0 30 5t31.5 14t28 20.5t18.5 23.5zM191 296q5 0 7.5 -3.5t2.5 -7.5q0 -5 -7.5 -11.5t-17.5 -13
t-20 -11t-14 -4.5q-11 0 -21.5 8t-10.5 19q0 5 5.5 16t11.5 11q3 0 7.5 -3.5t4.5 -6.5q0 -4 -7 -10t-7 -14q0 -5 7 -5q13 0 31 13.5t28 22.5z" />
    <glyph glyph-name="Ohungarumlaut" unicode="&#x150;" horiz-adv-x="886" 
d="M603 435q-60 -4 -125 -18.5t-128 -38t-121 -55.5t-104 -71q-14 -12 -29 -26.5t-28 -31.5t-21 -35.5t-8 -37.5q0 -33 29 -54t69 -32.5t81 -15.5t65 -4q49 0 110.5 8.5t126.5 25.5t129 42.5t119 59t96 75.5t61 93q4 11 4 24q0 21 -17 33t-40.5 18t-47.5 7t-39 1
q-33 0 -80 -5.5t-100 -15.5t-107.5 -25t-103.5 -34.5t-87.5 -43t-58.5 -50.5q-5 -8 -10 -16.5t-5 -18.5q0 -7 2 -13.5t4 -13.5l-4 -5q-12 5 -18 16.5t-6 24.5q0 21 13.5 39.5t34.5 35t47.5 31t53.5 26t51 20t40 13.5q79 26 160.5 42t165.5 16q23 0 53 -3t56.5 -12.5t45 -28
t18.5 -49.5q0 -32 -19.5 -62.5t-40.5 -53.5q-51 -54 -124 -96t-155 -70t-166 -42.5t-157 -14.5q-21 0 -49.5 2.5t-58.5 8t-59.5 15.5t-52.5 25.5t-37 37t-14 50.5q0 36 27 74t72.5 74t104 68.5t122.5 57t128.5 38.5t120.5 14q7 0 11 -5.5t4 -11.5zM700 541q-9 -3 -16 -10.5
t-12 -15.5l14 7t15 4t7 -4q-3 -2 -9.5 -6t-14.5 -8.5t-14.5 -7.5t-9.5 -3q-5 0 -8.5 4.5t-3.5 9.5q2 5 7 13t11.5 15.5t13 13t12.5 5.5q5 0 8 -4t3 -9zM709 469q-6 0 -8.5 6t-2.5 11t3.5 13.5t9 16.5t12 13.5t12.5 5.5q4 0 7.5 -4t3.5 -8l-2 -4q-12 -5 -21.5 -18.5
t-9.5 -27.5z" />
    <glyph glyph-name="ohungarumlaut" unicode="&#x151;" 
d="M105 147q15 -2 27 -20.5t13 -32.5q19 -13 45 -13q37 0 63 26q1 0 1.5 0.5t1.5 0.5q5 0 10.5 -4.5t5.5 -9.5q0 -10 -9.5 -16.5t-22.5 -11t-26.5 -6.5t-20.5 -2q-27 0 -54 11q-6 -14 -19 -27t-29 -23t-33.5 -16.5t-32.5 -6.5q-22 0 -38.5 13t-16.5 36q0 21 15.5 44.5t38 43
t48 32.5t45.5 13q16 0 16 -16q0 -4 -5 -6zM118 81q-10 8 -16.5 18t-6.5 23q0 5 0.5 11.5t4.5 11.5q-18 -8 -37.5 -18.5t-35.5 -24.5t-26 -30.5t-10 -36.5q0 -17 19 -17q14 0 30 5t31.5 14t28 20.5t18.5 23.5zM179 292q-9 -3 -16 -10.5t-12 -15.5l14 7t15 4t7 -4
q-3 -2 -9.5 -6t-14.5 -8.5t-14.5 -7.5t-9.5 -3q-5 0 -8.5 4.5t-3.5 9.5q2 5 7 13t11.5 15.5t13 13t12.5 5.5q5 0 8 -4t3 -9zM188 220q-6 0 -8.5 6t-2.5 11t3.5 13.5t9 16.5t12 13.5t12.5 5.5q4 0 7.5 -4t3.5 -8l-2 -4q-12 -5 -21.5 -18.5t-9.5 -27.5z" />
    <glyph glyph-name="OE" unicode="&#x152;" horiz-adv-x="1672" 
d="M1616 52q-22 -24 -60 -44t-84.5 -36t-98.5 -28.5t-102 -20.5t-94.5 -12t-76.5 -4q-46 0 -98.5 7.5t-97.5 28t-74.5 55.5t-29.5 90q0 16 3.5 31.5t9.5 30.5q-44 -31 -94.5 -55.5t-104.5 -43.5q0 -2 1 -4t1 -3q-3 -5 -6 -5q-7 0 -12 7q-79 -26 -159 -39.5t-151 -13.5
q-21 0 -49.5 2.5t-58.5 8t-59.5 15.5t-52.5 25.5t-37 37t-14 50.5q0 36 27 74t72.5 74t104 68.5t122.5 57t128.5 38.5t120.5 14q7 0 11 -5.5t4 -11.5l-4 -6q-60 -4 -125 -18.5t-128 -38t-121 -55.5t-104 -71q-14 -12 -29 -26.5t-28 -31.5t-21 -35.5t-8 -37.5q0 -33 29 -54
t69 -32.5t81 -15.5t65 -4q63 0 144.5 13.5t164.5 41.5q0 19 13 35.5t34 29t46.5 22.5t52 17.5t50.5 12t41 7.5q33 27 57.5 58.5t38.5 66.5q4 11 4 24q0 21 -17 33t-40.5 18t-47.5 7t-39 1q-33 0 -80 -5.5t-100 -15.5t-107.5 -25t-103.5 -34.5t-87.5 -43t-58.5 -50.5
q-5 -8 -10 -16.5t-5 -18.5q0 -7 2 -13.5t4 -13.5l-4 -5q-12 5 -18 16.5t-6 24.5q0 21 13.5 39.5t34.5 35t47.5 31t53.5 26t51 20t40 13.5q79 26 160.5 42t165.5 16q23 0 53 -3t56.5 -12.5t45 -28t18.5 -49.5q0 -20 -8 -39q57 40 126 72t141 55t141.5 35.5t126.5 12.5
q23 0 57 -3t66 -12.5t55 -28.5t23 -51q0 -30 -18.5 -57.5t-45.5 -50.5t-57.5 -41t-54.5 -29q8 -2 27 -7t38 -12.5t33.5 -17t14.5 -19.5q0 -5 -6 -5q-4 0 -8 3q-30 18 -62 28t-67 17q-24 -10 -50 -17t-52 -7q-9 0 -22.5 2.5t-26.5 7.5t-22.5 13t-10.5 19q-23 2 -45.5 2h-45.5
q-86 0 -170.5 -6t-169.5 -20q-16 -22 -26 -47.5t-10 -52.5q0 -48 27.5 -77t68 -44t86.5 -19.5t82 -4.5q140 0 269 36t256 93h3l4 -4zM1455 204q24 10 58.5 28t67 41.5t55.5 51.5t23 57q0 23 -22 35.5t-51.5 18.5t-59.5 7.5t-46 1.5q-69 0 -154 -18.5t-168.5 -51t-157 -77
t-121.5 -96.5q75 11 150 16.5t151 5.5q69 0 137.5 -4.5t137.5 -15.5zM622 81q44 16 85 36t77 44q-21 -5 -45.5 -12t-47 -16.5t-41.5 -22.5t-28 -29zM1417 190q-28 4 -56 6l-56 4q12 -13 23 -17t28 -4q16 0 31 3t30 8z" />
    <glyph glyph-name="oe" unicode="&#x153;" horiz-adv-x="491" 
d="M157 68l-11 4q-3 -17 -15 -31t-29 -24.5t-35.5 -16.5t-34.5 -6q-24 0 -43 13.5t-19 39.5q0 22 16 44t39 39t49.5 27.5t46.5 10.5q8 0 12 -6.5t4 -13.5l-5 -3q-18 -1 -42.5 -10.5t-46.5 -25t-37 -35t-15 -40.5q0 -10 8.5 -14t16.5 -4q14 0 32 5t34 14t28 22t15 29
q-11 9 -17 20.5t-6 25.5v2l5 4q13 -1 24 -17.5t14 -27.5l18 -7q6 16 20 31.5t32 27.5t37.5 19t37.5 7q15 0 29 -8.5t14 -25.5q0 -18 -13.5 -32.5t-32 -24.5t-39.5 -15.5t-36 -5.5q-16 0 -32 3q-1 -4 -1.5 -7t-0.5 -7q0 -11 10 -17.5t23.5 -9.5t27 -4t21.5 -1q69 0 123.5 25
t107.5 67q1 0 2 0.5t2 0.5q6 0 10.5 -6.5t4.5 -11.5q0 -1 -0.5 -2t-0.5 -2q-49 -45 -111.5 -69t-128.5 -24q-17 0 -36.5 2.5t-36 9.5t-28 20t-11.5 34v8zM312 146q-5 2 -15 2q-15 0 -30.5 -6t-30 -15t-27 -21t-19.5 -24q3 0 6.5 -0.5t6.5 -0.5q12 0 30.5 4.5t35.5 13
t29.5 20.5t13.5 27z" />
    <glyph glyph-name="Racute" unicode="&#x154;" horiz-adv-x="1051" 
d="M616 299q-22 -3 -47.5 -21t-50.5 -41.5t-46.5 -48.5t-34.5 -42q13 -6 25 -13t23 -16q36 3 96.5 12t131 23.5t145 34t139.5 43t113 51t67 58.5q2 6 2 11q0 15 -24 26t-61.5 19.5t-84.5 14t-93 8.5t-87 4.5t-66 1.5q-27 0 -72.5 -1.5t-101.5 -6t-118.5 -12.5t-123.5 -20
t-117 -29t-98.5 -40t-68 -52.5t-25.5 -66.5q0 -11 4 -21t4 -21q0 -6 -6 -6q-7 0 -11.5 7t-7.5 17t-4 19.5t-1 14.5q0 40 25.5 72t69 56.5t100.5 42t119.5 30t127 20t122 12t104.5 6t76 1.5q19 0 59 -1t89 -4t101 -10t94.5 -19t70 -30t27.5 -44q0 -24 -25 -46.5t-66.5 -43
t-96 -39t-113.5 -34.5t-118.5 -29.5t-111.5 -23.5t-92.5 -16.5t-61.5 -9.5q75 -53 144 -94.5t141 -70t150.5 -43t172.5 -14.5q6 0 17 1.5t22 1.5q13 0 22.5 -4t9.5 -15q0 -3 -4.5 -4t-10 -2t-11 -1h-7.5q-110 0 -196 15t-162.5 45t-151 75.5t-162.5 107.5q-23 -2 -46.5 -3.5
t-46.5 -1.5q-9 -12 -19 -28t-18 -33t-13.5 -34.5t-5.5 -32.5q0 -6 3 -11.5t3 -11.5t-5 -6q-6 0 -10.5 4.5t-7 11.5t-4 13.5t-1.5 11.5q0 32 16 63t32 57q-11 1 -22 8t-11 20q0 10 7 17t16.5 11.5t20.5 6t19 1.5h6.5t7.5 -1q13 17 36.5 45t51.5 54.5t56 46t50 19.5
q6 0 10.5 -5t4.5 -11zM458 115q-8 5 -16 9t-16 6q-4 -4 -7.5 -8.5t-6.5 -9.5q11 0 23 1t23 2zM396 135q-11 -1 -20.5 -6.5t-17.5 -13.5q5 -2 11 -2t12 -1q3 6 7 12t8 11zM777 483q-5 0 -8.5 4.5t-3.5 9.5q0 4 5 13.5t11.5 18.5t13.5 16t12 7t8.5 -3.5t3.5 -8.5q0 -3 -6 -9
l-13.5 -13.5t-13.5 -16t-6 -15.5z" />
    <glyph glyph-name="racute" unicode="&#x155;" horiz-adv-x="232" 
d="M220 157q-5 -2 -9.5 -2h-9.5q-19 0 -45 4.5t-43 13.5q-5 -13 -17 -42t-27.5 -59t-32.5 -53t-32 -23t-21 14.5t-6 26.5q0 7 5 24.5t13 35.5t16.5 31.5t16.5 13.5q6 0 11 -5t5 -11q-4 -13 -12 -23.5t-15.5 -21.5t-13.5 -24t-6 -31q0 -2 0.5 -3.5t0.5 -3.5q14 11 29.5 34
t30 50t27 53.5t20.5 43.5l4 3q15 -7 26.5 -11.5t22 -7t22.5 -3.5t29 -1q5 0 9 -6t5 -11zM93 227q-5 0 -8.5 4.5t-3.5 9.5q0 4 5 13.5t11.5 18.5t13.5 16t12 7t8.5 -3.5t3.5 -8.5q0 -3 -6 -9l-13.5 -13.5t-13.5 -16t-6 -15.5z" />
    <glyph glyph-name="uni0156" unicode="&#x156;" horiz-adv-x="1051" 
d="M616 299q-22 -3 -47.5 -21t-50.5 -41.5t-46.5 -48.5t-34.5 -42q13 -6 25 -13t23 -16q36 3 96.5 12t131 23.5t145 34t139.5 43t113 51t67 58.5q2 6 2 11q0 15 -24 26t-61.5 19.5t-84.5 14t-93 8.5t-87 4.5t-66 1.5q-27 0 -72.5 -1.5t-101.5 -6t-118.5 -12.5t-123.5 -20
t-117 -29t-98.5 -40t-68 -52.5t-25.5 -66.5q0 -11 4 -21t4 -21q0 -6 -6 -6q-7 0 -11.5 7t-7.5 17t-4 19.5t-1 14.5q0 40 25.5 72t69 56.5t100.5 42t119.5 30t127 20t122 12t104.5 6t76 1.5q19 0 59 -1t89 -4t101 -10t94.5 -19t70 -30t27.5 -44q0 -24 -25 -46.5t-66.5 -43
t-96 -39t-113.5 -34.5t-118.5 -29.5t-111.5 -23.5t-92.5 -16.5t-61.5 -9.5q75 -53 144 -94.5t141 -70t150.5 -43t172.5 -14.5q6 0 17 1.5t22 1.5q13 0 22.5 -4t9.5 -15q0 -3 -4.5 -4t-10 -2t-11 -1h-7.5q-110 0 -196 15t-162.5 45t-151 75.5t-162.5 107.5q-23 -2 -46.5 -3.5
t-46.5 -1.5q-9 -12 -19 -28t-18 -33t-13.5 -34.5t-5.5 -32.5q0 -6 3 -11.5t3 -11.5t-5 -6q-6 0 -10.5 4.5t-7 11.5t-4 13.5t-1.5 11.5q0 32 16 63t32 57q-11 1 -22 8t-11 20q0 10 7 17t16.5 11.5t20.5 6t19 1.5h6.5t7.5 -1q13 17 36.5 45t51.5 54.5t56 46t50 19.5
q6 0 10.5 -5t4.5 -11zM458 115q-8 5 -16 9t-16 6q-4 -4 -7.5 -8.5t-6.5 -9.5q11 0 23 1t23 2zM396 135q-11 -1 -20.5 -6.5t-17.5 -13.5q5 -2 11 -2t12 -1q3 6 7 12t8 11zM451 -239q-7 0 -11.5 6.5t-4.5 13.5t6.5 20.5t15.5 27t18.5 23.5t15.5 10q5 0 10 -5.5t5 -12.5
q0 -5 -8 -14t-17.5 -19.5t-17.5 -22.5t-8 -23z" />
    <glyph glyph-name="uni0157" unicode="&#x157;" horiz-adv-x="232" 
d="M220 157q-5 -2 -9.5 -2h-9.5q-19 0 -45 4.5t-43 13.5q-5 -13 -17 -42t-27.5 -59t-32.5 -53t-32 -23t-21 14.5t-6 26.5q0 7 5 24.5t13 35.5t16.5 31.5t16.5 13.5q6 0 11 -5t5 -11q-4 -13 -12 -23.5t-15.5 -21.5t-13.5 -24t-6 -31q0 -2 0.5 -3.5t0.5 -3.5q14 11 29.5 34
t30 50t27 53.5t20.5 43.5l4 3q15 -7 26.5 -11.5t22 -7t22.5 -3.5t29 -1q5 0 9 -6t5 -11zM75 -78q-5 0 -8.5 4.5t-3.5 9.5q0 4 5 13.5t11.5 18.5t13.5 16t12 7t8.5 -3.5t3.5 -8.5q0 -3 -6 -9l-13.5 -13.5t-13.5 -16t-6 -15.5z" />
    <glyph glyph-name="Rcaron" unicode="&#x158;" horiz-adv-x="1051" 
d="M616 299q-22 -3 -47.5 -21t-50.5 -41.5t-46.5 -48.5t-34.5 -42q13 -6 25 -13t23 -16q36 3 96.5 12t131 23.5t145 34t139.5 43t113 51t67 58.5q2 6 2 11q0 15 -24 26t-61.5 19.5t-84.5 14t-93 8.5t-87 4.5t-66 1.5q-27 0 -72.5 -1.5t-101.5 -6t-118.5 -12.5t-123.5 -20
t-117 -29t-98.5 -40t-68 -52.5t-25.5 -66.5q0 -11 4 -21t4 -21q0 -6 -6 -6q-7 0 -11.5 7t-7.5 17t-4 19.5t-1 14.5q0 40 25.5 72t69 56.5t100.5 42t119.5 30t127 20t122 12t104.5 6t76 1.5q19 0 59 -1t89 -4t101 -10t94.5 -19t70 -30t27.5 -44q0 -24 -25 -46.5t-66.5 -43
t-96 -39t-113.5 -34.5t-118.5 -29.5t-111.5 -23.5t-92.5 -16.5t-61.5 -9.5q75 -53 144 -94.5t141 -70t150.5 -43t172.5 -14.5q6 0 17 1.5t22 1.5q13 0 22.5 -4t9.5 -15q0 -3 -4.5 -4t-10 -2t-11 -1h-7.5q-110 0 -196 15t-162.5 45t-151 75.5t-162.5 107.5q-23 -2 -46.5 -3.5
t-46.5 -1.5q-9 -12 -19 -28t-18 -33t-13.5 -34.5t-5.5 -32.5q0 -6 3 -11.5t3 -11.5t-5 -6q-6 0 -10.5 4.5t-7 11.5t-4 13.5t-1.5 11.5q0 32 16 63t32 57q-11 1 -22 8t-11 20q0 10 7 17t16.5 11.5t20.5 6t19 1.5h6.5t7.5 -1q13 17 36.5 45t51.5 54.5t56 46t50 19.5
q6 0 10.5 -5t4.5 -11zM458 115q-8 5 -16 9t-16 6q-4 -4 -7.5 -8.5t-6.5 -9.5q11 0 23 1t23 2zM396 135q-11 -1 -20.5 -6.5t-17.5 -13.5q5 -2 11 -2t12 -1q3 6 7 12t8 11zM732 549q6 0 9 -5t4.5 -11.5t3.5 -11.5t6 -5q5 0 14.5 4.5t19.5 10.5t18.5 12.5t13.5 9.5
q4 0 7.5 -3.5t3.5 -7.5q0 -3 -8.5 -10t-19.5 -14.5t-23 -13t-18 -5.5t-12 5t-11.5 12.5t-8.5 15.5t-3 13z" />
    <glyph glyph-name="rcaron" unicode="&#x159;" horiz-adv-x="232" 
d="M220 157q-5 -2 -9.5 -2h-9.5q-19 0 -45 4.5t-43 13.5q-5 -13 -17 -42t-27.5 -59t-32.5 -53t-32 -23t-21 14.5t-6 26.5q0 7 5 24.5t13 35.5t16.5 31.5t16.5 13.5q6 0 11 -5t5 -11q-4 -13 -12 -23.5t-15.5 -21.5t-13.5 -24t-6 -31q0 -2 0.5 -3.5t0.5 -3.5q14 11 29.5 34
t30 50t27 53.5t20.5 43.5l4 3q15 -7 26.5 -11.5t22 -7t22.5 -3.5t29 -1q5 0 9 -6t5 -11zM91 292q6 0 9 -5t4.5 -11.5t3.5 -11.5t6 -5q5 0 14.5 4.5t19.5 10.5t18.5 12.5t13.5 9.5q4 0 7.5 -3.5t3.5 -7.5q0 -3 -8.5 -10t-19.5 -14.5t-23 -13t-18 -5.5t-12 5t-11.5 12.5
t-8.5 15.5t-3 13z" />
    <glyph glyph-name="Sacute" unicode="&#x15a;" horiz-adv-x="827" 
d="M868 227q-6 1 -11 5.5t-5 11.5q0 4 12.5 8.5t32 10.5t41.5 14.5t41.5 20t32 26t12.5 33.5q0 20 -21.5 34t-54.5 23.5t-73.5 15.5t-79 8.5t-69.5 3.5t-46 1q-110 0 -218.5 -12t-214.5 -41q-24 -6 -60 -19t-70 -32t-58.5 -43.5t-24.5 -54.5q0 -28 30 -47.5t79.5 -33.5
t112.5 -24.5t129 -19t129 -16.5t112.5 -18.5t79.5 -25t30 -34.5q0 -18 -22.5 -31t-57 -22t-76.5 -15t-81.5 -9t-71 -4t-45.5 -1q-35 0 -78.5 2t-87.5 9t-84 20.5t-67 35.5q-7 5 -7 14q0 5 5 5q2 0 4 -1l4 -2q68 -38 143 -49.5t158 -11.5q12 0 42 1.5t68 4.5t79 8t75 13
t56 18t22 24q0 8 -23 15.5t-60 15t-84.5 14t-96.5 12.5t-95 11.5t-81 11.5q-27 4 -71 13t-86 25.5t-72.5 41.5t-30.5 61q0 34 24.5 60.5t59 46t72.5 32.5t64 21q108 30 218.5 42t222.5 12q19 0 54 -1t76.5 -5t84 -11.5t77.5 -21t57 -33t22 -46.5q0 -26 -20 -45.5t-48.5 -34
t-58.5 -24.5t-49 -16zM732 489q-5 0 -8.5 4.5t-3.5 9.5q0 4 5 13.5t11.5 18.5t13.5 16t12 7t8.5 -3.5t3.5 -8.5q0 -3 -6 -9l-13.5 -13.5t-13.5 -16t-6 -15.5z" />
    <glyph glyph-name="sacute" unicode="&#x15b;" horiz-adv-x="236" 
d="M62 29q8 -11 16.5 -23t8.5 -26q0 -18 -12 -32t-29.5 -23t-37 -13.5t-34.5 -4.5q-20 0 -36.5 10.5t-16.5 32.5q0 13 12 27.5t28.5 26.5t34.5 21.5t29 14.5q-11 10 -22 22.5t-11 27.5q0 11 11 20.5t26.5 16.5t31.5 11t25 4q6 0 11 -5.5t5 -11.5q0 -2 -14 -5.5t-30.5 -9
t-30.5 -13.5t-14 -18q0 -3 3.5 -7.5t8 -9t9.5 -9t7 -5.5q16 8 42.5 19t54.5 21t54.5 17t43.5 7q5 0 10 -4t5 -10q0 -3 -4.5 -4.5t-10.5 -2.5t-11.5 -2t-7.5 -1q-41 -8 -79 -25zM47 22q-9 -6 -27 -15.5t-35 -21t-30 -24t-13 -24.5q0 -5 8.5 -6t11.5 -1q12 0 29.5 4t34 11.5
t28 18.5t11.5 26q0 10 -5.5 17.5t-12.5 14.5zM129 225q-5 0 -8.5 4.5t-3.5 9.5q0 4 5 13.5t11.5 18.5t13.5 16t12 7t8.5 -3.5t3.5 -8.5q0 -3 -6 -9l-13.5 -13.5t-13.5 -16t-6 -15.5z" />
    <glyph glyph-name="Scircumflex" unicode="&#x15c;" horiz-adv-x="827" 
d="M868 227q-6 1 -11 5.5t-5 11.5q0 4 12.5 8.5t32 10.5t41.5 14.5t41.5 20t32 26t12.5 33.5q0 20 -21.5 34t-54.5 23.5t-73.5 15.5t-79 8.5t-69.5 3.5t-46 1q-110 0 -218.5 -12t-214.5 -41q-24 -6 -60 -19t-70 -32t-58.5 -43.5t-24.5 -54.5q0 -28 30 -47.5t79.5 -33.5
t112.5 -24.5t129 -19t129 -16.5t112.5 -18.5t79.5 -25t30 -34.5q0 -18 -22.5 -31t-57 -22t-76.5 -15t-81.5 -9t-71 -4t-45.5 -1q-35 0 -78.5 2t-87.5 9t-84 20.5t-67 35.5q-7 5 -7 14q0 5 5 5q2 0 4 -1l4 -2q68 -38 143 -49.5t158 -11.5q12 0 42 1.5t68 4.5t79 8t75 13
t56 18t22 24q0 8 -23 15.5t-60 15t-84.5 14t-96.5 12.5t-95 11.5t-81 11.5q-27 4 -71 13t-86 25.5t-72.5 41.5t-30.5 61q0 34 24.5 60.5t59 46t72.5 32.5t64 21q108 30 218.5 42t222.5 12q19 0 54 -1t76.5 -5t84 -11.5t77.5 -21t57 -33t22 -46.5q0 -26 -20 -45.5t-48.5 -34
t-58.5 -24.5t-49 -16zM769 504q-5 9 -9 18t-7 19q-19 0 -39.5 -15.5t-32.5 -28.5q-4 0 -6.5 3t-4.5 6q0 8 9.5 17t21.5 17t24.5 13t20.5 5q5 0 11 -6.5t11.5 -15.5t9.5 -18t4 -13t-4 -6z" />
    <glyph glyph-name="scircumflex" unicode="&#x15d;" horiz-adv-x="236" 
d="M62 29q8 -11 16.5 -23t8.5 -26q0 -18 -12 -32t-29.5 -23t-37 -13.5t-34.5 -4.5q-20 0 -36.5 10.5t-16.5 32.5q0 13 12 27.5t28.5 26.5t34.5 21.5t29 14.5q-11 10 -22 22.5t-11 27.5q0 11 11 20.5t26.5 16.5t31.5 11t25 4q6 0 11 -5.5t5 -11.5q0 -2 -14 -5.5t-30.5 -9
t-30.5 -13.5t-14 -18q0 -3 3.5 -7.5t8 -9t9.5 -9t7 -5.5q16 8 42.5 19t54.5 21t54.5 17t43.5 7q5 0 10 -4t5 -10q0 -3 -4.5 -4.5t-10.5 -2.5t-11.5 -2t-7.5 -1q-41 -8 -79 -25zM47 22q-9 -6 -27 -15.5t-35 -21t-30 -24t-13 -24.5q0 -5 8.5 -6t11.5 -1q12 0 29.5 4t34 11.5
t28 18.5t11.5 26q0 10 -5.5 17.5t-12.5 14.5zM182 242q-5 9 -9 18t-7 19q-19 0 -39.5 -15.5t-32.5 -28.5q-4 0 -6.5 3t-4.5 6q0 8 9.5 17t21.5 17t24.5 13t20.5 5q5 0 11 -6.5t11.5 -15.5t9.5 -18t4 -13t-4 -6z" />
    </font>
</defs>
</svg>
